<svg id="airtransmission" xmlns="http://www.w3.org/2000/svg" width="60" height="71.04" viewBox="0 0 60 71.04">
  <ellipse id="Ellipse_58" data-name="Ellipse 58" cx="29.549" cy="29.549" rx="29.549" ry="29.549" transform="translate(0.901 11.941)" fill="#d1454b"/>
  <g id="Group_253" data-name="Group 253" transform="translate(0 0)">
    <path id="Path_564" data-name="Path 564" d="M347.16,116.055h35.853s3.193-26.72-1.527-29.326-26.791-2.061-31.683.164S347.16,116.055,347.16,116.055Z" transform="translate(-336.829 -45.404)" fill="#e6b56f"/>
    <path id="Path_565" data-name="Path 565" d="M348.875,74.952a.294.294,0,0,1-.2-.082c-.032-.029-3.127-3.036-.993-8.326a40.988,40.988,0,0,1,2.059-4.308,16.105,16.105,0,0,0,2.277-6.874.3.3,0,0,1,.329-.263.3.3,0,0,1,.263.329,16.8,16.8,0,0,1-2.343,7.088,40.451,40.451,0,0,0-2.032,4.25c-1.984,4.919.82,7.644.848,7.671a.3.3,0,0,1-.2.515Z" transform="translate(-336.887 -39.254)" fill="#3e2d4a"/>
    <ellipse id="Ellipse_59" data-name="Ellipse 59" cx="4.097" cy="4.097" rx="4.097" ry="4.097" transform="translate(23.708)" fill="#3e2d4a"/>
    <path id="Path_566" data-name="Path 566" d="M348.91,72.091s1.022,2.558,5.856,3.778,8.8-.277,12.485,1.364,9.271.245,10.467-1.265,2.226-19.116-.543-22.278-18.209-6.74-21.841-3.531S346.9,69.957,348.91,72.091Z" transform="translate(-337.198 -37.979)" fill="#3e2d4a"/>
    <path id="Path_567" data-name="Path 567" d="M380,58.293A13.5,13.5,0,0,1,366,71.28c-7.452-.279-14.368-6.88-14.089-14.332s6.605-12.862,14.057-12.582S380.28,50.841,380,58.293Z" transform="translate(-337.911 -37.044)" fill="#3e2d4a"/>
    <path id="Path_568" data-name="Path 568" d="M374.812,75.847s.876,10.515,0,11.684-6.426.292-7.887,0-2.044-11.684-1.168-11.684S374.643,73.5,374.812,75.847Z" transform="translate(-340.676 -43.308)" fill="#df9f85"/>
    <path id="Path_569" data-name="Path 569" d="M356.366,58.4s.554,16.39,11.636,17.1,11.069-22.385,7.059-24.582S354.317,49.136,356.366,58.4Z" transform="translate(-338.794 -38.167)" fill="#df9f85"/>
    <path id="Path_570" data-name="Path 570" d="M372.693,65.035s2.117,5.044,1.572,5.379a3.235,3.235,0,0,1-2.568-.1C371.268,69.947,371.828,64.471,372.693,65.035Z" transform="translate(-341.953 -41.29)" fill="#c05c5d"/>
    <path id="Path_571" data-name="Path 571" d="M364.493,49.623s-3.973,1.922-4.729,5.529-.365,12.842-4.574,12.419C355.19,67.571,347.038,49.292,364.493,49.623Z" transform="translate(-338.196 -38.127)" fill="#3e2d4a"/>
    <path id="Path_572" data-name="Path 572" d="M370.027,49.5c-.361.258,4.1.248,6.645,3.337s3.154,10.809,3.548,10.953,1.967-9.567-.826-12.483S372.078,48.036,370.027,49.5Z" transform="translate(-341.635 -37.93)" fill="#3e2d4a"/>
    <path id="Path_573" data-name="Path 573" d="M366.007,80.271a9.887,9.887,0,0,0,8.788.16s.348,2.752,0,3.387-7.438,1.087-8.834-2.04C365.961,81.778,365.6,80.135,366.007,80.271Z" transform="translate(-340.773 -44.431)" fill="#c05c5d"/>
    <path id="Path_574" data-name="Path 574" d="M381.429,67.768s.871-4.11,2.324-2.665.095,5.745-1.356,6.148S380.613,69.89,381.429,67.768Z" transform="translate(-343.896 -41.249)" fill="#df9f85"/>
    <path id="Path_575" data-name="Path 575" d="M358.708,66.912s-.751-4.171-2.705-2.853-.606,5.719,1.189,6.244S359.557,69.1,358.708,66.912Z" transform="translate(-338.557 -41.045)" fill="#df9f85"/>
    <path id="Path_576" data-name="Path 576" d="M375.8,62.009s1.84-1.235,3.2.114c1.194,1.187-1.328.39-2.2.652S374.752,63.089,375.8,62.009Z" transform="translate(-342.743 -40.569)" fill="#3e2d4a"/>
    <path id="Path_577" data-name="Path 577" d="M368.886,62.35s-1.763-1.341-3.2-.074c-1.261,1.114,1.3.467,2.156.781S369.87,63.49,368.886,62.35Z" transform="translate(-340.676 -40.619)" fill="#3e2d4a"/>
    <path id="Path_578" data-name="Path 578" d="M366.469,70.887l-.137,0a3.593,3.593,0,1,1,.137,0Zm-.006-6.781a3.192,3.192,0,0,0-.117,6.381l.122,0a3.192,3.192,0,0,0,.117-6.381Z" transform="translate(-340.169 -41.025)" fill="#fffcf6"/>
    <path id="Path_579" data-name="Path 579" d="M362.3,67.893a.2.2,0,0,1-.076-.015l-3-1.245a.2.2,0,1,1,.152-.367l3,1.245a.2.2,0,0,1-.075.382Z" transform="translate(-339.391 -41.548)" fill="#fffcf6"/>
    <path id="Path_580" data-name="Path 580" d="M369.309,50.642s-.45,6.364,2,7.17,7.179.726,7.469-.246-4.669-8.791-8.227-10.045c-6.241-2.2-11.93,7-11.217,9.448s8.148,1.446,9.291,1.133S369.081,52.4,369.309,50.642Z" transform="translate(-339.427 -37.626)" fill="#3e2d4a"/>
    <path id="Path_581" data-name="Path 581" d="M371.858,68.254a.2.2,0,0,1-.015-.4l2.021-.154a.2.2,0,0,1,.214.183.2.2,0,0,1-.184.213l-2.021.154Z" transform="translate(-341.976 -41.847)" fill="#fffcf6"/>
    <path id="Path_582" data-name="Path 582" d="M365.473,43.445a.3.3,0,0,1-.136-.033,3.651,3.651,0,0,1-2.108-2.541c-.46-2.36,1.687-4.893,1.778-5a.3.3,0,0,1,.453.388c-.021.024-2.052,2.424-1.646,4.5a3.089,3.089,0,0,0,1.8,2.124.3.3,0,0,1-.137.562Z" transform="translate(-340.228 -35.277)" fill="#3e2d4a"/>
    <path id="Path_583" data-name="Path 583" d="M371.945,44.379a.3.3,0,0,1-.192-.526c.025-.021,2.423-2.055,2.364-4.168a3.091,3.091,0,0,0-1.423-2.391.3.3,0,0,1,.357-.477,3.654,3.654,0,0,1,1.662,2.853c.066,2.4-2.469,4.55-2.577,4.64A.3.3,0,0,1,371.945,44.379Z" transform="translate(-341.973 -35.481)" fill="#3e2d4a"/>
    <path id="Path_584" data-name="Path 584" d="M383.933,77.093a.3.3,0,0,1-.166-.546,6.076,6.076,0,0,0,2.481-5.612,41.352,41.352,0,0,0-.965-4.646,29.6,29.6,0,0,1-1.261-8.719.3.3,0,0,1,.316-.278.3.3,0,0,1,.278.317,29.168,29.168,0,0,0,1.245,8.538,41.768,41.768,0,0,1,.979,4.716,6.674,6.674,0,0,1-2.742,6.18A.3.3,0,0,1,383.933,77.093Z" transform="translate(-344.439 -39.705)" fill="#3e2d4a"/>
    <path id="Path_585" data-name="Path 585" d="M384.8,59.9a.265.265,0,0,1-.042,0,.3.3,0,0,1-.253-.336c.65-4.615-.648-8.276-3.859-10.882a13.672,13.672,0,0,0-5.046-2.55.3.3,0,1,1,.129-.581c.11.024,10.992,2.564,9.365,14.1A.3.3,0,0,1,384.8,59.9Z" transform="translate(-342.739 -37.288)" fill="#3e2d4a"/>
    <path id="Path_586" data-name="Path 586" d="M373.347,78.12a3.1,3.1,0,0,1-1.1-.2.3.3,0,0,1,.23-.55,2.3,2.3,0,0,0,1.7-.024.3.3,0,1,1,.265.533A2.428,2.428,0,0,1,373.347,78.12Z" transform="translate(-342.058 -43.824)" fill="#c05c5d"/>
    <path id="Path_587" data-name="Path 587" d="M357.918,69.581a.3.3,0,0,1-.285-.384,3.3,3.3,0,0,0-.849-3.289.3.3,0,0,1,.4-.444A3.852,3.852,0,0,1,358.2,69.37.3.3,0,0,1,357.918,69.581Z" transform="translate(-338.895 -41.371)" fill="#c05c5d"/>
    <path id="Path_588" data-name="Path 588" d="M382.694,69.888h-.021a.3.3,0,0,1-.276-.318,4.2,4.2,0,0,1,1.375-2.908.3.3,0,0,1,.371.466,3.674,3.674,0,0,0-1.152,2.484A.3.3,0,0,1,382.694,69.888Z" transform="translate(-344.184 -41.619)" fill="#c05c5d"/>
    <path id="Path_589" data-name="Path 589" d="M357.595,87.823s10.256,9.1,15.973,6.73,7.406-7.943,4.532-8.8S353.1,84.258,357.595,87.823Z" transform="translate(-338.958 -45.424)" fill="#df9f85"/>
    <path id="Path_590" data-name="Path 590" d="M374.034,76.265a.3.3,0,0,1-.1-.018c-.933-.338-1.395-.751-1.411-1.261-.029-.835,1.247-1.421,1.393-1.484a.3.3,0,0,1,.24.545c-.425.188-1.049.61-1.038.92.008.223.388.493,1.019.721a.3.3,0,0,1-.1.578Z" transform="translate(-342.153 -43.035)" fill="#c05c5d"/>
    <path id="Path_591" data-name="Path 591" d="M367.691,68.8a.4.4,0,0,1-.263-.1c-1.33-1.175-2.256-.87-2.294-.857a.4.4,0,0,1-.508-.235.4.4,0,0,1,.226-.507c.055-.022,1.384-.514,3.1,1a.4.4,0,0,1-.263.695Z" transform="translate(-340.523 -41.704)" fill="#3e2d4a"/>
    <path id="Path_592" data-name="Path 592" d="M377.212,68.893a.4.4,0,0,1-.263-.694c1.72-1.52,3.046-1.027,3.1-1a.4.4,0,0,1-.283.742c-.048-.016-.971-.311-2.293.858A.4.4,0,0,1,377.212,68.893Z" transform="translate(-343.036 -41.723)" fill="#3e2d4a"/>
    <path id="Path_593" data-name="Path 593" d="M404.691,76.672,397.162,74.5l-2.2,2.849-5.325-.562,6.275,3.075,2.191-3.582Z" transform="translate(-345.673 -43.245)" fill="#3e2d4a"/>
    <path id="Path_594" data-name="Path 594" d="M398.1,70.338l-4.755.074-.774,2.044-3.19.618,4.187.672.636-2.467Z" transform="translate(-345.621 -42.389)" fill="#3e2d4a"/>
    <path id="Path_595" data-name="Path 595" d="M377.768,70.25l-.137,0a3.594,3.594,0,1,1,.137,0Zm0-6.781a3.192,3.192,0,0,0-.117,6.381l.122,0a3.192,3.192,0,0,0,.117-6.381Z" transform="translate(-342.493 -40.894)" fill="#fffcf6"/>
    <path id="Path_596" data-name="Path 596" d="M364.136,100.669a110.387,110.387,0,0,0,11.309-16.8c2.067-3.8,5.937-4.719,6.078-4.186s-2.249,2.755-2.249,2.755,3.185-2.348,3.7-1.582-2.084,3.091-2.084,3.091,2.319-1.342,3.3-.779-2.742,1.277-2.671,3.233c1.081,30.056-13.094,27.714-13.094,27.714Z" transform="translate(-340.428 -44.283)" fill="#df9f85"/>
    <path id="Path_597" data-name="Path 597" d="M371.66,94.91a.3.3,0,0,1-.276-.411c3.469-8.494,5.6-9.735,5.692-9.783a.3.3,0,0,1,.289.521c-.04.025-2.1,1.33-5.43,9.487A.3.3,0,0,1,371.66,94.91Z" transform="translate(-341.914 -45.34)" fill="#c05c5d"/>
    <path id="Path_598" data-name="Path 598" d="M354.824,107.479l-20.468,1.631s-.687-9.8,2.266-14.858S347.8,86.9,349.181,86.62,354.824,107.479,354.824,107.479Z" transform="translate(-334.287 -45.738)" fill="#e6b56f"/>
    <path id="Path_599" data-name="Path 599" d="M389.184,86.782s5.249.524,6.669,7.5c.908,4.463.86,22.138.86,22.138h-9.262Z" transform="translate(-345.224 -45.772)" fill="#e6b56f"/>
    <path id="Path_600" data-name="Path 600" d="M357.212,102.947s8.75,14.333,5.708,14.73-18.53,1.589-22.7,0-6.295-3.554-5.765-7.927c.967-7.98,2.828-14.535,3.938-12.649C344.038,106.688,357.212,102.947,357.212,102.947Z" transform="translate(-334.305 -47.828)" fill="#e6b56f"/>
    <path id="Path_601" data-name="Path 601" d="M359.09,103.326c-5.781,0-11.017-5.734-11.237-5.978a.4.4,0,0,1,.59-.532c.052.057,5.221,5.716,10.647,5.716a.4.4,0,0,1,0,.794Z" transform="translate(-337.057 -47.81)" fill="#db9055"/>
    <path id="Path_602" data-name="Path 602" d="M390.768,117.443h-.009a.4.4,0,0,1-.388-.406c0-.1.238-10.194,0-14.721-.225-4.252-1.325-5.206-1.336-5.216a.4.4,0,0,1-.065-.554.392.392,0,0,1,.543-.079c.143.1,1.406,1.159,1.651,5.808.24,4.557,0,14.679,0,14.78A.4.4,0,0,1,390.768,117.443Z" transform="translate(-345.52 -47.749)" fill="#db9055"/>
  </g>
</svg>
