<svg xmlns="http://www.w3.org/2000/svg" width="455" height="290.778" viewBox="0 0 455 290.778">
  <g id="child_learning" data-name="child learning" transform="translate(-50.934)">
    <g id="Layer_2" data-name="Layer 2" transform="translate(50.934)">
      <g id="Layer_2-2" data-name="Layer 2">
        <path id="Path_5552" data-name="Path 5552" d="M417.34,3.169c0,1.749,1.893,3.166,4.2,3.166s4.2-1.416,4.2-3.166S423.86,0,421.539,0,417.34,1.42,417.34,3.169Z" transform="translate(-309.19)" fill="#866358"/>
        <path id="Path_5553" data-name="Path 5553" d="M358.7,127.024,326.44,42.489l.22-.231L361.8,5.551l5.839-1.621,10.663,18.3-1.424.473L366.8,5.414l-4.018,1.117L328.144,42.712,360.19,126.7Z" transform="translate(-252.71 -2.442)" fill="#866358"/>
        <path id="Path_5554" data-name="Path 5554" d="M438.793,69.359c-4.184-11.625-7.547-24.261,5.468-29.8,8.63-3.669,27.1,14.075,30.63,25.68Z" transform="translate(-320.196 -24.273)" fill="#ede0c5"/>
        <path id="Path_5555" data-name="Path 5555" d="M422.4,5.543a2.06,2.06,0,0,0,2.272,1.723c1.25,0,2.272-.757,2.272-1.723s-1.022-1.723-2.272-1.723A2.057,2.057,0,0,0,422.4,5.543Z" transform="translate(-312.334 -2.374)" fill="#f5ecd8"/>
        <path id="Path_5556" data-name="Path 5556" d="M321.71,102.065c0,1.348,1.446,2.439,3.234,2.439s3.234-1.091,3.234-2.439-1.45-2.435-3.234-2.435S321.71,100.721,321.71,102.065Z" transform="translate(-249.771 -61.904)" fill="#866358"/>
        <path id="Path_5557" data-name="Path 5557" d="M325.6,103.885c0,.735.788,1.325,1.761,1.325s1.757-.591,1.757-1.325-.788-1.325-1.757-1.325S325.6,103.154,325.6,103.885Z" transform="translate(-252.188 -63.725)" fill="#f5ecd8"/>
        <path id="Path_5558" data-name="Path 5558" d="M401.615,334.546h36.559S412.763,318.9,406.28,321.838,401.615,334.546,401.615,334.546Z" transform="translate(-299.274 -199.744)" fill="#f5ecd8"/>
        <path id="Path_5559" data-name="Path 5559" d="M416.543,331.886c-5.01-2.4-8.9-5.366-11.178-8.236-5.426,3.385-3.787,12.231-3.787,12.231H429.6A43.8,43.8,0,0,1,416.543,331.886Z" transform="translate(-299.252 -201.098)" fill="#dfcfae"/>
        <path id="Path_5560" data-name="Path 5560" d="M494,355.546h1.715l-.451-.276C494.856,355.361,494.432,355.452,494,355.546Z" transform="translate(-356.823 -220.745)" fill="#dfcfae"/>
        <path id="Path_5561" data-name="Path 5561" d="M449.045,60.974c-5.244-8.425-5.6-17.062-1.549-21.867a6.907,6.907,0,0,0-3.219.454c-13.03,5.544-9.667,18.179-5.483,29.8l15.563-1.776A35.649,35.649,0,0,1,449.045,60.974Z" transform="translate(-320.199 -24.278)" fill="#dfcfae"/>
        <path id="Path_5562" data-name="Path 5562" d="M485.75,47.45s11.193,6.6,18.891,21.962l-7.35.822S493.066,57.125,485.75,47.45Z" transform="translate(-351.697 -29.483)" fill="#fdf5e4"/>
        <path id="Path_5563" data-name="Path 5563" d="M441.953,89.819l5.055-.682s-7.906-12.5-8.3-15.347C438.712,73.79,437.8,78.97,441.953,89.819Z" transform="translate(-322.417 -45.849)" fill="#f5ecd8"/>
        <path id="Path_5564" data-name="Path 5564" d="M445.453,31.3l10.462-3.2L445.04,20.74l.367,3.544Z" transform="translate(-326.402 -12.887)" fill="#866358"/>
        <path id="Path_5565" data-name="Path 5565" d="M247.838,195.21s-1.337,4.764-7.46,7.153l-.379.625a13.2,13.2,0,0,0,9.02-7.539Z" transform="translate(-199.001 -121.292)" fill="#994b4b"/>
        <path id="Path_5566" data-name="Path 5566" d="M257.571,234.87c-.265,1.795-1.371,2.651-2.651,2.2l.81.53a3.4,3.4,0,0,0,3.086-2.295Z" transform="translate(-208.272 -145.935)" fill="#994b4b"/>
        <path id="Path_5567" data-name="Path 5567" d="M211.964,348.48H208.62l.916,5.468h1.06Z" transform="translate(-179.504 -216.526)" fill="#6b4141"/>
        <path id="Path_5568" data-name="Path 5568" d="M278.27,348.48H282l-1.3,5.468h-1.056Z" transform="translate(-222.78 -216.526)" fill="#6b4141"/>
        <rect id="Rectangle_1140" data-name="Rectangle 1140" width="27.104" height="2.715" transform="translate(30.408 132.954)" fill="#6b4141"/>
        <path id="Path_5569" data-name="Path 5569" d="M222.231,259.254l-3.268-1.363c4.135-7.02-.481-2.8-2.363-7.327-.591-1.424.193-3.063.757-4.256.133-.28.307-.64.379-.852a4.459,4.459,0,0,0-.712-.239A2.691,2.691,0,0,1,214.9,243.6a5.163,5.163,0,0,1,.254-2.817,4.424,4.424,0,0,0,.28-1.863.379.379,0,0,0-.242-.17,6.125,6.125,0,0,0-2.651.326c-1.912.466-3.787.473-5.119-1.019-1.636-1.844-3.071-6.816-4.745-5.384l-.223-.307c2.12-2.2,3.749,3.177,5.513,5.169.867.981,2.707.53,4.332.133a6.515,6.515,0,0,1,3.23-.3,1.571,1.571,0,0,1,.981.878,4.715,4.715,0,0,1-.2,2.988,4.577,4.577,0,0,0-.288,1.818c.144.42.625.583,1.291.757s1.371.379,1.621,1.174c.379,1.193-1.8,3.593-1.242,4.923C218.66,252.295,227.006,249.515,222.231,259.254Z" transform="translate(-175.67 -144.06)" fill="#994b4b"/>
        <path id="Path_5570" data-name="Path 5570" d="M235.2,247.509a10.408,10.408,0,0,1,3.078-7.338c4.479-4.018,7.308,4.373,16.661-1.651l.155.348c-9.648,6.21-12.439-.837-16.1,2.45a8.84,8.84,0,0,0-2.6,6.115Z" transform="translate(-196.015 -148.203)" fill="#994b4b"/>
        <path id="Path_5571" data-name="Path 5571" d="M227.923,214.875c-2.688-1.1-4.923-4.014-4.923-6.479,0-8.111,12.166-6.168,7.573-14.609l.413-.318c5.165,9.508-6.8,8.293-6.8,14.9,0,1.844,1.961,4.256,4.139,5.161Z" transform="translate(-188.439 -120.211)" fill="#994b4b"/>
        <path id="Path_5572" data-name="Path 5572" d="M203.72,295.958l.9,22.03h31.853l2.1-22.629Z" transform="translate(-176.459 -183.52)" fill="#d8abab"/>
        <path id="Path_5573" data-name="Path 5573" d="M235.683,295.418a23.984,23.984,0,0,1-.466,5.68c-1.465,7.774-2.961,13.529-16.127,13.529-8.13,0-12.136-2.465-14.01-6.225l.379,9.576h31.853l2.1-22.629Z" transform="translate(-177.304 -183.514)" fill="#c69191"/>
        <path id="Path_5574" data-name="Path 5574" d="M164.2,224.179c-.939,3.787-10.75,7.744-18.9,6.308s-15.559-10.3-13.09-13.492,25.067-.655,26.885,3.264C159.093,220.263,164.97,221.066,164.2,224.179Z" transform="translate(-131.726 -133.93)" fill="#bedb45"/>
        <path id="Path_5575" data-name="Path 5575" d="M211.333,167.5c-4.339,2.552-14.624,1.038-15.828-6.865s14.893-10.057,28.517-6.786c0,0,18.5-6.384,27.846,2.155,3.45,3.15,1.269,5.748-6.611,4.79,0,0-1.469,3.991-9.466,3.832C231.966,167.976,217.343,170.611,211.333,167.5Z" transform="translate(-171.315 -94.168)" fill="#bedb45"/>
        <path id="Path_5576" data-name="Path 5576" d="M259.161,217.86c-3.756-1.84-10.084-6.308-1.4-9.9s30.452-7.9,34.393-1.439-9.216,7.573-12.689,7.425C279.729,215.463,265.037,220.734,259.161,217.86Z" transform="translate(-207.325 -126.252)" fill="#bedb45"/>
        <path id="Path_5577" data-name="Path 5577" d="M206.5,303.58s.083,10.186,3.692,10.087,3.366-10.087,3.366-10.087Z" transform="translate(-178.186 -188.627)" fill="#edbcbc"/>
        <path id="Path_5578" data-name="Path 5578" d="M228.61,303.58s.034,2.942,1.469,2.916,1.337-2.916,1.337-2.916Z" transform="translate(-191.924 -188.627)" fill="#edbcbc"/>
        <path id="Path_5579" data-name="Path 5579" d="M238.016,297.15H203.77l.034,1.7H238.05Z" transform="translate(-176.49 -184.632)" fill="#c69191"/>
        <rect id="Rectangle_1141" data-name="Rectangle 1141" width="36.211" height="1.855" transform="translate(26.511 111.48)" fill="#edbcbc"/>
        <path id="Path_5580" data-name="Path 5580" d="M160.854,226.807a2.272,2.272,0,0,0-.591-.727c-.693,3.5-7.088,5.884-14.768,5.392a24.117,24.117,0,0,1-10.936-3.1,19.854,19.854,0,0,0,12.473,8.667c8.149,1.435,17.96-2.514,18.9-6.308C166.731,227.61,160.854,226.807,160.854,226.807Z" transform="translate(-133.487 -140.473)" fill="#a7c138"/>
        <path id="Path_5581" data-name="Path 5581" d="M212.3,248.262c-1.537,2.113-3.374.64-1.806-1.435S214.94,244.627,212.3,248.262Z" transform="translate(-180.299 -152.462)" fill="#a7c138"/>
        <path id="Path_5582" data-name="Path 5582" d="M197.462,217.7c-1.7-.757-1.3-2.772.379-1.961S200.393,219.019,197.462,217.7Z" transform="translate(-171.89 -133.931)" fill="#a7c138"/>
        <path id="Path_5583" data-name="Path 5583" d="M202.5,253.169c-.943,1.212-2.018.307-1.053-.882S204.118,251.09,202.5,253.169Z" transform="translate(-174.812 -156.255)" fill="#a7c138"/>
        <path id="Path_5584" data-name="Path 5584" d="M252.259,159.286a14.631,14.631,0,0,0-1.17-.954,2.37,2.37,0,0,1,.564,1.795c-.314,1.814-3.552,2.552-7.24,1.647a15.361,15.361,0,0,1-1.655-.519,26.537,26.537,0,0,1-5.82,2.806c-6.982,2.389-13.321,1.515-14.15-1.924-.379-1.571.447-3.408,2.117-5.165-.318.1-.492.159-.492.159-.428-.1-.856-.2-1.287-.292-.379,3.48-6.585,7.194-14.487,8.527-5.013.848-9.588.553-12.568-.6,1.787,7.153,11.473,8.471,15.654,6.013,6.009,3.113,20.633.477,24.442-2.874,8.012.159,9.466-3.832,9.466-3.832C253.527,165.034,255.708,162.437,252.259,159.286Z" transform="translate(-171.706 -97.451)" fill="#a7c138"/>
        <path id="Path_5585" data-name="Path 5585" d="M310.33,163.62a10.288,10.288,0,0,0,5.21,4.544l1.382-1.893C314.37,166,312.753,165.082,310.33,163.62Z" transform="translate(-242.701 -101.664)" fill="#a7c138"/>
        <path id="Path_5586" data-name="Path 5586" d="M243.851,177.234c3.1,2.037,6.721-.6,6.816-2.7C250.773,172.558,240.746,175.2,243.851,177.234Z" transform="translate(-201.023 -108.012)" fill="#bedb45"/>
        <path id="Path_5587" data-name="Path 5587" d="M283.936,211.864c-6.1,0-11.053-2.109-11.053-4.71a3.271,3.271,0,0,1,1.783-2.564c-.451.061-.9.125-1.348.193a26.728,26.728,0,0,1-6.873,4.964c-4.885,2.624-9.258,3.654-9.766,2.3-.3-.8.818-2.272,2.8-3.862q-.909.322-1.689.647c-8.683,3.59-2.355,8.058,1.4,9.9,5.877,2.874,20.569-2.4,20.3-3.912,2.961.136,12.965-.659,13.4-4.923A18.481,18.481,0,0,1,283.936,211.864Z" transform="translate(-207.344 -127.121)" fill="#a7c138"/>
        <path id="Path_5588" data-name="Path 5588" d="M297.206,218.663c-2.7,2.234-11.22,3.279-11.117,1.227.114-2.234,5.945-4.87,5.945-4.87A8.294,8.294,0,0,0,297.206,218.663Z" transform="translate(-227.638 -133.601)" fill="#bedb45"/>
        <path id="Path_5589" data-name="Path 5589" d="M285.439,246.5c-.239,1.761-3.787,3.154-5.377,1.556S285.639,245.02,285.439,246.5Z" transform="translate(-223.75 -152.776)" fill="#a7c138"/>
        <path id="Path_5590" data-name="Path 5590" d="M158.786,221.85c-2.855,1.855-4.661,6.108-.151,8.5l3.007-1.458A4.2,4.2,0,0,1,158.786,221.85Z" transform="translate(-146.747 -137.845)" fill="#a7c138"/>
        <path id="Path_5591" data-name="Path 5591" d="M258.141,157.253c0-.307-.674-.678-1.7-.837-1.34-.2-2.5.049-2.211.56.25.443,1.477.757,2.514.757C257.577,157.73,258.141,157.537,258.141,157.253Z" transform="translate(-207.812 -97.145)" fill="#a7c138"/>
        <path id="Path_5592" data-name="Path 5592" d="M483.27,684.04h6.013v14.294h-2.707Z" transform="translate(-350.156 -425.024)" fill="#5a423c"/>
        <rect id="Rectangle_1142" data-name="Rectangle 1142" width="121.322" height="8.596" transform="translate(138.222 266.945) rotate(180)" fill="#5a423c"/>
        <path id="Path_5593" data-name="Path 5593" d="M463.17,684.04h6.009v14.294h-2.7Z" transform="translate(-337.667 -425.024)" fill="#5a423c"/>
        <path id="Path_5594" data-name="Path 5594" d="M174.179,684.04H168.17v14.294h2.7Z" transform="translate(-154.37 -425.024)" fill="#5a423c"/>
        <path id="Path_5595" data-name="Path 5595" d="M194.289,684.04H188.28v14.294h2.7Z" transform="translate(-166.866 -425.024)" fill="#5a423c"/>
        <rect id="Rectangle_1143" data-name="Rectangle 1143" width="134.484" height="130.86" transform="translate(143.44 264.041) rotate(180)" fill="#ecdacf"/>
        <path id="Path_5596" data-name="Path 5596" d="M192.9,351.73h57.878l48.192,130.856H241.1Z" transform="translate(-169.736 -218.545)" fill="#f5e6dd"/>
        <rect id="Rectangle_1144" data-name="Rectangle 1144" width="134.484" height="3.351" transform="translate(143.44 136.532) rotate(180)" fill="#866358" opacity="0.51"/>
        <path id="Path_5597" data-name="Path 5597" d="M171.64,449.18H293.81V535.6H171.64Zm120.928,1.34H172.912v83.74H292.568Z" transform="translate(-156.526 -279.095)" fill="#9e7f68"/>
        <path id="Path_5598" data-name="Path 5598" d="M171.64,368H293.81v26.468H171.64Zm120.928,1.348H172.912v23.78H292.568Z" transform="translate(-156.526 -228.654)" fill="#9e7f68"/>
        <rect id="Rectangle_1145" data-name="Rectangle 1145" width="1.261" height="85.08" transform="translate(75.57 170.755)" fill="#9e7f68"/>
        <g id="Group_1098" data-name="Group 1098" transform="translate(8.953 133.17)" opacity="0.45">
          <path id="Path_5599" data-name="Path 5599" d="M489.41,516.935q.511-2.071,1.03-4.165v2.651l-.42,1.7c-2.056,8.281-4.165,16.843-5.983,25.332-2.272,10.727-4.854,24.969-5.214,40.21h-.632c.36-15.305,2.942-29.592,5.229-40.353C485.229,533.789,487.354,525.224,489.41,516.935Z" transform="translate(-355.952 -451.776)" fill="#9e7f68"/>
          <path id="Path_5600" data-name="Path 5600" d="M461.288,426.147a1.681,1.681,0,0,1-.7.174.939.939,0,0,1-.5-.136c-.594-.379-.564-1.234-.557-1.564.117-3.677.466-7.4.807-10.981l.178-1.893c1.609-17.418,2.715-38.888-1.075-60.017h.64c3.787,21.171,2.673,42.663,1.064,60.081l-.178,1.893c-.337,3.582-.689,7.289-.8,10.943,0,.341,0,.818.239.962.136.083.348.061.636-.072,1.386-.632,2.306-2.128,3.128-3.609a181.388,181.388,0,0,0,14.624-35.73v2.158a179.021,179.021,0,0,1-14.078,33.913C463.817,423.841,462.848,425.436,461.288,426.147Z" transform="translate(-344.302 -351.715)" fill="#9e7f68"/>
          <path id="Path_5601" data-name="Path 5601" d="M486.47,374.57h-.106l-.091-.061c-1.651-1.136-2.124-3.408-2.442-5.453l-2.681-17.3h.64l2.651,17.191c.3,1.946.712,3.93,2.071,4.923.825-.144,1.492-1.056,2.03-2.787,1.42-4.563,2.651-9.217,3.726-13.916v2.791q-1.386,5.729-3.124,11.337C488.916,372.06,488.189,374.392,486.47,374.57Z" transform="translate(-357.791 -351.733)" fill="#9e7f68"/>
          <path id="Path_5602" data-name="Path 5602" d="M416.546,442.043c1.67-12.965,3.408-26.37,4.139-39.642a277.356,277.356,0,0,0-1.814-50.672h.636a277.778,277.778,0,0,1,1.829,50.71c-.757,13.3-2.473,26.718-4.146,39.695-1.348,10.47-2.741,21.3-3.612,32-.223,2.749-.413,5.578-.526,8.448H412.4c.114-2.889.307-5.737.53-8.5C413.8,463.362,415.2,452.525,416.546,442.043Z" transform="translate(-315.074 -351.715)" fill="#9e7f68"/>
          <path id="Path_5603" data-name="Path 5603" d="M439.252,588.717c2.052-3.866,5.426-6.335,8.808-6.437h.257l.061.265c.958,4.165.14,8.5-.647,12.685l-.129.682a213.725,213.725,0,0,0-3.442,29.937h-.632a214.48,214.48,0,0,1,3.453-30.069l.129-.682c.757-4.025,1.545-8.179.712-12.117-3.654.246-6.532,3.283-8.02,6.089-1.7,3.211-2.374,6.9-3.029,11.034-1.329,8.524-2.473,17.153-3.525,25.749h-.636c1.053-8.637,2.2-17.3,3.54-25.866C436.813,595.771,437.5,592.019,439.252,588.717Z" transform="translate(-327.631 -494.966)" fill="#9e7f68"/>
          <path id="Path_5604" data-name="Path 5604" d="M374.262,422.921a18.324,18.324,0,0,1-1.337,5.415l-.159.329-.292-.2c-1.753-1.181-2.181-3.582-2.446-5.74q-.5-4.067-.966-8.149c-1.939-16.578-3.946-33.7-9.118-49.665-1.454-4.483-3.162-8.872-5.025-13.185h.7c1.821,4.241,3.495,8.558,4.923,12.969,5.2,16.013,7.194,33.189,9.145,49.8q.477,4.078.966,8.145c.231,1.893.583,3.938,1.867,5.036a19.125,19.125,0,0,0,1.117-4.854c3.226-23.583,2.17-47.533.178-71.093h.632C376.424,375.309,377.477,399.285,374.262,422.921Z" transform="translate(-279.359 -351.715)" fill="#9e7f68"/>
          <path id="Path_5605" data-name="Path 5605" d="M331.585,459.707a10.557,10.557,0,0,1,1.159-4.165,3.27,3.27,0,0,1,3.718-1.693c1.575.572,2.17,2.476,2.541,4.264a504.81,504.81,0,0,1,10.326,87.848H348.7a504.27,504.27,0,0,0-10.322-87.716c-.333-1.605-.848-3.309-2.132-3.787a2.714,2.714,0,0,0-2.98,1.428,9.694,9.694,0,0,0-1.064,3.9c-1.685,12.92-2.76,26.188-3.787,39.024-1.257,15.57-2.548,31.459-4.964,47.124H322.8c2.42-15.676,3.715-31.588,4.976-47.181C328.813,485.921,329.885,472.642,331.585,459.707Z" transform="translate(-259.401 -415.074)" fill="#9e7f68"/>
          <path id="Path_5606" data-name="Path 5606" d="M354.866,608.037l.239-2.95c.78-9.845,1.234-19.876,1.356-29.77V573.78l.587,1.4c3.067,7.353,3.874,15.68,4.392,22.9.462,6.437.64,11.689.568,16.547-.03,2.052-.106,4.018-.227,5.918h-.632c.121-1.893.2-3.874.227-5.93.072-4.835-.106-10.072-.564-16.483-.481-6.687-1.208-14.321-3.76-21.2-.148,9.383-.594,18.865-1.333,28.206-.076.981-.159,1.965-.239,2.95-.333,4.055-.678,8.251-.8,12.386v.076h-.632a.867.867,0,0,1,0-.1C354.184,616.307,354.532,612.108,354.866,608.037Z" transform="translate(-278.816 -489.684)" fill="#9e7f68"/>
          <path id="Path_5607" data-name="Path 5607" d="M298.117,415.581l-.625-.095c.863-19.433-3.029-40.312-11.913-63.781h.682c8.312,22.064,12.25,41.857,11.973,60.309a189.482,189.482,0,0,0,2.4-60.324h.632A190.172,190.172,0,0,1,298.117,415.581Z" transform="translate(-236.275 -351.69)" fill="#9e7f68"/>
          <path id="Path_5608" data-name="Path 5608" d="M342.9,369.708a58.179,58.179,0,0,0-.038,17.929,11.41,11.41,0,0,0,1.871,5.3,2.958,2.958,0,0,0,2.132,1.31,1.449,1.449,0,0,0,.553-.106c.814-.337,1.257-1.359,1.208-2.81a64.027,64.027,0,0,0-4.309-21.156,1.3,1.3,0,0,0-.784-.822.564.564,0,0,0-.541.167l-.072.076Zm.579.345a1.136,1.136,0,0,1,.254.379,63.365,63.365,0,0,1,4.26,20.925c.038,1.136-.261,1.939-.8,2.162s-1.287-.155-1.977-1.015a10.675,10.675,0,0,1-1.727-4.972A58.086,58.086,0,0,1,343.477,370.053Z" transform="translate(-271.442 -362.658)" fill="#9e7f68"/>
          <path id="Path_5609" data-name="Path 5609" d="M169.29,502.984c-1.67-7.952-3.408-16.169-6.437-23.768a51.5,51.5,0,0,0-7.4-13.056v-1.03a51.427,51.427,0,0,1,7.982,13.825c3.075,7.656,4.809,15.9,6.486,23.882l6.028,28.695c1.439,6.816,2.954,14.1,3.915,21.515h-.64c-.954-7.361-2.465-14.578-3.893-21.368Z" transform="translate(-155.42 -422.175)" fill="#9e7f68"/>
          <path id="Path_5610" data-name="Path 5610" d="M183.629,387.867l-1.874,26.343a18.3,18.3,0,0,1-.856,5.108l-.186.5-.341-.4c-5.229-6.1-9.565-13.295-13.389-19.637s-8.039-13.325-11.613-20.766V377.5a238.194,238.194,0,0,0,12.144,21.905c3.726,6.176,7.952,13.158,12.973,19.13a20.128,20.128,0,0,0,.636-4.4l1.893-26.339c.523-7.338,1.064-14.923,1.072-22.4q0-6.873-.576-13.715h.64q.572,6.839.568,13.715C184.7,372.918,184.155,380.517,183.629,387.867Z" transform="translate(-155.37 -351.69)" fill="#9e7f68"/>
          <path id="Path_5611" data-name="Path 5611" d="M180.054,376.68a4.633,4.633,0,0,1-1.2,2.3,2.348,2.348,0,0,1-1.583.583,5.208,5.208,0,0,1-3.2-1.458c-4.411-3.93-6.233-10.224-7.6-15.805-.848-3.491-1.621-7.039-2.317-10.6h.644c.689,3.5,1.446,6.986,2.272,10.424,1.337,5.483,3.12,11.655,7.388,15.457,1.136,1.011,2.859,1.844,3.98.875a4.083,4.083,0,0,0,1-1.984c2.306-8.028,2.545-16.449,2.359-24.772h.632C182.625,360.087,182.382,368.562,180.054,376.68Z" transform="translate(-160.825 -351.696)" fill="#9e7f68"/>
          <path id="Path_5612" data-name="Path 5612" d="M278.243,427.677a118.2,118.2,0,0,0-3.787-15.979c-.447-1.556-.89-3.113-1.318-4.676-3.987-14.609-6.331-29.721-8.213-42.743-.621-4.275-1.253-8.656-2.836-12.549h.674a56.558,56.558,0,0,1,2.783,12.446c1.893,13,4.222,28.089,8.2,42.659.424,1.56.867,3.113,1.31,4.669a121.4,121.4,0,0,1,3.809,16.074c1.73,12.166-.276,24.711-2.7,36.461-1.215,5.869-2.651,12.181-4.544,18.554h-.663c1.893-6.411,3.359-12.776,4.582-18.69C277.96,452.21,279.959,439.737,278.243,427.677Z" transform="translate(-221.68 -351.715)" fill="#9e7f68"/>
          <path id="Path_5613" data-name="Path 5613" d="M245.357,461.082c-.519-2.185-1.2-4.37-1.867-6.479a79.229,79.229,0,0,1-2.181-7.925c-2.026-10.053-.08-20.406,1.806-30.417.67-3.563,1.367-7.247,1.867-10.856,1.73-12.443,1.3-25.275.882-37.688-.174-5.244-.352-10.655-.379-15.987h.632c0,5.3.193,10.727.379,15.964.417,12.439.848,25.3-.89,37.809-.5,3.628-1.2,7.319-1.871,10.89-1.874,9.944-3.809,20.224-1.81,30.145a77.2,77.2,0,0,0,2.166,7.853c.663,2.124,1.352,4.317,1.893,6.528,1.67,7.062,1.7,14.431,1.488,21.667h-.632C247.035,475.388,247.008,468.08,245.357,461.082Z" transform="translate(-208.234 -351.715)" fill="#9e7f68"/>
          <path id="Path_5614" data-name="Path 5614" d="M266.236,531.528a74.475,74.475,0,0,0,.5,9.273l1.075,11.182c.045.488.061,1.257.076,2.147.053,2.961.125,7.02,1.447,8.088a1.484,1.484,0,0,0,.913.379.98.98,0,0,0,.424-.1c1.136-.56,1.348-3.3,1.473-6.058,0-.379.03-.67.045-.867.254-2.829.231-5.68.208-8.414v-2.42h0c-.379-7.266-1.969-12.261-4.979-15.718l-.227-.261-.235.261A3.765,3.765,0,0,0,266.236,531.528Zm.629.023a4.192,4.192,0,0,1,.333-1.78c2.738,3.325,4.188,8.1,4.544,14.987v2.416c.023,2.73.045,5.551-.2,8.33,0,.208-.03.519-.049.9-.068,1.515-.227,5.044-1.109,5.479-.17.087-.4,0-.685-.216-1.079-.871-1.155-5.063-1.2-7.573,0-.9-.034-1.685-.083-2.2l-1.072-11.182A73.982,73.982,0,0,1,266.865,531.551Z" transform="translate(-224.254 -461.711)" fill="#9e7f68"/>
          <path id="Path_5615" data-name="Path 5615" d="M211.31,547.537a7.378,7.378,0,0,0-.106,2.954,167.971,167.971,0,0,0,4.922,26.544l.613-.152a107.727,107.727,0,0,1-1.106-13.632c-.208-5.68-.428-11.515-1.859-17.286l-.061-.246h-.273A2.261,2.261,0,0,0,211.31,547.537Zm.6.2a1.822,1.822,0,0,1,1.3-1.359c1.356,5.615,1.568,11.337,1.776,16.877.106,2.836.212,5.733.473,8.645a166.67,166.67,0,0,1-3.639-21.485,6.816,6.816,0,0,1,.087-2.677Z" transform="translate(-190.003 -472.248)" fill="#9e7f68"/>
          <path id="Path_5616" data-name="Path 5616" d="M158.294,549.893l-.674-2.363,1.242,2.071c8.974,15.1,13.575,34.117,13.378,54.629h-.632c.186-19.4-3.942-37.449-12.022-52.073a277.492,277.492,0,0,1,8.183,43.015c.314,2.9.6,5.96.644,9.057h-.632c-.045-3.071-.326-6.108-.64-8.982a276.768,276.768,0,0,0-8.845-45.355Z" transform="translate(-156.768 -473.374)" fill="#9e7f68"/>
          <path id="Path_5617" data-name="Path 5617" d="M155.38,635.25a144.412,144.412,0,0,1,2.272,23.5h-.632a143.723,143.723,0,0,0-1.621-19.641Z" transform="translate(-155.376 -527.878)" fill="#9e7f68"/>
        </g>
        <rect id="Rectangle_1146" data-name="Rectangle 1146" width="138.543" height="3.014" transform="translate(145.97 134.412) rotate(180)" fill="#f7edd7"/>
        <path id="Path_5618" data-name="Path 5618" d="M352.55,483.4a3.638,3.638,0,1,1,3.631,3.851A3.755,3.755,0,0,1,352.55,483.4Zm1.265,0a2.37,2.37,0,1,0,2.367-2.514A2.446,2.446,0,0,0,353.815,483.4Z" transform="translate(-268.934 -297.965)" fill="#9e7f68"/>
        <path id="Path_5619" data-name="Path 5619" d="M293.89,483.4a3.636,3.636,0,1,1,3.631,3.851A3.753,3.753,0,0,1,293.89,483.4Zm1.261,0a2.374,2.374,0,1,0,2.37-2.514A2.45,2.45,0,0,0,295.151,483.4Z" transform="translate(-232.486 -297.965)" fill="#9e7f68"/>
        <path id="Path_5620" data-name="Path 5620" d="M323.38,381.821a3.636,3.636,0,1,1,3.628,3.855A3.749,3.749,0,0,1,323.38,381.821Zm1.261,0a2.374,2.374,0,1,0,2.367-2.51A2.446,2.446,0,0,0,324.641,381.821Z" transform="translate(-250.809 -234.849)" fill="#9e7f68"/>
        <path id="Path_5621" data-name="Path 5621" d="M504.274,412.911c-4.366-43.546-5.46-76.534,67.689-91.059s178.514,11.386,193.251,22.367S785.961,423.5,785.961,423.5Z" transform="translate(-362.174 -197.3)" fill="#95993a"/>
        <path id="Path_5622" data-name="Path 5622" d="M534.158,437.4c-2.416-31.519,13.117-77.893,24.874-81.563,39.884-12.431,95.209,39.149,103.373,47.1s35.847,40.558,35.847,40.558Z" transform="translate(-381.619 -219.899)" fill="#878736"/>
        <path id="Path_5623" data-name="Path 5623" d="M944.291,439.556c0-1.765-.988-3.2-2.2-3.2s-2.208,1.431-2.208,3.2.988,3.2,2.208,3.2S944.291,441.324,944.291,439.556Z" transform="translate(-633.867 -271.129)" fill="#878736"/>
        <path id="Path_5624" data-name="Path 5624" d="M931.677,443.411l-8.187-1.136,8.251-.825Z" transform="translate(-623.683 -274.292)" fill="#878736"/>
        <path id="Path_5625" data-name="Path 5625" d="M948.234,441.45l8.19,1.136-8.255.826Z" transform="translate(-639.018 -274.292)" fill="#878736"/>
        <path id="Path_5626" data-name="Path 5626" d="M944.3,424.317l1.064-10.727.773,10.814Z" transform="translate(-636.614 -256.981)" fill="#878736"/>
        <path id="Path_5627" data-name="Path 5627" d="M946.137,446.017l-1.064,10.727L944.3,445.93Z" transform="translate(-636.614 -277.076)" fill="#878736"/>
        <path id="Path_5628" data-name="Path 5628" d="M1034.408,439.556c0-1.765-.988-3.2-2.2-3.2s-2.2,1.431-2.2,3.2.984,3.2,2.2,3.2S1034.408,441.324,1034.408,439.556Z" transform="translate(-689.863 -271.129)" fill="#878736"/>
        <path id="Path_5629" data-name="Path 5629" d="M1021.786,443.411l-8.187-1.136,8.255-.825Z" transform="translate(-679.673 -274.292)" fill="#878736"/>
        <path id="Path_5630" data-name="Path 5630" d="M1038.344,441.45l8.19,1.136-8.255.826Z" transform="translate(-695.007 -274.292)" fill="#878736"/>
        <path id="Path_5631" data-name="Path 5631" d="M1034.41,424.317l1.064-10.727.776,10.814Z" transform="translate(-692.603 -256.981)" fill="#878736"/>
        <path id="Path_5632" data-name="Path 5632" d="M1036.25,446.017l-1.068,10.727-.772-10.814Z" transform="translate(-692.603 -277.076)" fill="#878736"/>
        <path id="Path_5633" data-name="Path 5633" d="M1127.461,439.556c0-1.765-.988-3.2-2.208-3.2s-2.2,1.431-2.2,3.2.988,3.2,2.2,3.2S1127.461,441.324,1127.461,439.556Z" transform="translate(-747.679 -271.129)" fill="#878736"/>
        <path id="Path_5634" data-name="Path 5634" d="M1114.84,443.411l-8.19-1.136,8.255-.825Z" transform="translate(-737.489 -274.292)" fill="#878736"/>
        <path id="Path_5635" data-name="Path 5635" d="M1131.4,441.45l8.186,1.136-8.251.826Z" transform="translate(-752.83 -274.292)" fill="#878736"/>
        <path id="Path_5636" data-name="Path 5636" d="M1127.47,424.317l1.064-10.727.772,10.814Z" transform="translate(-750.425 -256.981)" fill="#878736"/>
        <path id="Path_5637" data-name="Path 5637" d="M1129.306,446.017l-1.064,10.727-.772-10.814Z" transform="translate(-750.425 -277.076)" fill="#878736"/>
        <path id="Path_5638" data-name="Path 5638" d="M846.261,439.556c0-1.765-.988-3.2-2.2-3.2s-2.208,1.431-2.208,3.2.988,3.2,2.208,3.2S846.261,441.324,846.261,439.556Z" transform="translate(-572.957 -271.129)" fill="#878736"/>
        <path id="Path_5639" data-name="Path 5639" d="M833.647,443.411l-8.187-1.136,8.251-.825Z" transform="translate(-562.773 -274.292)" fill="#878736"/>
        <path id="Path_5640" data-name="Path 5640" d="M850.2,441.45l8.187,1.136-8.251.826Z" transform="translate(-578.108 -274.292)" fill="#878736"/>
        <path id="Path_5641" data-name="Path 5641" d="M846.27,424.317l1.064-10.727.772,10.814Z" transform="translate(-575.703 -256.981)" fill="#878736"/>
        <path id="Path_5642" data-name="Path 5642" d="M848.107,446.017l-1.064,10.727-.772-10.814Z" transform="translate(-575.703 -277.076)" fill="#878736"/>
        <path id="Path_5643" data-name="Path 5643" d="M575.849,324.341C649,309.82,753.817,340.7,768.543,351.684c11.7,8.709,17.892,53.527,19.951,71.653l4.616.174s-6.005-68.31-20.747-79.291-120.08-36.889-193.247-22.367c-40.032,7.952-57.8,21.432-65,39.142C523.113,346.936,541.633,331.135,575.849,324.341Z" transform="translate(-369.324 -197.302)" fill="#b5b545"/>
        <path id="Path_5644" data-name="Path 5644" d="M467.137,559.812H787.575s12.045-92.1-27.263-89.742-37.154,30.872-37.154,30.872H515.722s-5.68-46.491-40.092-39.032S467.137,559.812,467.137,559.812Z" transform="translate(-334.314 -286.501)" fill="#95993a"/>
        <path id="Path_5645" data-name="Path 5645" d="M517.764,542.458c9.815-.447,16.562-18.433,15.116-40.172-1.045-15.5-5.142-36.953-20.069-32.439C497.013,474.622,495.87,543.454,517.764,542.458Z" transform="translate(-361.245 -291.556)" fill="#b5b545"/>
        <path id="Path_5646" data-name="Path 5646" d="M1229.4,561.847c13.632-.451,23.041-18.433,21.008-40.172-1.454-15.525-7.153-36.953-27.915-32.44C1200.544,494,1198.961,562.828,1229.4,561.847Z" transform="translate(-799.375 -303.603)" fill="#b5b545"/>
        <path id="Path_5647" data-name="Path 5647" d="M794.44,484.4A27.708,27.708,0,0,0,784.6,506.04c0,8.372-207.439,8.372-207.439,0,0,0-3.378-27.4-20.516-36.73,10.095,10.958,16.9,31.531,16.9,55.121,0,15.392-2.9,29.5-7.709,40.5H805.372c-10.75-10.224-17.861-27.907-17.861-48.017A76.382,76.382,0,0,1,794.44,484.4Z" transform="translate(-395.744 -291.603)" fill="#878736"/>
        <ellipse id="Ellipse_142" data-name="Ellipse 142" cx="101.628" cy="1.439" rx="101.628" ry="1.439" transform="translate(182.912 212.866)" fill="#686627"/>
        <path id="Path_5648" data-name="Path 5648" d="M676.834,488.764c-8.452,4.953-21.553,11.92,2.1,23.325,7.327,3.537,75.478,1.549,75.478,1.549l-2.219-11.625S690.689,480.653,676.834,488.764Z" transform="translate(-463.391 -302.548)" fill="#ddddb1"/>
        <path id="Path_5649" data-name="Path 5649" d="M684.959,502.654c-5.191-3.408-8.3-6.437-9.94-9.114-8.452,5.116-20.1,14.34,2.533,25.26,7.327,3.533,76.159-1.053,76.159-1.053l-1.295-6.789C733.964,509.618,690.305,506.157,684.959,502.654Z" transform="translate(-462.693 -306.658)" fill="#cec099"/>
        <path id="Path_5650" data-name="Path 5650" d="M881.733,534.144c13.969,7.573,75.474,2.06,75.474,2.06l.329-1.136s-61.229-7.634-79.783-10.818C874.724,525.954,881.733,534.144,881.733,534.144Z" transform="translate(-594.793 -325.739)" fill="#ddddb1"/>
        <path id="Path_5651" data-name="Path 5651" d="M878.05,538.44a37.058,37.058,0,0,0,2.465,5.752c13.973,7.573,77.348.829,77.348.829l.155-.534C941.619,544.82,892.511,545.218,878.05,538.44Z" transform="translate(-595.45 -334.556)" fill="#cec099"/>
        <path id="Path_5652" data-name="Path 5652" d="M571.216,213.232c-12.473,11.314-29.634,3.942-29.634,3.942s-12.17,3.923-16.093-10.012S535.1,189.7,535.1,189.7s-7.85-6.672-3.533-16.093a35.317,35.317,0,0,1,12.56-14.325s-10.008-7.853-5.1-15.9,27.475-14.912,34.931-10.792c0,0,11.973-5.1,15.7,9.811S583.382,163,583.382,163,600.259,201.27,571.216,213.232Z" transform="translate(-375.945 -81.615)" fill="#111"/>
        <path id="Path_5653" data-name="Path 5653" d="M587.16,162.689a40.6,40.6,0,0,1-7.793,2.76c-14.9,3.654-28.948-1.446-31.391-11.394-1.477-6.021,1.659-12.428,7.653-17.365-7.232,2.2-14.166,5.949-16.631,9.993-4.923,8.046,5.1,15.9,5.1,15.9a35.507,35.507,0,0,0-12.56,14.325c-4.32,9.4,3.533,16.093,3.533,16.093s-13.541,3.533-9.614,17.464,16.1,10.023,16.1,10.023,17.161,7.388,29.634-3.927c29.043-11.969,12.166-50.24,12.166-50.24a13.931,13.931,0,0,0,3.8-3.635Z" transform="translate(-375.925 -84.931)" fill="#111"/>
        <path id="Path_5654" data-name="Path 5654" d="M589.182,277.094c7.157-2.95,11.519-7.5,14.037-12.681.636-13.117-5.9-26.127-15.146-29.183-17.418-5.793-11.712,11.61-34.382,46.143a14.1,14.1,0,0,0,5.858-.352S576.709,288.408,589.182,277.094Z" transform="translate(-393.911 -145.476)" fill="#111"/>
        <path id="Path_5655" data-name="Path 5655" d="M631.923,314.553c7.573,13.723,31.69,38.642,35.575,38.547s6.115-5.3,3.453-8.084-25.041-31.05-27.771-33.144S629.852,310.8,631.923,314.553Z" transform="translate(-442.354 -193.114)" fill="#004e90"/>
        <path id="Path_5656" data-name="Path 5656" d="M617.477,323.13c-4.12-2.942-27.668-8.043-30.811-2.942s4.923,14.718,12.56,34.147,2.355,38.464,10.981,52.4l30.811-20.016C619.636,372.98,621.6,326.076,617.477,323.13Z" transform="translate(-413.967 -197.598)" fill="#2074b9"/>
        <path id="Path_5657" data-name="Path 5657" d="M667.6,438.512c-1.492-4.616-6.138-5.381-7.952-4.616-5.536,2.31-7.747,22.231-3.556,32.262a15.524,15.524,0,0,0,2.749,4.4l21.231-13.794C674.077,452.931,670.226,446.093,667.6,438.512Z" transform="translate(-456.181 -269.438)" fill="#2074b9"/>
        <path id="Path_5658" data-name="Path 5658" d="M571.9,322.5c-6.437,15.059-11.576,50.437-9.027,53.391s8.243,1.178,8.834-2.745,9.22-33.954,9.22-37.487S573.672,318.379,571.9,322.5Z" transform="translate(-399.205 -199.908)" fill="#2074b9"/>
        <path id="Path_5659" data-name="Path 5659" d="M579.356,345c-1.3,7.194-8.486,32.33-9.02,35.9s-5.328,5.354-8.1,3.408c-.11,3.192.079,5.381.636,6.024,2.552,2.946,8.243,1.178,8.834-2.745s9.22-33.954,9.22-37.487A15.68,15.68,0,0,0,579.356,345Z" transform="translate(-399.205 -214.363)" fill="#004e90"/>
        <path id="Path_5660" data-name="Path 5660" d="M606.478,349.831c4.165,2.946,26.786-4.7,28.161-6.861s-16.453-32.5-18.933-34.155c-4.707-3.139-26.1.413-26.885,4.336S603.139,347.476,606.478,349.831Z" transform="translate(-415.721 -191.132)" fill="#2074b9"/>
        <path id="Path_5661" data-name="Path 5661" d="M610.387,363.406c-2.753-1.833-14.23-20.307-19.387-30.766,3.128,9.372,13.548,32.091,16.328,34.053,4.165,2.942,27.309-6.013,28.683-8.171a1.363,1.363,0,0,0,0-.837C630.589,360.672,614.234,365.969,610.387,363.406Z" transform="translate(-417.093 -206.684)" fill="#2074b9"/>
        <path id="Path_5662" data-name="Path 5662" d="M753.751,374.07l-2.681,16.877,25.711-38.661,2.882-23.189-.985-.167Z" transform="translate(-516.551 -204.378)" fill="#4f3f43"/>
        <path id="Path_5663" data-name="Path 5663" d="M757.693,365.874l-1.863,25.355,21.133-31.777,2.885-19.845-4.688-.916Z" transform="translate(-519.509 -210.443)" fill="#ffde76"/>
        <path id="Path_5664" data-name="Path 5664" d="M757.693,365.874l-1.863,25.355,18.251-33.4,1.079-19.137Z" transform="translate(-519.509 -210.443)" fill="#efbb60"/>
        <path id="Path_5665" data-name="Path 5665" d="M733.54,351.865l3.73-1.765,24.041,11.481.2,3.238Z" transform="translate(-505.659 -217.532)" fill="#ffde76"/>
        <path id="Path_5666" data-name="Path 5666" d="M662.45,392.21,692.868,403.4l28.589-39.38L687.373,347.07Z" transform="translate(-461.488 -215.65)" fill="#4f3f43"/>
        <path id="Path_5667" data-name="Path 5667" d="M662.19,396.785l30.417,11.186L721.2,368.59,687.64,351.91Z" transform="translate(-461.326 -218.657)" fill="#3f3135"/>
        <path id="Path_5668" data-name="Path 5668" d="M716.7,384.586l4-7.986,25.7,12.568-5.809,7.145Z" transform="translate(-495.196 -233.998)" fill="#ffe5c3"/>
        <path id="Path_5669" data-name="Path 5669" d="M803.829,393.556c-.22,15.888,43.148,59.358,43.148,59.358l1.181-.242s-29.38-46.4-35.215-64.3C810.042,386.516,803.893,388.251,803.829,393.556Z" transform="translate(-549.332 -240.866)" fill="#ddddb1"/>
        <path id="Path_5670" data-name="Path 5670" d="M643.7,444.93c-1.363,12.659,21.852,9.682,32.447,6.543,8.073-2.393,36.26-51.043,36.26-51.043l-4.328-11.36S645.525,427.92,643.7,444.93Z" transform="translate(-449.799 -241.746)" fill="#ddddb1"/>
        <path id="Path_5671" data-name="Path 5671" d="M669.735,451c-5.975,1.772-15.347,4.578-22.878,2.707-1.81,2.59-2.942,4.953-3.158,6.975-1.363,12.662,22.568,12.427,33.167,9.288,6.547-1.939,25.851-34.836,32.905-47.177.061-2.162-4.65-7.85-5.445-8.361C693.359,428.656,675.339,449.346,669.735,451Z" transform="translate(-449.802 -257.503)" fill="#cec099"/>
        <path id="Path_5672" data-name="Path 5672" d="M803.9,414.45c4.741,17.653,43.1,55.113,43.1,55.113l1.2-.239s-.7-1.174-1.893-3.222C835.817,454.148,809.239,417.01,803.9,414.45Z" transform="translate(-549.377 -257.516)" fill="#cec099"/>
        <path id="Path_5673" data-name="Path 5673" d="M605.108,266.306a160.878,160.878,0,0,1-.2-28.456l8.137,4.809,4.317,21.614-4.479,4.165Z" transform="translate(-425.403 -147.787)" fill="#ffb882"/>
        <path id="Path_5674" data-name="Path 5674" d="M572.36,447.14c-4.025-2.848-14.62-1.276-16.191,1.568s-.568,6.846,3.434,7.263C567.157,456.754,572.36,447.14,572.36,447.14Z" transform="translate(-395.011 -276.892)" fill="#004e90"/>
        <path id="Path_5675" data-name="Path 5675" d="M557.43,448.661a11.025,11.025,0,0,0,5.725,1.424c4.165,0,7.528-1.784,7.528-3.98,0-.045-.023-.087-.023-.133C565.87,444.954,558.782,446.39,557.43,448.661Z" transform="translate(-396.234 -276.895)" fill="#9bc7ed"/>
        <path id="Path_5676" data-name="Path 5676" d="M564.778,455.42c6.672,3.908,43.663-1.537,43.663-1.537l1.049-1.961s-32.89-4.873-37.4-4.275S560.757,453.05,564.778,455.42Z" transform="translate(-400.042 -278.111)" fill="#ffb882"/>
        <path id="Path_5677" data-name="Path 5677" d="M568.244,455.189a2.036,2.036,0,0,1-.962-2.779c-3.052,1.78-5.176,4.438-2.5,6,6.672,3.908,43.663-1.537,43.663-1.537l.735-1.375C602.1,456.223,573.92,458.824,568.244,455.189Z" transform="translate(-400.043 -281.102)" fill="#ff9566"/>
        <path id="Path_5678" data-name="Path 5678" d="M1259.023,556.605c0-2.454-1.465-4.445-3.272-4.445s-3.272,1.992-3.272,4.445,1.465,4.449,3.272,4.449S1259.023,559.063,1259.023,556.605Z" transform="translate(-828.099 -343.081)" fill="#95993a"/>
        <path id="Path_5679" data-name="Path 5679" d="M1240.3,561.966l-12.151-1.579,12.246-1.147Z" transform="translate(-812.982 -347.48)" fill="#95993a"/>
        <path id="Path_5680" data-name="Path 5680" d="M1264.869,559.24l12.151,1.579-12.25,1.147Z" transform="translate(-835.735 -347.48)" fill="#95993a"/>
        <path id="Path_5681" data-name="Path 5681" d="M1259.04,535.394l1.579-14.934,1.144,15.052Z" transform="translate(-832.175 -323.384)" fill="#95993a"/>
        <path id="Path_5682" data-name="Path 5682" d="M1261.756,565.591l-1.579,14.93-1.147-15.052Z" transform="translate(-832.169 -351.351)" fill="#95993a"/>
        <path id="Path_5683" data-name="Path 5683" d="M537.312,543.339c0-2.457-1.136-4.449-2.5-4.449s-2.5,1.992-2.5,4.449,1.136,4.445,2.5,4.445S537.312,545.8,537.312,543.339Z" transform="translate(-380.626 -334.836)" fill="#95993a"/>
        <path id="Path_5684" data-name="Path 5684" d="M522.992,548.7l-9.292-1.579,9.368-1.143Z" transform="translate(-369.063 -339.241)" fill="#95993a"/>
        <path id="Path_5685" data-name="Path 5685" d="M541.786,545.98l9.292,1.579-9.368,1.147Z" transform="translate(-386.467 -339.241)" fill="#95993a"/>
        <path id="Path_5686" data-name="Path 5686" d="M537.32,522.13l1.208-14.93.879,15.052Z" transform="translate(-383.739 -315.145)" fill="#95993a"/>
        <path id="Path_5687" data-name="Path 5687" d="M539.406,552.327l-1.208,14.93-.878-15.048Z" transform="translate(-383.739 -343.112)" fill="#95993a"/>
        <path id="Path_5688" data-name="Path 5688" d="M624.213,630.57H819.339a2.083,2.083,0,0,1,2.083,2.083v25.525a.916.916,0,0,1-.916.916H623.865a1.515,1.515,0,0,1-1.515-1.515V632.433a1.863,1.863,0,0,1,1.863-1.863Z" transform="translate(-436.572 -391.8)" fill="#95993a"/>
        <path id="Path_5689" data-name="Path 5689" d="M601.63,309.737l1.185-2.427,9.713,3.934s-1.212,5.324-4.514,4.809C604.871,315.565,601.63,309.737,601.63,309.737Z" transform="translate(-423.698 -190.945)" fill="#9bc7ed"/>
        <path id="Path_5690" data-name="Path 5690" d="M631.934,305.114l-1.757-1.234-5.377,6.036s3.268,3.256,5.631,1.931C632.191,310.859,631.934,305.114,631.934,305.114Z" transform="translate(-438.094 -188.814)" fill="#9bc7ed"/>
        <g id="Group_1099" data-name="Group 1099" transform="translate(168.92 98.935)" opacity="0.34">
          <path id="Path_5691" data-name="Path 5691" d="M614.647,295.768a12.961,12.961,0,0,0,1.492-7.452c-2.651-3.185-4.832-5.7-5.915-6.767a8.045,8.045,0,0,0-1.337-1.515c-1.185-.788-3.427-1.155-6.134-1.2v-.186l-1.761-1.242-.322.379-2.465-12.352c-.061-.03-.117-.068-.174-.1a44.327,44.327,0,0,0-10.072-4.055,160.292,160.292,0,0,0,.485,17.608l-.4-.163-1.185,2.427.053.091c-2.738.916-4.665,2.011-4.892,3.135a1.515,1.515,0,0,0-.379.572,4.622,4.622,0,0,0-.5,1.227,94.323,94.323,0,0,0-3.309,10.432c.723.454,1.454.9,2.219,1.322C594.177,305.731,609.679,304.769,614.647,295.768Z" transform="translate(-577.83 -261.28)" fill="#843131" opacity="0.6"/>
        </g>
        <path id="Path_5692" data-name="Path 5692" d="M617.248,225.132c-11.969-4.707-20.254-12.9-19.5-25.862.7-11.86,10.224-23.359,19.63-21.106C635.424,182.468,624.844,216.108,617.248,225.132Z" transform="translate(-421.258 -110.523)" fill="#ffb882"/>
        <path id="Path_5693" data-name="Path 5693" d="M593.282,205.94c-2.223-12.428-3.029-22.829,8.3-25.309,8.437-1.859,10.875-8.508,6.748-10.19s-18.153,2.848-20.7,13.836S593.282,205.94,593.282,205.94Z" transform="translate(-414.691 -105.691)" fill="#111"/>
        <path id="Path_5694" data-name="Path 5694" d="M586.806,238.128c-1.109-4.419-6.857-6.767-5.835-.935.844,4.839,5.112,7.3,5.987,7.039C587.723,244.005,586.806,238.128,586.806,238.128Z" transform="translate(-410.786 -145.221)" fill="#ffb882"/>
        <path id="Path_5695" data-name="Path 5695" d="M615.521,170.615c-.837-2.749-6.759-3.378-13.226-1.412s-11.034,5.79-10.2,8.539,6.759,3.378,13.226,1.412S616.358,173.361,615.521,170.615Z" transform="translate(-417.714 -104.422)" fill="#111"/>
        <path id="Path_5696" data-name="Path 5696" d="M588.7,242.214c-.651-2.851-4.033-4.366-3.434-.6.5,3.124,3.007,4.711,3.521,4.544S588.7,242.214,588.7,242.214Z" transform="translate(-413.485 -148.732)" fill="#ea7b59"/>
        <path id="Path_5697" data-name="Path 5697" d="M590.791,248.2c-.413-1.818-2.567-2.783-2.185-.379.314,1.988,1.916,3,2.242,2.9S590.791,248.2,590.791,248.2Z" transform="translate(-415.577 -153.09)" fill="#ffb882"/>
        <path id="Path_5698" data-name="Path 5698" d="M1082.027,540.418l9.565-12.738s-13.832,6.324-14.556,9.175S1082.027,540.418,1082.027,540.418Z" transform="translate(-719.049 -327.87)" fill="#ddddb1"/>
        <path id="Path_5699" data-name="Path 5699" d="M910.7,554.665h16.865s-14.177-7.728-17.04-6.524S910.7,554.665,910.7,554.665Z" transform="translate(-614.864 -340.505)" fill="#ddddb1"/>
        <path id="Path_5700" data-name="Path 5700" d="M660.641,230.711c.049-1.95-.867-3.643-2.056-3.787s-2.192,1.348-2.249,3.306.867,3.65,2.052,3.787S660.588,232.672,660.641,230.711Z" transform="translate(-457.687 -140.992)" fill="#fff8f8"/>
        <path id="Path_5701" data-name="Path 5701" d="M629.327,226.03c.129-2.245-.8-4.237-2.079-4.464s-2.416,1.416-2.548,3.662.8,4.249,2.075,4.464S629.194,228.275,629.327,226.03Z" transform="translate(-438.024 -137.655)" fill="#fff8f8"/>
        <path id="Path_5702" data-name="Path 5702" d="M617.27,209.561l-.11-.5a9.1,9.1,0,0,1,6.755-4.415l.121,1.715A8.508,8.508,0,0,0,617.27,209.561Z" transform="translate(-433.347 -127.158)" fill="#111"/>
        <path id="Path_5703" data-name="Path 5703" d="M662.286,212.3a9.955,9.955,0,0,0-6.816-4.165l.159-1.67c1.075.049,4.688,1.409,6.948,5.275Z" transform="translate(-457.151 -128.283)" fill="#111"/>
        <path id="Path_5704" data-name="Path 5704" d="M645.961,251.418a1.473,1.473,0,0,1-.026.186,2.112,2.112,0,0,1-3.029,1.079,2.9,2.9,0,0,1-1.473-1.753,2.776,2.776,0,0,0,1.534,3.082,2.11,2.11,0,0,0,3.029-1.072,2.435,2.435,0,0,0-.034-1.522Z" transform="translate(-448.391 -155.914)" fill="#ea7b59"/>
        <path id="Path_5705" data-name="Path 5705" d="M633.34,267.46l8.152,1.136s-1.166,4.014-4.483,3.457C633.828,271.527,633.34,267.46,633.34,267.46Z" transform="translate(-443.401 -166.184)" fill="#491d2e"/>
        <path id="Path_5706" data-name="Path 5706" d="M634.682,268.11l6.926.977s.379,1.893-3.563,1.416C633.895,269.992,634.682,268.11,634.682,268.11Z" transform="translate(-444.198 -166.588)" fill="#ffebeb"/>
        <path id="Path_5707" data-name="Path 5707" d="M642.325,282.7c.053-.511-.708-.106-1.583-.231s-1.515-.757-1.579-.231.613,1.026,1.484,1.155S642.272,283.211,642.325,282.7Z" transform="translate(-447.016 -175.241)" fill="#ef8f6f"/>
        <path id="Path_5708" data-name="Path 5708" d="M658.24,455.335c3.972,0,8.993,2.685,11.239,2,1.749-.534,2.794-5.593,1.776-6.384s-12.772,2.454-12.772,2.454Z" transform="translate(-458.872 -280.115)" fill="#ffb882"/>
        <path id="Path_5709" data-name="Path 5709" d="M672.324,444.091c2.174-1.484,4.976-5.21,5.638-5.786s1.291.352.072,2.461-2.143,2.291-1.534,3.408C677.175,445.42,671.276,444.806,672.324,444.091Z" transform="translate(-467.545 -272.234)" fill="#ffb882"/>
        <path id="Path_5710" data-name="Path 5710" d="M688.209,451.313c2.272-.7,7.649-2.314,7.452-3.082s-8.251,1.227-8.251,1.227Z" transform="translate(-476.997 -278.396)" fill="#ffb882"/>
        <path id="Path_5711" data-name="Path 5711" d="M688.56,458.511c2.242-.087,7.573-.242,7.475-1.007s-7.974-.924-7.974-.924Z" transform="translate(-477.401 -283.693)" fill="#ffb882"/>
        <path id="Path_5712" data-name="Path 5712" d="M683.894,464.834c2.223.432,5.793.557,5.88-.2s-5.945-1.78-5.945-1.78Z" transform="translate(-474.772 -287.589)" fill="#ffb882"/>
        <path id="Path_5713" data-name="Path 5713" d="M1105.15,439.73l.136,4.339s12.844,5.8,15.427,13.086-7.195,19.213-7.195,19.213l.311.5c3.806-2.961,9.694-12.583,9.557-17.956S1121.678,447.992,1105.15,439.73Z" transform="translate(-736.557 -273.223)" fill="#ffb882"/>
        <path id="Path_5714" data-name="Path 5714" d="M1113.93,476.392l-.284-.511s10.322-11.454,8.092-18.85-14.768-13.813-14.768-13.813l.038-2.382c-.7-.379-1.424-.757-2.185-1.136l-.223,5.036s12.776,5.184,15.358,12.469-6.766,19.145-6.766,19.145l.31.5a12.193,12.193,0,0,0,1.037-.928C1114.331,476.085,1114.127,476.252,1113.93,476.392Z" transform="translate(-736.215 -273.205)" fill="#ff9566"/>
        <path id="Path_5715" data-name="Path 5715" d="M1129.512,527.59c-1.287,1.064-1.177.973-1.28,1.386s-.7,1.973-.284,2.439,3.147,1.291,3.279.576-.879-2.972-.492-4.779C1131.027,525.829,1129.512,527.59,1129.512,527.59Z" transform="translate(-750.63 -327.25)" fill="#ffb882"/>
        <path id="Path_5716" data-name="Path 5716" d="M1125.867,535.85c-.379,1.094-1.78,4.165-1.549,4.544s2.51-3.688,2.51-3.688Z" transform="translate(-748.451 -332.947)" fill="#ffb882"/>
        <path id="Path_5717" data-name="Path 5717" d="M1125.16,530.92c-.867.413-3.378,2.749-3.275,3.109s3.62-1.893,3.62-1.893Z" transform="translate(-746.953 -329.884)" fill="#ffb882"/>
        <path id="Path_5718" data-name="Path 5718" d="M1130.729,538c-.03,1.2-.417,4.726-.053,5.085s1.3-4.336,1.3-4.336Z" transform="translate(-752.321 -334.283)" fill="#ffb882"/>
        <path id="Path_5719" data-name="Path 5719" d="M1132.53,536.61c.477,1.117,1.647,4.608,2.17,4.892s-.67-4.449-.67-4.449Z" transform="translate(-753.569 -333.419)" fill="#ffb882"/>
        <path id="Path_5720" data-name="Path 5720" d="M1102.33,436.36l2.17,12.916,5.68,5.475,5.994-9.819S1108.941,438.526,1102.33,436.36Z" transform="translate(-734.804 -271.129)" fill="#2074b9"/>
        <path id="Path_5721" data-name="Path 5721" d="M1075.121,318.1s5.233-4.5,3.056-10.458-6.467-5.082-6.467-5.082.182-4.3-4.733-7.327-6.854,1.268-6.854,1.268,2.628-10.75-11.03-11.14-12.371,6.255-12.371,6.255c-11.8,3.518-7.615,10.258-7.615,10.258-3.506,4.01-5.835,12.609.822,23.162l18.251,10.943s7.259,4.4,11.133,3.408a7.476,7.476,0,0,0,5.066-3.813,8.282,8.282,0,0,0,6.513.1c3.953-1.367,2-7.035,2-7.035s6.176-2.348,6.816-6.157S1075.121,318.1,1075.121,318.1Z" transform="translate(-687.182 -177.298)" fill="#262626"/>
        <path id="Path_5722" data-name="Path 5722" d="M1075.121,339.3s5.233-4.5,3.056-10.458-6.467-5.082-6.467-5.082a7.759,7.759,0,0,0-1.462-4.294,13.041,13.041,0,0,1-1.136,4.491c-4.006,8.773-17.039,11.417-29.1,5.907a30.259,30.259,0,0,1-11.6-9.088,5.715,5.715,0,0,0,.7,2.295c-3.506,4.01-5.835,12.609.822,23.162l18.251,10.943s7.259,4.4,11.133,3.408a7.477,7.477,0,0,0,5.066-3.809,8.282,8.282,0,0,0,6.513.1c3.953-1.367,2-7.035,2-7.035s6.176-2.348,6.816-6.157S1075.121,339.3,1075.121,339.3Z" transform="translate(-687.182 -198.501)" fill="#262626"/>
        <path id="Path_5723" data-name="Path 5723" d="M1033.26,474.227c-.413-12.117,4.476-42.281,6.956-44.015s18.766.852,20.625,2.757,6.649,41.955,6.649,41.955Z" transform="translate(-691.873 -266.954)" fill="#2074b9"/>
        <path id="Path_5724" data-name="Path 5724" d="M1075.228,431.562a61.489,61.489,0,0,0-13.348-1.912l6.4,5.68Z" transform="translate(-709.671 -266.96)" fill="#f2edcc"/>
        <path id="Path_5725" data-name="Path 5725" d="M1064.647,491.6c-.117,8.6-8.584,12.041-15.339,12.041-6.2,0-13.844-2-14.59-10.4a134.753,134.753,0,0,0-1.458,19.482l34.23.7S1066.169,502.354,1064.647,491.6Z" transform="translate(-691.873 -305.452)" fill="#2074b9"/>
        <path id="Path_5726" data-name="Path 5726" d="M1060.22,507.167c6.195,2.753,14.01,2.064,20.8-2.617l.072-2.62C1074.147,506.879,1068.4,508.81,1060.22,507.167Z" transform="translate(-708.64 -311.871)" fill="#004e90"/>
        <path id="Path_5727" data-name="Path 5727" d="M1040.37,441.36c-1.549,1.552-3.029,14.681-4.04,23.855C1039,457.506,1040.59,445.389,1040.37,441.36Z" transform="translate(-693.796 -274.236)" fill="#004e90"/>
        <path id="Path_5728" data-name="Path 5728" d="M1110.092,464.6c-.356,1.227-2.045-2.651-2-.988a200.8,200.8,0,0,0,4.328,32.129l1.583.03S1111.9,475.271,1110.092,464.6Z" transform="translate(-738.382 -287.798)" fill="#004e90"/>
        <path id="Path_5729" data-name="Path 5729" d="M1024.759,541.313s-4.824-14.2,5.642-13.919,14.154,5.271,14.154,5.271,6.437-6.577,14.98-5.339,5.581,14.389,5.581,14.389Z" transform="translate(-685.916 -327.554)" fill="#9bc7ed"/>
        <path id="Path_5730" data-name="Path 5730" d="M1065.377,534.247a28.209,28.209,0,0,1-5.744,1.825c-6.755,1.412-12.693.379-13.253-2.348-.22-1.053.417-2.2,1.662-3.3-3.821,2.136-4.214,4.059-8.077,5.445-4.964,1.78-10.012.379-11.273-3.143a5.742,5.742,0,0,1,.663-4.888c-9.088.7-4.585,13.889-4.585,13.889l40.357.409A23.478,23.478,0,0,0,1065.377,534.247Z" transform="translate(-685.92 -327.97)" fill="#9bc7ed"/>
        <path id="Path_5731" data-name="Path 5731" d="M1111.024,544.577H1097.87s4.888-13.972,9.713-12.734S1111.024,544.577,1111.024,544.577Z" transform="translate(-732.033 -330.408)" fill="#004e90"/>
        <path id="Path_5732" data-name="Path 5732" d="M1027.026,544.185h13.2s-5.657-13.745-10.432-12.53S1027.026,544.185,1027.026,544.185Z" transform="translate(-687.755 -330.293)" fill="#004e90"/>
        <g id="Group_1100" data-name="Group 1100" transform="translate(342.031 213.1)" opacity="0.42">
          <path id="Path_5733" data-name="Path 5733" d="M1095.637,591.531c-.216,1.386,2.056,5.718,5.407,8.3,0,0-.545-8.183-1.454-9.315,1.628-5.335,5.653-20.069,6.846-27.74h-5.873c-.678,6.373-2.31,22.314-2.791,27.229C1096.773,590.127,1095.766,590.725,1095.637,591.531Z" transform="translate(-1072.667 -562.78)" fill="#9e3636"/>
          <path id="Path_5734" data-name="Path 5734" d="M1042.119,591.013c-1.136,1-3.366,9.2-3.366,9.2,3.934-2.158,7.123-6.225,7.194-7.653.034-.757-.723-1.424-1.613-1.738-.186-2.378-1.893-20.5-2.651-28.039H1035c1.378,8.27,5.846,23.545,7.369,28.062a1.267,1.267,0,0,0-.25.17Z" transform="translate(-1035 -562.78)" fill="#9e3636"/>
        </g>
        <path id="Path_5735" data-name="Path 5735" d="M1029.118,538.6c.193,9.088,5.369,34.92,5.782,35.541s1.446.617,1.446-1.242-.825-32.852-.928-34.92-2.17-4.029-3.718-3.718S1029.072,536.033,1029.118,538.6Z" transform="translate(-689.314 -331.937)" fill="#ff9566"/>
        <path id="Path_5736" data-name="Path 5736" d="M1119.63,538.826c-.17,9.088-4.7,34.92-5.055,35.541s-1.265.617-1.265-1.242.723-32.852.81-34.92,1.893-4.029,3.253-3.718S1119.656,536.228,1119.63,538.826Z" transform="translate(-741.627 -332.079)" fill="#ff9566"/>
        <path id="Path_5737" data-name="Path 5737" d="M1119.495,534.49h-.057a4.328,4.328,0,0,0-.466,1.579c-.174,2.064-2.143,33-2.219,34.859-.034.856.144,1.31.379,1.515,1.223-6.263,4.479-25.915,4.623-33.6C1121.793,536.251,1120.843,534.8,1119.495,534.49Z" transform="translate(-743.763 -332.102)" fill="#ffb882"/>
        <path id="Path_5738" data-name="Path 5738" d="M1067.67,412.381l2.068-10.671,6.509.78.095,11.117-4.847,1.965Z" transform="translate(-713.269 -249.6)" fill="#ffb882"/>
        <path id="Path_5739" data-name="Path 5739" d="M1039.461,571.588c-.133-6.278-.814-31.747-.909-33.613-.1-2.064-2.17-4.029-3.718-3.718a2.931,2.931,0,0,0-.538.163,7.2,7.2,0,0,0-.136,1.435c.045,9.088,4.805,35,5.207,35.628A.818.818,0,0,0,1039.461,571.588Z" transform="translate(-692.447 -331.937)" fill="#ffb882"/>
        <path id="Path_5740" data-name="Path 5740" d="M1105.69,456.39l2.272,7.494,4.3,3.313,2.329-3.813A29.758,29.758,0,0,1,1105.69,456.39Z" transform="translate(-736.892 -283.575)" fill="#004e90"/>
        <path id="Path_5741" data-name="Path 5741" d="M1059.479,425.272c6.2,1.363,14.355-3.84,16.04-8.33a27.414,27.414,0,0,0-4.673-2.1h0a31.1,31.1,0,0,0-4.453-1.223h0L1066.3,402.5l-6.509-.78-2.068,10.671h0c-.757-.057-1.515-.087-2.2-.095h0a8.249,8.249,0,0,0-3.866.568h0S1052.58,423.754,1059.479,425.272Z" transform="translate(-703.321 -249.606)" fill="#9e3636" opacity="0.33"/>
        <path id="Path_5742" data-name="Path 5742" d="M1046.376,359.6c-9.663-1.791-16.945-10.64-14.154-23.556,2.776-12.874,13.946-19.834,26.756-13.844s13.533,19.527,11.882,25.518S1059.186,361.976,1046.376,359.6Z" transform="translate(-690.869 -198.847)" fill="#ffb882"/>
        <path id="Path_5743" data-name="Path 5743" d="M1121.746,467.768l6.869-10.591-1.757-1.446-6.248,11Z" transform="translate(-746.163 -283.165)" fill="#9bc7ed"/>
        <path id="Path_5744" data-name="Path 5744" d="M1020.552,433.58l-.14,4.339s-12.844,5.8-15.426,13.086,7.194,19.217,7.194,19.217l-.31.5c-3.787-2.961-9.694-12.583-9.554-17.956S1004.02,441.846,1020.552,433.58Z" transform="translate(-672.66 -269.402)" fill="#ffb882"/>
        <path id="Path_5745" data-name="Path 5745" d="M1013.055,470.248l.288-.511s-10.326-11.451-8.092-18.85,14.768-13.81,14.768-13.81l-.038-2.382c.7-.379,1.42-.757,2.185-1.136l.2,5.029s-12.776,5.184-15.358,12.465,6.767,19.149,6.767,19.149l-.31.5a12.869,12.869,0,0,1-1.034-.928C1012.653,469.945,1012.858,470.112,1013.055,470.248Z" transform="translate(-674.288 -269.39)" fill="#ff9566"/>
        <path id="Path_5746" data-name="Path 5746" d="M1020.466,521.45c1.291,1.06,1.178.973,1.284,1.382s.7,1.977.28,2.442-3.147,1.291-3.279.576.878-2.972.5-4.779C1018.951,519.689,1020.466,521.45,1020.466,521.45Z" transform="translate(-682.865 -323.435)" fill="#ffb882"/>
        <path id="Path_5747" data-name="Path 5747" d="M1025.6,529.71c.379,1.094,1.783,4.165,1.549,4.544s-2.507-3.688-2.507-3.688Z" transform="translate(-686.532 -329.132)" fill="#ffb882"/>
        <path id="Path_5748" data-name="Path 5748" d="M1024.515,524.77c.871.417,3.381,2.753,3.279,3.109s-3.624-1.893-3.624-1.893Z" transform="translate(-686.24 -326.062)" fill="#ffb882"/>
        <path id="Path_5749" data-name="Path 5749" d="M1022.506,531.86c.03,1.2.417,4.729.053,5.089s-1.3-4.336-1.3-4.336Z" transform="translate(-684.432 -330.468)" fill="#ffb882"/>
        <path id="Path_5750" data-name="Path 5750" d="M1019.321,530.47c-.473,1.117-1.647,4.608-2.166,4.892s.67-4.449.67-4.449Z" transform="translate(-681.8 -329.604)" fill="#ffb882"/>
        <path id="Path_5751" data-name="Path 5751" d="M1030.58,430.21l.28,12.9-8.13,5.491-5.99-9.811S1023.969,432.38,1030.58,430.21Z" transform="translate(-681.624 -267.308)" fill="#2074b9"/>
        <path id="Path_5752" data-name="Path 5752" d="M1035.316,450.25l-2.272,7.494-4.305,3.309-2.329-3.813A29.7,29.7,0,0,0,1035.316,450.25Z" transform="translate(-687.632 -279.76)" fill="#004e90"/>
        <path id="Path_5753" data-name="Path 5753" d="M1020.743,461.628l-6.873-10.591,1.757-1.447,6.252,11Z" transform="translate(-679.84 -279.35)" fill="#9bc7ed"/>
        <path id="Path_5754" data-name="Path 5754" d="M1113.952,643.341c-3.306-2.893-5.729-7.744-5.627-9.292s2.685-2.378,3.616-1.136S1113.952,643.341,1113.952,643.341Z" transform="translate(-738.527 -392.882)" fill="#1e1e1d"/>
        <path id="Path_5755" data-name="Path 5755" d="M1033,645.884c3.787-2.4,7.013-6.922,7.153-8.508s-2.336-2.825-3.472-1.719S1033,645.884,1033,645.884Z" transform="translate(-691.727 -394.699)" fill="#1e1e1d"/>
        <path id="Path_5756" data-name="Path 5756" d="M1123.618,347.14c-5.786,4.2-1.337,18.755-3.378,22.935,0,0,6.892-1.738,8.266-6.335C1128.036,355.455,1127.162,351.18,1123.618,347.14Z" transform="translate(-745.933 -215.693)" fill="#111"/>
        <path id="Path_5757" data-name="Path 5757" d="M1119.34,402.254c2.878.534,7.971-1.238,7.354-3.734s-3.889-1.015-4.786-.273S1119.34,402.254,1119.34,402.254Z" transform="translate(-745.373 -246.754)" fill="#ffb882"/>
        <path id="Path_5758" data-name="Path 5758" d="M1094.354,362.864c.042-2.518-1.59-4.464-3.639-4.343s-3.745,2.272-3.787,4.786,1.575,3.328,3.628,3.207S1094.316,365.39,1094.354,362.864Z" transform="translate(-725.234 -222.761)" fill="#ea7b59"/>
        <path id="Path_5759" data-name="Path 5759" d="M1052.374,364.424c.042-2.518-1.59-4.464-3.639-4.343s-3.745,2.272-3.787,4.782,1.575,3.332,3.628,3.211S1052.336,366.946,1052.374,364.424Z" transform="translate(-699.15 -223.731)" fill="#ea7b59"/>
        <path id="Path_5760" data-name="Path 5760" d="M1052.755,366.275c-.034-2.488-1.624-4.514-3.552-4.525s-3.469,1.992-3.434,4.483,1.575,3.408,3.506,3.408S1052.786,368.763,1052.755,366.275Z" transform="translate(-699.66 -224.771)" fill="#fff8f8"/>
        <path id="Path_5761" data-name="Path 5761" d="M1050.056,368.168a2.335,2.335,0,0,0-1.708-2.651c-1.056-.144-2,.837-2.117,2.166a2.335,2.335,0,0,0,1.712,2.651C1049,370.477,1049.943,369.5,1050.056,368.168Z" transform="translate(-699.941 -227.103)" fill="#190b01"/>
        <path id="Path_5762" data-name="Path 5762" d="M1054.2,367.93a.893.893,0,0,0-.663-1.019c-.405-.053-.757.322-.814.833a.894.894,0,0,0,.659,1.022C1053.795,368.835,1054.158,368.457,1054.2,367.93Z" transform="translate(-703.975 -227.975)" fill="#f9f9f9"/>
        <path id="Path_5763" data-name="Path 5763" d="M627.646,228.985a1.81,1.81,0,0,1,1.333-2.06,1.648,1.648,0,0,1,1.651,1.689,1.81,1.81,0,0,1-1.333,2.06A1.648,1.648,0,0,1,627.646,228.985Z" transform="translate(-439.858 -140.992)" fill="#262626"/>
        <path id="Path_5764" data-name="Path 5764" d="M633.414,230.78a.7.7,0,0,1,.515-.8c.318-.038.6.254.636.655a.7.7,0,0,1-.515.8C633.732,231.473,633.448,231.181,633.414,230.78Z" transform="translate(-443.44 -142.897)" fill="#f9f9f9"/>
        <path id="Path_5765" data-name="Path 5765" d="M658.906,233.182a1.68,1.68,0,0,1,1.238-1.916,1.505,1.505,0,0,1,1.515,1.571,1.7,1.7,0,0,1-1.238,1.916C659.656,234.848,658.986,234.144,658.906,233.182Z" transform="translate(-459.281 -143.69)" fill="#262626"/>
        <path id="Path_5766" data-name="Path 5766" d="M663.68,234.962a.651.651,0,0,1,.481-.757c.3-.038.56.235.591.606a.651.651,0,0,1-.477.757C663.979,235.605,663.714,235.336,663.68,234.962Z" transform="translate(-462.244 -145.519)" fill="#f9f9f9"/>
        <path id="Path_5767" data-name="Path 5767" d="M1040.35,343.372l1.515,1.242c.326-1.178,3.843-4.737,8.024-4.544l-1.246-2.9S1041.868,337.742,1040.35,343.372Z" transform="translate(-696.294 -209.498)" fill="#262626"/>
        <path id="Path_5768" data-name="Path 5768" d="M1094.283,365.167c-.027-2.461-1.579-4.4-3.469-4.339s-3.408,2.117-3.366,4.578,1.541,3.3,3.408,3.234S1094.314,367.632,1094.283,365.167Z" transform="translate(-725.557 -224.197)" fill="#fff8f8"/>
        <path id="Path_5769" data-name="Path 5769" d="M1091.186,366.918a2.3,2.3,0,0,0-1.708-2.617,2.1,2.1,0,0,0-2.117,2.147,2.29,2.29,0,0,0,1.708,2.613A2.1,2.1,0,0,0,1091.186,366.918Z" transform="translate(-725.497 -226.349)" fill="#190b01"/>
        <path id="Path_5770" data-name="Path 5770" d="M1095.33,366.661a.882.882,0,0,0-.659-1.011.81.81,0,0,0-.814.829.882.882,0,0,0,.659,1.011.81.81,0,0,0,.814-.829Z" transform="translate(-729.532 -227.194)" fill="#f9f9f9"/>
        <path id="Path_5771" data-name="Path 5771" d="M1095.326,344.362l-1.3,1.431c-.492-1.136-4.476-4.241-8.561-3.506l.807-3.052S1093.013,338.94,1095.326,344.362Z" transform="translate(-724.329 -210.78)" fill="#262626"/>
        <path id="Path_5772" data-name="Path 5772" d="M1060,398.86l10.807.7s-1.378,3.9-5.066,4C1061.552,403.68,1060,398.86,1060,398.86Z" transform="translate(-708.503 -247.829)" fill="#763224"/>
        <path id="Path_5773" data-name="Path 5773" d="M1062.73,399.94l9.039.541a9.884,9.884,0,0,1-4.544.8C1063.646,401.3,1062.73,399.94,1062.73,399.94Z" transform="translate(-710.199 -248.5)" fill="#fffbdd"/>
        <path id="Path_5774" data-name="Path 5774" d="M1067.838,385.007a5.476,5.476,0,0,0,2.651.451l-.685-3.6C1067.134,382.057,1066.433,384.253,1067.838,385.007Z" transform="translate(-712.933 -237.266)" fill="#ea7b59"/>
        <path id="Path_5775" data-name="Path 5775" d="M1069.947,385.388a4.165,4.165,0,0,0,2.037.424l-.534-2.882C1069.489,383.153,1068.978,384.8,1069.947,385.388Z" transform="translate(-714.387 -237.931)" fill="#ffb882"/>
        <path id="Path_5776" data-name="Path 5776" d="M1071.135,415.821c0-.189-.757-.314-1.67-.28s-1.659.212-1.655.4.757.314,1.67.284S1071.138,416.01,1071.135,415.821Z" transform="translate(-713.356 -258.19)" fill="#ea7b59"/>
        <path id="Path_5777" data-name="Path 5777" d="M1073.14,406.614c-.03-.481-2.707-.909-3.972-.837s-1.189.428-1.159.909,1.624,1.007,2.889.935S1073.166,407.1,1073.14,406.614Z" transform="translate(-713.471 -252.122)" fill="#ea7b59"/>
        <path id="Path_5778" data-name="Path 5778" d="M1151.6,76.883c.1-.454.185-.913.261-1.378v-.023c.072-.443.129-.89.178-1.337v-.117c.046-.409.076-.825.1-1.242v-.22c.023-.477.038-.958.038-1.446,0-14.624-11.42-26.479-25.514-26.479-.462,0-.92,0-1.378.038-.148,0-.292.023-.439.034-.307.023-.617.049-.92.083a3.738,3.738,0,0,0-.5.064c-.28.038-.564.076-.841.121l-.511.095c-.273.053-.545.106-.818.167l-.488.117c-.276.068-.553.14-.822.216-.155.042-.307.087-.458.136-.284.083-.56.174-.84.269l-.409.144c-.3.11-.587.223-.878.341l-.337.136c-.322.14-.644.284-.958.435l-.231.106c-.379.186-.757.379-1.136.583h-.03a25.806,25.806,0,0,0-6.384,5.01h0c-.3.326-.6.659-.882,1h0a26.977,26.977,0,0,0-6.237,17.342c0,14.624,11.424,26.479,25.514,26.479,12.182,0,22.36-8.861,24.9-20.7h0Z" transform="translate(-734.077 -27.737)" fill="#b53939" opacity="0.38"/>
        <path id="Path_5779" data-name="Path 5779" d="M1152.268,59.6A25.517,25.517,0,1,0,1126.754,84.7,25.3,25.3,0,0,0,1152.268,59.6Z" transform="translate(-734.127 -21.443)" fill="#fffdf3"/>
        <rect id="Rectangle_1147" data-name="Rectangle 1147" width="1.121" height="4.627" transform="translate(392.059 57.226)" fill="#68625e"/>
        <rect id="Rectangle_1148" data-name="Rectangle 1148" width="1.121" height="4.627" transform="translate(392.059 14.609)" fill="#68625e"/>
        <rect id="Rectangle_1149" data-name="Rectangle 1149" width="4.627" height="1.121" transform="translate(368.999 37.669)" fill="#68625e"/>
        <rect id="Rectangle_1150" data-name="Rectangle 1150" width="4.623" height="1.121" transform="translate(411.616 37.669)" fill="#68625e"/>
        <rect id="Rectangle_1151" data-name="Rectangle 1151" width="1.121" height="4.627" transform="matrix(0.708, -0.707, 0.707, 0.708, 375.509, 21.914)" fill="#68625e"/>
        <rect id="Rectangle_1152" data-name="Rectangle 1152" width="1.121" height="4.627" transform="translate(405.652 52.057) rotate(-44.99)" fill="#68625e"/>
        <rect id="Rectangle_1153" data-name="Rectangle 1153" width="4.627" height="1.121" transform="matrix(0.707, -0.707, 0.707, 0.707, 405.658, 24.404)" fill="#68625e"/>
        <rect id="Rectangle_1154" data-name="Rectangle 1154" width="4.627" height="1.121" transform="translate(375.538 54.565) rotate(-44.95)" fill="#68625e"/>
        <rect id="Rectangle_1155" data-name="Rectangle 1155" width="2.522" height="10.902" transform="translate(391.358 27.737)" fill="#68625e"/>
        <rect id="Rectangle_1156" data-name="Rectangle 1156" width="1.882" height="15.582" transform="matrix(0.707, -0.708, 0.708, 0.707, 391.884, 38.199)" fill="#68625e"/>
        <path id="Path_5780" data-name="Path 5780" d="M380.889,656.78,392.961,624.3c-37.714-13.336-90.775-3.525-104.771,1.761l12.988,29.289Z" transform="translate(-228.944 -383.742)" fill="#6c383d"/>
        <path id="Path_5781" data-name="Path 5781" d="M433.281,602.467c-1.318-.757-5.373-1.4-8.365-1-3.949.519-6.793,2.457-6.619,3.166C418.438,605.189,433.281,602.467,433.281,602.467Z" transform="translate(-309.781 -373.641)" fill="#a8a822"/>
        <path id="Path_5782" data-name="Path 5782" d="M431.749,603.548c.254.121,2.488,8.312-6.74,9.807s-11.5-5.945-11.413-7.107C413.653,605.532,429.412,602.435,431.749,603.548Z" transform="translate(-306.862 -374.862)" fill="#a8a822"/>
        <path id="Path_5783" data-name="Path 5783" d="M413,619.222c0-1.852,5.252-5.036,11.038-5.328s9.925,2.427,9.925,4.279-4.68,3.586-10.485,3.878S413,621.074,413,619.222Z" transform="translate(-306.494 -381.426)" fill="#bbbf2b"/>
        <path id="Path_5784" data-name="Path 5784" d="M413.959,607.676a4.624,4.624,0,0,1-.379-1.617c.083-.992,15.847-4.093,18.153-2.7a2.58,2.58,0,0,1,.288.962C427.185,602.8,419.472,603.62,413.959,607.676Z" transform="translate(-306.854 -374.673)" fill="#bbbf2b"/>
        <path id="Path_5785" data-name="Path 5785" d="M443.382,597.4c.727-.818.977-2.779-.492-3.2a2.283,2.283,0,0,0-3.01,2.768Z" transform="translate(-323.157 -369.13)" fill="#a8a822"/>
        <path id="Path_5786" data-name="Path 5786" d="M444.358,597.72c.5-.579.61-1.98-.454-2.272s-2.454.254-2.064,1.973Z" transform="translate(-324.371 -369.931)" fill="#f7f78a"/>
        <path id="Path_5787" data-name="Path 5787" d="M426.8,595.989c.307-1.359-.492-3.946-2.23-3.817s-3.34,2.007-1.594,4.843Z" transform="translate(-312.221 -367.94)" fill="#a8a822"/>
        <path id="Path_5788" data-name="Path 5788" d="M427.415,597.2c.178-1.026-.424-3-1.605-2.923s-2.227,1.481-.977,3.658Z" transform="translate(-313.494 -369.248)" fill="#f7f78a"/>
        <path id="Path_5789" data-name="Path 5789" d="M392.439,618.86l-7.751,14.707-18.145-.3L359.7,619.326l.47-5.286Z" transform="translate(-273.376 -381.53)" fill="#fde57f"/>
        <path id="Path_5790" data-name="Path 5790" d="M392.749,621.63l-7.755,14.707-18.141-.3L360.01,622.1l.47-5.286Z" transform="translate(-273.569 -383.251)" fill="#fdcd57"/>
        <path id="Path_5791" data-name="Path 5791" d="M384.44,643.36l2.874-12.208-19.671-2.8L364.22,641.8Z" transform="translate(-276.185 -390.421)" fill="#fc477d"/>
        <path id="Path_5792" data-name="Path 5792" d="M385.074,643.982l2.643-11.2-18.058-2.567-3.139,12.344Z" transform="translate(-277.614 -391.577)" fill="#fdcd57"/>
        <path id="Path_5793" data-name="Path 5793" d="M338.976,649.613c6.464-4.131,6.059-10.5.549-17.573s-15.124-8.092-20.107-4.48c-6.717,4.866-3.1,13.083.837,18.035C324.352,650.745,331.528,654.372,338.976,649.613Z" transform="translate(-246.022 -388.665)" fill="#b05947"/>
        <path id="Path_5794" data-name="Path 5794" d="M383.71,633.961s-10.727.583-12.556,1.087c0,0-2.545-9.069-10.44-12.223-.269-.11,12.825,1.738,14.124-3.344-4.578-1.492-15.525,1.314-15.9,1.219l-.765,3.628L368.9,638.638l15.4-1.749Z" transform="translate(-272.426 -384.638)" fill="#e0aaaa"/>
        <path id="Path_5795" data-name="Path 5795" d="M343.07,614.428c2.753-1.189,16.721-9.652,21.493-4.544,1.8,1.92-.379,5.055-3.881,5.218s-12.416.11-13.9.871S343.07,614.428,343.07,614.428Z" transform="translate(-263.043 -377.938)" fill="#973f30"/>
        <path id="Path_5796" data-name="Path 5796" d="M338.976,649.613c6.464-4.131,6.059-10.5.549-17.573s-15.124-8.092-20.107-4.48c-6.717,4.866-3.1,13.083.837,18.035C324.352,650.745,331.528,654.372,338.976,649.613Z" transform="translate(-246.022 -388.665)" fill="#973f30"/>
        <path id="Path_5797" data-name="Path 5797" d="M347.564,650.227c5.426-3.647,4.994-9.36.189-15.756s-10.682-5.71-14.862-2.514C325.171,637.871,341.335,654.426,347.564,650.227Z" transform="translate(-255.447 -391.187)" fill="#b05947"/>
        <path id="Path_5798" data-name="Path 5798" d="M352.374,650.908c3.184-2.878,2.363-6.547-1.356-10.25-7.952-7.918-17.354,1.1-8.077,10.159C345.695,653.506,348.709,654.229,352.374,650.908Z" transform="translate(-260.571 -396.178)" fill="#df7664"/>
        <path id="Path_5799" data-name="Path 5799" d="M387.073,662.868c4.544-.17,18.2-3.275,20.591.064,1.825,2.552-.121,6.384-3.143,7.4-4.771,1.6-18.531-4.419-18.531-4.419Z" transform="translate(-289.711 -410.951)" fill="#b05947"/>
        <path id="Path_5800" data-name="Path 5800" d="M385.38,662.623a17.162,17.162,0,0,0,1.912.144,1.776,1.776,0,0,0-.466,1.007c-.144,1.662,2.427,3.245,5.74,3.533s6.119-.826,6.267-2.488c.106-1.231-1.28-2.416-3.351-3.067,4.9-.515,9.822-.648,11.144,1.2,1.825,2.552-.121,6.384-3.143,7.4-4.771,1.6-19.164-4.336-19.164-4.336Z" transform="translate(-288.674 -410.968)" fill="#973f30"/>
        <path id="Path_5801" data-name="Path 5801" d="M305.105,599.292c-.068-3.787-2.715-15.271-14.06-14.442s-13.529,13.189-10.792,17.206,7.194,7.573,11.992,7.982C295.923,610.364,301.837,600.519,305.105,599.292Z" transform="translate(-223.352 -363.366)" fill="#b05947"/>
        <path id="Path_5802" data-name="Path 5802" d="M279.924,607.51a10.405,10.405,0,0,0,.4,5.828c2.2,5.956,9.292,8.493,16.029,6,4.2-1.556,7.8-6.369,8.5-8.206a14.541,14.541,0,0,1,.246,2.272,41.427,41.427,0,0,0-9.163,10.773,7.522,7.522,0,0,1-3.029.678c-6.816.856-9.947-4.673-12.677-8.686C279.015,614.356,278.784,610.876,279.924,607.51Z" transform="translate(-223.347 -377.472)" fill="#973f30"/>
        <path id="Path_5803" data-name="Path 5803" d="M309.65,577.728c1.216-2.033.481-6.168-3.158-5.756s-3.522,4.165-2.333,6.414Z" transform="translate(-238.404 -355.374)" fill="#b05947"/>
        <path id="Path_5804" data-name="Path 5804" d="M311.2,578.682c.674-1.136.174-3.571-1.943-3.45s-1.984,2.314-1.25,3.65Z" transform="translate(-240.957 -357.414)" fill="#7c3225"/>
        <path id="Path_5805" data-name="Path 5805" d="M273.253,608.45c-1.791-1.552-5.99-1.545-6.218,2.109s3.983,4.237,6.392,3.457Z" transform="translate(-215.794 -377.447)" fill="#b05947"/>
        <path id="Path_5806" data-name="Path 5806" d="M274.64,611.629c-1.113-.966-3.73-.962-3.87,1.314s2.181,2.613,3.684,2.124Z" transform="translate(-218.116 -379.652)" fill="#7c3225"/>
        <path id="Path_5807" data-name="Path 5807" d="M489.709,583.526l-13.685-9.8-2.359,4.563-12.106,14.1,12.753,7.388Z" transform="translate(-336.666 -356.483)" fill="#f55997"/>
        <path id="Path_5808" data-name="Path 5808" d="M497,586.439l-11.666-8.349-2.011,3.889L473,594l10.871,6.3Z" transform="translate(-343.774 -359.192)" fill="#d6357f"/>
        <path id="Path_5809" data-name="Path 5809" d="M489.162,585.78l10.932,7.49-2.624,3.325-10.97-7.713Z" transform="translate(-352.163 -363.97)" fill="#fcfbdf" opacity="0.49"/>
        <path id="Path_5810" data-name="Path 5810" d="M451.689,634.8a16.866,16.866,0,0,1-19.33,9.9,12.408,12.408,0,0,1-8.584-17.085,16.87,16.87,0,0,1,19.33-9.9A12.4,12.4,0,0,1,451.689,634.8Z" transform="translate(-312.565 -383.518)" fill="#60c8e0"/>
        <path id="Path_5811" data-name="Path 5811" d="M451.689,634.8a16.866,16.866,0,0,1-19.33,9.9,12.408,12.408,0,0,1-8.584-17.085,16.87,16.87,0,0,1,19.33-9.9A12.4,12.4,0,0,1,451.689,634.8Z" transform="translate(-312.565 -383.518)" fill="#39a4ca"/>
        <ellipse id="Ellipse_143" data-name="Ellipse 143" cx="12.549" cy="10.591" rx="12.549" ry="10.591" transform="translate(108.131 243.301) rotate(-33.51)" fill="#60c8e0"/>
        <circle id="Ellipse_144" data-name="Ellipse 144" cx="6.698" cy="6.698" r="6.698" transform="translate(131.195 241.197)" fill="#39a4ca"/>
        <circle id="Ellipse_145" data-name="Ellipse 145" cx="11.432" cy="11.432" r="11.432" transform="translate(135.883 247.691) rotate(-80.83)" fill="#fdcd57"/>
        <ellipse id="Ellipse_146" data-name="Ellipse 146" cx="10.129" cy="9.819" rx="10.129" ry="9.819" transform="translate(138.696 227.141)" fill="#fde57f"/>
        <path id="Path_5812" data-name="Path 5812" d="M519.419,628.657s-3.787-.235-11,4.472a7.923,7.923,0,0,0-9.175-1.893l2.685,9.02,17.418-9.33Z" transform="translate(-360.079 -390.61)" fill="#fdcd57"/>
        <circle id="Ellipse_147" data-name="Ellipse 147" cx="7.66" cy="7.66" r="7.66" transform="translate(133.732 240.644)" fill="#a966ba"/>
        <path id="Path_5813" data-name="Path 5813" d="M499.558,641.558c-.257,2.806-3.192,5.082-6.555,5.082s-5.881-2.272-5.623-5.082,3.192-5.078,6.555-5.078S499.815,638.756,499.558,641.558Z" transform="translate(-352.698 -395.473)" fill="#ce7ae3"/>
        <path id="Path_5814" data-name="Path 5814" d="M502.918,644.37a55.336,55.336,0,0,0-10.148,6.922l2.84.776,7.891-6.059Z" transform="translate(-356.058 -400.375)" fill="#a966ba"/>
        <path id="Path_5815" data-name="Path 5815" d="M495.269,638.646c.212.682-.738,1.8-2.121,2.5s-2.677.712-2.885.03.735-1.8,2.121-2.5S495.068,637.965,495.269,638.646Z" transform="translate(-354.483 -396.507)" fill="#e393f7"/>
        <path id="Path_5816" data-name="Path 5816" d="M507.232,638.692c-.212.314-.856.379-1.439.159s-.886-.67-.674-.984.86-.379,1.443-.159S507.444,638.374,507.232,638.692Z" transform="translate(-363.689 -396.155)" fill="#e393f7"/>
        <path id="Path_5817" data-name="Path 5817" d="M385.222,669.079H300.7l-9.932-29.433c11.2-.466,19.535,16.525,26.767,17.611s28.46,2.685,42.224-4.313,23.151-18.895,34.817-15.339Z" transform="translate(-230.547 -395.769)" fill="#fd6464"/>
        <path id="Path_5818" data-name="Path 5818" d="M363.74,693.5c2.109,3.408,4.767,7.812,5.453,10.712H359.1A62.432,62.432,0,0,1,358,693.5Z" transform="translate(-272.32 -430.902)" fill="#ed4343"/>
        <path id="Path_5819" data-name="Path 5819" d="M314.516,662.292c-.621,2.522-5.449,14.389-.78,17.823,1.757,1.3,5.525-1.833,5.225-4.87s-2.416-10.83-1.988-12.208S314.516,662.292,314.516,662.292Z" transform="translate(-243.565 -411.421)" fill="#ed4343"/>
        <path id="Path_5820" data-name="Path 5820" d="M359.3,654.985c-13.7,7.039-33.844,5.68-41.043,4.612-6.24-.924-13.48-14.624-25.45-16.282-1.772-.246-3.06-4.923-1.272-4.805,12.818.757,18.176,16.453,25.124,17.52s30.217,3.071,43.451-3.968c12.939-6.88,23.1-20.16,34.814-16.154.47.159-.049,1.34-.095,1.848h0a1.666,1.666,0,0,1-.564,1.113,1.514,1.514,0,0,1-1.136.379C382.3,638.135,371.511,648.707,359.3,654.985Z" transform="translate(-230.487 -394.659)" fill="#ed4343"/>
        <path id="Path_5821" data-name="Path 5821" d="M293.249,641.155c3.654,13.632,14.62,24.711,28.99,29.762h-24L286.8,639.97A11.962,11.962,0,0,1,293.249,641.155Z" transform="translate(-228.08 -397.607)" fill="#ed4343"/>
        <path id="Path_5822" data-name="Path 5822" d="M502.684,633.659a13.962,13.962,0,0,1,6.206,1l-10.5,32.349H472.91C488.522,661.521,500.12,648.915,502.684,633.659Z" transform="translate(-343.719 -393.7)" fill="#ed4343"/>
        <path id="Path_5823" data-name="Path 5823" d="M355.384,650.489c-14.249,7-35.215,5.581-42.69,4.491-6.494-.943-15.283-16.562-27.729-18.255-1.848-.25-1.924-3.029-.064-2.908,13.329.81,20.909,18.384,28.142,19.474s28.46,2.681,42.224-4.317c13.457-6.842,24.147-20.788,36.321-16.748a1.1,1.1,0,0,1,.757,1.136h0a1.617,1.617,0,0,1-1.772,1.458C379.319,633.684,368.1,644.245,355.384,650.489Z" transform="translate(-226.056 -392.382)" fill="#fdf0d0"/>
        <path id="Path_5824" data-name="Path 5824" d="M358.416,688.36l-.216,1.734,2.28.621-.523-2.041Z" transform="translate(-272.444 -427.708)" fill="#edc97d"/>
        <path id="Path_5825" data-name="Path 5825" d="M324.932,661.051l.235-2.707-1.833-1.753-.2,3.09Z" transform="translate(-250.654 -407.968)" fill="#edc97d"/>
        <path id="Path_5826" data-name="Path 5826" d="M365.472,686.816c1.984,2.015,11.159,8.558,8.656,10.141a8.841,8.841,0,0,1-8.649.451c-2.488-1.443-3.48-10.837-3.48-10.837Z" transform="translate(-274.805 -426.596)" fill="#973f30"/>
        <path id="Path_5827" data-name="Path 5827" d="M310.549,645.8c-2.329,2.42-12.458,15.858-7.762,21.629,1.768,2.174,6.6-.435,7.194-4.3s.719-13.541,1.689-15.116A3.942,3.942,0,0,0,310.549,645.8Z" transform="translate(-237.251 -401.264)" fill="#973f30"/>
        <path id="Path_5828" data-name="Path 5828" d="M306.106,610.041c2.848-2.083,6.206-3.181,7.388-.818,1.011,2.022-1.011,5.328-4.438,3.722.14,2.673-3.942,6.009-6.059,4.453C300.1,615.3,303.259,612.124,306.106,610.041Z" transform="translate(-237.432 -377.709)" fill="#df7664"/>
        <path id="Path_5829" data-name="Path 5829" d="M311.492,612.613c.856-.689,1.136-1.643.526-1.954-1-.507-3.355.825-3.052,2.23C309.11,613.56,311.159,612.893,311.492,612.613Z" transform="translate(-241.836 -379.361)" fill="#7c3225"/>
        <path id="Path_5830" data-name="Path 5830" d="M297.524,617.249c.273-.4.708-.572.973-.379s.261.651,0,1.053-.712.572-.977.379A.775.775,0,0,1,297.524,617.249Z" transform="translate(-234.616 -383.239)" fill="#7c3225"/>
        <path id="Path_5831" data-name="Path 5831" d="M315.524,603.43c.462-.14.913,0,1.007.3s-.2.674-.663.818-.913,0-1.007-.3S315.062,603.574,315.524,603.43Z" transform="translate(-245.505 -374.904)" fill="#7c3225"/>
        <path id="Path_5832" data-name="Path 5832" d="M306.668,621.422c4.586,0,5.422-3.522,5.57-4.616,3.215.909,4.544-.56,4.657-3.169l-.178-.027c-.193,2.374-1.356,3.692-4.608,2.651l-.292-.091v.3a4.908,4.908,0,0,1-5.161,4.726A.473.473,0,0,0,306.668,621.422Z" transform="translate(-240.413 -381.262)" fill="#7c3225"/>
        <path id="Path_5833" data-name="Path 5833" d="M366.123,665.066a.632.632,0,1,1-.2.984A.719.719,0,0,1,366.123,665.066Z" transform="translate(-277.171 -413.195)" fill="#b05947"/>
        <path id="Path_5834" data-name="Path 5834" d="M355,613.557c-.1-1.253,5.65-4.544,10.659-5.059s5.918,1.393,6.021,2.651-1.435,2.821-6.437,3.355S355.092,614.8,355,613.557Z" transform="translate(-270.454 -378.033)" fill="#b05947"/>
        <path id="Path_5835" data-name="Path 5835" d="M303.062,665.473c1.185-3.631,4.582-9.44,5.388-9.114,1.038.42,1.844,7.834.663,11.469s-2.848,5.528-4.665,4.923S301.877,669.108,303.062,665.473Z" transform="translate(-237.83 -407.816)" fill="#b05947"/>
        <path id="Path_5836" data-name="Path 5836" d="M367.852,695.868c-1.276-2.219-2.969-7.316-1.178-7.721s6.384,4.044,7.66,6.263.216,3.158-1.575,3.563A4.113,4.113,0,0,1,367.852,695.868Z" transform="translate(-277.226 -427.56)" fill="#b05947"/>
        <path id="Path_5837" data-name="Path 5837" d="M426.993,599.584a.666.666,0,1,1,.825.572A.712.712,0,0,1,426.993,599.584Z" transform="translate(-315.186 -372.087)" fill="#8d5757"/>
        <path id="Path_5838" data-name="Path 5838" d="M444.286,598.036a.663.663,0,1,1,.583.7A.644.644,0,0,1,444.286,598.036Z" transform="translate(-325.932 -371.198)" fill="#8d5757"/>
        <path id="Path_5839" data-name="Path 5839" d="M434.6,629.345c1.605-2.208,4.093-3.135,5.551-2.075s1.337,3.715-.269,5.922-4.1,3.135-5.555,2.075S432.992,631.553,434.6,629.345Z" transform="translate(-319.113 -389.478)" fill="#7be4f5"/>
        <path id="Path_5840" data-name="Path 5840" d="M453.081,620.81c1.215-.121,2.245.216,2.3.757s-.89,1.072-2.105,1.193-2.242-.216-2.3-.757S451.866,620.931,453.081,620.81Z" transform="translate(-330.088 -385.721)" fill="#7be4f5"/>
        <path id="Path_5841" data-name="Path 5841" d="M507.215,603.289c1.787-1.045,3.669-1.068,4.2-.053s-.485,2.692-2.272,3.734-3.665,1.068-4.2.053S505.427,604.334,507.215,603.289Z" transform="translate(-363.536 -374.353)" fill="#fcf4b4"/>
        <path id="Path_5842" data-name="Path 5842" d="M525.381,601.305c1.2.28,2.045.879,1.893,1.337s-1.234.6-2.431.322-2.048-.878-1.893-1.337S524.181,601.025,525.381,601.305Z" transform="translate(-374.799 -373.528)" fill="#fcf4b4"/>
        <path id="Path_5843" data-name="Path 5843" d="M537.234,605.252c-.379-.288-.572-.666-.409-.848s.617-.095,1.007.193.572.666.405.844S537.612,605.54,537.234,605.252Z" transform="translate(-383.395 -375.483)" fill="#fcf4b4"/>
        <path id="Path_5844" data-name="Path 5844" d="M465.107,620.07c-.621-.049-1.106-.348-1.079-.67s.549-.545,1.17-.5,1.106.348,1.083.67S465.728,620.112,465.107,620.07Z" transform="translate(-338.199 -384.546)" fill="#7be4f5"/>
        <path id="Path_5845" data-name="Path 5845" d="M455,723.74H0s52,16.729,218.7,16.729S455,723.74,455,723.74Z" transform="translate(0 -449.691)" fill="#0f0f0f" opacity="0.34"/>
      </g>
    </g>
  </g>
</svg>
