<svg xmlns="http://www.w3.org/2000/svg" width="37.531" height="37.456" viewBox="0 0 37.531 37.456">
  <g id="Group_1114" data-name="Group 1114" transform="translate(-402.18 -670.78)">
    <path id="Path_5854" data-name="Path 5854" d="M402.244,670.784c4.464,0,8.749-.019,13.034.031a1.536,1.536,0,0,1,1.17.7c1.269,2.986,3.536,3.558,6.576,3.4,4.973-.254,9.968-.069,14.954-.069h1.656c.03.583.076,1.073.076,1.564q0,14.188-.006,28.377c0,2.466-.973,3.437-3.485,3.439q-15.306.014-30.613,0c-2.411,0-3.422-1-3.423-3.359q-.009-16.354,0-32.71C402.183,671.753,402.218,671.345,402.244,670.784Zm35.448,10.256c-.438-.05-.706-.107-.973-.108q-15.709-.006-31.419-.019c-.85,0-1.123.264-1.12,1.119q.039,11.31,0,22.621c0,1.095.386,1.444,1.475,1.44q15.289-.048,30.58,0c1.093,0,1.489-.358,1.474-1.447-.044-3.164-.016-6.33-.016-9.495Zm-32.768-4.14,1.48-1.336,1.457,1.3.792-.927-1.256-1.353,1.317-1.493-.915-.816-1.422,1.276-1.5-1.335-.757.938,1.246,1.4-1.342,1.531Z" fill="#fff"/>
    <path id="Path_5855" data-name="Path 5855" d="M409.661,693.912l5.738,5.494-1.3,1.33-6.834-6.869L414.174,687l1.028,1.556Z" fill="#fff"/>
    <path id="Path_5856" data-name="Path 5856" d="M427.9,686.888l6.744,6.761-6.973,6.964-1.022-1.417,5.616-5.406-6.012-5.535Z" fill="#fff"/>
    <path id="Path_5857" data-name="Path 5857" d="M420.087,701.058l-1.977-.594c1.242-4.779,2.46-9.463,3.689-14.191l1.981.54C422.55,691.556,421.337,696.236,420.087,701.058Z" fill="#fff"/>
  </g>
</svg>
