<svg xmlns="http://www.w3.org/2000/svg" width="49.211" height="40" viewBox="0 0 49.211 40">
  <g id="dashboard" transform="translate(-4965.23 -2068.871)">
    <path id="Path_5858" data-name="Path 5858" d="M4965.23,2107.707v-37.665a1.81,1.81,0,0,1,1.928-1.166c3.892.035,7.782.015,11.674.015q16.862,0,33.723-.02a1.73,1.73,0,0,1,1.886,1.868q-.042,18.207-.019,36.414a1.537,1.537,0,0,1-1.723,1.708q-22.771,0-45.542.01A1.818,1.818,0,0,1,4965.23,2107.707Zm46.107-35.71h-43.012v3.048h4.554v3.083h-4.545v27.624h42.978v-27.659h-35.286v-3.08h35.312Z" fill="#fff"/>
    <path id="Path_5859" data-name="Path 5859" d="M5279.892,2205.554q0,3.708,0,7.416a1.222,1.222,0,0,1-1.334,1.332q-4.312,0-8.626,0a1.218,1.218,0,0,1-1.281-1.269q0-7.455,0-14.91a1.217,1.217,0,0,1,1.315-1.312q4.332-.005,8.665,0a1.219,1.219,0,0,1,1.264,1.287q0,3.728,0,7.455Zm-8.73,6.223h6.2v-12.448h-6.2Z" transform="translate(-270.464 -112.936)" fill="#fff"/>
    <path id="Path_5860" data-name="Path 5860" d="M5036.584,2200.573c0,.819,0,1.639,0,2.458a1.216,1.216,0,0,1-1.254,1.253q-2.478,0-4.955,0a1.22,1.22,0,0,1-1.286-1.264q0-2.458,0-4.916a1.219,1.219,0,0,1,1.313-1.312q2.457-.007,4.916,0a1.217,1.217,0,0,1,1.262,1.248C5036.589,2198.883,5036.583,2199.728,5036.584,2200.573Zm-2.524,1.2v-2.453h-2.455v2.453Z" transform="translate(-58.859 -114.911)" fill="#fff"/>
    <path id="Path_5861" data-name="Path 5861" d="M5036.582,2328.287c0,.833.006,1.665,0,2.5a1.211,1.211,0,0,1-1.259,1.249q-2.5.01-4.994,0a1.21,1.21,0,0,1-1.237-1.232q-.01-2.536,0-5.072a1.206,1.206,0,0,1,1.2-1.189q2.536-.01,5.071,0a1.213,1.213,0,0,1,1.223,1.248c.005.832,0,1.665,0,2.5Zm-2.514-1.223h-2.454v2.453h2.454Z" transform="translate(-58.858 -229.671)" fill="#fff"/>
    <path id="Path_5862" data-name="Path 5862" d="M5163.323,2263.524h-6.2v-2.451h6.2Z" transform="translate(-172.787 -173.416)" fill="#fff"/>
    <path id="Path_5863" data-name="Path 5863" d="M5163.308,2391.245h-6.2v-2.452h6.2Z" transform="translate(-172.769 -288.653)" fill="#fff"/>
    <path id="Path_5864" data-name="Path 5864" d="M5160.9,2199.569h-3.7v-2.459h3.7Z" transform="translate(-173.136 -115.704)" fill="#fff"/>
    <path id="Path_5865" data-name="Path 5865" d="M5160.832,2327.411h-3.7v-2.451h3.7Z" transform="translate(-173.077 -231.059)" fill="#fff"/>
  </g>
</svg>
