<svg xmlns="http://www.w3.org/2000/svg" width="515.028" height="365.405" viewBox="0 0 515.028 365.405">
  <g id="disinfect_laundry" data-name="disinfect laundry" transform="translate(-127 129.765)">
    <g id="Layer_2" data-name="Layer 2">
      <g id="OBJECTS" transform="translate(127 -128.542)">
        <path id="Path_5247" data-name="Path 5247" d="M0,347.377c16.5-37,102.011-55.022,131.952-53.5,58.886,2.971,73.308-24.008,76.679-45.632,5.894-37.779,75.1-14.414,73.5-52.083-2.571-60.352,67.312-48.948,67.312-48.948s4.327-6.725,0-7.579-34.416-30.686-46.894-43.015-7.493-27-5.565-57.029S279.556,0,279.556,0H0Z" fill="#014985"/>
        <g id="Layer_2-2" data-name="Layer 2" transform="translate(35 -1.223)">
          <g id="Layer_1" data-name="Layer 1">
            <path id="Path_5401" data-name="Path 5401" d="M65.826,269.29,60,244.823l2.77-1.385s17.044,3.693,30.843-1.468L99.5,244.1l-5.475,26.356Z" transform="translate(-32.282 -130.265)" fill="#fa6b5b"/>
            <path id="Path_5402" data-name="Path 5402" d="M96.815,243.528l2.571.753.032-.157L93.533,242c-13.8,5.152-30.843,1.468-30.843,1.468l-2.77,1.385.088.365C64.938,245.91,82.319,247.9,96.815,243.528Z" transform="translate(-32.239 -130.281)" fill="#1d2251"/>
            <path id="Path_5403" data-name="Path 5403" d="M18.339,315.48,8.293,315.9s-1.071,1.847,1.814,4.732,16.065,9.311,16.347,8.047-1-5.775-2.114-6.892S18.339,315.48,18.339,315.48Z" transform="translate(-4.341 -169.839)" fill="#322144"/>
            <path id="Path_5404" data-name="Path 5404" d="M8.52,286.828s16.13,6.74,18.161,12.778L28.9,289.6l1.316-20.128-10.249-8Z" transform="translate(-4.568 -140.763)" fill="#4b3f56"/>
            <path id="Path_5405" data-name="Path 5405" d="M176.39,312.06c.563,1.653-15.142,15.276-17.87,14.159a24.656,24.656,0,0,1,1.145-5.881C160.644,317.254,171.308,311.806,176.39,312.06Z" transform="translate(-85.321 -167.993)" fill="#322144"/>
            <path id="Path_5406" data-name="Path 5406" d="M162.617,256.18l11.68,25.8s-16.393,5.3-17.87,14.159l-1.8-9.011V270.837Z" transform="translate(-83.227 -137.915)" fill="#4b3f56"/>
            <path id="Path_5407" data-name="Path 5407" d="M33.32,251.031s9.048,21.088,9.048,26.383-3.416,48.884-6.186,61.3c0,0,37.121,7.788,57.618,1.071,0,0-6.694-40.274-4.478-60.245.125-1.094,7.987-30.93,7.987-30.93L79.337,242.08s-4.09,15.345-16.375,15.345c-9.81,0-14.98-13.729-14.98-13.729Z" transform="translate(-17.919 -130.324)" fill="#fa835b"/>
            <path id="Path_5408" data-name="Path 5408" d="M45.664,316.494c1.768-7.3,18.775-4.473,6.311-16.938-10.3-10.3-11.01-37.31-10.946-46.386L33.37,257s9.048,21.088,9.048,26.383-3.416,48.884-6.186,61.3a209.611,209.611,0,0,0,27.814,3.559,15.022,15.022,0,0,0-2.364-11.079C55.908,329.333,43.872,323.793,45.664,316.494Z" transform="translate(-17.946 -136.294)" fill="#e06d48" opacity="0.54"/>
            <path id="Path_5409" data-name="Path 5409" d="M78.312,259.46c9.025,0,15.257-10.973,17.926-16.79L94.346,242S90.191,256.773,77.9,256.773c-9.815,0-14.394-13.3-14.394-13.3l-2.073,1.039C64.578,249.848,71.212,259.46,78.312,259.46Z" transform="translate(-33.052 -130.281)" fill="#403160"/>
            <path id="Path_5410" data-name="Path 5410" d="M30.267,168.346l-.4,6.869,1.487.1.309-7.137Z" transform="translate(-16.062 -90.54)" fill="#ef5826"/>
            <path id="Path_5411" data-name="Path 5411" d="M172.117,87.764s2.128.923,5.475-3.915,7.793-9.275,7.317-9.764c-2.654-2.659-11.9,1.953-13.434,6.168A8.831,8.831,0,0,0,172.117,87.764Z" transform="translate(-91.998 -39.461)" fill="#12826d"/>
            <path id="Path_5412" data-name="Path 5412" d="M-.022,71.566c-.263.3,2.267,6.357,5.655,9.741s5.775,5.17,6.86,4.279c1.159-.923-1.094-7.848-5.941-11.846S-.022,71.566-.022,71.566Z" transform="translate(0.041 -38.304)" fill="#1ebca0"/>
            <path id="Path_5413" data-name="Path 5413" d="M73.782,10.34s10.955,3,21.139.891c0,0-7.082,19.574-5.471,33.193s-.078,52.882-.078,52.882H68.45Z" transform="translate(-36.831 -5.567)" fill="#1ebca0"/>
            <path id="Path_5414" data-name="Path 5414" d="M90.064,110.07C84.986,123.753,77.651,139.449,68.8,145.3L68.45,151h20.9S90.4,127.049,90.064,110.07Z" transform="translate(-36.831 -59.256)" fill="#3ea486" opacity="0.47"/>
            <path id="Path_5415" data-name="Path 5415" d="M0,47.8s12.515,6.057,12.515,14.02l5.166-3.887s8.268-18.965,7.765-24.5A7.183,7.183,0,0,0,19.662,27Z" transform="translate(0.019 -14.535)" fill="#3cddd5"/>
            <path id="Path_5416" data-name="Path 5416" d="M34.723,51.11c-4.081,5.826-8.074,2.77-11.033,9.695-.863,2.077-2.895,4.1-5.3,5.951,2.239,2.253,4.044,5.009,4.044,8.042l5.147-3.887S32.863,58.8,34.723,51.11Z" transform="translate(-9.881 -27.515)" fill="#58b1af" opacity="0.24"/>
            <path id="Path_5417" data-name="Path 5417" d="M60.424,53.887c-1.348,9.695-4.575,50.781-4.575,50.781C44.82,102.822,32.18,95.126,32.18,95.126l2.825-46.165s-.268-.923,1.98-12.155,0-18.775,0-18.775l12.543-5.591,4.727-2.1.462.969c-.078,2.913.06,6.255.873,8.264,1.68,4.155,4.843,3.536,4.843,3.536S61.767,44.193,60.424,53.887Z" transform="translate(-17.305 -5.567)" fill="#26efcb"/>
            <path id="Path_5418" data-name="Path 5418" d="M60.424,38c.406,8.065.868,22.561-.18,30.617-1.385,10.322-3.795,40.422-4.552,50.74-7.77-1.385-17.012-5.54-23.512-9.339,1.847,1.108,3.693,2.133,5.6,3.112,11.421,5.858,17.723,6.463,18.217,6.634,1.048-12.654,3.49-42.365,4.616-51.1C61.642,60.238,60.978,46.434,60.424,38Z" transform="translate(-17.305 -20.457)" fill="#1ea58b"/>
            <path id="Path_5419" data-name="Path 5419" d="M134.14,96.437s-12.815,7.308-23.881,8.822c0,0-2.281-41.17-3.4-50.9s.711-30.764.711-30.764c5.314-3.328,6.5-8.614,6.546-12.534l3.97,1.911,13.028,6.265s-2.424,7.469-.434,18.771S134.14,96.437,134.14,96.437Z" transform="translate(-57.312 -5.954)" fill="#26efcb"/>
            <path id="Path_5420" data-name="Path 5420" d="M80.462,7.848,80,4.773,80.854,0S93.965,1.08,99.278,0l2.53,4.773.813,2.8Z" transform="translate(-43.049)" fill="#4ed1aa"/>
            <path id="Path_5421" data-name="Path 5421" d="M79.837,17.543,71.3,22.778S67.6,13.406,68.337,8.859a8.466,8.466,0,0,1,.6-1.985C70.567,3.13,74.524,0,74.524,0s-.323,2.627-.4,5.743c-.078,2.913.06,6.255.873,8.264C76.675,18.161,79.837,17.543,79.837,17.543Z" transform="translate(-36.719)" fill="#a6f2ea"/>
            <path id="Path_5422" data-name="Path 5422" d="M119.281,10.295a49.859,49.859,0,0,1-4.238,11.426l-6.223-4.067c5.314-3.342,6.5-8.628,6.546-12.548A20.156,20.156,0,0,0,114.794,0s3.772,2.793,4.543,7.017a8.31,8.31,0,0,1-.055,3.278Z" transform="translate(-58.565)" fill="#a6f2ea"/>
            <path id="Path_5423" data-name="Path 5423" d="M37.032,124.211c2.308-10.392,5.115-25.9,5.115-40.3C42.147,59.308,37.6,59.4,37.6,59.4c-.152,1.219-.351,2.488-.619,3.818-2.248,11.232-1.98,12.155-1.98,12.155L32.18,121.538S34.077,122.692,37.032,124.211Z" transform="translate(-17.305 -31.978)" fill="#4ed1aa" opacity="0.24"/>
            <path id="Path_5424" data-name="Path 5424" d="M153.478,59.131a50.925,50.925,0,0,1-.785-8.831c-.679.822-1.884,3.176-3.453,9.884-1.62,6.925,2.1,37.929,4.917,58.869,1.74-.882,2.77-1.477,2.77-1.477S155.473,70.428,153.478,59.131Z" transform="translate(-80.113 -27.079)" fill="#4ed1aa" opacity="0.24"/>
            <path id="Path_5425" data-name="Path 5425" d="M153.5,28.77l19.112,21.342s-12.608,5.7-12.792,13.66l-5.881-8.49s-6.514-4.053-5.808-12A33.274,33.274,0,0,1,153.5,28.77Z" transform="translate(-79.697 -15.488)" fill="#26d1cb"/>
            <path id="Path_5426" data-name="Path 5426" d="M153.713,55.319a12.639,12.639,0,0,1-6-12.645,30.732,30.732,0,0,1,5.54-13.9,33.337,33.337,0,0,0-5.078,13.956A13.073,13.073,0,0,0,153.713,55.319Z" transform="translate(-79.438 -15.488)" fill="#43a895"/>
            <path id="Path_5427" data-name="Path 5427" d="M61.524,76.507l-6.8,3.476L47.55,75.574,48.483,61.6l13.974.933Z" transform="translate(-25.58 -33.162)" fill="#6ff2da"/>
            <path id="Path_5428" data-name="Path 5428" d="M61.093,76.394l-6.606,3.342-6.971-4.256c.157-2.4.522-8.97.725-13.849-.522,5.692-.877,10.586-1.14,14.08l7.363,4.556,7.012-3.615c.319-5.641.512-8.619.739-14.1C62,64.871,61.25,74.1,61.093,76.394Z" transform="translate(-25.338 -33.179)" fill="#43a895"/>
            <path id="Path_5429" data-name="Path 5429" d="M130.4,78.853l-6.338,4.284-7.65-3.5L115.64,65.65l13.983-.78Z" transform="translate(-62.236 -34.923)" fill="#6ff2da"/>
            <path id="Path_5430" data-name="Path 5430" d="M72.195,12.123c-.859.392-1.736,8.24,0,11.647s4.247,1.029,4.247,0S73.506,11.528,72.195,12.123Z" transform="translate(-38.309 -6.514)" fill="#a6f2ea" opacity="0.53"/>
            <path id="Path_5431" data-name="Path 5431" d="M128.36,65.322l.194,1.6,7.977-.351-.06-1.7Z" transform="translate(-69.084 -34.923)" fill="#ef5826"/>
            <path id="Path_5432" data-name="Path 5432" d="M130.2,78.752l-6.149,4.123L116.609,79.5c-.138-2.405-.577-8.965-.969-13.849.175,5.715.42,10.618.582,14.113L124.07,83.4l6.518-4.446c-.369-5.637-.545-8.614-.983-14.085C129.693,67.206,130.076,76.471,130.2,78.752Z" transform="translate(-62.236 -34.923)" fill="#43a895"/>
            <path id="Path_5433" data-name="Path 5433" d="M87.31,49.495a.845.845,0,1,1-.845-.845A.845.845,0,0,1,87.31,49.495Z" transform="translate(-46.075 -26.191)" fill="#43a895"/>
            <path id="Path_5434" data-name="Path 5434" d="M89.95,77.609a.845.845,0,1,1-.246-.6.845.845,0,0,1,.246.6Z" transform="translate(-47.496 -41.324)" fill="#43a895"/>
            <path id="Path_5435" data-name="Path 5435" d="M87.529,108.275a.849.849,0,1,1-.849-.845.849.849,0,0,1,.849.845Z" transform="translate(-46.188 -57.835)" fill="#43a895"/>
            <path id="Path_5436" data-name="Path 5436" d="M83.859,139.945a.845.845,0,1,1-.249-.6.849.849,0,0,1,.249.6Z" transform="translate(-44.212 -74.885)" fill="#43a895"/>
            <path id="Path_5437" data-name="Path 5437" d="M80.2,181.445a.845.845,0,1,1-.845-.845.845.845,0,0,1,.845.845Z" transform="translate(-42.247 -97.226)" fill="#43a895"/>
            <path id="Path_5438" data-name="Path 5438" d="M157.61,83.52l.522,12.926c1.6,36.009,3.315,37.13,3.527,39.023C158.593,124.21,157.591,95.144,157.61,83.52Z" transform="translate(-84.831 -44.963)" fill="#43a895"/>
            <path id="Path_5439" data-name="Path 5439" d="M157.61,36.829a39.538,39.538,0,0,0,2.77,13.12c2.613,5.9,13.36,10.941,11.721,3.305S157.79,31.284,157.61,36.829Z" transform="translate(-84.831 -19.157)" fill="#3cddd5"/>
            <path id="Path_5440" data-name="Path 5440" d="M234.811,73.671c-5.655,2.156-11.661,31.447-11.661,31.447,6.029,6.048,16.121,5.018,16.121,5.018l7.816-20.714S240.462,71.519,234.811,73.671Z" transform="translate(-120.114 -39.564)" fill="#709ed6"/>
            <path id="Path_5441" data-name="Path 5441" d="M234.811,73.672c-5.655,2.156-11.661,31.447-11.661,31.447a16.555,16.555,0,0,0,6.952,4.016c1.385-4.418,3.107-10.064,4.709-15.585,1.893-6.542,1.884-14.376,1.5-20.008A2.77,2.77,0,0,0,234.811,73.672Z" transform="translate(-120.114 -39.565)" fill="#88d2ff"/>
            <path id="Path_5442" data-name="Path 5442" d="M390.425,104.617s-6.177-29.259-11.846-31.392-12.169,15.8-12.169,15.8l4.843,19.338S384.433,110.7,390.425,104.617Z" transform="translate(-197.239 -39.326)" fill="#709ed6"/>
            <path id="Path_5443" data-name="Path 5443" d="M377.41,78.448c.342,9.187,1.583,22.159,5.632,30.367,4.293,0,9.935-.771,13.3-4.192,0,0-6.177-29.259-11.846-31.392C382.1,72.345,379.552,75.041,377.41,78.448Z" transform="translate(-203.161 -39.332)" fill="#88d2ff"/>
            <path id="Path_5444" data-name="Path 5444" d="M248.772,62.935l23.973-9.145h19.094c.069.037,22.9,8.734,23.567,9.233,0,.055-7.917,5.475-8.513,32.689-.406,18.378,1.847,60.831,1.847,60.891s-17.889,12.7-53.874,1.214L256.08,92.7c-.716-5.309-3.9-25.852-7.65-29.633Z" transform="translate(-133.724 -28.958)" fill="#a6ddff"/>
            <path id="Path_5445" data-name="Path 5445" d="M308.707,166.6s-17.889,12.7-53.874,1.214l1.246-65.12s-3.425-25.391-7.65-29.633l1.847-.711c3.232,7.054,10.41,23.327,10.41,29.227,0,7.613,1.085,49.858,2.4,55.652S292.674,170.981,308.707,166.6Z" transform="translate(-133.724 -38.95)" fill="#5f89c6" opacity="0.58"/>
            <path id="Path_5446" data-name="Path 5446" d="M316.774,94.808h0a3.264,3.264,0,0,1-3.264-3.268V68h6.532V91.544A3.268,3.268,0,0,1,316.774,94.808Z" transform="translate(-168.76 -36.608)" fill="#c3e4fa"/>
            <path id="Path_5447" data-name="Path 5447" d="M323.849,68c.088,1.911.923,23.438,0,25.091a3.716,3.716,0,0,1-3.268,1.717,3.232,3.232,0,0,0,3.061-2.65C323.752,91.438,323.345,79.052,323.849,68Z" transform="translate(-172.566 -36.608)" fill="#5f83c6"/>
            <path id="Path_5448" data-name="Path 5448" d="M308.173,56.436c-9.062,1.011-12.054-9.695-10.553-10.286,0,0,15.964.628,19.731.115a1.74,1.74,0,0,1,1.223.286h0C319.11,48.717,315.421,55.628,308.173,56.436Z" transform="translate(-160.007 -24.845)" fill="#505d79"/>
            <path id="Path_5449" data-name="Path 5449" d="M315.954,52.416c2.008-2.2,2.922-4.695,2.641-5.844h0a1.74,1.74,0,0,0-1.223-.286c-3.767.512-19.731-.115-19.731-.115-.794.319-.328,3.472,1.634,6.218C303.914,52.527,312.944,52.758,315.954,52.416Z" transform="translate(-160.018 -24.856)" fill="#dbc083"/>
            <path id="Path_5450" data-name="Path 5450" d="M303.33,56.414l-7.239,9.958s-9.044-10.784-7.7-14.523,3.693-5.738,4.386-5.738C291.267,46.733,294.282,57.42,303.33,56.414Z" transform="translate(-155.164 -24.823)" fill="#ffe6a6"/>
            <path id="Path_5451" data-name="Path 5451" d="M327.442,65.884l-6.532-8.97c7.589-.849,10.867-8.014,10.415-9.875a13.849,13.849,0,0,1,4.155,4.75C337.594,55.6,327.442,65.884,327.442,65.884Z" transform="translate(-172.744 -25.324)" fill="#ffe6a6"/>
            <circle id="Ellipse_138" data-name="Ellipse 138" cx="1.357" cy="1.357" r="1.357" transform="translate(146.504 37.061)" fill="#ffffe3"/>
            <path id="Path_5452" data-name="Path 5452" d="M319.959,80.25a1.518,1.518,0,0,0-.249,0,1.353,1.353,0,0,1,0,2.664,1.521,1.521,0,0,0,.249.023,1.357,1.357,0,1,0,0-2.71Z" transform="translate(-172.098 -43.189)" fill="#bcb49b" opacity="0.4"/>
            <circle id="Ellipse_139" data-name="Ellipse 139" cx="1.357" cy="1.357" r="1.357" transform="translate(146.504 43.441)" fill="#ffffe3"/>
            <path id="Path_5453" data-name="Path 5453" d="M319.959,94.1a1.146,1.146,0,0,0-.249.028,1.353,1.353,0,0,1,0,2.659,1.146,1.146,0,0,0,.249.028,1.357,1.357,0,0,0,0-2.714Z" transform="translate(-172.098 -50.659)" fill="#bcb49b" opacity="0.4"/>
            <circle id="Ellipse_140" data-name="Ellipse 140" cx="1.357" cy="1.357" r="1.357" transform="translate(146.504 50.712)" fill="#ffffe3"/>
            <path id="Path_5454" data-name="Path 5454" d="M319.959,109.85a1.146,1.146,0,0,0-.249.028,1.353,1.353,0,0,1,0,2.659,1.145,1.145,0,0,0,.249.028,1.357,1.357,0,0,0,0-2.714Z" transform="translate(-172.098 -59.138)" fill="#bcb49b" opacity="0.4"/>
            <path id="Path_5455" data-name="Path 5455" d="M309.383,214.8c-14.339,5.078-32.509,2.659-47.12-1.967.235-15.054.646-39.762.582-56.215-.632,15.424-1.2,41.465-1.514,56.9,9.9,2.807,14.819,4.049,24.172,4.7.96,0,19.08,1.214,30.169-6.255A31.39,31.39,0,0,1,309.383,214.8Z" transform="translate(-140.669 -84.317)" fill="#5c7a93"/>
            <path id="Path_5456" data-name="Path 5456" d="M296.044,72.7c-2.119-2.631-8.577-10.84-7.7-14.117-1.353,3.605,5.6,12.22,7.719,14.93,2.151-3.033,5.018-7.017,7.22-10.382C300.933,66.059,298.089,69.937,296.044,72.7Z" transform="translate(-155.121 -31.537)" fill="#c46f74"/>
            <path id="Path_5457" data-name="Path 5457" d="M335.484,57.33c1.523,3.3-5.5,11.052-8.019,13.711-1.7-2.308-4.755-6.362-6.555-8.587,2.059,3.148,5.35,7.723,6.5,9.344C328.121,70.99,337.788,61.217,335.484,57.33Z" transform="translate(-172.744 -30.864)" fill="#c46f74"/>
            <path id="Path_5458" data-name="Path 5458" d="M328.48,78.28s-13.466,38.008-27.163,39.24-3.375,46.165,13.088,43.547S328.48,78.28,328.48,78.28Z" transform="translate(-158.773 -42.142)" fill="#c0eaff" opacity="0.46"/>
            <path id="Path_5459" data-name="Path 5459" d="M265.394,323.224c-1.039.249-9.094,73.13-9.094,73.13s.282-1.454,6.962,1.1,20.774,3.762,20.774,3.762,4.016-32.906,6.052-34.947l8.744,34.947s28.161-6.181,29.052-6.181l-14.528-71.011s-20.248,4.8-23.784,4.8S269.245,322.291,265.394,323.224Z" transform="translate(-137.961 -173.959)" fill="#428263"/>
            <path id="Path_5460" data-name="Path 5460" d="M265.394,323.223c-1.039.249-9.094,73.13-9.094,73.13s.282-1.454,6.962,1.1a58.37,58.37,0,0,0,10.4,2.461c.766-12,.969-20.049-2.285-35.764-2.221-10.729,1.274-25.885,4.395-39.014C271.281,323.847,267.079,322.813,265.394,323.223Z" transform="translate(-137.961 -173.959)" fill="#386d51"/>
            <path id="Path_5461" data-name="Path 5461" d="M365.893,325.06s-5.974,1.417-12,2.71c1.45,7.46,4.87,21.268,10.724,23.913a17.661,17.661,0,0,0,7.114,1.893Z" transform="translate(-190.498 -174.997)" fill="#387053"/>
            <path id="Path_5462" data-name="Path 5462" d="M386.577,412.46a52.275,52.275,0,0,1,2.308,5.078c1.676,4.349,1.916,17.617,1.177,19.283s-10.8,2.548-13.766,1.454c-1.847-.674-2.281-16.107-2.387-23.5-.032-2.188,1.625-2.724,3.809-2.927C383.563,411.311,385.552,410.48,386.577,412.46Z" transform="translate(-201.276 -221.375)" fill="#398755"/>
            <path id="Path_5463" data-name="Path 5463" d="M380.037,437.306c-2.022-.743-2.336-17.5-2.391-23.636,0,0-3.809-.028-3.786,1.81.088,7.1.5,23.429,2.4,24.126,2.968,1.094,13.023.212,13.766-1.454a3.968,3.968,0,0,0,.194-.877C386.809,437.893,381.948,438.008,380.037,437.306Z" transform="translate(-201.249 -222.7)" fill="#2b5e41"/>
            <path id="Path_5464" data-name="Path 5464" d="M390.864,419.593a35.928,35.928,0,0,0-.462-3.809,10.927,10.927,0,0,0-5.868-6.925l-8.051.526a2.918,2.918,0,0,0-2.664,2.931c0,2.017.065,4.963.185,8.12Z" transform="translate(-201.228 -220.11)" fill="#499161"/>
            <path id="Path_5465" data-name="Path 5465" d="M260.268,478.9s-4-.3-4,1.3,21.425,5.461,27.75,4.861C284.02,485.062,263.966,478.9,260.268,478.9Z" transform="translate(-137.945 -257.807)" fill="#3e5b45"/>
            <path id="Path_5466" data-name="Path 5466" d="M347.057,445.909c-3.07-7.493-6.463-16.7-8.374-23.17-1.385-4.8-7.539-19.352-9.233-9.847l8.744,34.947Z" transform="translate(-177.341 -220.583)" fill="#387053"/>
            <path id="Path_5467" data-name="Path 5467" d="M359.312,334.3s7.617,18.166,11.453,19.477h1.14l1.805,14.4-9.695,1.306-10.1-33.88Z" transform="translate(-190.515 -179.971)" fill="#428263"/>
            <path id="Path_5468" data-name="Path 5468" d="M365.6,334.3c3.449,7.1,8.49,18.074,11.472,19.431h0l1.14.046-1.15.051h0C373.074,352.323,367.063,338.256,365.6,334.3Z" transform="translate(-196.803 -179.971)" fill="#214c35"/>
            <path id="Path_5469" data-name="Path 5469" d="M272.415,323.223c-.369.088-1.616,9.284-3.075,21.125,3.887,1.085,8.116,1.722,8.988-.3,1.2-2.77,2.47-13.337,3.116-19.3C277.493,323.653,273.929,322.854,272.415,323.223Z" transform="translate(-144.981 -173.959)" fill="#387053"/>
            <path id="Path_5470" data-name="Path 5470" d="M276.245,334.3s-9.995,17.69-11.8,17.69l.162,15.618,11.121,3.333,5.129-35.441Z" transform="translate(-142.348 -179.971)" fill="#428263"/>
            <path id="Path_5471" data-name="Path 5471" d="M272.606,348c-3.047,5.078-7.04,11.389-8.116,11.389l.162,15.618,9.348,1.1C273.086,367.823,272.726,357.233,272.606,348Z" transform="translate(-142.37 -187.346)" fill="#386d51" opacity="0.43"/>
            <path id="Path_5472" data-name="Path 5472" d="M276.245,334.3c-2.47,4.949-9.948,17.6-11.8,17.69,1.228-.189,5.946-8.287,8.961-13.152Z" transform="translate(-142.348 -179.971)" fill="#214c35"/>
            <path id="Path_5473" data-name="Path 5473" d="M259.087,406.45a50.952,50.952,0,0,0-3.956,7.571c-1.8,4.3-.692,17.6,0,19.292s9.021,2.881,12,1.8c1.824-.665,2.77-17.69,3.079-24.5a3.01,3.01,0,0,0-2.641-3.121Z" transform="translate(-136.805 -218.813)" fill="#398755"/>
            <path id="Path_5474" data-name="Path 5474" d="M267.644,408.52c-.3,6.726-1.246,23.969-3.088,24.638-1.934.7-6.135.462-9.025-.291a8.08,8.08,0,0,0,.342,1.56c.688,1.685,9.021,2.881,12,1.8,1.847-.669,2.77-17.718,3.079-24.523a2.991,2.991,0,0,0-2.627-3.1Z" transform="translate(-137.546 -219.927)" fill="#2b5e41"/>
            <path id="Path_5475" data-name="Path 5475" d="M274.532,315.48l-.222,7.322s21.61,4.76,28.225,3.527V320.54S284.074,320.253,274.532,315.48Z" transform="translate(-147.656 -169.839)" fill="#2b5e41"/>
            <path id="Path_5476" data-name="Path 5476" d="M325.12,325.332h0a3.619,3.619,0,0,0,4.127,3.587l22.131-3.112-.4-8.157s-5.928,2.53-22.658,4.081A3.587,3.587,0,0,0,325.12,325.332Z" transform="translate(-175.01 -171.007)" fill="#3d7f59"/>
            <path id="Path_5477" data-name="Path 5477" d="M324.026,345c.762,11.5-.051,23.6,1.237,26.314.923,1.745,3.148,2.239,5.106,2.04-3.125,1.011-5.849-.462-6.389-2.6-1.173-3.6-.923-13.563-.72-17.57C323.412,350.457,323.633,347.719,324.026,345Z" transform="translate(-173.916 -185.731)" fill="#367252"/>
            <circle id="Ellipse_141" data-name="Ellipse 141" cx="1.556" cy="1.556" r="1.556" transform="translate(152.127 152.45)" fill="#214c35"/>
            <path id="Path_5478" data-name="Path 5478" d="M293.139,328.705l-2.719-.536,1.6-8.13,2.705.586Z" transform="translate(-156.329 -172.294)" fill="#366b4f"/>
            <path id="Path_5479" data-name="Path 5479" d="M350.247,331.714l-1.907-9.058,2.747-.406,1.87,8.9Z" transform="translate(-187.511 -173.484)" fill="#366b4f"/>
            <path id="Path_5480" data-name="Path 5480" d="M254.121,426.48c.282,1.2.494,3.056-.259,4.233a2.964,2.964,0,0,1-2.433,1.246l.171,1.847a4.747,4.747,0,0,0,3.822-2.091,7.351,7.351,0,0,0,.582-5.226Z" transform="translate(-135.339 -229.596)" fill="#387053"/>
            <rect id="Rectangle_1095" data-name="Rectangle 1095" width="3.287" height="0.923" transform="translate(118.344 199.483)" fill="#aa9157"/>
            <path id="Path_5481" data-name="Path 5481" d="M397,429.2l2.271-.388c.18,1.039.974,3.919,2.465,4.755a1.874,1.874,0,0,0,1.745.023l.134,2.377C399.636,437.549,397.734,433.413,397,429.2Z" transform="translate(-213.707 -230.851)" fill="#499161"/>
            <rect id="Rectangle_1096" data-name="Rectangle 1096" width="4.732" height="0.729" transform="translate(183.002 201.154)" fill="#aa9157"/>
            <path id="Path_5482" data-name="Path 5482" d="M269.271,417.947c.18-3.005.337-6.209.434-8.24a2.433,2.433,0,0,0-1.99-2.516l-9.145-1.14s-3.739.462-5,7.756c-.125.739-.208,1.611-.365,2.678Z" transform="translate(-136.297 -218.598)" fill="#499161"/>
          </g>
        </g>
        <circle id="Ellipse_125" data-name="Ellipse 125" cx="6.795" cy="6.795" r="6.795" transform="translate(73.69 57.589) rotate(-64.1)" fill="#80b8e7"/>
        <circle id="Ellipse_126" data-name="Ellipse 126" cx="6.795" cy="6.795" r="6.795" transform="translate(248.302 70.685) rotate(-45)" fill="#80b8e7"/>
        <circle id="Ellipse_127" data-name="Ellipse 127" cx="7.148" cy="7.148" r="7.148" transform="translate(117.296 220.187) rotate(-9.24)" fill="#80b8e7"/>
        <circle id="Ellipse_128" data-name="Ellipse 128" cx="7.148" cy="7.148" r="7.148" transform="matrix(0.985, -0.171, 0.171, 0.985, 29.099, 77.696)" fill="#80b8e7"/>
        <circle id="Ellipse_129" data-name="Ellipse 129" cx="9.249" cy="9.249" r="9.249" transform="translate(141.441 34.399) rotate(-67.33)" fill="#80b8e7"/>
        <path id="Path_5253" data-name="Path 5253" d="M63.583,203.18a6.8,6.8,0,1,0,6.788,6.8A6.8,6.8,0,0,0,63.583,203.18Z" transform="translate(-12.276 -43.929)" fill="#c9d7f5"/>
        <path id="Path_5254" data-name="Path 5254" d="M243.134,81.53a3.394,3.394,0,1,0,3.394,3.394A3.394,3.394,0,0,0,243.134,81.53Z" transform="translate(-51.833 -17.627)" fill="#c9d7f5"/>
        <circle id="Ellipse_130" data-name="Ellipse 130" cx="3.394" cy="3.394" r="3.394" transform="translate(155.944 249.152)" fill="#80b8e7"/>
        <circle id="Ellipse_131" data-name="Ellipse 131" cx="3.394" cy="3.394" r="3.394" transform="translate(239.041 180.837)" fill="#80b8e7"/>
        <circle id="Ellipse_132" data-name="Ellipse 132" cx="3.394" cy="3.394" r="3.394" transform="translate(41.118 262.116)" fill="#80b8e7"/>
        <path id="Path_5255" data-name="Path 5255" d="M298.6,166.24A3.394,3.394,0,1,0,302,169.634a3.394,3.394,0,0,0-3.394-3.394Z" transform="translate(-63.826 -35.942)" fill="#c9d7f5"/>
        <path id="Path_5256" data-name="Path 5256" d="M104.674,267.8a3.394,3.394,0,1,0,3.394,3.394,3.394,3.394,0,0,0-3.394-3.394Z" transform="translate(-21.897 -57.9)" fill="#c9d7f5"/>
        <circle id="Ellipse_133" data-name="Ellipse 133" cx="5.831" cy="5.831" r="5.831" transform="translate(190.485 198.237)" fill="#80b8e7"/>
        <ellipse id="Ellipse_134" data-name="Ellipse 134" cx="59.984" cy="8.402" rx="59.984" ry="8.402" transform="translate(374.771 347.377)" fill="#36384f" opacity="0.6"/>
        <path id="Path_5257" data-name="Path 5257" d="M533.114,417.343v14.234L522.4,435.128a14.3,14.3,0,0,0-9.68,11.7h38.006l.98-29.62Z" transform="translate(-110.853 -90.203)" fill="#33344a"/>
        <line id="Line_123" data-name="Line 123" x2="28.028" y2="0.658" transform="translate(407.338 353.06)" fill="none" stroke="#a1a2cc" stroke-linecap="round" stroke-miterlimit="10" stroke-width="1"/>
        <path id="Path_5258" data-name="Path 5258" d="M569.227,424.258v7.963l-10.707,3.551a14.288,14.288,0,0,0-9.68,11.7h38.006l.972-27.284Z" transform="translate(-118.663 -90.848)" fill="#36384f"/>
        <line id="Line_124" data-name="Line 124" x2="31.657" transform="translate(433.313 353.718)" fill="none" stroke="#fff" stroke-linecap="round" stroke-miterlimit="10" stroke-width="1"/>
        <path id="Path_5259" data-name="Path 5259" d="M467.229,202.859s-10.6-8.88-11.843-15.151,6.835-7.187,19.2,3.135Z" transform="translate(-98.43 -39.571)" fill="#54acdc"/>
        <path id="Path_5260" data-name="Path 5260" d="M539.5,235.218s-17.784-98.891,13.8-104.644,60.282-7.2,70.447,22.573,2.539,83.521-7.266,94.416S544.222,257.7,539.5,235.218Z" transform="translate(-115.565 -27.513)" fill="#36384f"/>
        <line id="Line_125" data-name="Line 125" x2="31.054" transform="translate(478.647 195.948)" fill="none" stroke="#fff" stroke-linecap="round" stroke-miterlimit="10" stroke-width="1"/>
        <path id="Path_5261" data-name="Path 5261" d="M534.963,122.63s4.7-2.673,4.342-7.681-6.6-6.67-8.489-26.234,5.212-35.145,25.081-33.46c18.584,1.568,23.514,18.537,21.452,30.2s-6.521,20.253-10.3,23.859c0,0-2.406,8.747,2.061,10.973s18.184,3.088,24.925,17.69,17.682,38.453,12.353,53.894-14.038,17.408-22.456,21.617c0,0,6,55.406.839,81.812s-9.406,46.487-15.6,49.936-22.44,7.148-23.584-6.623c0,0-4.562,8.692-18.3,7.227-14.289-1.568-17.11-44.308-16.193-66.3s3.057-53.47,9.17-57.75c0,0-2.9-27.527,1.372-49.52,0,0,3.135,24.2-27.151,17.173s-27.856-17.965-19.179-24.784c6.537-5.142,13.419,3.778,29.635,2.743C519.42,166.484,505.046,124.59,534.963,122.63Z" transform="translate(-101.525 -11.92)" fill="#fff"/>
        <path id="Path_5262" data-name="Path 5262" d="M569.238,149.53s-6.9,63.041-2.312,91.4" transform="translate(-122.233 -32.329)" fill="none" stroke="#36384f" stroke-miterlimit="10" stroke-width="2"/>
        <path id="Path_5263" data-name="Path 5263" d="M564.771,386.97s-9.554-45.46-.682-97.52" transform="translate(-121.143 -62.581)" fill="#fff" stroke="#d6d6d6" stroke-linecap="round" stroke-miterlimit="10" stroke-width="2"/>
        <path id="Path_5264" data-name="Path 5264" d="M564.794,77.99c15.48-.658,16.8,7.908,15.974,11.365s-1.975,9.217-16.8,8.065c-7.281-.564-14.641-.157-14.641-8.99S556.909,78.288,564.794,77.99Z" transform="translate(-118.768 -16.854)" fill="#facacc"/>
        <circle id="Ellipse_135" data-name="Ellipse 135" cx="5.628" cy="5.628" r="5.628" transform="matrix(0.955, -0.296, 0.296, 0.955, 427.575, 70.125)" fill="#fff" stroke="#2f374c" stroke-miterlimit="10" stroke-width="2"/>
        <ellipse id="Ellipse_136" data-name="Ellipse 136" cx="6.89" cy="6.067" rx="6.89" ry="6.067" transform="translate(447.162 67.759)" fill="#fff" stroke="#2f374c" stroke-miterlimit="10" stroke-width="2"/>
        <path id="Path_5265" data-name="Path 5265" d="M561.67,94.612a5.643,5.643,0,0,1,6.929,0" transform="translate(-121.436 -20.199)" fill="none" stroke="#2f374c" stroke-miterlimit="10" stroke-width="2"/>
        <path id="Path_5266" data-name="Path 5266" d="M565.084,98.246c4.107.447,10.236,5.267,11.953,11.044s-1.137,14.492-11.953,13.481-12.792-10.307-12.854-14.108C552.159,104.673,554.2,97.054,565.084,98.246Z" transform="translate(-119.395 -21.214)" fill="#2f374c"/>
        <path id="Path_5267" data-name="Path 5267" d="M583.88,108.9s12.047-1.568,17.745-12.588" transform="translate(-126.238 -20.823)" fill="none" stroke="#2f374c" stroke-linecap="round" stroke-miterlimit="10" stroke-width="2"/>
        <path id="Path_5268" data-name="Path 5268" d="M548.45,105.7s.784,2.524,3.057,2.916" transform="translate(-118.578 -22.853)" fill="none" stroke="#2f374c" stroke-linecap="round" stroke-miterlimit="10" stroke-width="2"/>
        <path id="Path_5269" data-name="Path 5269" d="M564.871,100.25s-2.8,13.7,2.1,20.277" transform="translate(-121.956 -21.675)" fill="none" stroke="#fff" stroke-linecap="round" stroke-miterlimit="10" stroke-width="1"/>
        <path id="Path_5270" data-name="Path 5270" d="M549.185,132.636s-2.508,20.982-4.554,42.787c-1.724,18.4-4.1,33.962-10.189,41.424a2.54,2.54,0,0,1-4.523-1.709c.408-7.979,2.931-21.037,3.558-37.1C534.449,154.316,535.406,131.382,549.185,132.636Z" transform="translate(-114.571 -28.666)" fill="#36384f"/>
        <path id="Path_5271" data-name="Path 5271" d="M610.533,128.87s-26.782,41.228,1.074,84.462l4.781,1.035s-15.95-47.725.956-83.458Z" transform="translate(-129.495 -27.862)" fill="#36384f"/>
        <path id="Path_5272" data-name="Path 5272" d="M524,205.68c16.993,5.118,17.87,17.048,21.476,33.7C548.9,255.2,564.844,345.2,598.288,344.772c32.661-.447,35.835-59.208,18.991-85.144" transform="translate(-113.292 -44.469)" fill="none" stroke="#212230" stroke-linecap="round" stroke-miterlimit="10" stroke-width="2"/>
        <path id="Path_5273" data-name="Path 5273" d="M445.218,178.15a9.8,9.8,0,0,1,3.919,1.379,6.457,6.457,0,0,1,.909.6,5.4,5.4,0,0,1,.784.972,8.622,8.622,0,0,0,.784,1.042,2.1,2.1,0,0,0,.917.556l7.893,2.524c5.259,1.709,10.558,3.276,15.833,4.907s10.6,3.135,15.919,4.6,10.652,2.916,16.029,4.193l-.705,2.5c-5.244-1.748-10.542-3.331-15.84-4.883s-10.628-3.018-15.95-4.475-10.675-2.853-16.044-4.17l-8.042-2.022a2.069,2.069,0,0,0-1.074,0,7.579,7.579,0,0,0-1.215.47,4.884,4.884,0,0,1-1.191.408,6.375,6.375,0,0,1-1.089,0A9.954,9.954,0,0,1,443,185.87Z" transform="translate(-95.779 -38.517)" fill="#36384f"/>
        <path id="Path_5274" data-name="Path 5274" d="M470.5,195.9s-6.717-7.423-5.236-9.923,8.826,6.192,8.826,6.192Z" transform="translate(-100.546 -40.111)" fill="#54acdc"/>
        <path id="Path_5275" data-name="Path 5275" d="M570.915,250.77l-11.71,4.444s-8.724-2.986-10.487,0,3.135,2.829,3.135,2.829-6.788,1.646-4.7,8.34c4.146,13.113,18.184.423,18.184.423,5.824-1.709,12.266-4.1,12.266-4.1Z" transform="translate(-118.211 -54.218)" fill="#54acdc"/>
        <path id="Path_5276" data-name="Path 5276" d="M609.691,203.58s2.673,12.65-10.973,19.955S576.772,234,577.556,240.567s4.624,16.8,14.359,13.144,14.437-7.1,20.786-10.722" transform="translate(-124.86 -44.015)" fill="#fff" stroke="#d6d6d6" stroke-linecap="round" stroke-miterlimit="10" stroke-width="2"/>
      </g>
    </g>
  </g>
</svg>
