<svg xmlns="http://www.w3.org/2000/svg" xmlns:xlink="http://www.w3.org/1999/xlink" width="354.668" height="356.29" viewBox="0 0 354.668 356.29">
  <defs>
    <radialGradient id="radial-gradient" cx="0.5" cy="0.499" r="0.544" gradientTransform="translate(0.072) scale(0.856 1)" gradientUnits="objectBoundingBox">
      <stop offset="0" stop-color="#fff"/>
      <stop offset="1" stop-color="#fff" stop-opacity="0"/>
    </radialGradient>
    <radialGradient id="radial-gradient-2" cx="0.5" cy="0.501" r="0.542" gradientTransform="translate(0.071) scale(0.858 1)" xlink:href="#radial-gradient"/>
  </defs>
  <g id="Disinfect_soft_surface" data-name="Disinfect soft surface" transform="translate(161.669 54.286)">
    <g id="Layer_2" data-name="Layer 2" transform="translate(-161.669 -54.286)">
      <g id="OBJECTS">
        <path id="Path_4525" data-name="Path 4525" d="M99.538,129.23c-4.281,0-7.994,3.757-9.948,9.3,2.94-.533,5.063-2.389,4.139-4.912,2.487,1.581,6,.2,6.626-2.07,1.1,2.078,4.29,2.745,7.106,1.048C105.445,130.021,102.638,129.23,99.538,129.23Z" transform="translate(-10.013 -14.443)" fill="#c4673d"/>
        <path id="Path_4526" data-name="Path 4526" d="M211.88,174.121l58.766-46.251,9.06,9.78Z" transform="translate(-23.68 -14.291)" fill="#fff"/>
        <circle id="Ellipse_121" data-name="Ellipse 121" cx="59.547" cy="59.547" r="59.547" transform="matrix(0.028, -1, 1, 0.028, 224.613, 158.499)" fill="#fff"/>
        <path id="Path_4527" data-name="Path 4527" d="M361.575,103.171c2.15-.8.48-4.512-1.279-9.2s-2.931-8.58-5.09-7.772c-1.572.586-1.776,3.153-1.7,6.218.071,3.748-11.21,4.255-11.21,4.255l2.665,7.106s8.456-6.6,11.227-4.2C358.306,101.394,360.02,103.775,361.575,103.171Z" transform="translate(-38.256 -9.622)" fill="#8fb8ca"/>
        <path id="Path_4528" data-name="Path 4528" d="M345.932,78.478c1.243-2.736-2.594-4.095-7.15-6.164s-8.11-4.077-9.353-1.341c-.888,2,.657,4.219,2.736,6.68,2.5,2.949-6.484,14.265-6.484,14.265l6.928,3.153s2.611-13.51,6.493-14.265C342.041,80.228,345.026,80.477,345.932,78.478Z" transform="translate(-36.399 -7.783)" fill="#8fb8ca"/>
        <path id="Path_4529" data-name="Path 4529" d="M321.361,70.119c-.462-2.789-5.329-1.661-11.4-.675s-11.032,1.474-10.579,4.264c.329,2.034,3.375,2.842,7.106,3.553,4.441.844,2.372,14.532,2.372,14.532l9.247-1.546s-5.933-11.769-2.38-14.54C318.43,73.645,321.69,72.153,321.361,70.119Z" transform="translate(-33.457 -7.64)" fill="#8fb8ca"/>
        <path id="Path_4530" data-name="Path 4530" d="M292.034,87.97c-2.576-1.172-3.7,2.114-5.463,5.987s-3.491,6.875-.888,8.047c1.874.888,3.864-.426,6.076-2.15,2.665-2.061,13.4,6.093,13.4,6.093l2.665-5.889s-12.569-2.709-13.4-6.093C293.757,91.4,293.89,88.858,292.034,87.97Z" transform="translate(-31.78 -9.805)" fill="#8fb8ca"/>
        <path id="Path_4531" data-name="Path 4531" d="M284.972,115.691c-2.158.8-.48,4.512,1.279,9.2s2.931,8.58,5.081,7.772c1.572-.586,1.732-3.153,1.7-6.218,0-3.713,11.236-4.2,11.236-4.2L301.6,115.14s-8.456,6.6-11.236,4.21C288.249,117.467,286.544,115.1,284.972,115.691Z" transform="translate(-31.735 -12.868)" fill="#8fb8ca"/>
        <path id="Path_4532" data-name="Path 4532" d="M295.636,143.526c-1.217,2.665,3.66,4.521,9.5,7.177s10.437,5.125,11.654,2.443c.888-1.954-1.288-4.441-4.121-7.2-3.4-3.322,6.369-13.99,6.369-13.99l-8.882-4.033s-1.679,13.643-6.36,13.99C300.22,142.2,296.534,141.572,295.636,143.526Z" transform="translate(-33.02 -14.297)" fill="#8fb8ca"/>
        <path id="Path_4533" data-name="Path 4533" d="M329.7,147.573c.808,2.158,4.521.48,9.2-1.279s8.589-2.931,7.781-5.09c-.586-1.572-3.153-1.723-6.218-1.7-3.713.044-4.21-11.227-4.21-11.227l-7.106,2.665s6.609,8.456,4.21,11.227C331.486,144.295,329.114,146,329.7,147.573Z" transform="translate(-36.786 -14.337)" fill="#8fb8ca"/>
        <path id="Path_4534" data-name="Path 4534" d="M351.572,135.723c1.839.835,3.1-2.514,4.921-6.511s3.553-7.159,1.679-7.994c-1.35-.613-3.038.888-4.939,2.834-2.283,2.336-9.6-4.361-9.6-4.361l-2.771,6.093s9.362,1.146,9.6,4.361C350.639,132.578,350.231,135.11,351.572,135.723Z" transform="translate(-38.095 -13.377)" fill="#8fb8ca"/>
        <path id="Path_4535" data-name="Path 4535" d="M312.626,85.226a22.934,22.934,0,1,1-13.43,29.525A22.934,22.934,0,0,1,312.626,85.226Z" transform="translate(-33.275 -9.361)" fill="#8fb8ca"/>
        <path id="Path_4536" data-name="Path 4536" d="M301.691,120.079c1.83-2.229,6.013-1.821,9.335.888s4.521,6.759,2.665,8.989-6.013,1.821-9.335-.888S299.852,122.308,301.691,120.079Z" transform="translate(-33.621 -13.259)" fill="#44627f"/>
        <path id="Path_4537" data-name="Path 4537" d="M308.83,89.405c2.265,2.176,2.043,6.076-.488,8.714s-6.413,3.02-8.678.888-2.043-6.067.48-8.7S306.565,87.238,308.83,89.405Z" transform="translate(-33.316 -9.837)" fill="#44627f"/>
        <path id="Path_4538" data-name="Path 4538" d="M330.283,134.138c-.417,1.954-2.6,3.144-4.876,2.665a3.963,3.963,0,0,1-3.375-4.441c.417-1.981,2.6-3.144,4.876-2.665A3.98,3.98,0,0,1,330.283,134.138Z" transform="translate(-35.983 -14.483)" fill="#44627f"/>
        <path id="Path_4539" data-name="Path 4539" d="M344.753,121.181c-3.278-.115-5.827-3.313-5.694-7.106s2.913-6.831,6.218-6.715,5.836,3.322,5.694,7.106S348.039,121.3,344.753,121.181Z" transform="translate(-37.893 -11.998)" fill="#44627f"/>
        <path id="Path_4540" data-name="Path 4540" d="M329.954,87.161c-.453,3.1-3.757,5.187-7.372,4.654s-6.218-3.473-5.729-6.573,3.757-5.2,7.372-4.663S330.407,84.044,329.954,87.161Z" transform="translate(-35.405 -8.996)" fill="#44627f"/>
        <path id="Path_4541" data-name="Path 4541" d="M344.212,95.282c-1.528,1.963-4.619,2.114-6.91.338s-2.9-4.805-1.377-6.768,4.619-2.114,6.9-.338S345.73,93.319,344.212,95.282Z" transform="translate(-37.45 -9.754)" fill="#44627f"/>
        <path id="Path_4542" data-name="Path 4542" d="M331.15,103.718a8.541,8.541,0,1,1-12.435-.124A8.806,8.806,0,0,1,331.15,103.718Z" transform="translate(-35.366 -11.297)" fill="#44627f"/>
        <path id="Path_4543" data-name="Path 4543" d="M174.17,29.525A29.525,29.525,0,1,0,144.645,59.05,29.525,29.525,0,0,0,174.17,29.525Z" transform="translate(-12.866)" fill="#fff"/>
        <path id="Path_4544" data-name="Path 4544" d="M152.424,12.631c0-1.155-2.034-1.021-4.557-1.021s-4.548-.133-4.548,1.021c0,.888,1.172,1.368,2.665,1.9,1.777.631,0,6.022,0,6.022h3.828s-1.617-5.143,0-6.022C151.03,13.857,152.424,13.475,152.424,12.631Z" transform="translate(-16.018 -1.297)" fill="#8fb8ca"/>
        <path id="Path_4545" data-name="Path 4545" d="M137.876,15.486c-1.075-1.066-2.389.5-4.166,2.274s-3.349,3.1-2.274,4.166c.773.782,2.1.435,3.624-.107,1.821-.657,5.56,5.56,5.56,5.56l2.709-2.665s-5.9-3.606-5.569-5.569C138.009,17.627,138.648,16.268,137.876,15.486Z" transform="translate(-14.65 -1.692)" fill="#8fb8ca"/>
        <path id="Path_4546" data-name="Path 4546" d="M129.7,25.357c-1.386-.284-1.714,2.2-2.318,5.232s-1.252,5.454.133,5.729c1.021.2,1.936-1.084,2.922-2.727,1.19-1.954,7.257,1.448,7.257,1.448l.888-4.6s-6.573.711-7.248-1.448C130.847,27.347,130.723,25.553,129.7,25.357Z" transform="translate(-14.159 -2.831)" fill="#8fb8ca"/>
        <path id="Path_4547" data-name="Path 4547" d="M132.856,42.454c-1,1,.346,2.114,1.856,3.624s2.611,2.851,3.624,1.848c.728-.728.48-1.892.062-3.233-.506-1.608,5.232-5.232,5.232-5.232l-2.3-2.3s-3.5,5.436-5.232,5.232C134.775,42.241,133.594,41.726,132.856,42.454Z" transform="translate(-14.81 -4.153)" fill="#8fb8ca"/>
        <path id="Path_4548" data-name="Path 4548" d="M144.56,50.723c0,1.155,2.043,1.021,4.557,1.021s4.557.133,4.557-1.021c0-.844-1.181-1.377-2.665-1.9-1.776-.64,0-6.022,0-6.022H147.18s1.617,5.134,0,6.022C145.981,49.488,144.56,49.879,144.56,50.723Z" transform="translate(-16.156 -4.783)" fill="#8fb8ca"/>
        <path id="Path_4549" data-name="Path 4549" d="M159.805,50.359c1.048,1.048,2.771-.888,5.054-3.2s4.246-4.006,3.2-5.054c-.764-.764-2.3-.178-4.113.675-2.167,1.013-5.454-5.463-5.454-5.463L155,40.775s6.129,3.2,5.463,5.463C159.974,47.952,159.041,49.587,159.805,50.359Z" transform="translate(-17.323 -4.171)" fill="#8fb8ca"/>
        <path id="Path_4550" data-name="Path 4550" d="M167.553,35.594c1.155,0,1.013-2.034,1.021-4.548s.133-4.557-1.021-4.557c-.888,0-1.368,1.172-1.9,2.665-.64,1.776-6.022,0-6.022,0v3.828s5.134-1.617,6.022,0C166.318,34.182,166.709,35.594,167.553,35.594Z" transform="translate(-17.841 -2.961)" fill="#8fb8ca"/>
        <path id="Path_4551" data-name="Path 4551" d="M165.735,22.962c.719-.719-.631-1.91-2.194-3.473s-2.745-2.913-3.464-2.194c-.524.524-.124,1.581.462,2.825.693,1.483-3.748,3.739-3.748,3.739l2.38,2.38s2.185-4.2,3.739-3.739C164.082,22.846,165.21,23.477,165.735,22.962Z" transform="translate(-17.523 -1.911)" fill="#8fb8ca"/>
        <path id="Path_4552" data-name="Path 4552" d="M135.47,31.087a11.547,11.547,0,1,1,11.547,11.547A11.547,11.547,0,0,1,135.47,31.087Z" transform="translate(-15.14 -2.184)" fill="#8fb8ca"/>
        <path id="Path_4553" data-name="Path 4553" d="M149.6,44.037c-.728-1.261.2-3.153,2.078-4.228s3.97-.942,4.7.32-.231,3.144-2.078,4.21S150.327,45.289,149.6,44.037Z" transform="translate(-16.692 -4.368)" fill="#44627f"/>
        <path id="Path_4554" data-name="Path 4554" d="M136.475,35.284a3.118,3.118,0,0,1,4.015,1.776,2.887,2.887,0,1,1-5.143,2.469A3.109,3.109,0,0,1,136.475,35.284Z" transform="translate(-15.08 -3.92)" fill="#44627f"/>
        <path id="Path_4555" data-name="Path 4555" d="M161.254,33.3a2.141,2.141,0,0,1-2.283,3.553,2.141,2.141,0,0,1,2.283-3.553Z" transform="translate(-17.688 -3.702)" fill="#44627f"/>
        <path id="Path_4556" data-name="Path 4556" d="M157.763,24.048a3.553,3.553,0,0,1-6.431-2.665,3.553,3.553,0,0,1,6.431,2.665Z" transform="translate(-16.906 -2.215)" fill="#44627f"/>
        <path id="Path_4557" data-name="Path 4557" d="M139.161,24.955a3.127,3.127,0,0,1,.888,4.29,2.887,2.887,0,1,1-.888-4.29Z" transform="translate(-15.074 -2.749)" fill="#44627f"/>
        <path id="Path_4558" data-name="Path 4558" d="M145.419,19.833a2.665,2.665,0,0,1-4.441,2.762,2.665,2.665,0,0,1,4.441-2.762Z" transform="translate(-15.737 -2.122)" fill="#44627f"/>
        <path id="Path_4559" data-name="Path 4559" d="M147.173,27.1a4.29,4.29,0,1,1-2.221,5.836A4.441,4.441,0,0,1,147.173,27.1Z" transform="translate(-16.158 -2.992)" fill="#44627f"/>
        <path id="Path_4560" data-name="Path 4560" d="M340.332,292.586a26.9,26.9,0,1,1,13.966,15.16,26.914,26.914,0,0,1-13.966-15.16Z" transform="translate(-37.851 -28.655)" fill="#fff"/>
        <path id="Path_4561" data-name="Path 4561" d="M372.778,267.24c0-1.084-1.91-.95-4.255-.95s-4.264-.133-4.264.95c0,.791,1.1,1.279,2.469,1.776,1.643.6,0,5.631,0,5.631h3.553s-1.51-4.805,0-5.631C371.455,268.386,372.778,268.03,372.778,267.24Z" transform="translate(-40.71 -29.76)" fill="#8fb8ca"/>
        <path id="Path_4562" data-name="Path 4562" d="M359.2,269.959c-.995-.995-2.229.471-3.891,2.132s-3.127,2.887-2.132,3.89c.728.728,1.963.409,3.393-.107,1.705-.613,5.2,5.205,5.2,5.205l2.523-2.523s-5.507-3.375-5.205-5.214C359.3,271.913,359.9,270.643,359.2,269.959Z" transform="translate(-39.436 -30.135)" fill="#8fb8ca"/>
        <path id="Path_4563" data-name="Path 4563" d="M351.535,279.128c-1.306-.258-1.608,2.07-2.176,4.9s-1.172,5.1.133,5.329c.95.186,1.777-1.021,2.727-2.549,1.11-1.83,6.786,1.35,6.786,1.35l.888-4.308s-6.156.675-6.786-1.35C352.6,281,352.521,279.323,351.535,279.128Z" transform="translate(-38.973 -31.194)" fill="#8fb8ca"/>
        <path id="Path_4564" data-name="Path 4564" d="M354.489,295.128c-.942.933.311,1.972,1.723,3.384s2.452,2.665,3.393,1.732c.684-.684.453-1.777.053-3.029-.471-1.5,4.894-4.894,4.894-4.894l-2.15-2.141s-3.269,5.081-4.894,4.885C356.274,294.923,355.173,294.461,354.489,295.128Z" transform="translate(-39.582 -32.431)" fill="#8fb8ca"/>
        <path id="Path_4565" data-name="Path 4565" d="M365.43,302.848c0,1.084,1.91.959,4.255.959s4.255.124,4.255-.959c0-.782-1.1-1.279-2.469-1.776-1.634-.6,0-5.631,0-5.631h-3.553s1.51,4.805,0,5.631C366.754,301.7,365.43,302.066,365.43,302.848Z" transform="translate(-40.841 -33.019)" fill="#8fb8ca"/>
        <path id="Path_4566" data-name="Path 4566" d="M379.687,302.466c.977.977,2.585-.888,4.717-2.993s3.97-3.74,2.993-4.725c-.711-.711-2.158-.16-3.846.631-2.025.95-5.107-5.107-5.107-5.107l-3.233,3.313s5.72,2.984,5.1,5.107C379.838,300.263,378.967,301.79,379.687,302.466Z" transform="translate(-41.934 -32.441)" fill="#8fb8ca"/>
        <path id="Path_4567" data-name="Path 4567" d="M386.918,288.709c1.084,0,.95-1.9.959-4.255s.124-4.255-.959-4.255c-.791,0-1.279,1.093-1.776,2.469-.6,1.634-5.631,0-5.631,0v3.553s4.805-1.51,5.631,0C385.772,287.386,386.163,288.709,386.918,288.709Z" transform="translate(-42.415 -31.316)" fill="#8fb8ca"/>
        <path id="Path_4568" data-name="Path 4568" d="M385.218,276.891c.675-.666-.586-1.776-2.052-3.233s-2.567-2.727-3.242-2.061c-.489.5-.107,1.483.435,2.665.648,1.395-3.5,3.553-3.5,3.553l2.221,2.221s2.052-3.926,3.5-3.5C383.682,276.784,384.73,277.38,385.218,276.891Z" transform="translate(-42.119 -30.334)" fill="#8fb8ca"/>
        <path id="Path_4569" data-name="Path 4569" d="M356.93,284.5a10.774,10.774,0,1,1,3.149,7.63A10.774,10.774,0,0,1,356.93,284.5Z" transform="translate(-39.891 -30.594)" fill="#8fb8ca"/>
        <path id="Path_4570" data-name="Path 4570" d="M370.131,296.6c-.675-1.172.2-2.94,1.945-3.953s3.713-.888,4.388.3-.187,2.94-1.936,3.953S370.815,297.778,370.131,296.6Z" transform="translate(-41.341 -32.63)" fill="#44627f"/>
        <path id="Path_4571" data-name="Path 4571" d="M357.869,288.371a3.144,3.144,0,1,1-1.057,3.953A2.9,2.9,0,0,1,357.869,288.371Z" transform="translate(-39.835 -32.167)" fill="#44627f"/>
        <path id="Path_4572" data-name="Path 4572" d="M381.026,286.553a2.007,2.007,0,1,1-2.5.755A1.848,1.848,0,0,1,381.026,286.553Z" transform="translate(-42.27 -32.001)" fill="#44627f"/>
        <path id="Path_4573" data-name="Path 4573" d="M377.713,277.905a3.3,3.3,0,1,1-1.927-3.837A3.055,3.055,0,0,1,377.713,277.905Z" transform="translate(-41.488 -30.602)" fill="#44627f"/>
        <path id="Path_4574" data-name="Path 4574" d="M360.348,278.718a3.144,3.144,0,1,1-3.837,1.439A2.922,2.922,0,0,1,360.348,278.718Z" transform="translate(-39.801 -31.122)" fill="#44627f"/>
        <path id="Path_4575" data-name="Path 4575" d="M366.248,273.961a2.487,2.487,0,1,1-3.206-.515A2.309,2.309,0,0,1,366.248,273.961Z" transform="translate(-40.442 -30.513)" fill="#44627f"/>
        <path id="Path_4576" data-name="Path 4576" d="M367.86,280.763a4.015,4.015,0,1,1-2.105,5.454,4.13,4.13,0,0,1,2.105-5.454Z" transform="translate(-40.838 -31.345)" fill="#44627f"/>
        <path id="Path_4577" data-name="Path 4577" d="M336.19,202.329a42.348,42.348,0,1,0,0,.006Z" transform="translate(-28.105 -17.877)" fill="#fff"/>
        <path id="Path_4578" data-name="Path 4578" d="M296.619,181.714c.178-1.563,2.931-1.075,6.351-.693s6.218.5,6.031,2.07c-.133,1.146-1.776,1.679-3.882,2.185-2.478.6-.888,8.181-.888,8.181l-5.2-.577s2.976-6.742.888-8.181C298.36,183.624,296.495,182.869,296.619,181.714Z" transform="translate(-33.15 -20.188)" fill="#44627f"/>
        <path id="Path_4579" data-name="Path 4579" d="M315.265,187.813c1.617-1.3,3.171,1.03,5.329,3.713s4.068,4.708,2.46,6c-1.172.941-2.913.266-4.9-.7-2.389-1.164-8.4,6.733-8.4,6.733l-3.269-4.086s8.554-4.015,8.4-6.724C314.758,190.691,314.092,188.755,315.265,187.813Z" transform="translate(-34.253 -20.949)" fill="#44627f"/>
        <path id="Path_4580" data-name="Path 4580" d="M325.022,202.5c1.927-.16,2,3.269,2.363,7.47s.888,7.594-1.048,7.763c-1.412.124-2.46-1.776-3.553-4.139-1.315-2.842-10.073.888-10.073.888l-.551-6.4s8.829,1.954,10.073-.888C323.165,205.049,323.609,202.624,325.022,202.5Z" transform="translate(-34.888 -22.631)" fill="#44627f"/>
        <path id="Path_4581" data-name="Path 4581" d="M318.346,225.142c1.208,1.519-.782,2.825-3.064,4.645s-3.988,3.491-5.2,1.972c-.888-1.1-.373-2.665.4-4.441.888-2.105-6.315-7.9-6.315-7.9l3.464-2.771s3.926,7.905,6.324,7.888C315.77,224.564,317.458,224.067,318.346,225.142Z" transform="translate(-33.995 -24.213)" fill="#44627f"/>
        <path id="Path_4582" data-name="Path 4582" d="M301.442,234.662c-.178,1.572-2.922,1.075-6.342.7s-6.218-.506-6.031-2.078c.124-1.146,1.776-1.679,3.882-2.176,2.469-.6.888-8.19.888-8.19l5.205.577s-2.976,6.742-.888,8.181C299.666,232.762,301.566,233.517,301.442,234.662Z" transform="translate(-32.306 -24.914)" fill="#44627f"/>
        <path id="Path_4583" data-name="Path 4583" d="M280.1,231.916c-1.581,1.27-3.624-1.67-6.386-5.107s-5.161-6.076-3.553-7.346c1.146-.888,3.162.115,5.489,1.537,2.78,1.705,8.234-6.6,8.234-6.6l4.184,5.232s-8.794,3.42-8.234,6.6C280.237,228.638,281.259,230.992,280.1,231.916Z" transform="translate(-30.136 -23.962)" fill="#44627f"/>
        <path id="Path_4584" data-name="Path 4584" d="M272.533,210.622c-1.572-.178-1.084-2.922-.7-6.342s.5-6.218,2.07-6.031c1.146.124,1.688,1.776,2.185,3.873.6,2.478,8.181.888,8.181.888l-.577,5.2s-6.742-2.967-8.181-.888C274.416,208.89,273.715,210.746,272.533,210.622Z" transform="translate(-30.337 -22.156)" fill="#44627f"/>
        <path id="Path_4585" data-name="Path 4585" d="M276.893,193.806c-.888-1.084,1.146-2.487,3.509-4.379s4.166-3.553,5.036-2.46c.64.791-.071,2.167-1.048,3.766-1.172,1.91,4.521,5.649,4.521,5.649l-3.553,2.878s-2.345-6.04-4.521-5.658C279.149,193.894,277.524,194.6,276.893,193.806Z" transform="translate(-30.922 -20.857)" fill="#44627f"/>
        <path id="Path_4586" data-name="Path 4586" d="M314.279,209.25A15.748,15.748,0,1,0,296.9,223.169a15.749,15.749,0,0,0,17.383-13.919Z" transform="translate(-31.615 -21.432)" fill="#44627f"/>
        <path id="Path_4587" data-name="Path 4587" d="M296.033,224.843c1.173-1.59.2-4.308-2.185-6.058s-5.258-1.865-6.431-.267-.2,4.308,2.176,6.058S294.852,226.45,296.033,224.843Z" transform="translate(-32.067 -24.296)" fill="#8fb8ca"/>
        <path id="Path_4588" data-name="Path 4588" d="M315.363,214.935c-1.83-1.137-4.388-.338-5.711,1.776s-.933,4.779.888,5.916,4.388.346,5.72-1.776S317.193,216.107,315.363,214.935Z" transform="translate(-34.52 -23.964)" fill="#8fb8ca"/>
        <path id="Path_4589" data-name="Path 4589" d="M282.322,208.546a2.931,2.931,0,1,0,3.509,1.5,2.709,2.709,0,0,0-3.509-1.5Z" transform="translate(-31.324 -23.286)" fill="#8fb8ca"/>
        <path id="Path_4590" data-name="Path 4590" d="M287.984,196.48c.631,2.158,3.189,3.322,5.72,2.576s4.05-3.082,3.42-5.249-3.189-3.331-5.72-2.585S287.388,194.313,287.984,196.48Z" transform="translate(-32.171 -21.346)" fill="#8fb8ca"/>
        <path id="Path_4591" data-name="Path 4591" d="M313.346,200.467c-1.99.826-2.825,3.375-1.856,5.694s3.349,3.553,5.329,2.665a4.286,4.286,0,0,0,1.865-5.685C317.725,200.831,315.335,199.641,313.346,200.467Z" transform="translate(-34.768 -22.375)" fill="#8fb8ca"/>
        <path id="Path_4592" data-name="Path 4592" d="M305.635,192.613a3.651,3.651,0,1,0,4.743-.222A3.375,3.375,0,0,0,305.635,192.613Z" transform="translate(-34.03 -21.405)" fill="#8fb8ca"/>
        <path id="Path_4593" data-name="Path 4593" d="M301.618,202.21a5.871,5.871,0,1,0,2.176,8.261A6.049,6.049,0,0,0,301.618,202.21Z" transform="translate(-32.739 -22.519)" fill="#8fb8ca"/>
        <path id="Path_4594" data-name="Path 4594" d="M273.253,80.542a40.2,40.2,0,1,1,0-.006Z" transform="translate(-21.553 -4.508)" fill="#fff"/>
        <path id="Path_4595" data-name="Path 4595" d="M250.161,60.617c.968-1.279,3.1.586,5.871,2.665s5.134,3.668,4.166,4.939c-.711.888-2.452.524-4.5-.115-2.469-.773-5.054,6.635-5.054,6.635l-4.21-3.171s6.084-4.308,5.045-6.635C250.685,63.158,249.45,61.541,250.161,60.617Z" transform="translate(-27.541 -6.728)" fill="#44627f"/>
        <path id="Path_4596" data-name="Path 4596" d="M262.932,76.158c2.078-.275,2.212,2.549,2.665,6s1.093,6.218-.977,6.493c-1.519.2-2.665-1.279-3.908-3.162-1.448-2.247-10.8,1.474-10.8,1.474l-.711-5.249s9.522.968,10.8-1.466C261,78.4,261.458,76.371,262.932,76.158Z" transform="translate(-27.851 -8.509)" fill="#44627f"/>
        <path id="Path_4597" data-name="Path 4597" d="M263.87,94c1.776.888,0,3.882-1.83,7.728s-3.189,7.061-4.956,6.218c-1.288-.631-1.217-2.816-.933-5.454.329-3.153-9.211-4.441-9.211-4.441l2.851-5.845s6.653,6.3,9.2,4.441C260.9,95.257,262.546,93.382,263.87,94Z" transform="translate(-27.599 -10.306)" fill="#44627f"/>
        <path id="Path_4598" data-name="Path 4598" d="M246.662,109.824c.266,1.954-2.141,2.052-5.072,2.443s-5.276.959-5.543-.995c-.2-1.421,1.057-2.5,2.665-3.615,1.9-1.35-1.386-10.153-1.386-10.153l4.441-.6s-.7,8.882,1.386,10.153C244.69,107.985,246.431,108.412,246.662,109.824Z" transform="translate(-26.379 -10.83)" fill="#44627f"/>
        <path id="Path_4599" data-name="Path 4599" d="M226.609,109.382c-.968,1.27-3.109-.586-5.871-2.665s-5.134-3.668-4.166-4.947c.7-.888,2.443-.515,4.5.124,2.46.773,5.045-6.644,5.045-6.644l4.219,3.207s-6.093,4.317-5.054,6.644C226.076,106.842,227.32,108.449,226.609,109.382Z" transform="translate(-24.18 -10.645)" fill="#44627f"/>
        <path id="Path_4600" data-name="Path 4600" d="M209.757,96.163c-2.034.275-2.283-3.34-2.887-7.763s-1.324-7.994.711-8.252c1.483-.2,2.665,1.776,3.97,4.192,1.537,2.931,10.6-1.448,10.6-1.448l.888,6.724s-9.406-1.608-10.57,1.448C211.578,93.383,211.24,96,209.757,96.163Z" transform="translate(-23.049 -8.956)" fill="#44627f"/>
        <path id="Path_4601" data-name="Path 4601" d="M213.947,73.259c-1.279-.968.586-3.1,2.665-5.871s3.668-5.134,4.939-4.166c.888.7.524,2.443-.115,4.5-.728,2.46,6.724,5.045,6.724,5.045l-3.207,4.219s-4.308-6.093-6.635-5.054C216.505,72.771,214.9,73.961,213.947,73.259Z" transform="translate(-23.864 -7.041)" fill="#44627f"/>
        <path id="Path_4602" data-name="Path 4602" d="M226.809,61.277c-.187-1.395,2.292-1.563,5.329-1.981s5.472-.888,5.658.489c.142,1.013-1.2,1.848-2.878,2.727-2.007,1.048.995,7.266.995,7.266l-4.619.631s1.11-6.475-.986-7.275C228.754,62.538,226.978,62.3,226.809,61.277Z" transform="translate(-25.347 -6.579)" fill="#44627f"/>
        <path id="Path_4603" data-name="Path 4603" d="M250.389,94.407a15.988,15.988,0,1,0-22.357,3.047A15.988,15.988,0,0,0,250.389,94.407Z" transform="translate(-24.777 -7.68)" fill="#44627f"/>
        <path id="Path_4604" data-name="Path 4604" d="M227.479,97.852c1.848-.773,2.416-3.642,1.252-6.4s-3.6-4.37-5.445-3.553-2.416,3.642-1.261,6.4S225.622,98.624,227.479,97.852Z" transform="translate(-24.747 -9.801)" fill="#8fb8ca"/>
        <path id="Path_4605" data-name="Path 4605" d="M249.271,99.429c-.995-1.936-3.633-2.576-5.9-1.421s-3.3,3.677-2.3,5.614,3.633,2.585,5.9,1.421S250.266,101.374,249.271,99.429Z" transform="translate(-26.9 -10.889)" fill="#8fb8ca"/>
        <path id="Path_4606" data-name="Path 4606" d="M224.06,76.56a2.967,2.967,0,1,0,2.265,3.135A2.754,2.754,0,0,0,224.06,76.56Z" transform="translate(-24.633 -8.547)" fill="#8fb8ca"/>
        <path id="Path_4607" data-name="Path 4607" d="M235.185,69.127c-.577,2.212,1.039,4.557,3.615,5.223s5.134-.577,5.711-2.78-1.039-4.557-3.615-5.223S235.754,66.907,235.185,69.127Z" transform="translate(-26.272 -7.395)" fill="#8fb8ca"/>
        <path id="Path_4608" data-name="Path 4608" d="M255.116,85.725c-2.158-.32-4.21,1.457-4.583,3.979s1.075,4.805,3.242,5.125,4.2-1.457,4.574-3.979S257.274,86.036,255.116,85.725Z" transform="translate(-27.993 -9.577)" fill="#8fb8ca"/>
        <path id="Path_4609" data-name="Path 4609" d="M252.545,74.892a3.7,3.7,0,1,0,4.237,2.274A3.42,3.42,0,0,0,252.545,74.892Z" transform="translate(-27.9 -8.354)" fill="#8fb8ca"/>
        <path id="Path_4610" data-name="Path 4610" d="M243.878,81.235a5.951,5.951,0,1,0-2.407,8.349,6.129,6.129,0,0,0,2.407-8.349Z" transform="translate(-26.02 -8.754)" fill="#8fb8ca"/>
        <path id="Path_4611" data-name="Path 4611" d="M192.813,208.406a37.155,37.155,0,0,0,2.78-4.441c.711-1.412,1.013-2.665-.142-3.3-1.359-.773-2.078.426-2.949,1.466s-2.407,3.2-3.171,4.264c-1.066,1.483.844,1.226,2.567,1.563Z" transform="translate(-21.126 -22.4)" fill="#4b6190"/>
        <path id="Path_4612" data-name="Path 4612" d="M180.06,221.476c3.5-2.611,5.329-18.466,12.284-14.265,1.252.746.986,1.776,1.625,2.816.444.7,1.51.977,1.91,1.776.275.533.275,1.634.533,2.114.346.648,1.119.666,1.581,1.412.568.933.1,1.821.329,2.54.888,2.665-.089,3.757-3.366,5.161-3.979,1.776-7.275,3.4-11.671,3.18Z" transform="translate(-20.124 -23.08)" fill="#4b6190"/>
        <path id="Path_4613" data-name="Path 4613" d="M172.74,217.79c-6.626.266-22.721,7.994-27.837,8.349-1.919.142-2.229-6.342-6.129-16.743-5.2-12.995-8.767-29.472-27.153-29.028l4.272,20.927c7.284,6.8,7.372,18.093,14,26.967,2.247,3,4.761,8.634,9.2,9.771,7.515,1.99,34.082-6.138,39.571-15.446Z" transform="translate(-12.475 -20.157)" fill="#fff"/>
        <rect id="Rectangle_1010" data-name="Rectangle 1010" width="2.984" height="3.811" transform="translate(165.136 171.472) rotate(-32.2)" fill="#fff"/>
        <path id="Path_4614" data-name="Path 4614" d="M186.9,197a32.547,32.547,0,0,0,3.668,2.887c1.3.888,2.842,1.537,4.041,2.523.5.426.791.782,0,.888-1.27.124-3.207-1.19-4.388-1.528a8.678,8.678,0,0,0-3.668-.666,5.374,5.374,0,0,0-2.141,1.137c-.817.515-1.546,1.643-2.5,1.244s-1-1.386-1.03-2.274Z" transform="translate(-20.216 -22.017)" fill="#fff"/>
        <path id="Path_4615" data-name="Path 4615" d="M199.769,252.161c-13.324-10.908-14.416-28.885-15.58-37.546-.178-.711-.444-1.776-.56-2.407l4.947-3.118c5.036,4.281,1.776,5.889,6.777,10.135,7.559,6.422,12.178-2.718,25.324,19.772Z" transform="translate(-20.523 -23.368)" fill="#fff"/>
        <path id="Path_4616" data-name="Path 4616" d="M177.751,197.106l6.493-4.086,2.025,3.224a9.921,9.921,0,0,1-1.3,2.114c-1.919,2.62.089,5.6.089,5.6l-4.947,3.118s-1.146-2.727-3.349-1.341l-5.249,3.3C169.588,205.979,172.564,200.375,177.751,197.106Z" transform="translate(-19.103 -21.572)" fill="#4b6190"/>
        <rect id="Rectangle_1011" data-name="Rectangle 1011" width="1.085" height="3.07" transform="matrix(0.849, -0.529, 0.529, 0.849, 168.013, 171.299)" fill="#4b6190"/>
        <rect id="Rectangle_1012" data-name="Rectangle 1012" width="6.449" height="3.935" transform="matrix(0.846, -0.533, 0.533, 0.846, 160.757, 185.655)" fill="#fff"/>
        <path id="Path_4617" data-name="Path 4617" d="M184.19,214.886c-.178-.711-.444-1.776-.56-2.407l1.528-.959c.062.275.133.542.187.782,1.173,8.651,2.229,26.647,15.589,37.537L219.879,237.9c.2.48.6.888.8,1.368l-20.909,13.164C186.41,241.525,185.353,223.547,184.19,214.886Z" transform="translate(-20.523 -23.64)" fill="#e6e6e6"/>
        <path id="Path_4618" data-name="Path 4618" d="M193.381,209.71c-1.057.693-4.388,3.713-3.917,5.329.346,1.1,1.688.462,2.567.116,1.776-.808,5.205-2.141,2.105-4Z" transform="translate(-21.17 -23.438)" fill="#4b6190"/>
        <path id="Path_4619" data-name="Path 4619" d="M195.021,212.7c-1.164.782-4.352,3.118-3.828,4.939.391,1.235,1.883.515,2.86.124,2.007-.888,5.782-2.4,2.336-4.441Z" transform="translate(-21.362 -23.772)" fill="#4b6190"/>
        <path id="Path_4620" data-name="Path 4620" d="M196.985,215.28c-1.11.746-4.13,2.967-3.642,4.69.373,1.172,1.776.5,2.718.124,1.91-.888,5.489-2.283,2.221-4.255Z" transform="translate(-21.602 -24.06)" fill="#4b6190"/>
        <path id="Path_4621" data-name="Path 4621" d="M183.885,216.127a5,5,0,0,1,5.01,1.439c2.665,3.366-7.168,2.78-5.791.684Z" transform="translate(-20.449 -24.135)" fill="#4b6190"/>
        <path id="Path_4622" data-name="Path 4622" d="M193.945,201.43a1.874,1.874,0,0,0-.115,2.256,1.563,1.563,0,0,0,2.523-.977Z" transform="translate(-21.627 -22.512)" fill="#4b6190"/>
        <path id="Path_4623" data-name="Path 4623" d="M184.665,389.38c0-5.178-41.339-9.38-92.288-9.38S0,384.2,0,389.38s41.339,9.38,92.377,9.38S184.665,394.558,184.665,389.38Z" transform="translate(0 -42.47)" fill="#8fb8ca" opacity="0.5"/>
        <path id="Path_4624" data-name="Path 4624" d="M70.714,333.623c-.231,5.045,2.061,25.039,6.635,33.327H87.7c.888-13.057,5.2-24.773,2.922-37.448-2.913-16.317.373-27.136,6.218-45,2.754,15.455,8.225,30.422,3.482,43.977-4.441,12.711,2.078,37.75,2.407,38.47h9.087c1.181-1.883,4.086-10.446,4.583-13.066,2.274-12.062,1.874-27.171,2.061-39.5.169-11.174,3.073-23.041,3.091-27.482.089-19.142.693-21.318-2.061-32.971h-48.1c-4.805,14.079-2.754,29.88-.693,45C72.42,310.946,71.389,321.6,70.714,333.623Z" transform="translate(-7.649 -28.38)" fill="#fff"/>
        <path id="Path_4625" data-name="Path 4625" d="M107.509,381.17h6.777l9.984,5.463c2.976.746,5.96.249,7.95,2.611a56.6,56.6,0,0,1-7.95.249c-5.6.124-12.435-.622-18.262-.622-4.219,0-1.99-4.6,0-6.466a12.441,12.441,0,0,1,1.5-1.235Z" transform="translate(-11.58 -42.6)" fill="#fff"/>
        <path id="Path_4626" data-name="Path 4626" d="M86.381,381.49h-6.8a15.446,15.446,0,0,0-3.739,2.665c-2.043,2.229-3.162,5.054-1.59,5.054,5.6.124,6.582,0,12.435,0,4.219,0,3.153-4.6,1.164-6.466a13.525,13.525,0,0,0-1.474-1.252Z" transform="translate(-8.216 -42.636)" fill="#fff"/>
        <path id="Path_4627" data-name="Path 4627" d="M73.239,336.178c.684-12.018,1.714-22.668,0-34.695-1.6-11.725-3.189-23.858-1.581-35.281A25.867,25.867,0,0,1,69.6,261.69c-2.336,12.24-.622,25.412,1.1,38.105,1.723,12.018.693,22.668,0,34.695-.231,5.045,2.061,25.039,6.635,33.327h1.7C75.024,358.783,73.025,340.9,73.239,336.178Z" transform="translate(-7.651 -29.247)" fill="#e6e6e6"/>
        <path id="Path_4628" data-name="Path 4628" d="M82.136,180.6c-11.361.888-14.212,4.308-11.05,21.007,2.46,12.986-.888,21.167-2.665,34.33-6.591,46.091,59.254,42.493,52.664-.6-1.776-10.179-4.441-15.784-2.665-25.475,3.7-20.074.3-29.632-10.135-29.5C94.42,180.556,82.136,180.6,82.136,180.6Z" transform="translate(-7.595 -20.158)" fill="#fff"/>
        <path id="Path_4629" data-name="Path 4629" d="M189.4,157.181V135.863a1.19,1.19,0,0,0-2.372,0v21.318a1.19,1.19,0,1,0,2.372,0Zm10.863,2.665,8.163-19.71a1.19,1.19,0,0,0-2.194-.888l-8.163,19.71a1.19,1.19,0,0,0,.639,1.554,1.173,1.173,0,0,0,.453.089,1.19,1.19,0,0,0,1.1-.755Zm9.025,6.591,15.1-15.1a1.19,1.19,0,1,0-1.679-1.679l-15.1,15.1a1.181,1.181,0,1,0,1.679,1.661Zm5.818,9.54,19.71-8.136a1.19,1.19,0,1,0-.888-2.194l-19.7,8.163a1.19,1.19,0,0,0,.453,2.283,1.146,1.146,0,0,0,.426-.133Zm24.24,9.859a1.19,1.19,0,0,0-1.19-1.19H216.842a1.19,1.19,0,0,0,0,2.372H238.16a1.19,1.19,0,0,0,1.19-1.2Zm-3.89,19.541a1.19,1.19,0,0,0-.64-1.554l-19.71-8.163a1.19,1.19,0,0,0-.888,2.194l19.683,8.181a1.173,1.173,0,0,0,.453.089,1.19,1.19,0,0,0,1.1-.737ZM224.374,221.96a1.19,1.19,0,0,0,0-1.679l-15.1-15.1a1.2,1.2,0,1,0-1.661,1.741l15.1,15.1a1.19,1.19,0,0,0,1.679,0Zm-63.589-36.151a1.19,1.19,0,0,0-1.19-1.19H138.277a1.19,1.19,0,1,0,0,2.372H159.6a1.181,1.181,0,0,0,1.19-1.172Zm2.087-10.5a1.19,1.19,0,0,0-.648-1.554l-19.7-8.163a1.19,1.19,0,1,0-.888,2.194l19.7,8.163a1.173,1.173,0,0,0,.453.089,1.2,1.2,0,0,0,1.084-.719Zm5.942-8.882a1.19,1.19,0,0,0,0-1.679l-15.1-15.1a1.19,1.19,0,0,0-1.679,0,1.172,1.172,0,0,0,0,1.679l15.1,15.1a1.2,1.2,0,0,0,.844.346,1.181,1.181,0,0,0,.835-.355Zm8.882-5.951a1.172,1.172,0,0,0,.64-1.546l-8.154-19.71a1.19,1.19,0,0,0-2.194.888l8.181,19.737a1.19,1.19,0,0,0,1.092.737,1.154,1.154,0,0,0,.453-.115Z" transform="translate(-15.31 -15.063)" fill="url(#radial-gradient)"/>
        <path id="Path_4630" data-name="Path 4630" d="M81.795,179.173c.888-3.375,2.665-6.013,1.057-12.435-7.39-13.75-16.663-33.016,2.354-44.243,27.429-16.175,28.095,25.173,23.645,38.194-3.873,11.334,13,34.712-5.463,35.663S78.979,189.956,81.795,179.173Z" transform="translate(-8.266 -13.277)" fill="#fff"/>
        <path id="Path_4631" data-name="Path 4631" d="M88,147.341c0-10,5.1-18.111,11.4-18.111s11.387,3.233,11.387,18.111c0,10-5.1,18.1-11.387,18.1S88,157.343,88,147.341Z" transform="translate(-9.835 -14.443)" fill="#ffa57d"/>
        <path id="Path_4632" data-name="Path 4632" d="M111.134,150.21c-1.332-2.043-4.184-3.731-6.706-3.011-6.884,1.954-7.825,11.894-12.737,14.9h0c2.07,3.3,4.5,5.178,8.083,5.329C105.875,167.433,110.849,159.794,111.134,150.21Z" transform="translate(-10.247 -16.432)" fill="#4b6190"/>
        <path id="Path_4633" data-name="Path 4633" d="M70.06,240.171c1.448-10.659,8.678-27.731,8.269-37.031-.568,1.128-5.9,12-6.493,13.2-.453,7.106-2.292,13.555-3.464,22.153C66.6,251,70.149,259.81,76.109,265.228,71.179,259.738,68.443,251.442,70.06,240.171Z" transform="translate(-7.59 -22.703)" fill="#e6e6e6"/>
        <g id="Group_1083" data-name="Group 1083" transform="translate(68.501 256.123)" opacity="0.85">
          <path id="Path_4634" data-name="Path 4634" d="M97.8,288.35c-7.426,12.871-11.663,26.15-8.74,42.458,2.274,12.684-2.061,24.4-2.922,37.448H77.12a22.689,22.689,0,0,0,1.19,2.54H88.667c.888-13.057,5.2-24.773,2.922-37.448-2.665-15.1-.08-25.5,4.947-41.117C97.07,290.579,97.8,288.35,97.8,288.35Z" transform="translate(-77.12 -288.35)" fill="#8fb8ca"/>
        </g>
        <g id="Group_1084" data-name="Group 1084" transform="translate(94.393 161.846)" opacity="0.85">
          <path id="Path_4635" data-name="Path 4635" d="M124.621,250.045a33.513,33.513,0,0,0,.7-14.5c-1.776-10.179-4.441-15.784-2.665-25.475,2.8-15.189,1.537-24.356-3.775-27.864,3.1,4.574,3.553,12.951,1.244,25.333-1.776,9.691.844,15.3,2.665,25.466a34.472,34.472,0,0,1-.293,12.906l-.409,1.6.986,6.608c.462,5.1.213,10.446.16,22.206,0,4.441-2.922,16.308-3.091,27.482-.187,12.329.213,27.429-2.061,39.5-.5,2.62-3.4,11.174-4.583,13.057h-7.23c.355,1.483.622,2.407.675,2.54h9.087c1.181-1.883,4.086-10.446,4.583-13.066,2.274-12.062,1.874-27.171,2.061-39.5.169-11.174,3.073-23.041,3.091-27.482C125.847,262.231,126.309,258.412,124.621,250.045Z" transform="translate(-106.27 -182.21)" fill="#8fb8ca"/>
        </g>
        <path id="Path_4636" data-name="Path 4636" d="M90.1,287.942c-14.532-10.037-23.627-.791-23.627-.791-11.8,5.747-22.552,58.624-9.016,65.41,1.776-2.984,3.8-5.463,8.243-1.181,1.679-3.553,5.276-5.125,7.337-2.15,3.437-10.321-2.762-23.094-5.827-33.034-3.429-13.226-.32-19.95,6.218-26.922l5.205.888a9.859,9.859,0,0,1,5.4,4.041c.888,1.288,1.226,3.651,2.665,4.441,2.46,1.35,4.246-1.03,4.921-3.251C92.569,292.543,92.454,289.585,90.1,287.942Z" transform="translate(-5.717 -31.658)" fill="#8fb8ca"/>
        <g id="Group_1089" data-name="Group 1089" transform="translate(50.088 253.619)" opacity="0.5">
          <g id="Group_1085" data-name="Group 1085" transform="translate(29.596)" opacity="0.85">
            <path id="Path_4637" data-name="Path 4637" d="M94.409,288.195a30.622,30.622,0,0,0-4.7-2.665,31.72,31.72,0,0,1,2.922,1.776c2.372,1.643,2.5,4.6,1.492,7.443-.6,1.856-1.919,3.793-3.766,3.633a2.185,2.185,0,0,0,.6.515c2.46,1.35,4.246-1.03,4.921-3.251C96.878,292.8,96.763,289.838,94.409,288.195Z" transform="translate(-89.71 -285.53)" fill="#8fb8ca"/>
          </g>
          <g id="Group_1086" data-name="Group 1086" transform="translate(0 62.921)" opacity="0.85">
            <path id="Path_4638" data-name="Path 4638" d="M56.39,359.594a7.284,7.284,0,0,0,1.625,1.146c1.252-2.123,2.665-3.979,4.956-3.34C59.668,355.064,57.9,357.08,56.39,359.594Z" transform="translate(-56.39 -356.367)" fill="#8fb8ca"/>
          </g>
          <g id="Group_1087" data-name="Group 1087" transform="translate(8.305 61.528)" opacity="0.85">
            <path id="Path_4639" data-name="Path 4639" d="M65.74,358.069a12.433,12.433,0,0,1,1.563,1.35c1.146-2.4,3.171-3.908,5.01-3.686C70.3,353.743,67.348,355.129,65.74,358.069Z" transform="translate(-65.74 -354.8)" fill="#8fb8ca"/>
          </g>
          <g id="Group_1088" data-name="Group 1088" transform="translate(8.195 3.082)" opacity="0.85">
            <path id="Path_4640" data-name="Path 4640" d="M80.24,290.776c.231.08.453.169.675.266a13.507,13.507,0,0,0-2.452-1.155L73.249,289c-6.546,6.973-9.655,13.7-6.218,26.922,3.011,9.771,9.069,22.33,5.969,32.572a3.605,3.605,0,0,1,1.634,1.35c3.437-10.321-2.762-23.094-5.827-33.034-3.429-13.226-.32-19.95,6.218-26.922Z" transform="translate(-65.616 -289)" fill="#8fb8ca"/>
          </g>
        </g>
        <path id="Path_4641" data-name="Path 4641" d="M71.1,278.68c2.034,3.553,16.148,7.106,11.9,13.368-.4.613-1.776.258-2.807.746-.7.329-.888,1.528-1.67,1.776-.524.2-1.7-.151-2.176,0-.64.249-.551,1.03-.968,1.252-.888.515-2.2-.053-2.9.08-2.6.533-3.464-.489-4.441-3.677-1.235-3.873-2.363-7.106-1.679-11.138Z" transform="translate(-7.394 -31.146)" fill="#4b6190"/>
        <path id="Path_4642" data-name="Path 4642" d="M73.73,182c-12.6,1.776-14.274,7.71-17.845,16.273-6.342,15.233-9.948,32.385-9.451,35.609.888,5.383,10.8,37.6,17.685,37.732l5.551-2.887c3.429-2.576-11.423-33.611-10.543-35.734,1.661-4.006,6.457-11.316,9.886-18.218,2.833-5.685,5.534-10.89,6.91-14.016Z" transform="translate(-5.184 -20.341)" fill="#fff"/>
        <path id="Path_4643" data-name="Path 4643" d="M82.124,122.532c-19.017,11.227-9.771,30.493-2.354,44.243a16.53,16.53,0,0,1,.48,6.955h-.524a23.84,23.84,0,0,0-7.266,1.448c-11.44,2.007-13.093,7.754-16.575,16.05-6.342,15.233-9.948,32.385-9.451,35.609.888,5.383,10.8,37.6,17.685,37.732l.32-.169c-6.626-5.48-14.709-31.888-15.473-36.72-.5-3.224,3.109-20.376,9.451-35.609,2.745-6.591,4.388-11.547,10.721-14.381l10.9-2.9,2.745-.231.115-.888a17.356,17.356,0,0,0-.6-6.1c-7.39-13.75-16.663-33.016,2.363-44.243,5.507-3.251,9.939-4.175,13.466-3.473C94.266,118.02,89.052,118.428,82.124,122.532Z" transform="translate(-5.184 -13.279)" fill="#e6e6e6"/>
        <path id="Path_4644" data-name="Path 4644" d="M191.935,175.678V165.8a.56.56,0,1,0-1.11,0v9.877a.56.56,0,0,0,1.11,0Zm5.045,1.217,3.793-9.158a.552.552,0,0,0-1.021-.417l-3.793,9.158a.551.551,0,0,0,.3.719.569.569,0,0,0,.2.044.56.56,0,0,0,.489-.311Zm4.193,3.064,7.017-7.008a.553.553,0,0,0-.782-.782l-7.017,7.008a.56.56,0,0,0,0,.782.568.568,0,0,0,.391.16.551.551,0,0,0,.364-.124Zm2.665,4.441L213,180.608a.553.553,0,0,0-.426-1.021l-9.158,3.793a.551.551,0,0,0,.213,1.057.6.6,0,0,0,.231,0Zm11.281,4.6a.551.551,0,0,0-.551-.551h-9.913a.551.551,0,0,0,0,1.1h9.913a.542.542,0,0,0,.551-.551Zm-1.776,9.1a.551.551,0,0,0-.3-.719l-9.158-3.793a.551.551,0,0,0-.719.3.56.56,0,0,0,.293.719l9.158,3.793a.613.613,0,0,0,.213,0,.568.568,0,0,0,.488-.293Zm-5.152,7.71a.551.551,0,0,0,0-.773l-7.017-7.017a.553.553,0,0,0-.782.782l7.017,7.008a.524.524,0,0,0,.391.169.551.551,0,0,0,.364-.16ZM178.612,189a.551.551,0,0,0-.551-.551H168.14a.56.56,0,0,0-.56.551.551.551,0,0,0,.56.551h9.913a.56.56,0,0,0,.56-.551Zm.968-4.876a.551.551,0,0,0-.3-.719l-9.158-3.793a.552.552,0,1,0-.417,1.022l9.158,3.793a.594.594,0,0,0,.213,0,.551.551,0,0,0,.5-.293Zm2.762-4.139a.56.56,0,0,0,0-.782l-7.008-7.008a.553.553,0,0,0-.782.782l7.008,7.008a.533.533,0,0,0,.782,0Zm4.139-2.762a.542.542,0,0,0,.293-.719l-3.784-9.158a.552.552,0,1,0-1.021.417l3.748,9.176a.56.56,0,0,0,.506.338.613.613,0,0,0,.249-.044Z" transform="translate(-18.729 -18.46)" fill="url(#radial-gradient-2)"/>
        <g id="Group_1090" data-name="Group 1090" transform="translate(78.129 114.769)" opacity="0.35">
          <path id="Path_4645" data-name="Path 4645" d="M91.53,163.71l.142.249h0Z" transform="translate(-88.359 -133.066)" fill="#ffa57d"/>
          <path id="Path_4646" data-name="Path 4646" d="M103.637,144.594c-6.6,1.883-8.287,9.922-12.533,13.617a24.986,24.986,0,0,1-2.078-9.646c0-10,5.1-18.111,11.4-18.111a12.569,12.569,0,0,1,7.017,2.309c-2.061-2.665-4.921-3.553-8.083-3.553-6.3,0-11.4,8.11-11.4,18.111,0,7.035,2.531,13.119,6.218,16.113a20.126,20.126,0,0,1-2.4-3.713c4.441-3.349,5.587-12.649,12.231-14.532,2.407-.684,5.1.817,6.5,2.718a2.183,2.183,0,0,1,0-.24C109.153,145.6,106.231,143.857,103.637,144.594Z" transform="translate(-87.96 -129.21)" fill="#ffa57d"/>
        </g>
      </g>
    </g>
  </g>
</svg>
