<svg xmlns="http://www.w3.org/2000/svg" xmlns:xlink="http://www.w3.org/1999/xlink" width="322.037" height="527.479" viewBox="0 0 322.037 527.479">
  <defs>
    <linearGradient id="linear-gradient" x1="-0.467" y1="1.021" x2="0.783" y2="0.546" gradientUnits="objectBoundingBox">
      <stop offset="0" stop-color="#fff"/>
      <stop offset="1" stop-color="#fff" stop-opacity="0"/>
    </linearGradient>
    <linearGradient id="linear-gradient-2" x1="-18.01" y1="-7.007" x2="-17.368" y2="-6.529" gradientUnits="objectBoundingBox">
      <stop offset="0" stop-color="#be8078"/>
      <stop offset="1" stop-color="#e6b8ac" stop-opacity="0"/>
    </linearGradient>
    <linearGradient id="linear-gradient-3" x1="-13.987" y1="-4.868" x2="-14.204" y2="-4.081" gradientUnits="objectBoundingBox">
      <stop offset="0" stop-color="#c99a6a"/>
      <stop offset="1" stop-color="#c99a6a" stop-opacity="0"/>
    </linearGradient>
    <linearGradient id="linear-gradient-4" x1="-20.314" y1="-7.082" x2="-20.531" y2="-6.295" xlink:href="#linear-gradient-3"/>
  </defs>
  <g id="disinfect" transform="translate(1.63)">
    <g id="Layer_2" data-name="Layer 2">
      <g id="OBJECTS">
        <path id="Path_4358" data-name="Path 4358" d="M0,186.883,69.582,140.55l16.585,62.343L.657,189.675Z" transform="translate(234.24 51.779)" fill="url(#linear-gradient)"/>
        <path id="Path_4359" data-name="Path 4359" d="M169.366,234.149l40.6-19.828a12.589,12.589,0,0,0,10.55-12.411L237.5,110.421c0-7.759-23.919-22.086-31.582-20.84l-53.709,8.812a12.575,12.575,0,0,0-10.536,12.315V210.6C141.67,218.4,161.717,235.394,169.366,234.149Z" transform="translate(-110.948 32.975)" fill="#004e90"/>
        <path id="Path_4360" data-name="Path 4360" d="M141.68,103.328a12.534,12.534,0,0,1,8.128-4.954L203.5,89.63c7.663-1.245,31.582,13.082,31.582,20.84L225.616,161.5l-34.647-22.291Z" transform="translate(-108.55 32.993)" fill="#004e90"/>
        <path id="Path_4361" data-name="Path 4361" d="M155.761,231.738l53.695-8.73a12.589,12.589,0,0,0,10.55-12.411V110.705a12.575,12.575,0,0,0-14.6-12.411l-53.695,8.744a12.575,12.575,0,0,0-10.55,12.411V219.34a12.575,12.575,0,0,0,14.6,12.4Z" transform="translate(-92.759 36.152)" fill="#2074b9"/>
        <path id="Path_4362" data-name="Path 4362" d="M149.307,197.488l23.577-11.453s-31.842-73.317-41.516-80.31c-7.116-5.131-17.611,23.112-10.249,38.889C126.51,156.164,149.307,197.488,149.307,197.488Z" transform="translate(-14.78 38.724)" fill="#e8e8e8"/>
        <path id="Path_4363" data-name="Path 4363" d="M136.762,102.427c10.454,5.309,18.158,16.954,21.251,33.922s-4.625,17.5-4.625,17.5S130.932,101.045,136.762,102.427Z" transform="translate(-24.156 37.726)" fill="#004e90"/>
        <path id="Path_4364" data-name="Path 4364" d="M106.208,164.591c6.842,2.928,30.1,11.248,44.5,15.449,1.136.164,4.379,1.71,1.6,5.337-4.652,6.1-47.8,4.3-62.179-.3-9.237-2.956-5.077-15.545-5.077-15.545S95.412,159.953,106.208,164.591Z" transform="translate(51.896 60.168)" fill="#e8e8e8"/>
        <path id="Path_4365" data-name="Path 4365" d="M100.289,175.955s-8.114-2.176-10.632-3.065c-5.391,4.365-7.088,14.176-7.088,14.176s14.587.068,19.362-2.586S100.289,175.955,100.289,175.955Z" transform="translate(103.724 63.692)" fill="#004e90"/>
        <path id="Path_4366" data-name="Path 4366" d="M119.024,319.387a4.817,4.817,0,0,0,2.217.123c.7-.246-.534-1.19-.233-6.842.205-4.242.342-6.719.342-6.719H120.3s-.137,2.559-.342,6.842C119.667,318.211,118.394,319.141,119.024,319.387Z" transform="translate(36.316 112.708)" fill="#c4d031"/>
        <path id="Path_4367" data-name="Path 4367" d="M121.25,316.582a4.817,4.817,0,0,1-2.217-.123c-.424-.164,0-.629.411-2.559l1.656.082C121.25,315.953,121.7,316.418,121.25,316.582Z" transform="translate(36.32 115.636)" fill="#87a936"/>
        <path id="Path_4368" data-name="Path 4368" d="M119.026,305.9h1.054s0,.629-.1,1.779H118.93C119,306.529,119.026,305.9,119.026,305.9Z" transform="translate(37.587 112.689)" fill="#87a936"/>
        <path id="Path_4369" data-name="Path 4369" d="M116.309,304.276a3.9,3.9,0,1,0,1.286-2.7,3.9,3.9,0,0,0-1.286,2.7Z" transform="translate(37.156 110.728)" fill="#acc435"/>
        <path id="Path_4370" data-name="Path 4370" d="M119.284,306.664a3.366,3.366,0,0,0,2.408-5.884,3.9,3.9,0,1,1-5.35,3.79A3.38,3.38,0,0,0,119.284,306.664Z" transform="translate(37.068 110.803)" fill="#87a936"/>
        <path id="Path_4371" data-name="Path 4371" d="M118.789,303.383c.3.629,1.368.739,2.313.26s1.505-1.368,1.2-2.012-1.368-.739-2.326-.26S118.475,302.753,118.789,303.383Z" transform="translate(35.592 110.91)" fill="#d0d52c"/>
        <path id="Path_4372" data-name="Path 4372" d="M46.536,333.53a7.349,7.349,0,0,0,3.106,1.368c1.149,0-.109-1.97,3.394-9.921l4.105-9.4-1.464-.657-4.174,9.5C48.1,332.175,45.77,332.818,46.536,333.53Z" transform="translate(199.786 116.012)" fill="#c4d031"/>
        <path id="Path_4373" data-name="Path 4373" d="M54.241,330.813a7.348,7.348,0,0,1-3.106-1.368c-.506-.465.356-.917,2-3.435l2.313,1.013C54.706,329.951,55.007,330.84,54.241,330.813Z" transform="translate(195.189 120.097)" fill="#87a936"/>
        <path id="Path_4374" data-name="Path 4374" d="M47.465,314.92l1.464.657s-.383.862-1.081,2.477l-1.478-.643C47.082,315.809,47.465,314.92,47.465,314.92Z" transform="translate(208.026 116.012)" fill="#87a936"/>
        <path id="Path_4375" data-name="Path 4375" d="M41.509,310.871a5.966,5.966,0,1,0,3.3-3.164A5.966,5.966,0,0,0,41.509,310.871Z" transform="translate(211.355 113.205)" fill="#acc435"/>
        <path id="Path_4376" data-name="Path 4376" d="M44.381,315.562a5.145,5.145,0,0,0,6.637-7.1,5.966,5.966,0,1,1-9.7,2.491,5.145,5.145,0,0,0,3.065,4.611Z" transform="translate(211.357 113.632)" fill="#87a936"/>
        <path id="Path_4377" data-name="Path 4377" d="M43.735,310.143c.109,1.067,1.533,1.793,3.188,1.628s2.9-1.149,2.737-2.217-1.519-1.793-3.175-1.628S43.639,309.076,43.735,310.143Z" transform="translate(210.894 113.427)" fill="#d0d52c"/>
        <path id="Path_4378" data-name="Path 4378" d="M147.23,327.44a7.17,7.17,0,0,0,2.244-2.532c.4-1.081-1.9-.506-8.388-6.267L133.4,311.8l-1.067,1.19,7.759,6.842C146.477,325.538,146.382,327.96,147.23,327.44Z" transform="translate(-10.185 114.863)" fill="#c4d031"/>
        <path id="Path_4379" data-name="Path 4379" d="M137.2,322a7.17,7.17,0,0,1-2.244,2.531c-.6.342-.766-.616-2.668-2.956l1.683-1.888C136.531,321.291,137.462,321.277,137.2,322Z" transform="translate(2.142 117.769)" fill="#87a936"/>
        <path id="Path_4380" data-name="Path 4380" d="M142.58,313l1.067-1.19,2.039,1.793-1.067,1.2Z" transform="translate(-20.382 114.866)" fill="#87a936"/>
        <path id="Path_4381" data-name="Path 4381" d="M144.953,315.807a5.966,5.966,0,1,0-.493-8.429A5.966,5.966,0,0,0,144.953,315.807Z" transform="translate(-30.09 112.498)" fill="#acc435"/>
        <path id="Path_4382" data-name="Path 4382" d="M148.247,314.615a5.145,5.145,0,0,0-4.707-8.5,5.966,5.966,0,1,1-.6,10,5.131,5.131,0,0,0,5.309-1.505Z" transform="translate(-27.622 112.486)" fill="#87a936"/>
        <path id="Path_4383" data-name="Path 4383" d="M149.6,313.218c1.04.219,2.176-.9,2.531-2.532s-.219-3.12-1.259-3.339-2.176.9-2.531,2.518S148.557,312.985,149.6,313.218Z" transform="translate(-34.666 113.212)" fill="#d0d52c"/>
        <path id="Path_4384" data-name="Path 4384" d="M69.334,331.718a4.734,4.734,0,0,0,2.176.178c.7-.205-.479-1.177,0-6.732.356-4.105.561-6.582.561-6.582l-1.026-.082s-.219,2.5-.575,6.637C70,330.569,68.718,331.5,69.334,331.718Z" transform="translate(153.686 117.331)" fill="#c4d031"/>
        <path id="Path_4385" data-name="Path 4385" d="M71.758,329.012a4.734,4.734,0,0,1-2.176-.178c-.411-.178,0-.629.493-2.5l1.628.137C71.854,328.4,72.223,328.875,71.758,329.012Z" transform="translate(153.438 120.215)" fill="#87a936"/>
        <path id="Path_4386" data-name="Path 4386" d="M69.321,318.5l1.026.082-.137,1.738-1.04-.082Z" transform="translate(155.41 117.331)" fill="#87a936"/>
        <path id="Path_4387" data-name="Path 4387" d="M66.543,316.8a3.831,3.831,0,1,0,4.105-3.5A3.831,3.831,0,0,0,66.543,316.8Z" transform="translate(155.177 115.409)" fill="#acc435"/>
        <path id="Path_4388" data-name="Path 4388" d="M69.348,319.212a3.311,3.311,0,0,0,2.559-5.692,3.831,3.831,0,1,1-5.378,3.53A3.27,3.27,0,0,0,69.348,319.212Z" transform="translate(155.176 115.496)" fill="#87a936"/>
        <path id="Path_4389" data-name="Path 4389" d="M68.869,315.932c.274.629,1.368.78,2.272.342s1.519-1.368,1.232-1.929A1.8,1.8,0,0,0,70.1,314C69.2,314.44,68.582,315.316,68.869,315.932Z" transform="translate(153.822 115.589)" fill="#d0d52c"/>
        <path id="Path_4390" data-name="Path 4390" d="M33.33,341.054a4.953,4.953,0,0,0-.109,2.422c.26.766,1.273-.588,7.471-.287l7.321.328v-1.136l-7.389-.342C34.63,341.725,33.59,340.343,33.33,341.054Z" transform="translate(227.073 125.565)" fill="#c4d031"/>
        <path id="Path_4391" data-name="Path 4391" d="M41.951,343.454a4.954,4.954,0,0,1,.109-2.422c.178-.465.7,0,2.737.438l-.082,1.806C42.635,343.536,42.129,343.96,41.951,343.454Z" transform="translate(218.343 125.56)" fill="#87a936"/>
        <path id="Path_4392" data-name="Path 4392" d="M35.009,342.026v1.136l-1.929-.082V341.93Z" transform="translate(240.132 125.962)" fill="#87a936"/>
        <path id="Path_4393" data-name="Path 4393" d="M31.638,339.381a4.269,4.269,0,1,0,2.982,1.375,4.256,4.256,0,0,0-2.982-1.375Z" transform="translate(247.389 125.022)" fill="#acc435"/>
        <path id="Path_4394" data-name="Path 4394" d="M29.273,342.606a3.681,3.681,0,0,0,6.431,2.6A4.256,4.256,0,1,1,31.6,339.39,3.654,3.654,0,0,0,29.273,342.606Z" transform="translate(247.086 125.026)" fill="#87a936"/>
        <path id="Path_4395" data-name="Path 4395" d="M28.417,340.177c-.684.342-.807,1.478-.274,2.532s1.519,1.642,2.2,1.3.794-1.478.274-2.545S29.1,339.835,28.417,340.177Z" transform="translate(251.404 125.279)" fill="#d0d52c"/>
        <path id="Path_4396" data-name="Path 4396" d="M15.06,377.853c0,4.666,64.656,8.443,144.391,8.443s144.391-3.763,144.391-8.443S239.2,369.41,159.451,369.41,15.06,373.187,15.06,377.853Z" transform="translate(-4.043 136.085)" fill="#12212a" opacity="0.62"/>
        <path id="Path_4397" data-name="Path 4397" d="M80.2,236.324l5.9-15.134,33.2-16.9,68.5,32.95a9.168,9.168,0,0,1,4.94,10.441c-5.008,20.608-19.157,78.572-21.046,83.621a32.964,32.964,0,0,1-21.073-1.081l6.021-67.693C125.176,254,80.2,236.324,80.2,236.324Z" transform="translate(17.67 75.259)" fill="#e8e8e8"/>
        <path id="Path_4398" data-name="Path 4398" d="M217.892,202.45s1.7,17.789-14.217,27.231-28.106,10.468-28.106,10.468L147.544,392.613s-6.568,5.857-16.243-1.245l6.842-184.648Z" transform="translate(-77.208 74.581)" fill="#fff"/>
        <path id="Path_4399" data-name="Path 4399" d="M176.568,97.894l.315,14.286-18.952.643L157.52,94.24A30.611,30.611,0,0,0,176.568,97.894Z" transform="translate(-72.022 34.72)" fill="#ddbfa8"/>
        <path id="Path_4400" data-name="Path 4400" d="M158.065,98.27l-.315-14.313L176.7,83.3l.411,18.624a30.611,30.611,0,0,1-19.048-3.654Z" transform="translate(-72.567 30.69)" fill="#c19e82"/>
        <path id="Path_4401" data-name="Path 4401" d="M169.435,113.006c-11.221,0-13.916-7.772-14.3-10.194a59.251,59.251,0,0,1,25.657-1.163C181.012,104.481,180.451,113.006,169.435,113.006Z" transform="translate(-72.703 37.122)" fill="#ddbfa8"/>
        <path id="Path_4402" data-name="Path 4402" d="M139.581,108.078a33.813,33.813,0,0,1,13.492-7.69c.7-.233,3.407-.93,4.105-1.067.493,2.422,8.306,11.371,13.52,11.481,8.47.151,6.349-6.226,6.062-9.045,9.88-.493,19.65,13.684,26.081,38.15,5.077,19.39,17.146,86.987,8.812,106.268-9.51,5.378-70.512,8.675-80.844,2.887-2.956-6.842.629-105.885,1.587-118.091S134.217,113.141,139.581,108.078Z" transform="translate(-71.53 36.591)" fill="#fff"/>
        <path id="Path_4403" data-name="Path 4403" d="M215.715,196.82s-44.472,10.824-85.674,2.887c-1.765,4.324-.137,9.784-.137,9.784s42.42,6.842,85.482-3.681C217.207,202.075,215.715,196.82,215.715,196.82Z" transform="translate(-72.704 72.507)" fill="#004e90"/>
        <path id="Path_4404" data-name="Path 4404" d="M182.95,104.672c7.526,4.707,16.42,21.073,10.318,39.245-5.008,14.874-25.055,15.052-25.055,15.052l-.629,5.474s21.894,5.172,31.322-17.378-2.969-39.464-9.4-45.731C186.535,98.665,183.429,102.018,182.95,104.672Z" transform="translate(-111.232 36.972)" fill="#004e90"/>
        <path id="Path_4405" data-name="Path 4405" d="M63.078,204.058l156.378-26.464-.766-3.544L62.23,198.708Z" transform="translate(15.797 64.119)" fill="#be9258"/>
        <rect id="Rectangle_1005" data-name="Rectangle 1005" width="5.159" height="5.159" transform="translate(234.283 242.718) rotate(170.05)" fill="#91543f"/>
        <path id="Path_4406" data-name="Path 4406" d="M176.241,206.477l21.456-5.843c1.177-3.736.9-7.184-1.6-10.194l-21.456.917Z" transform="translate(-116.933 70.157)" fill="#4a5061"/>
        <path id="Path_4407" data-name="Path 4407" d="M215.5,87.673c4.228-8.826,9.934-32.567,9.2-41.763s-2.2,1.834-2.2,1.834.356-19.5-10.865-30.528c-4.406-5.473-4.228-3.681-2.573-.369C196.549,4.147,168-4.87,175.024,2.861c-11.768-6.431-37.343,10.851-19.157,7.362-20.416,7.731-24.836,21.7-24.836,21.7s1.108-5.884-1.286-4.6-7.909,31.65,3.12,56.664S200.777,102.2,215.5,87.673Z" transform="translate(-77.088 0.003)" fill="#020202"/>
        <path id="Path_4408" data-name="Path 4408" d="M131.775,68.65c-2.436,6.295-2.381,11.152,1.738,12.986s13.013-.588,15.435-6.842,1.081-12.917-3.038-14.737S134.211,62.329,131.775,68.65Z" transform="translate(-7.826 21.967)" fill="#e6ad83"/>
        <path id="Path_4409" data-name="Path 4409" d="M208.916,89.226c-3.311,21.593-18.706,36.1-40.435,34.209-19.759-1.752-33.429-29.379-33.99-54.584s12.959-45.156,36.823-44.759C207.862,24.625,215.881,43.7,208.916,89.226Z" transform="translate(-74.8 8.877)" fill="#e6ad83"/>
        <path id="Path_4410" data-name="Path 4410" d="M199.127,67.151c2.518,6.267,2.531,11.125-1.574,13s-13.013-.411-15.531-6.691-1.232-12.89,2.874-14.765S196.61,60.87,199.127,67.151Z" transform="translate(-127.765 21.456)" fill="#e6ad83"/>
        <path id="Path_4411" data-name="Path 4411" d="M168.895,63.2c-5.788-1.163-10.66-.205-11.754,4.105s4.776,6.91,9.579,7.471S173.4,64.106,168.895,63.2Z" transform="translate(-65.895 23.118)" fill="url(#linear-gradient-2)"/>
        <path id="Path_4412" data-name="Path 4412" d="M171.892,64.04a17.515,17.515,0,0,0-7.033-1.368,9.332,9.332,0,0,0-6.842,2.614,4.105,4.105,0,0,0-.835,3.914,6.527,6.527,0,0,0,2.244,3.079,17.118,17.118,0,0,0,6.513,3.051,24.768,24.768,0,0,1-5.829-3.8,5.871,5.871,0,0,1-1.738-2.668,2.846,2.846,0,0,1,.643-2.737,9.1,9.1,0,0,1,5.966-2.449A26.067,26.067,0,0,1,171.892,64.04Z" transform="translate(-66.32 23.088)" fill="#946053"/>
        <path id="Path_4413" data-name="Path 4413" d="M144.964,51.64c-.534,3.968-2.737,15.613,8.415,16.544s8.511-12.575,8.511-12.575S150.027,52.133,144.964,51.64Z" transform="translate(-39.392 19.027)" fill="url(#linear-gradient-3)"/>
        <path id="Path_4414" data-name="Path 4414" d="M152.189,63.4a1.519,1.519,0,1,0,.154-1.155A1.519,1.519,0,0,0,152.189,63.4Z" transform="translate(-42.949 22.656)" fill="#5a3921"/>
        <path id="Path_4415" data-name="Path 4415" d="M147.071,51.13c12.808.889,19.828,5.98,11.686,5.911S138.615,50.542,147.071,51.13Z" transform="translate(-39.132 18.825)" fill="#864e26"/>
        <path id="Path_4416" data-name="Path 4416" d="M183.019,51.64c.534,3.968,2.737,15.613-8.415,16.544s-8.511-12.575-8.511-12.575S177.915,52.133,183.019,51.64Z" transform="translate(-90.05 19.027)" fill="url(#linear-gradient-4)"/>
        <path id="Path_4417" data-name="Path 4417" d="M171.9,63.4a1.533,1.533,0,1,1-1.095-1.861A1.533,1.533,0,0,1,171.9,63.4Z" transform="translate(-82.644 22.656)" fill="#5a3921"/>
        <path id="Path_4418" data-name="Path 4418" d="M181.066,51.13c-12.808.889-19.841,5.98-11.7,5.911S189.55,50.542,181.066,51.13Z" transform="translate(-90.546 18.825)" fill="#864e26"/>
        <path id="Path_4419" data-name="Path 4419" d="M138.87,66.33c0,.848,2.23,1.546,4.981,1.546s4.981-.7,4.981-1.546-2.23-1.56-4.981-1.56S138.87,65.468,138.87,66.33Z" transform="translate(-18.451 23.864)" fill="#dfa09b"/>
        <path id="Path_4420" data-name="Path 4420" d="M177.25,66.33c0,.848,2.23,1.546,4.981,1.546s4.981-.7,4.981-1.546-2.23-1.56-4.981-1.56S177.25,65.468,177.25,66.33Z" transform="translate(-109.349 23.864)" fill="#dfa09b"/>
        <path id="Path_4421" data-name="Path 4421" d="M172.535,78.9a6.842,6.842,0,0,1-1.765,5.61,9.989,9.989,0,0,1-4.967,3.161,20.881,20.881,0,0,1-6.076.684c-1.026,0-2.066-.164-3.12-.219s-2.08-.315-3.147-.411c.985.383,2.012.684,3.024,1.04a14.468,14.468,0,0,0,3.175.6,17.023,17.023,0,0,0,6.527-.452,9.757,9.757,0,0,0,5.391-3.8,8.607,8.607,0,0,0,1.368-3.038A4.748,4.748,0,0,0,172.535,78.9Z" transform="translate(-62.639 29.069)" fill="#412b24"/>
        <path id="Path_4422" data-name="Path 4422" d="M148.795,38.258c-4.817,5.473-13.177,30.747-13.451,36.276-3.407.575-2.983-6.65-2.983-6.65S137.04,34,147.946,28.118s26.369-11.4,40.846-5.022,23.96,19.157,25.233,24.945-1.97,23.522-1.97,23.522l-2.121,6.377-2.422-.424s4.543-28.065-6.4-38.971c-3.366,3.9-28.161,11.056-22.127,5.87C168.7,48.753,151.614,42.91,159.1,42.158,149.753,40.557,148.795,38.258,148.795,38.258Z" transform="translate(-75.01 7.464)" fill="#020202"/>
        <path id="Path_4423" data-name="Path 4423" d="M144.56,90.692c0,12.7,13.684,17.433,23.755,17.433s23.755-4.68,23.755-17.433S178.386,62.12,168.315,62.12,144.56,78.034,144.56,90.692Z" transform="translate(-69.475 22.887)" fill="#2f3641"/>
        <path id="Path_4424" data-name="Path 4424" d="M155.328,59.41,134.72,75.488l3.667,7.4,14.382-.684" transform="translate(-19.268 21.889)" fill="none" stroke="#2f3641" stroke-linecap="round" stroke-miterlimit="10" stroke-width="1.08"/>
        <path id="Path_4425" data-name="Path 4425" d="M174.47,58.03,198.43,76l-3.654,7.4L180.6,81.046" transform="translate(-116.764 21.381)" fill="none" stroke="#2f3641" stroke-linecap="round" stroke-miterlimit="10" stroke-width="1.08"/>
        <path id="Path_4426" data-name="Path 4426" d="M167.932,90.673c0,12.548-13.383,17.31-23.372,17.433V62.17C154.549,62.567,167.932,78.18,167.932,90.673Z" transform="translate(-45.337 22.906)" fill="#1e2229" opacity="0.28"/>
        <path id="Path_4427" data-name="Path 4427" d="M140.032,84.868a6.486,6.486,0,0,1,8.8-2.381l12.124,6.842-6.418,11.289L142.4,93.776a6.486,6.486,0,0,1-2.367-8.908Z" transform="translate(-30.943 30.08)" fill="#c4811b"/>
        <ellipse id="Ellipse_115" data-name="Ellipse 115" cx="10.523" cy="13.342" rx="10.523" ry="13.342" transform="translate(127.532 139.05) rotate(-154.67)" fill="#e5a91a"/>
        <ellipse id="Ellipse_116" data-name="Ellipse 116" cx="10.523" cy="13.342" rx="10.523" ry="13.342" transform="translate(129.303 140.269) rotate(-154.67)" fill="#f2cd17"/>
        <path id="Path_4428" data-name="Path 4428" d="M137.338,89.642c-2.518,5.3-1.232,11.152,2.846,13.082s9.414-.794,11.96-6.035,1.232-11.152-2.846-13.082S139.829,84.374,137.338,89.642Z" transform="translate(-19.204 30.573)" fill="#e5a91a"/>
        <path id="Path_4429" data-name="Path 4429" d="M148.056,95.914c2.313-4.9,1.368-10.222-1.984-12.534h0c4.105,1.929,5.35,7.786,2.846,13.082s-7.841,8.019-11.919,6.089a7.058,7.058,0,0,1-.862-.547C140.284,103.892,145.566,101.169,148.056,95.914Z" transform="translate(-16.088 30.719)" fill="#c4811b"/>
        <path id="Path_4430" data-name="Path 4430" d="M195.259,84.885a6.486,6.486,0,0,0-8.853-2.436l-12.137,6.842L180.7,100.58l12.137-6.842a6.5,6.5,0,0,0,2.422-8.853Z" transform="translate(-114.168 30.063)" fill="#c4811b"/>
        <ellipse id="Ellipse_117" data-name="Ellipse 117" cx="13.342" cy="10.523" rx="13.342" ry="10.523" transform="translate(62.641 139.078) rotate(-115.33)" fill="#e5a91a"/>
        <path id="Path_4431" data-name="Path 4431" d="M199.427,89.377c3.161,6.65,1.45,14.067-3.79,16.557s-12.069-.9-15.216-7.567-1.45-14.067,3.8-16.557S196.349,82.713,199.427,89.377Z" transform="translate(-125.328 29.84)" fill="#f2cd17"/>
        <path id="Path_4432" data-name="Path 4432" d="M196.61,89.655c2.5,5.3,1.232,11.152-2.846,13.082s-9.414-.794-11.919-6.089-1.232-11.152,2.846-13.082S194.106,84.387,196.61,89.655Z" transform="translate(-124.563 30.56)" fill="#e5a91a"/>
        <path id="Path_4433" data-name="Path 4433" d="M185.22,95.914c-2.313-4.9-1.368-10.222,1.984-12.534h-.068c-4.105,1.929-5.35,7.786-2.846,13.082s7.841,8.019,11.919,6.089a7.064,7.064,0,0,0,.794-.534C192.992,103.892,187.711,101.169,185.22,95.914Z" transform="translate(-127.007 30.719)" fill="#c4811b"/>
        <rect id="Rectangle_1006" data-name="Rectangle 1006" width="14.861" height="1.273" transform="translate(90.848 109.447)" fill="#1e2229"/>
        <rect id="Rectangle_1007" data-name="Rectangle 1007" width="14.861" height="1.273" transform="translate(90.848 113.305)" fill="#1e2229"/>
        <rect id="Rectangle_1008" data-name="Rectangle 1008" width="14.861" height="1.273" transform="translate(90.848 117.178)" fill="#1e2229"/>
        <rect id="Rectangle_1009" data-name="Rectangle 1009" width="14.861" height="1.273" transform="translate(90.848 121.037)" fill="#1e2229"/>
        <path id="Path_4434" data-name="Path 4434" d="M92.745,321.623c-7.8-2.162-14.778-6.842-22.77-8.06s-16.735.1-22.92,5.3c-9.579,7.964-10.619,22.25-8.949,34.551,3.175,23.372,12.315,38.109,33.908,42.337,22.551,4.434,38.424,1.437,60.523.972,14.149-.3,27.135-3.5,37.493-13.123s17.351-23.823,15.7-37.808-12.822-21.374-23.769-20.526c-6.705.52-12.7,4.83-19.417,5.268C119.429,332.023,105.334,325.113,92.745,321.623Z" transform="translate(83.189 115.357)" fill="#acc435"/>
        <path id="Path_4435" data-name="Path 4435" d="M120.978,371.675c52.491-3.353,61.974-23.837,58.58-44.075a23.755,23.755,0,0,1,5.364,12.863c1.656,14.053-5.323,28.243-15.7,37.877s-23.344,12.822-37.493,13.123c-22.1.465-37.972,3.462-60.523-.971-21.223-4.174-30.46-18.569-33.758-41.393C48.071,369.527,72.072,374.809,120.978,371.675Z" transform="translate(83.993 120.683)" fill="#87a936"/>
        <path id="Path_4436" data-name="Path 4436" d="M126.4,341.026c-25.438,2.627-51.506-3.927-63.876-11.4-10.153-6.144-3.3-11.33,3.284-13.588a93.57,93.57,0,0,0,11.617,4.516c12.589,3.489,26.683,10.4,49.754,8.894a37.765,37.765,0,0,0,10.646-2.956C148.316,331.434,143.746,339.248,126.4,341.026Z" transform="translate(98.513 116.425)" fill="#87a936"/>
        <path id="Path_4437" data-name="Path 4437" d="M68.433,283.68s20.293,1,32.43,1.738C95.308,301.51,92.94,318,93.091,319.832s15.709,12.507,33.895,16.639c5.474,1.218,7.786,1.82,4.584,4.42s-8.7,4.434-20.307,3.667-34.209-4.105-39.861-6.267-5.473-3.968-4.735-9.3a311.088,311.088,0,0,0,1.765-45.307Z" transform="translate(96.664 104.504)" fill="#004e90"/>
        <path id="Path_4438" data-name="Path 4438" d="M206.443,366.888s3.311,13.424,5.473,17.283,1.738,10.947-17.009,10.947-17.789-7.458-16.01-11.686,5.474-12.507,7.184-16.639c1.82-6.021.246-31.473.246-31.473l26.314.575S206.922,355.914,206.443,366.888Z" transform="translate(-135.984 123.527)" fill="#004e90"/>
        <path id="Path_4439" data-name="Path 4439" d="M178.16,335.36l26.314.575s-.725,2.532-1.669,6.295H178.5C178.338,338.22,178.16,335.36,178.16,335.36Z" transform="translate(-127.857 123.542)" fill="#2074b9"/>
        <path id="Path_4440" data-name="Path 4440" d="M89.8,283.68s20.293,1,32.43,1.738c-.835,2.422-1.6,4.844-2.285,7.239-7.389-.219-20.526-.753-29.926-1.957C89.992,288.291,89.923,285.924,89.8,283.68Z" transform="translate(75.296 104.504)" fill="#2074b9"/>
        <path id="Path_4441" data-name="Path 4441" d="M30.41,340.57a12.028,12.028,0,0,0,3.024,4.721c1.533,1.095,1.656-2.805,13.684-10.536L61.485,325.6l-1.368-2.23-14.532,9.223C33.8,340.146,30,338.9,30.41,340.57Z" transform="translate(217.35 119.125)" fill="#c4d031"/>
        <path id="Path_4442" data-name="Path 4442" d="M50.193,341.446a12.028,12.028,0,0,1-3.024-4.721c-.274-1.108,1.368-.93,5.9-2.915l2.244,3.53C51.616,340.693,51.219,342.171,50.193,341.446Z" transform="translate(200.591 122.971)" fill="#87a936"/>
        <path id="Path_4443" data-name="Path 4443" d="M34.2,323.37l1.368,2.23-3.777,2.422-1.368-2.244Z" transform="translate(243.216 119.125)" fill="#87a936"/>
        <path id="Path_4444" data-name="Path 4444" d="M22.857,315.134a9.88,9.88,0,1,0,7.465-1.346A9.866,9.866,0,0,0,22.857,315.134Z" transform="translate(257.224 115.511)" fill="#acc435"/>
        <path id="Path_4445" data-name="Path 4445" d="M22.206,324.248a8.5,8.5,0,0,0,15.627-3.695,9.866,9.866,0,1,1-15.641-5.473,8.525,8.525,0,0,0,.014,9.168Z" transform="translate(257.149 116.071)" fill="#87a936"/>
        <path id="Path_4446" data-name="Path 4446" d="M21.022,315.748c-.835,1.56.452,3.859,2.874,5.159s5.063,1.067,5.884-.493-.452-3.873-2.874-5.159S21.857,314.188,21.022,315.748Z" transform="translate(261.959 115.827)" fill="#d0d52c"/>
        <path id="Path_4447" data-name="Path 4447" d="M161.337,335.689a11.9,11.9,0,0,0,.725-5.556c-.465-1.834-3.065,1.081-17.3-.78l-16.845-2.2-.342,2.627,17,2.23C158.477,333.787,160.585,337.235,161.337,335.689Z" transform="translate(-16.301 120.517)" fill="#c4d031"/>
        <path id="Path_4448" data-name="Path 4448" d="M134.681,329.5a11.9,11.9,0,0,1-.725,5.556c-.493,1.026-1.6-.137-6.377-1.56l.547-4.105C133.121,329.158,134.38,328.282,134.681,329.5Z" transform="translate(11.08 121.15)" fill="#87a936"/>
        <path id="Path_4449" data-name="Path 4449" d="M149.33,329.777l.342-2.627,4.447.575-.342,2.641Z" transform="translate(-38.052 120.517)" fill="#87a936"/>
        <ellipse id="Ellipse_118" data-name="Ellipse 118" cx="9.866" cy="9.866" rx="9.866" ry="9.866" transform="translate(93.024 437.993)" fill="#acc435"/>
        <path id="Path_4450" data-name="Path 4450" d="M166.063,332.808a8.5,8.5,0,0,0-14.327-7.239,9.866,9.866,0,1,1,8.443,14.231,8.47,8.47,0,0,0,5.884-6.992Z" transform="translate(-57.672 117.911)" fill="#87a936"/>
        <path id="Path_4451" data-name="Path 4451" d="M165.231,335.084c1.642-.657,2.135-3.257,1.108-5.8s-3.175-4.105-4.817-3.407-2.135,3.257-1.108,5.8S163.589,335.686,165.231,335.084Z" transform="translate(-65.242 119.986)" fill="#d0d52c"/>
        <path id="Path_4452" data-name="Path 4452" d="M62.766,350.186a11.946,11.946,0,0,0-4.8,2.833c-1.163,1.492,2.737,1.765,9.989,14.149l8.566,14.669,2.3-1.368s-3.27-5.583-8.648-14.806C63.053,353.593,64.449,349.83,62.766,350.186Z" transform="translate(162.552 128.995)" fill="#c4d031"/>
        <path id="Path_4453" data-name="Path 4453" d="M67.728,353.018a11.946,11.946,0,0,1,4.844-2.833c1.122-.233.876,1.368,2.668,5.993L71.628,358.3C68.385,354.469,66.921,354.045,67.728,353.018Z" transform="translate(152.787 128.995)" fill="#87a936"/>
        <path id="Path_4454" data-name="Path 4454" d="M62.347,373.372l-2.3,1.368-2.258-3.872,2.285-1.368Z" transform="translate(178.982 136.118)" fill="#87a936"/>
        <path id="Path_4455" data-name="Path 4455" d="M66.628,375.948a9.866,9.866,0,1,0-3.544,13.492A9.866,9.866,0,0,0,66.628,375.948Z" transform="translate(186.428 136.69)" fill="#acc435"/>
        <path id="Path_4456" data-name="Path 4456" d="M58.286,374.826a8.511,8.511,0,0,0,3.093,15.764,9.866,9.866,0,1,1,6.076-15.408A8.484,8.484,0,0,0,58.286,374.826Z" transform="translate(185.136 136.69)" fill="#87a936"/>
        <path id="Path_4457" data-name="Path 4457" d="M55.342,376.8c-1.533-.9-3.886.3-5.268,2.668s-1.273,5.008.246,5.9,3.886-.3,5.268-2.737S56.888,377.69,55.342,376.8Z" transform="translate(196.646 138.697)" fill="#d0d52c"/>
        <path id="Path_4458" data-name="Path 4458" d="M56.689,340.54a14.874,14.874,0,0,0,6.842,1.218c2.272-.465-1.163-3.845,1.97-21.237l3.708-20.526-3.216-.575s-1.368,7.841-3.749,20.772C59.152,337.16,54.828,339.513,56.689,340.54Z" transform="translate(174.239 110.302)" fill="#c4d031"/>
        <path id="Path_4459" data-name="Path 4459" d="M67.1,332.776a14.874,14.874,0,0,1-6.842-1.218c-1.232-.684.26-1.97,2.3-7.759l5.077.917C67.606,330.915,68.605,332.462,67.1,332.776Z" transform="translate(170.63 119.283)" fill="#87a936"/>
        <path id="Path_4460" data-name="Path 4460" d="M57.255,299.37l3.216.575-.972,5.473-3.229-.575C56.9,301.3,57.255,299.37,57.255,299.37Z" transform="translate(182.937 110.284)" fill="#87a936"/>
        <path id="Path_4461" data-name="Path 4461" d="M47.386,293.05a12.137,12.137,0,1,0,5.023-7.823A12.151,12.151,0,0,0,47.386,293.05Z" transform="translate(184.336 104.275)" fill="#acc435"/>
        <path id="Path_4462" data-name="Path 4462" d="M55.509,301.39a10.468,10.468,0,0,0,9.743-17.2,12.137,12.137,0,1,1-18.008,9.579,10.5,10.5,0,0,0,8.265,7.622Z" transform="translate(184.342 104.692)" fill="#87a936"/>
        <path id="Path_4463" data-name="Path 4463" d="M54.049,290.681c.725,2.052,3.886,2.819,7.074,1.71s5.186-3.667,4.475-5.733-3.872-2.819-7.061-1.71S53.269,288.642,54.049,290.681Z" transform="translate(180.93 104.783)" fill="#d0d52c"/>
        <path id="Path_4464" data-name="Path 4464" d="M133.533,332.9a14.834,14.834,0,0,0,6.76-1.368c1.943-1.273-2.49-3.134-6.048-20.444-2.737-12.945-4.215-20.526-4.215-20.526l-3.257.6,4.242,20.676C134.546,328.82,131.44,332.637,133.533,332.9Z" transform="translate(6.166 107.039)" fill="#c4d031"/>
        <path id="Path_4465" data-name="Path 4465" d="M134.323,322.558a14.833,14.833,0,0,1-6.76,1.368c-1.368-.178-.493-1.929-.739-8.046l5.049-1.04C134.09,320.6,135.622,321.709,134.323,322.558Z" transform="translate(12.137 115.983)" fill="#87a936"/>
        <path id="Path_4466" data-name="Path 4466" d="M133.85,291.177l3.2-.657s.4,1.888,1.108,5.405l-3.2.657C134.3,293.147,133.85,291.177,133.85,291.177Z" transform="translate(-0.91 107.024)" fill="#87a936"/>
        <path id="Path_4467" data-name="Path 4467" d="M128.721,288.932a12.151,12.151,0,1,0,9.455-14.354A12.151,12.151,0,0,0,128.721,288.932Z" transform="translate(-8.165 101.059)" fill="#acc435"/>
        <path id="Path_4468" data-name="Path 4468" d="M138.994,293.985a10.482,10.482,0,0,0,2.655-19.6,12.151,12.151,0,1,1-13.177,15.572,10.482,10.482,0,0,0,10.523,4.023Z" transform="translate(-7.641 101.082)" fill="#87a936"/>
        <path id="Path_4469" data-name="Path 4469" d="M137.771,285.263c1.368,1.642,4.652,1.177,7.2-1.026s3.462-5.35,2.039-6.992-4.652-1.177-7.2,1.04S136.347,283.621,137.771,285.263Z" transform="translate(-14.875 101.772)" fill="#d0d52c"/>
        <path id="Path_4470" data-name="Path 4470" d="M38.438,348.5a8.21,8.21,0,0,0-2.08,3.147c-.26,1.245,2.176.246,10.208,5.569l9.579,6.295.985-1.478-9.579-6.363C39.656,350.466,39.383,347.853,38.438,348.5Z" transform="translate(213.55 128.345)" fill="#c4d031"/>
        <path id="Path_4471" data-name="Path 4471" d="M47.519,351.647A8.21,8.21,0,0,1,49.6,348.5c.6-.465.931.561,3.38,2.833l-1.546,2.34C48.368,352.317,47.341,352.468,47.519,351.647Z" transform="translate(202.43 128.342)" fill="#87a936"/>
        <path id="Path_4472" data-name="Path 4472" d="M39.863,358.809l-.985,1.478-2.518-1.656.985-1.492Z" transform="translate(230.79 131.565)" fill="#87a936"/>
        <path id="Path_4473" data-name="Path 4473" d="M38.626,357.5a6.623,6.623,0,1,0,1.875,9.182,6.623,6.623,0,0,0-1.875-9.182Z" transform="translate(240.018 131.292)" fill="#acc435"/>
        <path id="Path_4474" data-name="Path 4474" d="M34.387,359.673a5.713,5.713,0,0,0,6.513,8.593,6.623,6.623,0,1,1-.9-11.084,5.747,5.747,0,0,0-5.61,2.491Z" transform="translate(238.126 131.29)" fill="#87a936"/>
        <path id="Path_4475" data-name="Path 4475" d="M31.386,358.851c-1.177-.082-2.244,1.368-2.381,3.175s.725,3.394,1.9,3.476,2.258-1.368,2.381-3.175S32.577,358.933,31.386,358.851Z" transform="translate(247.435 132.194)" fill="#d0d52c"/>
        <path id="Path_4476" data-name="Path 4476" d="M104.843,341.043a7.376,7.376,0,0,0,3.366.164c1.081-.369-.794-1.793-.356-10.427l.52-10.208-1.587-.082s-.205,3.886-.534,10.3C105.829,339.223,103.858,340.66,104.843,341.043Z" transform="translate(68.764 118.064)" fill="#c4d031"/>
        <path id="Path_4477" data-name="Path 4477" d="M108.2,336.728a7.375,7.375,0,0,1-3.366-.164c-.643-.26,0-.971.629-3.913l2.518.137C108.338,335.77,108.926,336.481,108.2,336.728Z" transform="translate(68.773 122.543)" fill="#87a936"/>
        <path id="Path_4478" data-name="Path 4478" d="M104.837,320.49l1.587.082s0,.944-.137,2.737l-1.587-.082Z" transform="translate(70.714 118.064)" fill="#87a936"/>
        <path id="Path_4479" data-name="Path 4479" d="M100.754,318.016a5.939,5.939,0,1,0,6.24-5.624,5.939,5.939,0,0,0-6.24,5.624Z" transform="translate(69.926 115.078)" fill="#acc435"/>
        <path id="Path_4480" data-name="Path 4480" d="M105.337,321.653a5.131,5.131,0,0,0,5.378-4.858A5.077,5.077,0,0,0,109,312.69a5.939,5.939,0,1,1-8.21,5.747,5.118,5.118,0,0,0,4.543,3.216Z" transform="translate(69.817 115.191)" fill="#87a936"/>
        <path id="Path_4481" data-name="Path 4481" d="M104.477,316.643c.479.958,2.053,1.136,3.53.4s2.3-2.107,1.82-3.051-2.053-1.136-3.53-.4S104,315.685,104.477,316.643Z" transform="translate(67.667 115.356)" fill="#d0d52c"/>
        <path id="Path_4482" data-name="Path 4482" d="M74.474,349.831a7.02,7.02,0,0,0,2.737,1.929c1.108.26.274-1.943,5.2-9.031,3.695-5.309,3.175-4.475,3.175-4.475l-1.368-.917s.493-.67-3.188,4.611C76.266,348.818,73.79,349.01,74.474,349.831Z" transform="translate(133.042 124.26)" fill="#c4d031"/>
        <path id="Path_4483" data-name="Path 4483" d="M81.882,349.189a7.019,7.019,0,0,1-2.737-1.929c-.411-.547.52-.821,2.6-2.969l2.08,1.368C82.525,348.45,82.621,349.367,81.882,349.189Z" transform="translate(128.412 126.831)" fill="#87a936"/>
        <path id="Path_4484" data-name="Path 4484" d="M75.886,337.29l1.368.917s-.534.78-1.546,2.217l-1.368-.917Z" transform="translate(141.427 124.253)" fill="#87a936"/>
        <path id="Path_4485" data-name="Path 4485" d="M69.447,332.679a5.939,5.939,0,1,0,8.21-1.478,5.939,5.939,0,0,0-8.21,1.478Z" transform="translate(146.621 121.625)" fill="#acc435"/>
        <path id="Path_4486" data-name="Path 4486" d="M71.227,337.605a5.131,5.131,0,0,0,7.841-5.665,5.939,5.939,0,1,1-9.948.588,5.118,5.118,0,0,0,2.107,5.077Z" transform="translate(146.661 122.282)" fill="#87a936"/>
        <path id="Path_4487" data-name="Path 4487" d="M70.61,332.368c-.1,1.054,1.149,2.039,2.737,2.2s3.051-.575,3.161-1.642-1.149-2.039-2.737-2.2S70.706,331.3,70.61,332.368Z" transform="translate(147.278 121.826)" fill="#d0d52c"/>
        <path id="Path_4488" data-name="Path 4488" d="M83.253,364a7.006,7.006,0,0,0-3.161,1.177c-.848.753,1.368,1.368,4.447,9.428,2.244,6.035,1.929,5.131,1.929,5.131l1.492-.561L86,373.934C83.062,366.011,84.293,364,83.253,364Z" transform="translate(123.099 134.092)" fill="#c4d031"/>
        <path id="Path_4489" data-name="Path 4489" d="M82.827,365.157a7.008,7.008,0,0,1,3.161-1.177c.684,0,.383.889.958,3.831l-2.367.876C83.087,366.087,82.266,365.663,82.827,365.157Z" transform="translate(120.365 134.085)" fill="#87a936"/>
        <path id="Path_4490" data-name="Path 4490" d="M82.346,375.771l-1.492.561L79.91,373.8l1.505-.561Z" transform="translate(128.714 137.496)" fill="#87a936"/>
        <path id="Path_4491" data-name="Path 4491" d="M86.3,378.383a5.939,5.939,0,1,0-3.5,7.635A5.939,5.939,0,0,0,86.3,378.383Z" transform="translate(131.396 137.963)" fill="#acc435"/>
        <path id="Path_4492" data-name="Path 4492" d="M81.14,376.726a5.118,5.118,0,0,0,.178,9.661,5.939,5.939,0,1,1,5.2-8.5,5.118,5.118,0,0,0-5.378-1.163Z" transform="translate(130.96 137.964)" fill="#87a936"/>
        <path id="Path_4493" data-name="Path 4493" d="M79.732,378.585c-.807-.684-2.34-.219-3.407,1.04s-1.273,2.832-.452,3.53,2.326.219,3.394-1.04S80.54,379.269,79.732,378.585Z" transform="translate(137.047 139.348)" fill="#d0d52c"/>
        <path id="Path_4494" data-name="Path 4494" d="M121.066,364.611a7.293,7.293,0,0,0-2.545-2.23c-1.067-.383-.479,1.9-6.2,8.388-4.269,4.844-3.626,4.105-3.626,4.105l1.2,1.054s-.561.616,3.681-4.2C119.164,365.391,121.573,365.473,121.066,364.611Z" transform="translate(50.584 133.48)" fill="#c4d031"/>
        <path id="Path_4495" data-name="Path 4495" d="M110.932,362.361a7.293,7.293,0,0,1,2.545,2.23c.342.6-.616.753-2.928,2.655l-1.888-1.656C110.248,363.032,110.221,362.1,110.932,362.361Z" transform="translate(58.173 133.473)" fill="#87a936"/>
        <path id="Path_4496" data-name="Path 4496" d="M116.774,373.1l-1.2-1.054,1.779-2.025,1.2,1.054Z" transform="translate(43.711 136.309)" fill="#87a936"/>
        <path id="Path_4497" data-name="Path 4497" d="M125.867,380.268a5.939,5.939,0,1,0-8.374.52A5.939,5.939,0,0,0,125.867,380.268Z" transform="translate(35.029 136.447)" fill="#acc435"/>
        <path id="Path_4498" data-name="Path 4498" d="M124.694,374.547a5.118,5.118,0,0,0-8.429,4.735,5.939,5.939,0,1,1,9.948.561A5.1,5.1,0,0,0,124.694,374.547Z" transform="translate(35.025 136.448)" fill="#87a936"/>
        <path id="Path_4499" data-name="Path 4499" d="M123.767,378.271c.219-1.04-.917-2.162-2.531-2.5s-3.093.219-3.325,1.259.917,2.162,2.531,2.5S123.534,379.311,123.767,378.271Z" transform="translate(35.309 138.39)" fill="#d0d52c"/>
        <path id="Path_4500" data-name="Path 4500" d="M82.92,348a12.48,12.48,0,0,0,5.665,1.368c1.943-.3-.807-3.284,2.545-17.789L95.1,314.4l-2.737-.616s-1.519,6.541-4.009,17.337C85.123,345.239,81.4,347.072,82.92,348Z" transform="translate(112.322 115.592)" fill="#c4d031"/>
        <path id="Path_4501" data-name="Path 4501" d="M92.745,341.85a12.48,12.48,0,0,1-5.665-1.368c-1.013-.616.3-1.642,2.258-6.431l4.228.985C93.2,340.262,94.032,341.644,92.745,341.85Z" transform="translate(108.161 123.059)" fill="#87a936"/>
        <path id="Path_4502" data-name="Path 4502" d="M83.57,313.74l2.737.616s-.356,1.587-1.04,4.543l-2.737-.629Z" transform="translate(121.168 115.577)" fill="#87a936"/>
        <path id="Path_4503" data-name="Path 4503" d="M74.854,308.035a10.249,10.249,0,1,0,4.569-6.385,10.235,10.235,0,0,0-4.569,6.385Z" transform="translate(123.275 110.554)" fill="#acc435"/>
        <path id="Path_4504" data-name="Path 4504" d="M81.32,315.321a8.826,8.826,0,0,0,8.908-14.081,10.235,10.235,0,1,1-15.545,7.307,8.84,8.84,0,0,0,6.637,6.774Z" transform="translate(123.282 110.973)" fill="#87a936"/>
        <path id="Path_4505" data-name="Path 4505" d="M80.1,306.2c.52,1.752,3.147,2.531,5.87,1.724s4.529-2.874,4.009-4.625-3.147-2.545-5.87-1.738S79.584,304.439,80.1,306.2Z" transform="translate(120.844 110.976)" fill="#d0d52c"/>
        <path id="Path_4506" data-name="Path 4506" d="M154.568,354.272a12.671,12.671,0,0,0-2.737-5.159c-1.492-1.273-1.97,2.737-15.148,9.688l-15.613,8.21,1.286,2.436,15.75-8.21C151.024,354.395,154.842,356.037,154.568,354.272Z" transform="translate(0.156 128.522)" fill="#c4d031"/>
        <path id="Path_4507" data-name="Path 4507" d="M126.688,349.113a12.671,12.671,0,0,1,2.737,5.159c.178,1.163-1.45.848-6.349,2.477l-2.025-3.845C125.156,349.77,125.689,348.264,126.688,349.113Z" transform="translate(25.326 128.522)" fill="#87a936"/>
        <path id="Path_4508" data-name="Path 4508" d="M142.886,365.138,141.6,362.7l4.105-2.162,1.286,2.436Z" transform="translate(-20.346 132.817)" fill="#87a936"/>
        <ellipse id="Ellipse_119" data-name="Ellipse 119" cx="10.235" cy="10.235" rx="10.235" ry="10.235" transform="matrix(-0.911, -0.412, 0.412, -0.911, 119.045, 514.416)" fill="#acc435"/>
        <path id="Path_4509" data-name="Path 4509" d="M159.877,367.943a8.826,8.826,0,0,0-16.42,2.422,10.235,10.235,0,1,1,15.682,7.033A8.84,8.84,0,0,0,159.877,367.943Z" transform="translate(-39.54 132.092)" fill="#87a936"/>
        <path id="Path_4510" data-name="Path 4510" d="M158.264,373.6c1-1.546-.123-4.105-2.518-5.583s-5.131-1.56-6.13,0,.137,4.037,2.518,5.583S157.266,375.132,158.264,373.6Z" transform="translate(-42.457 135.152)" fill="#d0d52c"/>
        <ellipse id="Ellipse_120" data-name="Ellipse 120" cx="5.939" cy="5.939" rx="5.939" ry="5.939" transform="translate(174.227 485.975) rotate(-173.81)" fill="#acc435"/>
        <path id="Path_4511" data-name="Path 4511" d="M115.793,352.817a5.118,5.118,0,0,0-9.469-1.97,5.939,5.939,0,1,1,7.143,6.951,5.1,5.1,0,0,0,2.326-4.981Z" transform="translate(56.83 127.486)" fill="#87a936"/>
        <path id="Path_4512" data-name="Path 4512" d="M114.846,355.117c.848-.643.725-2.23-.26-3.544s-2.49-1.875-3.339-1.232-.739,2.217.26,3.544S114,355.747,114.846,355.117Z" transform="translate(53.549 128.962)" fill="#d0d52c"/>
        <path id="Path_4513" data-name="Path 4513" d="M98.274,364.434a5.925,5.925,0,1,0-2.927,3.479A5.939,5.939,0,0,0,98.274,364.434Z" transform="translate(103.249 131.4)" fill="#acc435"/>
        <path id="Path_4514" data-name="Path 4514" d="M94.884,359.671a5.131,5.131,0,0,0-5.816,7.731,5.939,5.939,0,1,1,9.332-3.448,5.118,5.118,0,0,0-3.517-4.283Z" transform="translate(103.258 131.401)" fill="#87a936"/>
        <path id="Path_4515" data-name="Path 4515" d="M93.975,363.219c-.205-1.04-1.7-1.615-3.311-1.273s-2.737,1.45-2.531,2.49,1.7,1.615,3.311,1.273S94.139,364.259,93.975,363.219Z" transform="translate(105.851 133.299)" fill="#d0d52c"/>
        <path id="Path_4516" data-name="Path 4516" d="M69.314,346.7a5.925,5.925,0,1,0-.459,4.562,5.939,5.939,0,0,0,.459-4.562Z" transform="translate(171.892 126.168)" fill="#acc435"/>
        <path id="Path_4517" data-name="Path 4517" d="M64.172,344.659a5.118,5.118,0,0,0-.52,9.647,5.939,5.939,0,1,1,5.816-8.1A5.118,5.118,0,0,0,64.172,344.659Z" transform="translate(171.574 126.148)" fill="#87a936"/>
        <path id="Path_4518" data-name="Path 4518" d="M62.915,346.774c-.753-.739-2.313-.383-3.462.794s-1.478,2.737-.712,3.476,2.313.4,3.462-.78S63.682,347.526,62.915,346.774Z" transform="translate(177.264 127.604)" fill="#d0d52c"/>
        <path id="Path_4519" data-name="Path 4519" d="M164.5,183.361c7.458,2.6,9.715,2.271,15.5,1.19s7.772,5.952,7.772,5.952-5.624.465-5.159,3.53c.137.93,1.368,1.478,4.434,1.245,2.121-.137,5.473-.6,5.473-.6s.356,10.536-10.536,12.1-15.846,2.012-17.871-2.6-7.581-6.691-11.316-8.292-14.655-6.6-14.655-6.6l9.825-13.506A136.909,136.909,0,0,0,164.5,183.361Z" transform="translate(-61.162 64.757)" fill="#004e90"/>
        <path id="Path_4520" data-name="Path 4520" d="M197.234,191.229,174.7,177.846s36.508-62.808,41.571-70.033,22.127,17.967,13.465,33.087C223.4,151.957,197.234,191.229,197.234,191.229Z" transform="translate(-150.789 39.25)" fill="#e8e8e8"/>
        <path id="Path_4521" data-name="Path 4521" d="M167.022,160.317c-4.228,8.388,2,17.214,15.34,24.781a284.374,284.374,0,0,0,43.993,19.6s9.2-12.74,10.55-20.95c-11.768-5.569-26.355-12.315-39.546-19.814C179.337,153.64,171.25,151.929,167.022,160.317Z" transform="translate(-143.251 57.094)" fill="#e8e8e8"/>
        <path id="Path_4522" data-name="Path 4522" d="M89.336,185.48c8.853-.985,10.167-9.579,4.844-12.89s-16.42-1.2-17.474,3.886a25.739,25.739,0,0,1-4.625,9.579S74.694,187.833,89.336,185.48Z" transform="translate(124.447 62.994)" fill="#004e90"/>
        <path id="Path_4523" data-name="Path 4523" d="M190.123,198.869c.452,4.174,1.628,7.471,2.614,7.362s1.368-3.585.972-7.759-1.628-7.471-2.614-7.362S189.7,194.682,190.123,198.869Z" transform="translate(-133.389 70.403)" fill="#393d3f"/>
        <path id="Path_4524" data-name="Path 4524" d="M231.359,179.42c-18.76,1.806-20.922,36.618-19.157,54.612s3.38,25.849,6.253,43.227c5.474,32.745,2.819,49.029-10.482,48.4s-16.174-16.694-15.052-33.594a144.568,144.568,0,0,1,7.458-37.63c7.8-22.346,24.384-47.469,49.043-51.259" transform="translate(-192.7 66.098)" fill="none" stroke="#be9258" stroke-linecap="round" stroke-miterlimit="10" stroke-width="3.25"/>
      </g>
    </g>
  </g>
</svg>
