<svg xmlns="http://www.w3.org/2000/svg" width="455" height="350.716" viewBox="0 0 455 350.716">
  <g id="elderly_people" data-name="elderly people" transform="translate(0 0.006)">
    <g id="Layer_2" data-name="Layer 2" transform="translate(0 -0.006)">
      <g id="Layer_2-2" data-name="Layer 2">
        <path id="Path_4647" data-name="Path 4647" d="M327.79,558.748c.509,5.889,13.247,67.347,13.247,67.347H347s5.878-24.1,7.412-42.269-4.885-29.169-4.885-29.169c3.488-19.956,14.027-65.105,14.558-67.383a.136.136,0,0,1,.029-.094l6.907,6.5s1.534,5.441,3.585,14.15,12.536,45.543,12.536,45.543A66.909,66.909,0,0,0,374.868,574.1c-4.6,12.536-2.307,50.41-2.307,50.41l.773.747,2.3,2.192L404.8,557.726s1.018-7.676,0-43.756a201.988,201.988,0,0,0-3.036-29.606c-.823-4.694-1.755-8.947-2.672-12.7-.083-.307-.152-.607-.227-.9a155.753,155.753,0,0,0-4.622-15.276c-.6-1.625-.957-2.484-.957-2.484a25.6,25.6,0,0,1-4.026,4.636c-.282.267-.581.534-.9.805a5.338,5.338,0,0,1-.44.361,31.119,31.119,0,0,1-23.552,7.041,49.141,49.141,0,0,1-22.024-7.741l-.52-.343c-.477-.325-.939-.639-1.372-.942a39.933,39.933,0,0,1-6.791-5.979,30.98,30.98,0,0,0-.1,5.416c.209,4.43.9,9.911,1.473,13.951.029.2.058.386.083.574.051.361.1.722.152,1.04.361,2.415.625,4,.625,4a2.9,2.9,0,0,0-.3.029,35.4,35.4,0,0,0-3.762.614l-.047.87-1.336,27.191-.047.9Z" transform="translate(-209.44 -288.06)" fill="#999"/>
        <path id="Path_4648" data-name="Path 4648" d="M338.89,477.337l.047-.87a35.426,35.426,0,0,1,3.766-.589,2.891,2.891,0,0,1,.3-.029s-.267-1.581-.625-4c-.047-.325-.1-.679-.152-1.04-.025-.188-.054-.361-.083-.574-.57-4.037-1.264-9.517-1.473-13.951h0v-.022a4.743,4.743,0,0,0-.018-.505c0-.264-.025-.527-.033-.78v-2.4c0-.253.025-.491.04-.722a1.481,1.481,0,0,1,.018-.282c.022-.246.047-.491.083-.722a39.934,39.934,0,0,0,6.791,5.979c.433.3.9.617,1.372.942l.52.343a49.139,49.139,0,0,0,22.024,7.741,31.1,31.1,0,0,0,23.552-7.041c.155-.123.3-.253.44-.361.318-.271.617-.538.9-.805a25.6,25.6,0,0,0,4.026-4.636v.04a1.138,1.138,0,0,0,.047.112h0c.058.137.155.386.292.722,0,.043.032.083.047.126s.072.177.108.274c.126.339.278.722.44,1.181h0a154.723,154.723,0,0,1,4.647,15.294c.076.292.144.592.227.9.917,3.755,1.849,8.012,2.672,12.7-1.91-4.542-6.34-15.7-10.777-23.761a27.737,27.737,0,0,1-23.313,10.785c-9.5-.227-20.255-5.871-27.938-10.832a241.8,241.8,0,0,0-3.769,24.754S340.984,481.435,338.89,477.337Z" transform="translate(-216.532 -288.067)" fill="#999"/>
        <path id="Path_4649" data-name="Path 4649" d="M437.409,557.989l-8.979-6.5,6.907,6.5s1.534,5.441,3.585,14.15,12.536,45.543,12.536,45.543a66.909,66.909,0,0,0-12.276,20.732c-4.6,12.536-2.307,50.41-2.307,50.41l.773.747c.379-8.481,1.329-22.187,3.657-32.477,3.629-16,16.3-40.438,16.3-40.438s-7.293-26.8-12.276-41.485S437.409,557.989,437.409,557.989Z" transform="translate(-273.744 -352.37)" fill="#999"/>
        <path id="Path_4650" data-name="Path 4650" d="M370.84,690.572h1.924s5.878-24.1,7.412-42.268-4.885-29.17-4.885-29.17c3.488-19.955,14.027-65.105,14.558-67.383-.7,2.639-15.626,58.989-21.739,69.9a133.013,133.013,0,0,1,4.806,33.047C373.23,667.435,371.822,682.126,370.84,690.572Z" transform="translate(-235.203 -352.536)" fill="#999"/>
        <path id="Path_4651" data-name="Path 4651" d="M278.287,271.707c.022.2.069.4.09.589h0a173.6,173.6,0,0,0,8.07,29.967c.17.466.361.924.516,1.386h0c.271.722.549,1.4.82,2.087.079.188.152.361.22.538.755,1.838,1.524,3.571,2.3,5.221a48.17,48.17,0,0,1,4.82-1.726c.188-.065.361-.123.578-.177,1.116-.329,2.354-.653,3.647-.931.2-.036.4-.083.61-.119a33.729,33.729,0,0,1,3.455-.5s-.527-3.127-1.083-7.268c-.022-.191-.047-.39-.072-.585a111.159,111.159,0,0,1-1.217-15.226h0a17.389,17.389,0,0,1,.152-1.9.022.022,0,0,0,0,.018,32.967,32.967,0,0,0,3.434,3.325c.95.816,2.087,1.729,3.412,2.675a50.038,50.038,0,0,0,7.55,4.52c.195.083.386.173.585.267a48.994,48.994,0,0,0,10.29,3.43l.567.119a47.917,47.917,0,0,0,4.86.722,34.3,34.3,0,0,0,5.235.119c.188,0,.383-.022.574-.036a30.585,30.585,0,0,0,12.362-3.5c.2-.1.394-.213.589-.321a31.65,31.65,0,0,0,8.358-6.788,21.059,21.059,0,0,0,1.805-2.329s.491-4.983,1.018-11.193c.025-.184.04-.361.054-.574.224-2.607.448-5.4.639-8.124.321-4.5.578-8.777.589-11.64v-.332s.343.968.852,2.506l.058.162c.173.509.361,1.083.578,1.708,1.545,4.578,3.86,11.572,4.777,15.088.058.195.1.386.152.567s.079.361.112.505c0,0-.195,2.686-.195,11.514a92.746,92.746,0,0,0,.773,11.424c.029.235.058.455.09.672.278,2.072.556,3.715.722,4.665a2.044,2.044,0,0,0,.058.361h0c.061.3.094.469.1.505v.022a3.612,3.612,0,0,1,.462-.04,17,17,0,0,1,3.423.166,20.574,20.574,0,0,1,2.5.523c.191.054.386.108.578.17a20.89,20.89,0,0,1,7.08,3.787s.657-2.957,1.444-7.6c.029-.188.069-.361.1-.57a182.062,182.062,0,0,0,2.686-27.848v-.578c0-2.39-.087-4.751-.267-7.022a97.2,97.2,0,0,0-2.314-14.041c-.036-.191-.087-.383-.137-.578-.491-2.072-1.054-4.123-1.643-6.163-.054-.191-.112-.383-.162-.567-.791-2.643-1.636-5.232-2.527-7.748-.148-.43-.3-.859-.451-1.278-1.617-4.5-3.314-8.745-4.939-12.561h0c-.141-.329-.289-.653-.422-.975-.289-.679-.585-1.347-.87-2-.072-.184-.163-.361-.235-.552-.675-1.527-1.314-2.968-1.924-4.307a43.1,43.1,0,0,0-5.777-9.5c-.1-.126-.206-.26-.314-.39-.04-.054-.087-.1-.13-.155l-.361-.415a32.924,32.924,0,0,0-9.748-7.73,30.146,30.146,0,0,0-3.307-1.48c-.4.422-.809.838-1.22,1.235a12.157,12.157,0,0,1-1.257,1.083c-.191.144-.39.282-.574.4a12.7,12.7,0,0,1-6.405,2.044,17.249,17.249,0,0,1-5.351-.61c-.206-.051-.408-.116-.6-.17A14.281,14.281,0,0,1,336,196.63c-1.134-.614-3.148-3.935-5-7.369l-.563-.116s-.2-.076-.6-.191l-7.026-.614h-.119a2.145,2.145,0,0,0-.448.033c-.513.033-1.043.076-1.6.137a42.606,42.606,0,0,0-7.362,1.5c-.188.054-.361.108-.563.17-.607.181-1.22.361-1.859.6-7.99,2.766-12.525,6.954-15.746,12.168-.119.188-.245.361-.361.574a55.813,55.813,0,0,0-3.657,7.643c-.148.361-.289.7-.437,1.054v.018c-.072.2-.159.4-.235.607-.31.8-.643,1.639-.989,2.5l-.224.549c-1.13,2.827-2.4,5.918-3.7,9.214v.022c-.155.4-.307.8-.469,1.2-1.935,4.993-3.889,10.359-5.452,15.789h0c-.061.191-.116.386-.17.585-.585,2.026-1.1,4.065-1.549,6.087l-.13.585c-.1.462-.191.928-.285,1.39C276.482,255.9,276.919,263.425,278.287,271.707Z" transform="translate(-176.943 -120.337)" fill="#2074b9"/>
        <path id="Path_4652" data-name="Path 4652" d="M84.785,74.294c3.585,3.834,10.232,3.318,10.232,3.318a30.659,30.659,0,0,0,4.105,3.972,27.08,27.08,0,0,0,4.087,2.795c3.809,2.1,8.478,3.571,13.085,2.578a12.418,12.418,0,0,0,1.6-.444,14.25,14.25,0,0,0,2.21-.978c5.755-3.2,6.9-11.388,5.242-23.8-.939-6.983-2.527-10.832-3.972-12.955a4.105,4.105,0,0,1-3.185-1.4s-1.628,4.513-8.257,4.513S98.9,46.85,98.9,46.85s-3.325,4.607-6.914,5.831a5.365,5.365,0,0,1-1.61.3,57.652,57.652,0,0,0-1.177,8.51,49.1,49.1,0,0,0,0,6.138s-.213-.094-.581-.285a.087.087,0,0,1,0,.029l-.09-.069a23.628,23.628,0,0,1-3.889-2.61,4.391,4.391,0,0,0-1.015-.39C81.973,63.928,81.2,70.452,84.785,74.294Z" transform="translate(-52.547 -29.932)" fill="#f3b6ab"/>
        <path id="Path_4653" data-name="Path 4653" d="M328.62,330.654c1.516-13.428,7.582-46.338,6.719-59.574,0,0,4.214,2.888,4.112,25.913-.029,6.376.1,13.258.289,19.912,6.741,4.809,21.768,15.164,30.852,15.164,8.867,0,17.009-3.885,21.223-10.543.054-3.354.13-6.593.238-9.42a120.894,120.894,0,0,1,3.755-24.913c.412,9.131,11.07,39.319,11.07,39.319-1.343,8.8.509,24.147,1.015,29.606a16.994,16.994,0,0,0-3.423-.166,3.606,3.606,0,0,0-.462.04v-.022c0-.036-.04-.206-.1-.505h0a3.212,3.212,0,0,0-.058-.361c-.17-.95-.448-2.592-.722-4.665-.032-.217-.061-.437-.09-.672a92.755,92.755,0,0,1-.787-11.406c0-8.828.2-11.514.2-11.514-.033-.155-.065-.321-.112-.505s-.094-.361-.152-.567c-.917-3.517-3.249-10.51-4.777-15.088-.2-.617-.4-1.2-.578-1.708l-.058-.163c-.509-1.538-.852-2.506-.852-2.506v.332c-.018,3.275-.339,8.409-.722,13.59a2.186,2.186,0,0,1-.029.437c-.018.213-.033.426-.047.639-.134,1.729-.274,3.452-.419,5.1a4.238,4.238,0,0,1-.054.574c-.527,6.21-1.018,11.193-1.018,11.193a21.062,21.062,0,0,1-1.805,2.329,31.65,31.65,0,0,1-8.358,6.788c-.2.108-.39.217-.589.321a30.585,30.585,0,0,1-12.363,3.5c-.191,0-.386.032-.574.036a34.3,34.3,0,0,1-5.235-.119,47.92,47.92,0,0,1-4.86-.722l-.567-.119a49,49,0,0,1-10.29-3.43c-.2-.094-.39-.184-.585-.267a50.031,50.031,0,0,1-7.546-4.448,41.553,41.553,0,0,1-6.86-6,.022.022,0,0,1,0-.018,17.4,17.4,0,0,0-.152,1.9h0a111.251,111.251,0,0,0,1.217,15.226c.025.195.051.394.072.585.57,4.141,1.083,7.268,1.083,7.268a33.718,33.718,0,0,0-3.455.5C330.353,354.429,327.194,343.331,328.62,330.654Z" transform="translate(-209.743 -173.203)" fill="#2074b9"/>
        <path id="Path_4654" data-name="Path 4654" d="M84.785,84.594c3.585,3.834,10.232,3.318,10.232,3.318a30.66,30.66,0,0,0,4.105,3.972,27.08,27.08,0,0,0,4.087,2.795c3.809,2.1,8.478,3.571,13.085,2.578a12.417,12.417,0,0,0,1.6-.444c-12.5.076-19.255-8.759-23.638-16.89-3.278-6.077-2.91-12.817-2.267-16.951a5.365,5.365,0,0,1-1.61.3,57.652,57.652,0,0,0-1.177,8.51,49.1,49.1,0,0,0,0,6.138s-.213-.094-.581-.285a.087.087,0,0,1,0,.029l-.09-.069a23.628,23.628,0,0,1-3.889-2.61,4.39,4.39,0,0,0-1.015-.39C81.973,74.228,81.2,80.752,84.785,84.594Z" transform="translate(-52.547 -40.232)" fill="#f4948e"/>
        <path id="Path_4655" data-name="Path 4655" d="M438.28,228.507c0,3.509.134,7.467.336,11.976,0,.191,0,.383.018.574.1,2.2.206,4.52.332,6.979.177,3.647.361,7.636.552,12.023.148,3.4.278,5.282.39,6.741,0,.166.029.329.043.484v.09c.116,1.574.217,2.888.289,5.679v.578c.087,4,.1,10.879.061,24.812v.567c-.022,6.113-.058,13.547-.108,22.667.188,0,.383-.022.574-.036.051-9.1.09-16.525.116-22.631v-.578c.047-13.886,0-20.764-.069-24.786v-.578c-.072-2.791-.173-4.12-.292-5.69a.7.7,0,0,0,0-.144c0-.134-.022-.282-.032-.426-.1-1.462-.238-3.351-.386-6.777-.188-4.38-.361-8.369-.552-12.027-.116-2.433-.231-4.737-.325-6.907-.018-.191-.022-.386-.029-.578-.2-4.51-.336-8.478-.336-11.98v-.578c.018-.924.025-1.805.051-2.668a.285.285,0,0,0-.274-.3.3.3,0,0,0-.3.282q-.033,1.282-.033,2.657A5.141,5.141,0,0,0,438.28,228.507Z" transform="translate(-280.037 -143.754)" fill="#0a375d"/>
        <path id="Path_4656" data-name="Path 4656" d="M326.43,229.256c4.567-.036,11.626.177,18.916.487l.578.022c3.228.137,6.5.3,9.6.451l.578.032c3.9.2,7.528.415,10.492.6h.22c.195.018.39.033.574.033,1.787.1,3.668.137,5.593.137,3.127,0,6.365-.108,9.528-.26.191,0,.383-.025.563-.036,4.5-.231,8.8-.563,12.276-.83,1.083-.087,2.145-.17,3.083-.238.2,0,.4-.032.592-.04s.274-.025.4-.032c-.1-.126-.206-.26-.314-.39a.722.722,0,0,1,.025-.17,1.081,1.081,0,0,1-.155,0l-.437.033-3.249.242c-3.484.271-7.763.6-12.233.841l-.574.022a149.767,149.767,0,0,1-15.121.13c-.184,0-.379-.018-.56-.032a1.759,1.759,0,0,1-.2,0c-2.982-.184-6.643-.39-10.582-.6l-.574-.022c-3.105-.166-6.365-.318-9.59-.455l-.578-.022c-7.084-.3-13.947-.516-18.526-.495C326.661,228.87,326.535,229.061,326.43,229.256Z" transform="translate(-208.571 -146.103)" fill="#0a375d"/>
        <path id="Path_4657" data-name="Path 4657" d="M479.46,308.2c.2-.1.394-.213.589-.321.166-4.412.43-11.709.621-19.479v-.581c.166-7.171.282-14.695.217-20.728,0-.971-.025-2.054-.033-3.249v-.574c-.018-1.733-.018-3.65-.032-5.715v-.574c-.022-7.322-.022-16.345,0-25.032a5.074,5.074,0,0,1,0-.574c0-4.513.018-8.922.018-12.94v-.57c0-3.109,0-5.965.025-8.434-.191.144-.39.282-.574.4,0,2.387-.025,5.1-.025,8.051v.585c0,4-.025,8.391-.029,12.886v.578c-.018,8.665-.025,17.721,0,25.043v.563c0,2.065.018,4,.025,5.73v.574c0,1.184.025,2.267.029,3.249.072,6.04-.043,13.59-.213,20.768v.578C479.893,296.39,479.63,303.835,479.46,308.2Z" transform="translate(-306.349 -133.812)" fill="#0a375d"/>
        <path id="Path_4658" data-name="Path 4658" d="M402.55,188.283c.321,3.2.9,8.893,1.56,15.525,0,.191.036.361.051.563.361,3.8.776,7.9,1.166,12.012.022.188.04.361.054.57.574,5.972,1.123,11.947,1.56,17.035.231,2.693.408,5.817.538,9.225a4.537,4.537,0,0,0,.025.574c.061,1.769.112,3.611.163,5.521v.563c.17,8.023.148,16.876,0,24.913,0,.195-.018.386-.018.578-.184,9.29-.527,17.439-.928,21.862l.567.119c.4-4.437.755-12.619.935-21.956v-.581c.155-8.048.188-16.89.022-24.913a5.174,5.174,0,0,0-.022-.57c-.033-1.9-.083-3.744-.159-5.528v-.574c-.134-3.423-.318-6.571-.549-9.279-.437-5.08-.978-11.016-1.549-16.97-.018-.191-.033-.379-.054-.57-.394-4.105-.794-8.2-1.166-12.005,0-.188-.04-.383-.054-.574-.661-6.658-1.238-12.362-1.567-15.583H403C402.857,188.262,402.712,188.265,402.55,188.283Z" transform="translate(-257.208 -120.273)" fill="#0a375d"/>
        <path id="Path_4659" data-name="Path 4659" d="M376.16,193.009c.231,3.462.552,8.12.921,13.258,0,.191.025.361.04.567.116,1.61.231,3.271.361,4.946.13,1.863.314,4.333.5,7.221,0,.191.033.361.04.57.473,7.084,1.018,16.608,1.256,26.4,0,.191.018.386.018.578q.069,2.683.09,5.365v.574c.043,4.726,0,9.387-.184,13.72-.159,3.805-.26,7.539-.321,11.041v.567c-.126,7.968-.022,14.724.112,18.609.195.083.386.173.585.267-.141-3.694-.264-10.471-.13-18.854v-.567c.051-3.444.159-7.16.321-11.034.184-4.358.238-9.026.191-13.745v-.574q-.036-2.686-.09-5.376v-.578c-.249-9.777-.791-19.313-1.264-26.407,0-.195-.032-.383-.04-.567-.2-2.932-.361-5.416-.513-7.293-.112-1.65-.242-3.286-.343-4.874,0-.191-.036-.383-.04-.567-.361-5.228-.7-9.958-.935-13.449C376.536,192.879,376.351,192.947,376.16,193.009Z" transform="translate(-240.346 -123.193)" fill="#0a375d"/>
        <path id="Path_4660" data-name="Path 4660" d="M537.73,358.946h0c.061.3.094.469.1.505v.022a3.608,3.608,0,0,1,.462-.04c.282-7.893.722-19.295,1.127-29.928a4.474,4.474,0,0,1,.025-.581c.361-8.893.682-17.193.921-22.385v-.574c.1-1.924.231-3.863.383-5.777l.051-.578c.758-8.893,2.051-17.248,2.845-22.086h0c-.141-.329-.289-.654-.422-.975-.78,4.676-2.2,13.568-2.993,23.086-.022.188-.04.39-.054.581-.155,1.906-.282,3.838-.361,5.759v.3a2.382,2.382,0,0,0,0,.282c-.235,5.206-.581,13.529-.928,22.421a4.475,4.475,0,0,1-.025.588C538.445,339.98,538.033,351.09,537.73,358.946Z" transform="translate(-343.581 -176.698)" fill="#0a375d"/>
        <path id="Path_4661" data-name="Path 4661" d="M555.421,384.1c.191.054.386.108.578.17a246.543,246.543,0,0,1,.383-25.548c.126-1.765.271-3.712.44-5.777,0-.195.032-.386.043-.581.542-6.658,1.253-14.558,1.943-21.927.025-.195.04-.383.054-.567.2-2.065.394-4.076.574-6,0-.2.043-.394.058-.585.282-2.888.549-5.582.776-7.943-.148-.43-.3-.859-.451-1.278-.267,2.639-.57,5.795-.9,9.236-.025.191-.036.379-.061.581-.177,1.921-.361,3.932-.556,5.983-.025.188-.04.383-.054.574-.7,7.391-1.415,15.305-1.953,21.974a4.417,4.417,0,0,1-.054.578c-.159,2.044-.3,3.972-.422,5.69a244.417,244.417,0,0,0-.394,25.425Z" transform="translate(-354.78 -200.665)" fill="#0a375d"/>
        <path id="Path_4662" data-name="Path 4662" d="M284,337.542c1.831-.087,4.2-.155,6.907-.13h.574c2.015.022,4.21.112,6.531.264a4.458,4.458,0,0,1,.574.051c.4.022.8.054,1.206.094,4.275.361,11.973.6,20.62.751H321c3.5.061,7.145.108,10.77.148h.563c3.076.032,6.138.065,9.059.087h.57l4.149.033,9.275.076h.574c.978,0,1.885,0,2.715.025,1.191.025,2.444.033,3.73.033,1.982,0,4.069-.018,6.17-.054h.578c3.011-.058,6.069-.134,8.951-.227l.574-.022c2.488-.083,4.82-.177,6.86-.285a5.117,5.117,0,0,0,.581-.022c1.325-.069,2.5-.134,3.513-.2-.054-.191-.112-.383-.162-.567-.953.058-2.054.123-3.293.184l-.578.025c-2.036.108-4.376.2-6.882.289-.2,0-.383.018-.57.018-2.863.1-5.925.184-9,.235h-.578c-3.387.054-6.784.069-9.9.025-.823-.018-1.733-.025-2.719-.036h-.574c-2.686-.036-5.842-.061-9.272-.087-1.358,0-2.766-.025-4.2-.029h-.574l-9.026-.087h-.578c-3.611-.04-7.261-.09-10.759-.152h-.589c-8.615-.155-16.294-.361-20.551-.744-.412-.036-.83-.072-1.242-.1-.188,0-.383-.033-.574-.04-2.336-.166-4.546-.256-6.582-.278h-.57c-2.614-.025-4.9.04-6.7.116h0C284.1,337.149,284.043,337.344,284,337.542Z" transform="translate(-181.461 -215.204)" fill="#0a375d"/>
        <path id="Path_4663" data-name="Path 4663" d="M279.32,355.872c2.166-.126,5.145-.231,9-.246h.722c1.69,0,3.636,0,5.8.04h.578c5.972.094,13.572.278,22.075.5.2,0,.386.018.578.018l6.878.181c1.3.033,2.625.072,3.972.1h.578c2.982.076,6.059.162,9.182.245h.361a2.013,2.013,0,0,1,.209,0c4.123.094,8.608.141,13.142.144h1.036c4.076,0,8.185-.029,12.1-.058h.57l8.579-.108h1.441c2.029,0,3.993-.04,5.8-.065h.563c2.314-.022,4.354-.036,5.921-.033-.036-.191-.087-.383-.137-.578-1.415,0-3.293,0-5.73.043h-.563c-1.69,0-3.639.036-5.871.065h-1.394c-2.683.036-5.582.079-8.6.1h-.578c-4.069.036-8.33.069-12.557.069H352.4c-4.556,0-9.044-.054-13.157-.148a1.521,1.521,0,0,0-.177,0h-.4l-9.189-.238h-.56c-1.34-.04-2.654-.079-3.95-.112-2.347-.058-4.65-.123-6.892-.181-.2,0-.394,0-.585-.018-8.506-.213-16.1-.394-22.068-.491h-.578c-2.166-.029-4.109-.047-5.8-.047h-.765c-3.759.018-6.68.116-8.839.231Z" transform="translate(-178.47 -226.862)" fill="#0a375d"/>
        <path id="Path_4664" data-name="Path 4664" d="M315.09,252.492v.018c.162,1.119.339,2.228.495,3.307.029.2.061.4.09.6s.043.311.072.473c1.206,7.871,2.336,15.341,2.134,25.664v.563c0,.7-.04,1.415-.069,2.148-.047,1.2-.079,2.4-.087,3.611a4.9,4.9,0,0,0,0,.563c-.036,7.662.628,15.612,1.228,22.746.04.455.076.9.116,1.34,0,.2.029.4.043.589.509,6.073.928,11.76.827,16.442-.162,6.687-.318,14.309-.419,19.584.188-.065.361-.123.578-.177.1-5.268.253-12.792.419-19.392.1-4.694-.318-10.362-.823-16.41,0-.191-.025-.39-.036-.585-.051-.477-.09-.95-.126-1.444-.6-7.142-1.264-15.07-1.228-22.7a4.947,4.947,0,0,1,0-.567c0-1.206.036-2.4.083-3.592.032-.722.054-1.444.069-2.127v-.574c.206-10.388-.928-17.89-2.141-25.786-.022-.108-.029-.213-.043-.325-.032-.188-.069-.386-.094-.592q-.33-2.166-.65-4.455C315.379,251.788,315.238,252.135,315.09,252.492Z" transform="translate(-201.326 -160.642)" fill="#0a375d"/>
        <path id="Path_4665" data-name="Path 4665" d="M299.54,291.342c.325,3.719.82,9.5,1.246,15.673.022.188.025.383.04.574.137,1.979.271,4,.383,5.986,0,.191.025.361.036.57.256,4.575.437,9,.444,12.6,0,3.047-.022,6.838-.087,10.947v.574c-.148,10.07-.451,21.88-.7,29.054.17.466.361.924.516,1.386.278-7.062.6-19.833.755-30.4v-.574c.054-4.224.1-8.051.083-10.99,0-3.611-.184-8.03-.44-12.6,0-.195-.022-.379-.033-.57-.116-1.986-.238-4-.386-5.979,0-.191-.018-.39-.036-.578-.477-6.86-1.025-13.272-1.354-16.879C299.854,290.541,299.706,290.938,299.54,291.342Z" transform="translate(-191.39 -185.382)" fill="#0a375d"/>
        <path id="Path_4666" data-name="Path 4666" d="M311.08,263.55c.646.087,1.329.17,2.033.256l.6.065a90.44,90.44,0,0,0,13.2.679c2.925-.126,6.08-.17,9.521-.13h.581c3.073.032,6.362.134,9.925.3l.578.025c3.08.144,6.355.336,9.846.581l.585.04c1.462.1,2.953.213,4.5.329,3.12.242,6.622.386,10.229.455h.574c2.069.036,4.174.058,6.246.058,2.488,0,4.939-.025,7.257-.065h.574c4.029-.069,7.615-.177,10.247-.278-.072-.184-.162-.361-.235-.552-2.6.087-6.069.184-9.958.253H386.8c-4.26.069-8.979.094-13.55,0-.195,0-.386,0-.574-.018-3.585-.069-7.08-.206-10.178-.44-1.567-.123-3.1-.231-4.578-.343l-.574-.036c-3.513-.246-6.8-.437-9.882-.578-.191,0-.386-.022-.578-.025q-5.335-.244-9.911-.3h-.581c-3.43-.04-6.578,0-9.5.134a90.4,90.4,0,0,1-13.276-.7c-.2-.022-.394-.043-.592-.076-.6-.065-1.177-.137-1.719-.2Z" transform="translate(-198.763 -168.028)" fill="#0a375d"/>
        <path id="Path_4667" data-name="Path 4667" d="M535.788,419.128c-.946.1-1.906.173-2.888.267.058.195.1.386.152.567.91-.087,1.805-.162,2.7-.246l.578-.051,4.694-.412c.318-.029.625-.054.932-.087a5.329,5.329,0,0,0,.585-.051c4.148-.361,7.907-.7,10.471-.9v-.578c-2.221.17-5.582.462-10.445.9-.181.022-.383.036-.574.054-.336.025-.682.054-1.036.09-1.48.126-3.026.267-4.6.4C536.186,419.1,535.976,419.117,535.788,419.128Z" transform="translate(-340.494 -266.847)" fill="#0a375d"/>
        <path id="Path_4668" data-name="Path 4668" d="M280.69,419.24c.022.2.069.4.09.589h0c2.383.314,5.376.625,8.774.924.184.018.361.029.567.043,2.2.184,4.549.361,7,.549a4.454,4.454,0,0,1,.581.047c6.445.444,13.525.834,20.172,1.126.195,0,.379.022.567.022,4.026.184,7.885.325,11.348.422l.574.025c3.369.087,6.326.137,8.665.137h1.74c3.062-.051,7.4-.289,12.326-.632l.581-.036c3.347-.242,6.939-.524,10.554-.83.025-.184.04-.361.054-.574-3.629.3-7.239.589-10.593.823-.191.018-.394.032-.581.04-4.939.361-9.3.592-12.362.635h-1.108c-2.415,0-5.6-.04-9.265-.144a4.99,4.99,0,0,1-.56-.022c-3.466-.094-7.326-.231-11.355-.412l-.57-.022c-6.672-.3-13.771-.693-20.219-1.145-.2-.018-.4-.029-.588-.051-2.433-.166-4.766-.343-6.943-.534-.2,0-.39-.029-.574-.043C286.106,419.875,283.066,419.561,280.69,419.24Z" transform="translate(-179.346 -267.869)" fill="#0a375d"/>
        <path id="Path_4669" data-name="Path 4669" d="M18.07,610.005a9.219,9.219,0,0,0,2.527,5.416,10.832,10.832,0,0,0,.921.9S43.405,583.533,49.547,572.2s9.405-17.659,12.662-33.78c2.614-12.864,10.11-41.03,13.023-51.887V486.5c.722-2.722,1.177-4.333,1.177-4.354l.126.061c.722.361,4.094,2.285,4.094,2.285s1.148,6.528,3.076,16.608,9.8,40.777,9.8,40.777a114.383,114.383,0,0,0-2.888,31.477c.755,18.042,12.478,47.006,13.24,49.32a2.528,2.528,0,0,0,1.173,1.444,4.9,4.9,0,0,0,2.668.484s3.065-32.433,3.56-45.673,4.3-49.139,3.549-66.029c-.278-6.167-.83-14.742-1.408-23.151-1.011-14.659-2.134-28.8-2.134-28.8l-3.224-4.333c-.246.747-.4,1.213-.4,1.213a94.2,94.2,0,0,1-14.41-3.228c-7.261-2.127-13.359-4.455-13.359-4.455-20.724,1.159-30.134-5.882-30.134-5.882s-4.026,24.884-6.138,40.8-4.224,54.115-4.224,54.115-9.416,6.737-14.587,21.7S18.07,610.005,18.07,610.005Z" transform="translate(-11.546 -283.856)" fill="#303030"/>
        <path id="Path_4670" data-name="Path 4670" d="M180,548.72c.722.361,4.094,2.285,4.094,2.285s1.148,6.528,3.076,16.609,9.8,40.777,9.8,40.777a114.385,114.385,0,0,0-2.888,31.477c.755,18.042,12.478,47.006,13.24,49.32a2.528,2.528,0,0,0,1.173,1.444,226.46,226.46,0,0,1-7.889-48.583c-1.285-28.408,0-34.542,0-34.542s-8.167-35.885-12.4-48.652l-3.972-8.088s-3.939-2.849-4.224-2.35a2.79,2.79,0,0,0-.007.3Z" transform="translate(-115.008 -350.369)" fill="#111" opacity="0.41"/>
        <path id="Path_4671" data-name="Path 4671" d="M180,551.779h0a.116.116,0,0,0,0-.029A.022.022,0,0,1,180,551.779Z" transform="translate(-115.01 -352.536)" fill="#e22727"/>
        <path id="Path_4672" data-name="Path 4672" d="M180,551.779h0a.116.116,0,0,0,0-.029A.022.022,0,0,1,180,551.779Z" transform="translate(-115.01 -352.536)" fill="#e22727"/>
        <path id="Path_4673" data-name="Path 4673" d="M25.1,690.253a10.833,10.833,0,0,0,.921.9S47.9,658.347,54.038,647.017s9.405-17.659,12.662-33.78c2.614-12.864,10.11-41.03,13.023-51.887-3.719,9.8-14.33,37.719-18.526,47.659-5.113,12.135-11.518,31.112-22.707,52.862C31.87,674.728,27.375,684.668,25.1,690.253Z" transform="translate(-16.038 -358.67)" fill="#111" opacity="0.41"/>
        <path id="Path_4674" data-name="Path 4674" d="M226.22,472.88a137.562,137.562,0,0,1,9.261,11.6c2.484,3.477,7.16,14.377,10.907,23.57-1.011-14.659-2.134-28.8-2.134-28.8l-3.224-4.333c-.246.747-.4,1.213-.4,1.213A95.77,95.77,0,0,1,226.22,472.88Z" transform="translate(-144.542 -302.143)" fill="#2b1c1e"/>
        <path id="Path_4675" data-name="Path 4675" d="M53.82,200.814h0A54.766,54.766,0,0,0,56.449,218a79.18,79.18,0,0,0,4.044,10.568q.722,1.473,1.325,2.6a.062.062,0,0,0,.025.047c.747,1.318,1.386,2.3,1.881,3a13.049,13.049,0,0,0,1.155,1.423l.029.029c.191.765,6.528,24.624,7.582,28.184.036.112.065.2.083.267,0,0,9.409,7.041,30.134,5.882l.7.264c.643.238,1.715.621,3.08,1.108a.126.126,0,0,0,.069.022c.632.22,1.318.462,2.072.722h0c.264.083.52.177.794.271l.556.181c5.853,1.928,14.132,4.376,20.49,5.123,0,0,.155-.466.4-1.213s.6-1.878.968-3.1c.13-.426.256-.852.383-1.289.036-.123.058-.249.1-.361.545-1.856,1.058-3.824,1.35-5.38a10.084,10.084,0,0,0,.249-2.21l-.816-.794-1.181-1.134-.051-.054s-.426-8.434-.816-17.9c-.318-7.6-.6-15.865-.617-20.963,0-1.033,0-1.939.033-2.683.249-8.568-1.509-22.533-1.661-23.627h0v-.061s.155.311.451.874c.141.267.314.6.5.978,1.993,3.816,6.568,12.637,9.164,17.659a.415.415,0,0,1,.051.1l.578,1.116.036-.069.267-.686h0l1.968-5.055,7.773-19.9S138,170.106,128.035,166.81a89.79,89.79,0,0,0-19.136-3.744q-2.484-.249-5.084-.419c-.191-.018-.394-.033-.581-.04-1.668-.116-3.354-.2-5.08-.267,0,.946,0,1.921-.018,2.639h.018s.2,2.058.448,4.835c.5,5.567,1.206,14.041.986,14.778s-5.777-7.582-9.528-13.308c-1.917-2.917-3.34-5.152-3.34-5.152l-1.805-3.354c-.913.534-2.372,1.412-4.163,2.553l-.487.307c-1.827,1.166-3.972,2.582-6.181,4.177a92.291,92.291,0,0,0-12.4,10.384C56.3,185.769,53.986,193.03,53.82,200.814Z" transform="translate(-34.381 -103.724)" fill="#004e90"/>
        <path id="Path_4676" data-name="Path 4676" d="M176.56,164.992h.018s.2,2.058.448,4.835a20.141,20.141,0,0,0,10.3-6.741q-2.484-.249-5.084-.419c-.191-.018-.394-.033-.581-.04-1.668-.116-3.354-.2-5.08-.267C176.589,163.313,176.571,164.274,176.56,164.992Z" transform="translate(-112.812 -103.737)" fill="#004e90"/>
        <path id="Path_4677" data-name="Path 4677" d="M110,170.547a61.279,61.279,0,0,0,15.966,1.469c-1.917-2.917-3.34-5.152-3.34-5.152l-1.805-3.354c-.913.534-2.372,1.412-4.163,2.553l-.487.307C114.333,167.543,112.217,168.958,110,170.547Z" transform="translate(-70.284 -104.472)" fill="#004e90"/>
        <path id="Path_4678" data-name="Path 4678" d="M257.26,234.73,259.751,245c1.993,3.816,6.568,12.637,9.164,17.659a.415.415,0,0,1,.051.1l.578,1.116.036-.069.267-.686h0l1.968-5.055C268.077,252.584,260.188,240.9,257.26,234.73Z" transform="translate(-164.375 -149.978)" fill="#0a375d" opacity="0.47"/>
        <path id="Path_4679" data-name="Path 4679" d="M53.82,268.92A54.766,54.766,0,0,0,56.449,286.1a79.181,79.181,0,0,0,4.044,10.568q.722,1.473,1.325,2.6a.062.062,0,0,0,.025.047c.747,1.318,1.386,2.3,1.881,3,.426-.155.686-.26.686-.26a129.866,129.866,0,0,0,14.648,19.833c8.665,9.5,19.945,13.976,28.523,17.374,0,0,.39.361,1.047.946h0c.264.083.52.177.794.271l.556.181c5.853,1.928,14.132,4.376,20.49,5.123,0,0,.155-.466.4-1.213s.6-1.877.968-3.1A194.112,194.112,0,0,1,101.7,328.649c-15.688-8.387-31.43-26.426-38.145-38.135A161.36,161.36,0,0,1,53.82,268.92Z" transform="translate(-34.381 -171.823)" fill="#0a375d" opacity="0.47"/>
        <path id="Path_4680" data-name="Path 4680" d="M213.56,389.993a130.875,130.875,0,0,0,10.72,10.034c6.651,5.611,10.882,8.748,10.882,8.748v-.513l-1.181-1.134-.051-.054s-.426-8.434-.816-17.9C225.366,394.073,214.827,391.116,213.56,389.993Z" transform="translate(-136.453 -248.656)" fill="#004e90"/>
        <path id="Path_4681" data-name="Path 4681" d="M266.128,457.815c-.116.394,6.914,5.625,6.914,5.625s4.38,5.055,7.582,5.181c0,0-.96-2.527-2.246-6.326-1.365-4.04-3.105-9.51-4.466-14.875l-4.333-3.17s-1.22,4.943-2.231,8.932C266.8,455.259,266.344,457.067,266.128,457.815Z" transform="translate(-170.04 -283.85)" fill="#f3b6ab"/>
        <path id="Path_4682" data-name="Path 4682" d="M266.128,473.622c-.116.394,6.914,5.625,6.914,5.625s4.38,5.055,7.582,5.181c0,0-.96-2.527-2.246-6.326a50.537,50.537,0,0,1-11.03-9.113C266.8,471.066,266.344,472.875,266.128,473.622Z" transform="translate(-170.04 -299.657)" fill="#f4948e"/>
        <path id="Path_4683" data-name="Path 4683" d="M393.7,99.037c1.946,4.8,7.073,4.033,7.073,4.033a21.333,21.333,0,0,0,1.787,4.986c.581,1.163,1.22,2.48,1.9,3.737a25.644,25.644,0,0,0,4.918,6.575,3.613,3.613,0,0,0,.607.437,15.071,15.071,0,0,0,3.109,1.181c3.661,1,9.236,1.3,13.586-2.91.412-.4.82-.812,1.22-1.235,5.416-5.7,9.785-13.864,10.68-28.523.96-15.731-10.109-19.158-15.164-20.342-4.279-.978-10.467-.415-16.406,3.751-.227.152-.448.314-.675.487a6.419,6.419,0,0,0-.516.44,9.4,9.4,0,0,0-1.123,6.593h0a12.046,12.046,0,0,0,.238,1.206c1.083,4.354,1.469,5.683-.722,10.424-.271.592-.534,1.152-.791,1.672a51.766,51.766,0,0,1-3.044,5.564,18.369,18.369,0,0,1-1.881-4.019c-1.047-1.957-2.368-3.954-3.491-4.239C392.713,88.289,391.752,94.239,393.7,99.037Z" transform="translate(-250.883 -42.527)" fill="#f3b6ab"/>
        <path id="Path_4684" data-name="Path 4684" d="M425.763,85.621a51.633,51.633,0,0,1,2.314-7.521c-.227.152-.448.314-.675.487a6.421,6.421,0,0,0-.516.44A9.4,9.4,0,0,0,425.763,85.621Z" transform="translate(-271.954 -49.899)" fill="#f4948e"/>
        <path id="Path_4685" data-name="Path 4685" d="M393.7,138.414c1.946,4.8,7.073,4.033,7.073,4.033a21.333,21.333,0,0,0,1.787,4.986c.581,1.163,1.22,2.48,1.9,3.737a25.645,25.645,0,0,0,4.918,6.575c-1.665-5.011-4.82-10.619-5.535-22.024-.1-1.607-.361-3.21-.408-4.8a51.762,51.762,0,0,1-3.044,5.564,18.369,18.369,0,0,1-1.881-4.019c-1.047-1.957-2.368-3.954-3.491-4.239C392.714,127.665,391.753,133.616,393.7,138.414Z" transform="translate(-250.885 -81.903)" fill="#f4948e"/>
        <path id="Path_4686" data-name="Path 4686" d="M338.914,324.531a.292.292,0,0,0,.285-.278c0-.126.628-12.381,1.1-18.825.235-3.231.654-7.3,1.173-12.442.513-5.055,1.155-11.355,1.805-18.648,1.2-13.536-3.679-20.58-5.755-23.606-.159-.235-.307-.44-.437-.628a.285.285,0,0,0-.4-.079.293.293,0,0,0-.083.4c.134.195.274.4.441.639,2.044,2.961,6.835,9.9,5.654,23.23-.643,7.282-1.282,13.579-1.805,18.638-.524,5.149-.942,9.214-1.177,12.456-.477,6.452-1.083,18.717-1.083,18.84A.292.292,0,0,0,338.914,324.531Z" transform="translate(-215.048 -159.719)" fill="#0a375d"/>
        <path id="Path_4687" data-name="Path 4687" d="M509.973,323.416h.083a.285.285,0,0,0,.188-.361c-1.423-4.791-3.477-21.642-4.076-28.852a.3.3,0,0,0-.31-.264.282.282,0,0,0-.26.311c.6,7.221,2.665,24.144,4.1,28.975a.278.278,0,0,0,.274.191Z" transform="translate(-323.048 -187.809)" fill="#0a375d"/>
        <path id="Path_4688" data-name="Path 4688" d="M508.712,397.179a.285.285,0,0,0,.285-.264c0-.112,1.018-11.142,1.61-18.482s.585-15.052.578-15.132a.282.282,0,0,0-.285-.282h0a.285.285,0,0,0-.292.282c0,.079,0,7.755-.571,15.085s-1.6,18.367-1.61,18.475a.285.285,0,0,0,.256.314Z" transform="translate(-324.857 -231.948)" fill="#0a375d"/>
        <path id="Path_4689" data-name="Path 4689" d="M442.49,219.765c.531.4,4.813,1.061,7.008,9.214l.787-14.139a17.248,17.248,0,0,1-5.351-.61c-.206-.051-.408-.116-.6-.17Z" transform="translate(-282.727 -136.771)" fill="#9bc7ed"/>
        <path id="Path_4690" data-name="Path 4690" d="M403.79,188.27c.437,1.607,1.116,4.228,1.834,7.34,1.188,5.2,4.408,17.475,4.408,17.475,1.654-6.044,5.246-9.9,6.012-10.261,0,0-3.423-9.351-5.109-13.919Z" transform="translate(-258 -120.292)" fill="#9bc7ed"/>
        <path id="Path_4691" data-name="Path 4691" d="M518.675,283.443v-8.077c0-1.841,0-3.737.025-5.636v-.574c.058-5.878.155-11.828.361-16.757.1-2.35.253-5.163.52-8.3,0-.191.04-.386.054-.578.361-4.246.96-9.026,1.849-14.031.022-.137.058-.278.087-.422a.722.722,0,0,1,.025-.17,1.075,1.075,0,0,1-.155,0l-.361-.415a4.191,4.191,0,0,0-.083.448c-.04.2-.079.394-.112.585-.888,4.975-1.444,9.748-1.838,14l-.047.578c-.271,3.109-.433,5.918-.523,8.268-.2,4.936-.3,10.9-.361,16.782v.567c0,1.906-.025,3.8-.025,5.643v6.362C518.271,282.245,518.473,282.826,518.675,283.443Z" transform="translate(-331.032 -145.984)" fill="#0a375d"/>
        <path id="Path_4692" data-name="Path 4692" d="M398.11,188.478c3.062,4.159,8.821,10.366,16.868,12.229,9.026,2.094,16.363-2.748,19.714-5.582a30.141,30.141,0,0,0-3.307-1.48c-.4.422-.809.838-1.22,1.235a12.153,12.153,0,0,1-1.256,1.083c-.191.144-.39.282-.574.4a12.7,12.7,0,0,1-6.405,2.044,17.247,17.247,0,0,1-5.351-.61c-.206-.051-.408-.116-.6-.17a14.278,14.278,0,0,1-2.527-1.011c-1.134-.614-3.148-3.935-5-7.369l-.563-.116s-.2-.076-.6-.191l-7.026-.614h-.119a2.145,2.145,0,0,0-.448.033C399.2,188.373,398.67,188.417,398.11,188.478Z" transform="translate(-254.371 -120.33)" fill="#319b91" opacity="0.6"/>
        <path id="Path_4693" data-name="Path 4693" d="M538,506.25Z" transform="translate(-343.753 -323.464)" fill="#035fe9"/>
        <path id="Path_4694" data-name="Path 4694" d="M537.49,503.73h.025c.087.531.155.838.166.892Z" transform="translate(-343.427 -321.854)" fill="#f3b6ab"/>
        <path id="Path_4695" data-name="Path 4695" d="M490.789,128.768c-.029-1.083,1.664-3.206,4.221-2.82s6.773,3.452,5.882,3.647-3.578-.769-6.521-.827S490.811,129.584,490.789,128.768Z" transform="translate(-313.588 -80.442)" fill="#f4f4f4"/>
        <path id="Path_4696" data-name="Path 4696" d="M449.169,119.541c.957-.126-.7-2.686-3.249-4.224s-5.055-1.661-6.077-.314-.581,1.693.444,1.805a11.778,11.778,0,0,1,5.152,1.267,26.086,26.086,0,0,0,3.73,1.466Z" transform="translate(-280.665 -72.883)" fill="#f4f4f4"/>
        <path id="Path_4697" data-name="Path 4697" d="M408.87,140.07h0c1.083,2.026,1.881,4.019,1.881,4.019A18.454,18.454,0,0,1,408.87,140.07Z" transform="translate(-261.246 -89.495)" fill="#e2dec3"/>
        <path id="Path_4698" data-name="Path 4698" d="M408.191,102.117c1.083,2.026,1.881,4.019,1.881,4.019a55.869,55.869,0,0,0,3.3-6.091c.177-.361.361-.747.538-1.145,2.166-4.741,1.805-6.069.7-10.424s.484-7.365.892-7.806a16.988,16.988,0,0,0-6.394,8.25.09.09,0,0,1-.018.065C406.873,94.8,408.191,102.117,408.191,102.117Z" transform="translate(-260.563 -51.541)" fill="#f4f4f4"/>
        <path id="Path_4699" data-name="Path 4699" d="M88.91,96.29A27.44,27.44,0,0,1,92.8,98.9,23.32,23.32,0,0,1,88.91,96.29Z" transform="translate(-56.809 -61.522)" fill="#591712"/>
        <path id="Path_4700" data-name="Path 4700" d="M167.653,73.127c-1.065-.747.639-3.069,3.463-3.549s6.138.191,5.755.668-2.816.964-4.723,2.018S168.618,73.8,167.653,73.127Z" transform="translate(-106.917 -44.348)" fill="#141414"/>
        <path id="Path_4701" data-name="Path 4701" d="M117.47,79.417c.191-1.242,2.787-2.556,6.243-2.589,4.473-.043,5.228,1.664,4.333,3.069-.484.722-1.708.386-5.127,0S117.47,79.417,117.47,79.417Z" transform="translate(-75.057 -49.086)" fill="#141414"/>
        <path id="Path_4702" data-name="Path 4702" d="M156.372,169.65h.033s1.758,18.508,1.444,19.62S144.97,170.8,144.97,170.8,151.2,172,156.372,169.65Z" transform="translate(-92.628 -108.395)" fill="#9bc7ed"/>
        <path id="Path_4703" data-name="Path 4703" d="M447.734,931.86s15.356,9.268,19.19,13.3H445.43Z" transform="translate(-284.606 -595.406)" fill="#87154e"/>
        <path id="Path_4704" data-name="Path 4704" d="M345.06,936.25v11.72H324.78l14.327-11.72Z" transform="translate(-207.517 -598.211)" fill="#87154e"/>
        <path id="Path_4705" data-name="Path 4705" d="M485.674,68.024a.282.282,0,0,0,.278-.231c.123-.585,1.148-5.777-.058-7.221a.289.289,0,0,0-.444.361c.87,1.083.253,5.235-.061,6.755a.285.285,0,0,0,.227.339Z" transform="translate(-310.134 -38.65)" fill="#f4f4f4"/>
        <path id="Path_4706" data-name="Path 4706" d="M477.5,68.74a.238.238,0,0,0,.09,0,.285.285,0,0,0,.188-.361c-.361-1.17-1.65-5.015-2.6-5.416a.278.278,0,0,0-.361.148.289.289,0,0,0,.144.379c.484.206,1.553,2.791,2.271,5.055A.3.3,0,0,0,477.5,68.74Z" transform="translate(-303.367 -40.214)" fill="#f4f4f4"/>
        <path id="Path_4707" data-name="Path 4707" d="M490.289,70.544a.293.293,0,0,0,.267-.184c.282-.69.668-1.805.978-2.686.246-.682.491-1.383.545-1.484a.293.293,0,0,0-.123-.39.282.282,0,0,0-.383.116c-.069.119-.209.527-.581,1.567-.31.885-.7,1.979-.971,2.661a.289.289,0,0,0,.162.361A.361.361,0,0,0,490.289,70.544Z" transform="translate(-313.088 -42.019)" fill="#f4f4f4"/>
        <path id="Path_4708" data-name="Path 4708" d="M405.843,146.55a.3.3,0,0,0,.292-.26c.3-3.351-2.845-6.784-2.979-6.925a.285.285,0,0,0-.4-.018.3.3,0,0,0,0,.412c.032.029,3.1,3.383,2.823,6.477a.285.285,0,0,0,.264.311Z" transform="translate(-257.284 -88.984)" fill="#3d2a2b"/>
        <path id="Path_4709" data-name="Path 4709" d="M405.6,147.385a.891.891,0,0,0,.134,0c.625-.116,1.181-1.083,1.289-1.282a.289.289,0,1,0-.505-.278c-.2.361-.628.946-.9,1a.1.1,0,0,1-.083-.029c-.235-.2-.188-1.805.1-3.448a.289.289,0,1,0-.567-.1c-.184,1.029-.538,3.466.1,3.993A.625.625,0,0,0,405.6,147.385Z" transform="translate(-258.649 -91.358)" fill="#3d2a2b"/>
        <path id="Path_4710" data-name="Path 4710" d="M476.8,156.428a.278.278,0,0,0,.271-.2c.361-1.033.361-5.777.043-14.478,0-.48-.025-.787-.025-.852a.289.289,0,1,0-.578,0c0,.065,0,.379.029.87.289,8.023.3,12.749.04,14.081-.83-.061-3.78-.44-5.087-2.91a.3.3,0,0,0-.394-.123.292.292,0,0,0-.123.39C472.671,156.388,476.628,156.428,476.8,156.428Z" transform="translate(-300.907 -89.84)" fill="#3d2a2b"/>
        <path id="Path_4711" data-name="Path 4711" d="M464.631,186.658a.289.289,0,0,0,.054-.574c-.079,0-7.817-1.444-9.748-3.2a.289.289,0,0,0-.386.43c2.051,1.856,9.7,3.271,10.026,3.333Z" transform="translate(-290.372 -116.807)" fill="#c63030"/>
        <path id="Path_4712" data-name="Path 4712" d="M533.242,423.643a.124.124,0,0,0,.047,0,.311.311,0,0,0,.256-.361,23.536,23.536,0,0,0-2.123-6,.307.307,0,0,0-.412-.126.3.3,0,0,0-.134.412,23.791,23.791,0,0,1,2.062,5.806A.3.3,0,0,0,533.242,423.643Z" transform="translate(-339.179 -266.517)" fill="#0a375d"/>
        <path id="Path_4713" data-name="Path 4713" d="M494.36,472.336c2.246,3.34,6.8,9.514,11.171,12.843-.083-.307-.152-.607-.227-.9-4.159-3.383-8.405-9.182-10.5-12.319C494.66,472.065,494.515,472.195,494.36,472.336Z" transform="translate(-315.869 -301.555)" fill="#2d2d2d"/>
        <path id="Path_4714" data-name="Path 4714" d="M347.251,482.943a.275.275,0,0,0,.26.177.091.091,0,0,0,.047,0,.1.1,0,0,0,.065,0c4.726-1.91,6.43-8.622,7.16-12.677l-.52-.343c-.682,3.889-2.307,10.568-6.788,12.453a.144.144,0,0,1-.069.025A.3.3,0,0,0,347.251,482.943Z" transform="translate(-221.865 -300.366)" fill="#2d2d2d"/>
        <path id="Path_4715" data-name="Path 4715" d="M421.279,187.666a35.1,35.1,0,0,0,2.527,6.3c1.368,2.787,2.975,5.445,3.972,5.849,1.224.487,2.307-2.415,2.925-4.618a14.082,14.082,0,0,0,.505-2.322A15.071,15.071,0,0,1,428.1,191.7c-1.553-.838-4.737-6.723-6.929-11.055A34.933,34.933,0,0,0,421.279,187.666Z" transform="translate(-269.026 -115.417)" fill="#f3b6ab"/>
        <path id="Path_4716" data-name="Path 4716" d="M421.283,187.692a35.1,35.1,0,0,0,2.527,6.3,20.916,20.916,0,0,0,6.921,1.246,14.079,14.079,0,0,0,.505-2.322,15.071,15.071,0,0,1-3.109-1.181c-1.553-.838-4.737-6.723-6.929-11.055A33.033,33.033,0,0,0,421.283,187.692Z" transform="translate(-269.03 -115.442)" fill="#f4948e"/>
        <path id="Path_4717" data-name="Path 4717" d="M313.484,523.313a.359.359,0,0,0,.137-.032c4.39-2.387,13-3.416,13.059-3.423a.289.289,0,1,0-.022-.578c-.072,0-8.788,1.033-13.312,3.488a.282.282,0,0,0-.116.394.289.289,0,0,0,.253.152Z" transform="translate(-200.113 -331.789)" fill="#601111"/>
        <path id="Path_4718" data-name="Path 4718" d="M347.473,753.189a.361.361,0,0,0,.141-.033c.986-.534,2.044-2.314,2.888-3.744a9.381,9.381,0,0,1,.924-1.412.289.289,0,0,0,.022-.4.293.293,0,0,0-.408-.029,8.669,8.669,0,0,0-1.033,1.553c-.773,1.3-1.827,3.069-2.683,3.531a.282.282,0,0,0-.112.39A.285.285,0,0,0,347.473,753.189Z" transform="translate(-221.826 -477.608)" fill="#3d2a2b"/>
        <path id="Path_4719" data-name="Path 4719" d="M513.956,755.416a.267.267,0,0,0,.148-.04.285.285,0,0,0,.09-.4c-.018-.029-1.9-3.062-2.21-3.8a.289.289,0,1,0-.531.224c.332.784,2.166,3.751,2.257,3.878A.278.278,0,0,0,513.956,755.416Z" transform="translate(-326.771 -479.836)" fill="#3d2a2b"/>
        <path id="Path_4720" data-name="Path 4720" d="M173.937,99.33a.3.3,0,0,0,.206-.083.314.314,0,0,0,.083-.26c-.3-1.654-5.474-11.287-5.694-11.695a.287.287,0,1,0-.505.271c1.7,3.156,4.835,9.174,5.513,11.11-1.332-.242-4.838-.877-5.264-.877a.285.285,0,0,0-.285.285.292.292,0,0,0,.285.292c.332,0,3.611.581,5.614.95Z" transform="translate(-107.337 -55.676)" fill="#3d2a2b"/>
        <path id="Path_4721" data-name="Path 4721" d="M165.768,130.711c-.574-.1-8.543-2.914-12.958-1.888,0,0,1.924,4.488,6.048,5.011S165.768,130.711,165.768,130.711Z" transform="translate(-97.637 -82.165)" fill="#fff"/>
        <path id="Path_4722" data-name="Path 4722" d="M91.532,103.268a15.329,15.329,0,0,1,1.845,1.469c-.267.805-1.083,3.643.17,4.513a1.26,1.26,0,0,0,.722.242,1.314,1.314,0,0,0,.314-.04,3.172,3.172,0,0,0,1.607-1.412,13.634,13.634,0,0,1,1.271,2.217.285.285,0,0,0,.274.191.321.321,0,0,0,.1,0,.3.3,0,0,0,.173-.361,15.5,15.5,0,0,0-1.6-2.726l-.022-.029a19.946,19.946,0,0,0-2.47-2.856.148.148,0,0,0-.032-.036,15.774,15.774,0,0,0-2.029-1.639.29.29,0,1,0-.325.48Zm2.311,1.921a21.108,21.108,0,0,1,1.993,2.34c-.253.44-.82,1.22-1.386,1.368a.693.693,0,0,1-.574-.116C93.124,108.257,93.521,106.275,93.842,105.188Z" transform="translate(-58.398 -65.651)" fill="#3d2a2b"/>
        <path id="Path_4723" data-name="Path 4723" d="M269.845,272.411a.317.317,0,0,0,.144-.043.3.3,0,0,0,.1-.394c-.032-.054-3.249-5.513-6.178-11.153s-6.073-12.637-6.1-12.713a.292.292,0,0,0-.386-.144.282.282,0,0,0-.141.379c.032.069,3.181,7.087,6.116,12.742s6.138,11.124,6.185,11.193A.3.3,0,0,0,269.845,272.411Z" transform="translate(-164.378 -158.417)" fill="#0a375d"/>
        <path id="Path_4724" data-name="Path 4724" d="M262.35,282.2a.292.292,0,0,0,.292-.282,147.79,147.79,0,0,0-1.805-27.187.286.286,0,1,0-.527.224,146.842,146.842,0,0,1,1.773,26.953.282.282,0,0,0,.274.292Z" transform="translate(-166.309 -162.646)" fill="#0a375d"/>
        <path id="Path_4725" data-name="Path 4725" d="M95.932,264.278c5.777,12.16,16.518,25.508,23.981,33.246,6.636,6.86,23.468,20.031,25.209,21.407-.152.628-.693,2.805-1.231,4.965-.556,2.224-1.805,6.983-2.1,8.153-20.75-4-37.842-11.268-46.937-19.973-10.225-9.785-22.353-28.523-22.472-28.711a.292.292,0,0,0-.491.314c.126.188,12.3,18.981,22.562,28.812,9.229,8.817,26.527,16.172,47.5,20.172H142a.289.289,0,0,0,.274-.213c0-.061,1.542-5.889,2.166-8.416l1.285-5.152a.3.3,0,0,0-.1-.3c-.181-.144-18.356-14.269-25.3-21.461-7.434-7.7-18.147-21-23.866-33.1-5.831-12.323-6.3-15.8-6.308-15.836a.285.285,0,0,0-.318-.253.292.292,0,0,0-.253.321" transform="translate(-45.912 -158.414)" fill="#0a375d"/>
        <path id="Path_4726" data-name="Path 4726" d="M535.31,489c.029.235.058.455.09.672,5.026,2.087,13.29,2.5,16.367,2.578.029-.188.069-.361.1-.57C548.842,491.574,540.191,491.145,535.31,489Z" transform="translate(-342.034 -312.442)" fill="#0a375d"/>
        <path id="Path_4727" data-name="Path 4727" d="M307,503.886c.079.188.152.361.22.538a65.078,65.078,0,0,0,13.3-5.019c.361-.159.7-.321,1.015-.48-.022-.191-.047-.39-.072-.585-.336.152-.722.339-1.181.552A65.1,65.1,0,0,1,307,503.886Z" transform="translate(-196.156 -318.41)" fill="#0a375d"/>
        <path id="Path_4728" data-name="Path 4728" d="M429.346,185.485a.289.289,0,0,0,.022-.574c-.033,0-3.444-.329-7.326-4.354-4.849-5.015-6.759-12.637-6.773-12.7a.29.29,0,0,0-.563.137c.022.079,1.961,7.831,6.918,12.962,4.051,4.2,7.553,4.5,7.7,4.528Z" transform="translate(-264.969 -107.109)" fill="#3d2a2b"/>
        <path id="Path_4729" data-name="Path 4729" d="M352.2,174.513c4.141-1.4,7.77-1.163,10.11,2.571,2.816,4.517,3.426,9.514,1.769,10.406s-3.712-6.781-3.712-6.4,2.82,9.088,1.4,9.853-5.513-8.954-5.383-8.456,3.466,9.214,1.61,9.983-5.055-9.088-5.055-9.088,2.946,7.037,1.029,7.423-4.593-7.741-4.593-7.741-3.629,4.037-5.416,2.758S345.961,176.622,352.2,174.513Z" transform="translate(-219.491 -110.998)" fill="#f3b6ab"/>
        <path id="Path_4730" data-name="Path 4730" d="M457.3,138.931c-.246,1.675.1,3.112.758,3.206s1.386-1.188,1.625-2.863-.1-3.109-.758-3.2S457.535,137.245,457.3,138.931Z" transform="translate(-292.14 -86.937)" fill="#3d2a2b"/>
        <path id="Path_4731" data-name="Path 4731" d="M492.993,147.3c-.242,1.675.1,3.109.762,3.2s1.386-1.184,1.628-2.86-.1-3.112-.765-3.206S493.231,145.629,492.993,147.3Z" transform="translate(-314.946 -92.285)" fill="#3d2a2b"/>
        <path id="Path_4732" data-name="Path 4732" d="M148.012,97.657c.845,1.534,1.917,2.567,2.394,2.307s.177-1.719-.672-3.249-1.91-2.571-2.387-2.307S147.167,96.123,148.012,97.657Z" transform="translate(-94.002 -60.293)" fill="#3d2a2b"/>
        <path id="Path_4733" data-name="Path 4733" d="M181.293,88.613c.845,1.534,1.914,2.571,2.39,2.311s.177-1.715-.668-3.249-1.91-2.571-2.39-2.307S180.444,87.079,181.293,88.613Z" transform="translate(-115.263 -54.517)" fill="#3d2a2b"/>
        <path id="Path_4734" data-name="Path 4734" d="M477.4,83.809c1.473.9,2.888,2.264,1.863,3.249s-5.918-1.4-5.246-2.592A2.3,2.3,0,0,1,477.4,83.809Z" transform="translate(-302.832 -53.258)" fill="#fcccc5" opacity="0.44"/>
        <path id="Path_4735" data-name="Path 4735" d="M537.487,558.905a9.675,9.675,0,0,1,.166-1.325A4.46,4.46,0,0,0,537.487,558.905Z" transform="translate(-343.425 -356.261)" fill="#f4948e"/>
        <path id="Path_4736" data-name="Path 4736" d="M246.63,948.358H272.8c-4.159-2.683-18.9-11.344-18.9-11.691l-2.823-.838-1.571-.469Z" transform="translate(-157.583 -597.642)" fill="#262626"/>
        <path id="Path_4737" data-name="Path 4737" d="M246.63,948.358h5.889a101.162,101.162,0,0,1-1.444-12.529l-1.571-.469Z" transform="translate(-157.583 -597.642)" fill="#0c0c0c"/>
        <path id="Path_4738" data-name="Path 4738" d="M0,916.536A34.761,34.761,0,0,0,10.11,922.7a65.2,65.2,0,0,0,12.362,3.791c-4.621-5.185-11.081-20.349-10.918-20.584,0,0-.419-.329-1.007-.816-1.469-1.206-4.008-3.387-4.008-3.928C6.524,900.39,0,916.536,0,916.536Z" transform="translate(0 -575.775)" fill="#262626"/>
        <path id="Path_4739" data-name="Path 4739" d="M26.851,929.7a65.2,65.2,0,0,0,12.362,3.791C34.592,928.3,28.133,913.141,28.3,912.906c0,0-.419-.329-1.007-.816C26.49,916.051,25.54,923.4,26.851,929.7Z" transform="translate(-16.742 -582.774)" fill="#0c0c0c"/>
        <path id="Path_4740" data-name="Path 4740" d="M78.016,32.516a24.19,24.19,0,0,0,2.4,2.246,27.621,27.621,0,0,1,3.889,2.61.589.589,0,0,1,.083.04c.361.191.581.285.581.285a49.1,49.1,0,0,1,0-6.138,57.651,57.651,0,0,1,1.177-8.51c4.149-.061,8.517-6.116,8.517-6.116s4.412,5.033,11.03,5.033,8.257-4.513,8.257-4.513a4.105,4.105,0,0,0,3.184,1.4,2.791,2.791,0,0,0,2.574-2.358,3.818,3.818,0,0,0,.094-.617,4.28,4.28,0,0,0-2.307-3.972,6.787,6.787,0,0,0-4.892-8.445c-2.87-.906-4.6.473-4.694.765S104.745,0,97.726,0a10.348,10.348,0,0,0-9.488,5.748,18.282,18.282,0,0,0-7.871,4.408,6.094,6.094,0,0,0-.762.8C76.29,14.817,77.3,21,77.3,21,75.279,22.916,74.611,28.88,78.016,32.516Z" transform="translate(-48.319 0.006)" fill="#050505"/>
        <path id="Path_4741" data-name="Path 4741" d="M78.016,51.912a24.191,24.191,0,0,0,2.4,2.246,27.62,27.62,0,0,1,3.889,2.61.589.589,0,0,1,.083.04c.361.191.581.285.581.285a49.1,49.1,0,0,1,0-6.138,57.65,57.65,0,0,1,1.177-8.51c4.149-.061,8.517-6.116,8.517-6.116s4.412,5.033,11.03,5.033,8.257-4.513,8.257-4.513a4.105,4.105,0,0,0,3.184,1.4,2.791,2.791,0,0,0,2.574-2.358,3.819,3.819,0,0,0,.094-.617,6.288,6.288,0,0,1-6.2-.44s-.744,4.138-7.582,3.416-12.6-6.86-12.6-6.86-1.729,7.485-7.485,5.95c-3.325-.9-5.2-4.38-6.34-6.994-3.314,3.863-2.3,10.045-2.3,10.045C75.279,42.312,74.611,48.276,78.016,51.912Z" transform="translate(-48.319 -19.39)" fill="#141414"/>
        <path id="Path_4742" data-name="Path 4742" d="M566.311,709.239h.1a.765.765,0,0,0,.661-.856c-.679-5.56-16.789-136.143-18.569-141.649a.616.616,0,0,0-.126-.235,8.291,8.291,0,0,0-5.994-3.08c-3.062,0-6.409,6.376-6.611,24.266-.166,14.442,0,119.725,0,120.791a.769.769,0,0,0,1.534,0c0-1.062-.163-106.352,0-120.769.17-14.778,2.744-22.746,5.076-22.746a6.749,6.749,0,0,1,4.694,2.383c1.932,7.138,18.3,139.883,18.468,141.233A.765.765,0,0,0,566.311,709.239Z" transform="translate(-342.281 -359.993)" fill="#470e0c"/>
        <path id="Path_4743" data-name="Path 4743" d="M245.281,710.009a.776.776,0,0,0,.762-.646c.209-1.256,20.616-125.726,22.685-134.987,1.354-6.037,4.965-10.2,7.376-10.2h.032c1.766.025,2.495,2.473,2.78,3.928,1.715,8.965-13.781,139.728-13.933,141.046a.769.769,0,1,0,1.527.184c.639-5.416,15.67-132.323,13.908-141.533-.848-4.463-3.026-5.159-4.257-5.178H276.1c-3.491,0-7.456,5.094-8.871,11.406-2.083,9.3-22.5,133.817-22.7,135.07a.762.762,0,0,0,.632.885A.242.242,0,0,0,245.281,710.009Z" transform="translate(-156.234 -359.482)" fill="#470e0c"/>
        <path id="Path_4744" data-name="Path 4744" d="M305.7,695.384H397.33a.769.769,0,1,0,0-1.535H305.854l-14.081-5.665a.773.773,0,0,0-1,.433.762.762,0,0,0,.426.993l14.226,5.719A.818.818,0,0,0,305.7,695.384Z" transform="translate(-185.753 -439.677)" fill="#470e0c"/>
        <path id="Path_4745" data-name="Path 4745" d="M315.269,622.537h86.96a.769.769,0,1,0,0-1.534H315.417L304,616.414a.776.776,0,1,0-.57,1.444l11.554,4.647A.723.723,0,0,0,315.269,622.537Z" transform="translate(-193.562 -393.818)" fill="#470e0c"/>
        <path id="Path_4746" data-name="Path 4746" d="M293.593,780.32a.765.765,0,0,0,.282-1.48l-16.056-6.387a.766.766,0,0,0-.57,1.423l16.063,6.391A.685.685,0,0,0,293.593,780.32Z" transform="translate(-176.839 -493.518)" fill="#470e0c"/>
        <path id="Path_4747" data-name="Path 4747" d="M558.794,791.082a.769.769,0,0,0,.134-1.524L536.6,785.616a.755.755,0,0,0-.888.617.765.765,0,0,0,.621.892l22.331,3.946Z" transform="translate(-342.281 -501.955)" fill="#470e0c"/>
        <rect id="Rectangle_1013" data-name="Rectangle 1013" width="9.723" height="5.539" transform="translate(219.171 344.217)" fill="#470e0c"/>
        <rect id="Rectangle_1014" data-name="Rectangle 1014" width="9.73" height="5.539" transform="translate(190.12 344.217)" fill="#470e0c"/>
        <rect id="Rectangle_1015" data-name="Rectangle 1015" width="9.723" height="5.539" transform="translate(104.218 344.989)" fill="#470e0c"/>
        <rect id="Rectangle_1016" data-name="Rectangle 1016" width="9.72" height="5.539" transform="translate(83.808 344.989)" fill="#470e0c"/>
        <path id="Path_4748" data-name="Path 4748" d="M537.48,526.032a.021.021,0,0,0,0,.029,1.382,1.382,0,0,0,.029.209c.361,2.527,3.383,6.929,4.694,6.539h.047c1.278-.516-.137-5.12,0-6.4s2.047-1.535,4.333-.253,4.333,2.813,2.166,5.755c-1.184,1.61-1.264,2.455-1.083,2.888a.83.83,0,0,0,.271.361.805.805,0,0,0,.2.09,3.854,3.854,0,0,0-.448.513,1.674,1.674,0,0,0-.2,2.166c1.029,1.152,9.091-3.578,9.272-5.372s-1.852-1.4-1.852-1.4,2.943-2.556,1.408-5.376-6.907-4.354-6.907-4.354c.9-2.166,2.3-10.619,2.3-10.619a20.747,20.747,0,0,0-9.915-4.448,16.151,16.151,0,0,0-4.116-.159l2.888,13.568a18.841,18.841,0,0,0-1.473,1.989l-.018.025a11.23,11.23,0,0,0-1.444,2.95A4.46,4.46,0,0,0,537.48,526.032Z" transform="translate(-343.417 -323.389)" fill="#f3b6ab"/>
        <path id="Path_4749" data-name="Path 4749" d="M565.75,581.29c2.769-.224,5.979-3.224,6.138-3.369a.282.282,0,0,0,.022-.4.3.3,0,0,0-.412,0c-.036.036-2.993,2.8-5.5,3.185a.806.806,0,0,0,.195.09,3.856,3.856,0,0,0-.448.5Z" transform="translate(-361.484 -368.949)" fill="#3d2a2b"/>
        <path id="Path_4750" data-name="Path 4750" d="M538,506.137l2.888,13.568a18.837,18.837,0,0,0-1.473,1.99,4.473,4.473,0,0,1,2.946-1.35c-.935-2.805-.563-9.951-.256-14.049A16.15,16.15,0,0,0,538,506.137Z" transform="translate(-343.753 -323.351)" fill="#f4948e"/>
        <path id="Path_4751" data-name="Path 4751" d="M547.044,563.566h.047c1.278-.516-.137-5.12,0-6.4s2.047-1.535,4.333-.253,4.333,2.813,2.166,5.755c-1.184,1.61-1.264,2.455-1.083,2.888,4.982-4.149,3.026-7.582-.545-9.925-3.69-2.426-5.264-1.278-6.575,1.04C544.336,558.511,546.048,561.808,547.044,563.566Z" transform="translate(-348.262 -354.153)" fill="#f4948e"/>
        <path id="Path_4752" data-name="Path 4752" d="M313.014,548.373c1.083.177,1.473.061,1.6-.123s-.04-.4-.1-.484a6.4,6.4,0,0,0,2.693,1.784,1.249,1.249,0,0,0,.361,0c.477-.1.693-.264.769-.433a.5.5,0,0,0,0-.473,6.229,6.229,0,0,0,.906.686,2.509,2.509,0,0,0,.44.195c.383.1.672-.065.574-.881-.256-2.051-3.585-7.427-2.437-9.095s4.228-2.419,6.019-2.3a.675.675,0,0,1,.509.264c.888,1.112-.361,5.416.765,6.643.661.722,1.589.134,2.419-1.152a13.539,13.539,0,0,0,1.805-4.983c.65-3.972-3.708-9.091-3.708-9.091s-1.343-8.438-1.343-8.821c-1.018.09-2.04.235-3.04.412l-1.025.206a52.639,52.639,0,0,0-9.026,2.834l3.325,7.81s-3.073,7.546-4.477,10.615A4.471,4.471,0,0,0,313.014,548.373Z" transform="translate(-197.802 -332.32)" fill="#f3b6ab"/>
        <path id="Path_4753" data-name="Path 4753" d="M323.847,582.406a44.732,44.732,0,0,0,3.611,6.246.5.5,0,0,0,0-.473,6.23,6.23,0,0,0,.906.686,41.749,41.749,0,0,1-3.972-6.7.274.274,0,0,0-.361-.141.282.282,0,0,0-.184.386Z" transform="translate(-206.905 -371.862)" fill="#3d2a2b"/>
        <path id="Path_4754" data-name="Path 4754" d="M320.572,589.393a.282.282,0,0,0,.271-.188.3.3,0,0,0-.177-.361c-3-1.051-4.791-6.586-4.813-6.64a.289.289,0,0,0-.361-.188.293.293,0,0,0-.184.361c.072.242,1.9,5.874,5.17,7.012a.282.282,0,0,0,.094,0Z" transform="translate(-201.457 -371.867)" fill="#3d2a2b"/>
        <path id="Path_4755" data-name="Path 4755" d="M341.86,520.527c1.177,3.271,3.105,9.052,3.105,9.052s2.643,2.065,3.333,6.947a23.929,23.929,0,0,1-.148,6.5,13.538,13.538,0,0,0,1.805-4.983c.65-3.972-3.708-9.091-3.708-9.091s-1.343-8.438-1.343-8.821A30.484,30.484,0,0,0,341.86,520.527Z" transform="translate(-218.43 -332.333)" fill="#f4948e"/>
        <path id="Path_4756" data-name="Path 4756" d="M328.5,571.026c.44,2.188,2.054,5.17,2.993,7.07.383.1.672-.065.574-.881-.256-2.051-3.585-7.427-2.437-9.095s4.228-2.419,6.019-2.3a.675.675,0,0,1,.509.264c-.469-1.506-2.39-1.408-5.105-.993C327.479,565.628,327.84,567.733,328.5,571.026Z" transform="translate(-209.62 -360.891)" fill="#f4948e"/>
        <path id="Path_4757" data-name="Path 4757" d="M129,143.09l3.972,7.38,1.805,3.354s.292.054.8.112c1.845.242,6.56.589,10.619-1.256,0-.722.029-1.693.018-2.639,0-.552,0-1.083-.018-1.578a16.431,16.431,0,0,1-8.445-.563,25.2,25.2,0,0,1-4.64-2.015A27.08,27.08,0,0,1,129,143.09Z" transform="translate(-82.424 -91.424)" fill="#f3b6ab"/>
        <path id="Path_4758" data-name="Path 4758" d="M129,143.09l3.972,7.38,1.805,3.354s.292.054.8.112c.607-1.953,1.444-4.177,2.166-6.037a25.2,25.2,0,0,1-4.64-2.015A27.079,27.079,0,0,1,129,143.09Z" transform="translate(-82.424 -91.424)" fill="#f4948e"/>
        <path id="Path_4759" data-name="Path 4759" d="M408.191,116.832c1.083,2.026,1.881,4.019,1.881,4.019a55.868,55.868,0,0,0,3.3-6.091,99.111,99.111,0,0,1-4.282-11.059C406.873,109.517,408.191,116.832,408.191,116.832Z" transform="translate(-260.563 -66.256)" fill="#f4f4f4"/>
        <path id="Path_4760" data-name="Path 4760" d="M1135.064,532.813c10.936,19.334,10.777,50.486,10.611,51.688-.213,1.56-3.25,3.852-3.25,3.852l-9.546-17.984-.838-1.585-.426-.791-.22-.411c.22,7.781-4.755,27.465-4.755,28.112,0,.318-1.2.639-2.423.881s-2.553.419-2.553.419c-1.083-5.625-15.135-70.283-15.135-70.283-.058-.072-.108-.148-.166-.224-.13-.173-.267-.361-.39-.523h0c-8.041-11.019-7.019-22.613-7.174-32.979-.166-10.593,0-50.28,0-50.28s7.943,2.758,19.623-1.784a65.6,65.6,0,0,0,12.749-6.618,40.957,40.957,0,0,0,5.239-4.084s7.546,10.662,10.8,20.822-1.292,23.57-5.622,34.383c-2.794,6.994-10.081,19.349-14.875,27.2-.408.675-.8,1.318-1.166,1.914v.029c-1.979,3.21-3.3,5.293-3.3,5.293h0c.141.069.289.134.433.217,5.221,2.61,9.275,7.178,12.409,12.724Z" transform="translate(-702.026 -274.885)" fill="#0a375d"/>
        <path id="Path_4761" data-name="Path 4761" d="M1171.846,485.444c-4.333,10.81-19.363,34.437-19.363,34.437,5.441,2.574,9.633,7.243,12.857,12.947h0c.383,11.673-1.043,27.368-2.166,37.55l-1.484-2.773c.22,7.781-4.755,27.465-4.755,28.112,0,.318-1.2.639-2.423.881,1.253-11.507,3.372-37.152-.722-51.2-5.373-18.486-7.68-22.385-7.68-22.385s25.05-43.771,24.4-58.047c-.57-12.586-5.416-23.129-9.062-30.635a40.963,40.963,0,0,0,5.239-4.083s7.542,10.651,10.792,20.811S1176.175,474.631,1171.846,485.444Z" transform="translate(-732.303 -274.904)" fill="#0a375d" opacity="0.47"/>
        <path id="Path_4762" data-name="Path 4762" d="M1048.562,278.971c0,10.543-5.188,32.275-5.188,32.275-.448-.2-1.538-.585-2.841-1.018-2.917-.982-6.889-2.228-6.889-2.228s.072-1.921.1-4.748a125.543,125.543,0,0,0-.747-16.334c-1.137-8.109-3.892-20.273-3.892-20.273-1.3-1.3-15.41-8.759-15.41-8.759a63.862,63.862,0,0,0,.975,8.272c.65,2.6,3.567,12.976,5.513,18s7.77,15.41,7.77,15.41a41.359,41.359,0,0,1-5.416,4.206,65.585,65.585,0,0,1-12.554,6.5c-11.68,4.542-19.623,1.784-19.623,1.784-2.383-9.405-8.485-19.136-11.94-24.133-1.495-2.166-2.495-3.437-2.495-3.437a7.2,7.2,0,0,1-5.838-1.3c.646,5.842-2.759,14.442-9.34,23.162s-22.122,18.287-22.122,18.287a10.258,10.258,0,0,1-4.762-.56,34.281,34.281,0,0,1-4.892-1.961s20.2-29.52,21.977-31.773,1.625-5.521,1.95-14.847c.173-4.99.441-11.669.722-17.475.062-1.275-.065-3.7,0-4.86,5,1.968,10,2.347,12.9-3.044,2.036-3.787,4.282-11.323,5.835-17.107l4.694-1.867a12.165,12.165,0,0,1,2.347-1.589c1.473,2.571,3.69,5.365,7.719,6.138,9.254,1.762,13.294-5.253,13.543-9.965a24.544,24.544,0,0,1,2.343.82c10.918,5.055,32.325,22.956,38.867,29.227.722.693,1.264,1.249,1.589,1.625C1047.1,261.619,1048.562,268.432,1048.562,278.971Z" transform="translate(-593.562 -144.227)" fill="#004e90"/>
        <path id="Path_4763" data-name="Path 4763" d="M1046.584,226.518c0,4.228-1.628,10.763-7.221,12.42-7.138,2.123-14.89-3.452-14.89-3.452s-2.455,7.221-8.6,5.307c0,0-.307,8.763-6.033,13.493-3.715,3.062-9.229,3.654-12.637,3.686.061-1.275-.065-3.7,0-4.86,5,1.968,10,2.347,12.9-3.044,2.036-3.787,4.282-11.323,5.835-17.107l4.694-1.867a12.17,12.17,0,0,1,2.347-1.589c1.473,2.571,3.69,5.365,7.719,6.138,9.254,1.762,13.294-5.253,13.543-9.965A24.534,24.534,0,0,1,1046.584,226.518Z" transform="translate(-637.149 -144.195)" fill="#0a375d" opacity="0.47"/>
        <path id="Path_4764" data-name="Path 4764" d="M994.018,363.8s-4.3,4.654-6.99,7.221c-1.495-2.166-2.495-3.437-2.495-3.437a7.2,7.2,0,0,1-5.838-1.3c.646,5.842-2.758,14.442-9.34,23.162s-22.122,18.287-22.122,18.287a10.258,10.258,0,0,1-4.762-.56c4.011-2.264,16.9-10,22.447-18.833,6.6-10.507,9.387-26.277,8-32.563.188.415,3.2,7.026,8.716,8.033A43.812,43.812,0,0,0,994.018,363.8Z" transform="translate(-602.188 -227.322)" fill="#0a375d" opacity="0.47"/>
        <path id="Path_4765" data-name="Path 4765" d="M1245.99,332.144c0,10.543-5.188,32.275-5.188,32.275-.448-.2-1.538-.585-2.842-1.018,1.1-7.347,4.542-18.143,4.333-31.939a124.208,124.208,0,0,0-3-22.512c.722.693,1.264,1.249,1.589,1.625C1244.524,314.792,1245.99,321.6,1245.99,332.144Z" transform="translate(-790.99 -197.4)" fill="#0a375d" opacity="0.47"/>
        <path id="Path_4766" data-name="Path 4766" d="M1167.207,342.319a125.522,125.522,0,0,0-.747-16.334c-1.137-8.109-3.892-20.273-3.892-20.273-1.3-1.3-15.41-8.759-15.41-8.759a63.923,63.923,0,0,0,.975,8.272c.65,2.6,3.567,12.976,5.513,18s7.77,15.41,7.77,15.41a41.33,41.33,0,0,1-5.416,4.206c-1.838-4.5-5.123-13.139-7.467-20.58-2.629-8.358-2.09-12.084-2.09-12.084a17.413,17.413,0,0,1-8.593,5.582s7-5.614,6.448-12.814-3.737-15.619-3.444-16.06,19.974,10.066,23.866,16.06S1167.207,342.319,1167.207,342.319Z" transform="translate(-727.025 -183.294)" fill="#0a375d" opacity="0.47"/>
        <path id="Path_4767" data-name="Path 4767" d="M1022,155.515a10.441,10.441,0,0,1-7.387,9.275,12.3,12.3,0,0,1-5.7.144,10.644,10.644,0,0,1-7.51-5.387,18.069,18.069,0,0,1-2.166-7.943c.206-2.434.383-4.658.383-6.759a18.805,18.805,0,0,0-3.755-12.106c-4.311-5.8-6.752-8.138-10.532-7.716l-.361.051c-3.972.614-4.806,4.286-7.669,6.748-3.538,3.036-5.214,4.138-7.82,4.6s-2.914,2.914,0,10.582c2.766,7.282,7.477,12.355,14.128,14.153.343.1.7.184,1.051.26a13.16,13.16,0,0,0,9.026-1.145,11.116,11.116,0,0,0,2.213-1.592c-.274,1.083-.6,2.361-.975,3.733-.058.227-.119.455-.184.69-1.466,5.358-3.491,12.052-5.336,15.486-.144.267-.3.534-.459.78h0c-2.769,4.383-7.08,4.979-11.554,3.217a19.813,19.813,0,0,1-3.318-1.7c-5.827-3.679-2.166-10.579-3.47-19.136s-6.315-14.944-8.051-25.584a19.586,19.586,0,0,1,8.08-19.627,16.291,16.291,0,0,1,4.459-2.34c8.192-2.777,17.4,1.65,23.086,8.109,6.748,7.665,11.5,15.489,16.713,20.392s6.441,7.221,7.055,11.507A6.438,6.438,0,0,1,1022,155.515Z" transform="translate(-614.828 -72.423)" fill="#262626"/>
        <path id="Path_4768" data-name="Path 4768" d="M1032.622,246.121c-1.466,5.358-3.491,12.052-5.336,15.486-.144.267-.3.534-.458.78a45.258,45.258,0,0,0-1.636-11.276,17.936,17.936,0,0,0-3.712-6.936c.343.1.7.184,1.051.26a13.16,13.16,0,0,0,9.026-1.145A21.5,21.5,0,0,1,1032.622,246.121Z" transform="translate(-652.671 -155.447)" fill="#232323"/>
        <path id="Path_4769" data-name="Path 4769" d="M1044.734,155.5a10.441,10.441,0,0,1-7.387,9.275c-6.232-1.137-11.388-11.377-14.976-19.952a18.8,18.8,0,0,0-3.755-12.106c-4.311-5.8-6.752-8.138-10.532-7.716a24.512,24.512,0,0,0-10.254-10.832c8.192-2.777,17.4,1.65,23.086,8.109,6.748,7.665,11.5,15.489,16.713,20.392s6.441,7.221,7.055,11.507A6.422,6.422,0,0,1,1044.734,155.5Z" transform="translate(-637.56 -72.404)" fill="#262626"/>
        <path id="Path_4770" data-name="Path 4770" d="M1045.517,235.63a3.25,3.25,0,0,1-1.982.928c-2.3.217-4.961-1.906-7.077-3.809-.888-.787-1.682-1.542-2.318-2.069a12.591,12.591,0,0,0,8.467-4.037,10.8,10.8,0,0,0,2.383-4.423,43.509,43.509,0,0,1,1.589,7.095C1046.9,231.99,1046.755,234.456,1045.517,235.63Z" transform="translate(-660.76 -141.984)" fill="#f3b6ab"/>
        <path id="Path_4771" data-name="Path 4771" d="M1046.6,229.315c-2.961,2.4-7.77,3.065-10.109,3.434-.888-.787-1.682-1.542-2.318-2.069a12.591,12.591,0,0,0,8.467-4.037,10.805,10.805,0,0,0,2.383-4.423A43.521,43.521,0,0,1,1046.6,229.315Z" transform="translate(-660.779 -141.984)" fill="#f4948e"/>
        <path id="Path_4772" data-name="Path 4772" d="M1008.442,172.162a11.574,11.574,0,0,1-.693,3.123,10.52,10.52,0,0,1-1.675,2.925,9.587,9.587,0,0,1-.957,1.029,11.893,11.893,0,0,1-8.326,3.055,14.312,14.312,0,0,1-2.917-.318c-7.221-1.534-12.276-6.748-15.182-14.413s-2.6-10.11,0-10.583,4.282-1.563,7.824-4.6c2.441-2.1,3.4-5.08,6.095-6.29a5.921,5.921,0,0,1,1.571-.459c3.971-.61,6.438,1.69,10.886,7.669S1009.055,164.8,1008.442,172.162Z" transform="translate(-624.01 -92.988)" fill="#f3b6ab"/>
        <path id="Path_4773" data-name="Path 4773" d="M1036.732,172.162a11.567,11.567,0,0,1-.693,3.123,10.517,10.517,0,0,1-1.675,2.925c.361-3.419.693-11.019-1.975-17.93-3.325-8.6-7.178-11.741-11.489-14.189a5.919,5.919,0,0,1,1.571-.459c3.972-.61,6.438,1.69,10.886,7.669S1037.346,164.8,1036.732,172.162Z" transform="translate(-652.3 -92.988)" fill="#f4948e"/>
        <path id="Path_4774" data-name="Path 4774" d="M1022.2,174.069c-.48-.076-4.362-.516-6.607,1.166s-2,3.275-.8,3.354,1.766-.751,3.21-2.166A13.388,13.388,0,0,1,1022.2,174.069Z" transform="translate(-647.824 -111.149)" fill="#3d2a2b"/>
        <path id="Path_4775" data-name="Path 4775" d="M984.14,194.625a4.82,4.82,0,0,1,2.639-4.333c2.809-1.444,3.647-.09,3.726.52C990.653,191.978,986.768,192.513,984.14,194.625Z" transform="translate(-628.812 -121.173)" fill="#3d2a2b"/>
        <path id="Path_4776" data-name="Path 4776" d="M1137.608,889.863l-13.948,7.9h22.057l-3.138-9.189Z" transform="translate(-717.958 -567.746)" fill="#232323"/>
        <path id="Path_4777" data-name="Path 4777" d="M1200.558,861.386l-10.868,16.54,22.057-9.893-7.95-10.5Z" transform="translate(-760.148 -547.913)" fill="#232323"/>
        <path id="Path_4778" data-name="Path 4778" d="M1024,222.981c.079-.4,4.9-3.249,7.582-5.611a4.044,4.044,0,0,1-.747,5.6C1027.845,225.728,1024,222.981,1024,222.981Z" transform="translate(-654.281 -138.885)" fill="#fff"/>
        <path id="Path_4779" data-name="Path 4779" d="M997.376,205.83c.361,1.347.336,2.527-.051,2.636s-1.007-.906-1.368-2.257-.336-2.527.051-2.632S997.012,204.479,997.376,205.83Z" transform="translate(-636.2 -130.068)" fill="#3d2a2b"/>
        <path id="Path_4780" data-name="Path 4780" d="M1025.651,195.007c.361,1.35.336,2.527-.054,2.636s-1-.906-1.361-2.257-.339-2.527.05-2.628S1025.29,193.657,1025.651,195.007Z" transform="translate(-654.267 -123.155)" fill="#3d2a2b"/>
        <path id="Path_4781" data-name="Path 4781" d="M1007.779,210.4h-.079a.264.264,0,0,1-.162-.181l-2.347-11.045a.244.244,0,0,1,.477-.1l2.26,10.626a8.684,8.684,0,0,0,2.166-2.91.245.245,0,0,1,.307-.155.253.253,0,0,1,.155.31,10.094,10.094,0,0,1-2.628,3.408A.238.238,0,0,1,1007.779,210.4Z" transform="translate(-642.259 -127.075)" fill="#3d2a2b"/>
        <path id="Path_4782" data-name="Path 4782" d="M1132.96,507.14c-.148.885-11.554,57.382-13.76,68.34-.13-.173-.267-.361-.39-.524h0c2.369-11.727,13.525-67.026,13.669-67.878a.253.253,0,0,1,.278-.2A.238.238,0,0,1,1132.96,507.14Z" transform="translate(-714.859 -323.864)" fill="#004e90"/>
        <path id="Path_4783" data-name="Path 4783" d="M1215.321,470.234a.829.829,0,0,1-.408-.206c-.563-.5-.415-1.711-.144-2.748-.722,2.04-1.971,5.2-2.852,4.972-1.166-.289.3-5.567.722-6.983-.567,1.733-3.2,9.532-4.607,9.254-1.621-.329,1.783-9.893,1.783-10.38s-2.108,7.943-3.809,6.976,2.527-11.843,2.842-12.33-4.221,4.38-5.517,2.6,5.03-7.459,5.517-7.784l6.86,2.293,2.856.95C1219.054,461.384,1217.1,470.631,1215.321,470.234Z" transform="translate(-768.752 -289.824)" fill="#f3b6ab"/>
        <path id="Path_4784" data-name="Path 4784" d="M1236.128,474.291a.826.826,0,0,1-.408-.206,26.928,26.928,0,0,0,.8-14.135l2.856.95C1239.861,465.442,1237.911,474.688,1236.128,474.291Z" transform="translate(-789.559 -293.881)" fill="#f4948e"/>
        <path id="Path_4785" data-name="Path 4785" d="M790.994,594.395l-.054-.5L788.6,573.475h0c-.332-.155-8.8-4.13-17.06-7.81-4.138-1.849-8.218-3.611-11.193-4.791-1.17-.466-2.257-.9-3.275-1.318l-.054-.029a27.812,27.812,0,0,1-5.326-2.744c-3.415-2.394-5.358-5.827-6.1-13-1.228-11.882-6.138-54.483-7.676-60.625-1.444-5.777-1.906-13.088-8.871-12.955l-1.379.108c-5.181.722-7.983,2.22-6.138,20.58,1.145,11.417,6.741,48.952,11.24,76.327.029.184.058.361.09.549,2.7,16.417,4.99,29.054,5.647,29.967,1.762,2.455,55.711,24.678,55.711,24.678Z" transform="translate(-460.652 -300.433)" fill="#d9e8e8"/>
        <path id="Path_4786" data-name="Path 4786" d="M923.85,880.9l2.874,21.912h5.033l1.224-22.306Z" transform="translate(-590.29 -562.596)" fill="#a1d1ce"/>
        <path id="Path_4787" data-name="Path 4787" d="M1004.39,734.91h0c-.422.061-26.454,3.741-43.2,4.806l-.484.025c-16.865,1.033-52.353,2.867-52.353,2.867l2.343,20.421.054.5,3.213,28.029,86.841-3.777,2.116-31,.029-.469Z" transform="translate(-580.387 -469.566)" fill="#c1dbda"/>
        <path id="Path_4788" data-name="Path 4788" d="M904.083,758.887l-.029.469-92.17,6.752h-.025a.243.243,0,0,1-.1,0L753.74,739.5c-.032-.181-.061-.361-.09-.549l58.18,26.678.076.036Z" transform="translate(-481.542 -472.147)" fill="#319b91"/>
        <path id="Path_4789" data-name="Path 4789" d="M1138.61,881.972l3.34,21.54h5.026l.621-21.912Z" transform="translate(-727.511 -563.293)" fill="#a1d1ce"/>
        <path id="Path_4790" data-name="Path 4790" d="M880.842,543.2c-14.854-5.055-51.3-13.175-53.736-16.247s-13.792-72.5-13.792-72.5l-69.954,5.676c6.965-.137,7.416,7.171,8.867,12.955,1.545,6.138,6.445,48.742,7.672,60.625.744,7.185,2.69,10.619,6.1,13,1.166.693,3.029,1.639,5.318,2.744,1.033.43,2.137.867,3.329,1.34,2.971,1.17,7.051,2.943,11.193,4.791,8.42,3.755,17.074,7.82,17.074,7.82s17.407-.917,52.353-2.867c16.868-1.025,43.687-4.831,43.687-4.831C899.162,552.945,895.692,548.258,880.842,543.2Z" transform="translate(-474.967 -290.373)" fill="#c1dbda"/>
        <path id="Path_4791" data-name="Path 4791" d="M779.57,829.35c.242.119,4.694,31.087,4.694,31.087h4.849V833.791Z" transform="translate(-498.103 -529.908)" fill="#a1d1ce"/>
        <path id="Path_4792" data-name="Path 4792" d="M1039.135,894.052h-7.68s-9.026-9.94-12.355-16.092h.282a70.631,70.631,0,0,0,8.784,1.419,71.526,71.526,0,0,0,10.47.224A68.041,68.041,0,0,0,1039.135,894.052Z" transform="translate(-651.15 -560.967)" fill="#f3b6ab"/>
        <path id="Path_4793" data-name="Path 4793" d="M1130.775,884.641h-7.68s-6.582-7.077-7.7-16.475c2.119-.469,4.116-.989,5.965-1.553a46.758,46.758,0,0,0,8.517-3.383C1130.027,868.7,1130.775,884.641,1130.775,884.641Z" transform="translate(-712.674 -551.555)" fill="#f3b6ab"/>
        <path id="Path_4794" data-name="Path 4794" d="M1033.322,894.052h-1.867s-9.026-9.94-12.355-16.092h.282a70.631,70.631,0,0,0,8.784,1.419C1029.74,884.362,1031.946,890.377,1033.322,894.052Z" transform="translate(-651.15 -560.967)" fill="#f4948e"/>
        <path id="Path_4795" data-name="Path 4795" d="M1125.191,890.627h-2.166s-6.582-7.077-7.7-16.475c2.119-.469,4.116-.989,5.965-1.553C1121.682,877.044,1123.2,885.634,1125.191,890.627Z" transform="translate(-712.63 -557.542)" fill="#f4948e"/>
        <path id="Path_4796" data-name="Path 4796" d="M1109.307,651.537a1.534,1.534,0,0,1-1.444-1.018l-13.976-38.828a1.538,1.538,0,0,1,2.888-1.043l13.973,38.828a1.538,1.538,0,0,1-.928,1.968A1.48,1.48,0,0,1,1109.307,651.537Z" transform="translate(-698.893 -389.572)" fill="#ffefca"/>
        <path id="Path_4797" data-name="Path 4797" d="M937.232,688.783c-.722,1.419-2.491,2.863-5.055,4.242a58.655,58.655,0,0,1-14.482,4.936c-2.5.552-5.159,1.033-7.965,1.419-2.011.285-3.993.455-5.918.552a83.288,83.288,0,0,1-12.713-.361,76.344,76.344,0,0,1-7.882-1.22c-.534-.119-.83-.191-.83-.191s-8.756-14.749-12.6-29.188a86.047,86.047,0,0,1-2.888-19.825,52.311,52.311,0,0,1,.116-5.669s-17.511-.307-29.415-2.766-19.739-1.845-25.577-9.525S806,617.045,806,617.045c3.185-5.972,8.431-10.3,15.576-13.55a74.283,74.283,0,0,1,12.886-4.3c.134-.04.278-.069.415-.1,14.135-3.419,38.918-1.906,39.33-1.906A202.448,202.448,0,0,0,895.3,602.6a90.929,90.929,0,0,1,16.569,5,39.364,39.364,0,0,1,10.77,6.521c2.982,2.614,4,8.477,4.733,15.525.516,4.925.9,10.427,1.722,15.814C931.087,658.519,937.232,688.783,937.232,688.783Z" transform="translate(-514.991 -381.351)" fill="#3d2a2b"/>
        <path id="Path_4798" data-name="Path 4798" d="M1045.01,746.833c-.722,1.419-2.491,2.863-5.055,4.242a58.666,58.666,0,0,1-14.482,4.936c-2.5.552-5.159,1.033-7.965,1.419-2.011.285-3.993.455-5.918.552a83.3,83.3,0,0,1-12.713-.361A76.338,76.338,0,0,1,991,756.4c-.534-.119-.83-.191-.83-.191s-8.756-14.749-12.6-29.187A86.047,86.047,0,0,1,974.68,707.2c39.492,2.957,51.075-7.712,60.455-19.5.516,4.925.9,10.427,1.722,15.814C1038.865,716.57,1045.01,746.833,1045.01,746.833Z" transform="translate(-622.768 -439.401)" fill="#2b1c1e"/>
        <path id="Path_4799" data-name="Path 4799" d="M962.22,607.607l-48.02,8.687-28.668-14.5-.722-2.6c.134-.04.278-.069.415-.1,14.135-3.419,38.918-1.906,39.33-1.906a202.442,202.442,0,0,0,21.093,5.416A92.121,92.121,0,0,1,962.22,607.607Z" transform="translate(-565.346 -381.351)" fill="#2b1c1e"/>
        <path id="Path_4800" data-name="Path 4800" d="M891.1,711.329a76.35,76.35,0,0,1-7.882-1.22c-.534-.119-.83-.191-.83-.191s-8.756-14.749-12.6-29.188a79.626,79.626,0,0,1-2.776-25.487s-17.511-.307-29.415-2.766-19.739-1.845-25.577-9.525S806,628.81,806,628.81c3.185-5.972,8.431-10.3,15.576-13.55a64.193,64.193,0,0,0,11.142,19.764c5.322,6.351,35.492,13.475,49.692,7.355C882.392,642.379,874.329,684.64,891.1,711.329Z" transform="translate(-514.991 -393.116)" fill="#2b1c1e"/>
        <path id="Path_4801" data-name="Path 4801" d="M843.716,444.876s7.582,15.146,7.174,15.146-25.194-1.52-39.33,1.906a74.212,74.212,0,0,0-13.294,4.4h0c-7.138,3.249-12.391,7.582-15.576,13.554,0,0-1.228-15.052.307-26.216,0,0-1.159-11.684-2.007-18.262a21.139,21.139,0,0,0-.758-4.376c-.307,0-3.708-.74-6.6-1.383-2.206-.487-4.105-.917-4.105-.917s.567-13.467,5.99-25.144a23.849,23.849,0,0,1,2.939-4.694c4.264-5.362,11.12-9.915,19.017-12.911a58.317,58.317,0,0,1,18.739-3.788,41.912,41.912,0,0,1,19.3,4.17c7.629,3.639,13.182,8.911,15.688,12.727,4.3,6.557,7.882,21.154,7.882,21.154s-6.138.3-11.644,1.177c-1.274.2-2.527.437-3.611.722,0,0,2.462,4.408,2.462,7.268a12.064,12.064,0,0,1-1.61,5.777,26.46,26.46,0,0,1-3,4.369l.162.433Z" transform="translate(-491.688 -244.192)" fill="#9bc7ed"/>
        <path id="Path_4802" data-name="Path 4802" d="M778.469,428.45c-1.3,8.759-2.527,24.082-3.145,28.021l-1.679,2.74c-2.206-.487-4.105-.917-4.105-.917s.567-13.467,5.99-25.144a23.848,23.848,0,0,1,2.939-4.7Z" transform="translate(-491.695 -273.754)" fill="#0a375d" opacity="0.47"/>
        <path id="Path_4803" data-name="Path 4803" d="M836.786,485.7a23,23,0,0,1-15.421-.072s-5.845,4.986-5.6,12.211c.18,5.163,1.856,11.5,2.795,14.691-7.138,3.249-12.391,7.582-15.576,13.554,0,0-1.228-15.052.307-26.216,0,0-1.159-11.684-2.007-18.262,1.491-2.21,2.592-3.481,2.748-3.43.462.155,6.7-5.084,6.7-5.084s-.163-8.618-.592-12.832c-.361-3.611-.473-5.347-.5-5.777.123,1.058,1.953,7,4.112,16.154C816.007,480.165,825.156,486.924,836.786,485.7Z" transform="translate(-511.975 -290.386)" fill="#0a375d" opacity="0.47"/>
        <path id="Path_4804" data-name="Path 4804" d="M957.317,472.485s2.462,4.408,2.462,7.268a12.064,12.064,0,0,1-1.61,5.777,26.456,26.456,0,0,1-3,4.369l.162.433c-3.134.751-8.185-.466-8.185-.466,10.247-1.946,11.68-11.774,10.167-16.284s-4.5-12.583-4.5-12.583c3.921,2.4,6.882,7.629,8.117,10.77C959.661,471.98,958.426,472.214,957.317,472.485Z" transform="translate(-605.178 -294.552)" fill="#0a375d" opacity="0.47"/>
        <path id="Path_4805" data-name="Path 4805" d="M884.981,386.356c-3.249,3.134-9.16,6.889-18.825,6.889-10.066,0-16.063-4.076-19.215-7.275a58.357,58.357,0,0,1,18.742-3.784A41.849,41.849,0,0,1,884.981,386.356Z" transform="translate(-541.149 -244.186)" fill="#0a375d" opacity="0.47"/>
        <path id="Path_4806" data-name="Path 4806" d="M884.049,314.287c-.115.48-.448,1.664-1.318,4.188-1.231,3.531-2.614,2.491-2.614,2.491s-3.376,8.719-7.221,10.593a10.059,10.059,0,0,1-3.376.874,21.111,21.111,0,0,1-13.261-3.379c-.134-.09-.274-.181-.412-.278l-.238-.184a13.984,13.984,0,0,1-5.055-8.3,11.476,11.476,0,0,1-.22-1.5c-4.145,0-5.055-8.452-4.452-9.387a14,14,0,0,0,2.455,1.845c.39.152,1.173.484,1.863.78l1.285.552c.722-3.972.621-6.286,2.823-8.8a1.5,1.5,0,0,1,.531-.415c.484-.238.946-.484,1.368-.722h0a14.1,14.1,0,0,0,5.488-5.185l.029.029c.278.231,2.459,1.946,7.033,1.285,4.918-.722,5.737-3.484,5.737-3.484s.722-.513,3.585,1.025,2.863,8.395,2.863,8.395l-.65,1.957c-.126.39-.282.863-.473,1.423-1.123,3.379-.2,7.066,2.253,6.86A4.618,4.618,0,0,0,884.049,314.287Z" transform="translate(-540.365 -188.616)" fill="#f3b6ab"/>
        <path id="Path_4807" data-name="Path 4807" d="M855.609,341.753a13.983,13.983,0,0,1-5.055-8.3,11.476,11.476,0,0,1-.22-1.5c-4.145,0-5.055-8.452-4.452-9.387a14,14,0,0,0,2.455,1.845c.39.152,1.173.484,1.863.78l1.285.552c.722-3.972.621-6.286,2.823-8.8a1.5,1.5,0,0,1,.531-.415c.484-.238.946-.484,1.368-.722C854.5,323.429,853.5,334.228,855.609,341.753Z" transform="translate(-540.365 -201.777)" fill="#f4948e"/>
        <path id="Path_4808" data-name="Path 4808" d="M1026.61,526.88a4.5,4.5,0,0,1-1.025.979c-2.3,1.534-.773-2.166-.773-2.166s-.307-3.531-2.3-4.611c0,0-.617,2.639-2.166,3.318-1.145.505-1.776-2.166-2.022-3.567-.087-.484-.126-.823-.126-.823s-.78.238-2.166.509a45.293,45.293,0,0,1-14.345.408c-9.442-1.224-18.2-7.893-21.273-11.16a22.325,22.325,0,0,1-4.268-7.286,12.1,12.1,0,0,0,1.61-5.777c0-2.863-2.466-7.268-2.466-7.268,1.181-.282,2.491-.527,3.834-.744,5.437-.848,11.427-1.141,11.427-1.141s2.166,10.171,2.459,11.4c0,0,2.917-.614,10.752,4.3a71.983,71.983,0,0,1,11.828,8.929s9.387,1.6,11.521,5.481A8.672,8.672,0,0,1,1026.61,526.88Z" transform="translate(-623.158 -311.516)" fill="#f3b6ab"/>
        <path id="Path_4809" data-name="Path 4809" d="M1014.988,522.429l1.083.148a45.3,45.3,0,0,1-14.345.408c-9.442-1.224-18.2-7.893-21.273-11.16a22.326,22.326,0,0,1-4.268-7.286,12.1,12.1,0,0,0,1.61-5.777c0-2.863-2.466-7.268-2.466-7.268,1.181-.282,2.491-.527,3.834-.744.253,4.694.7,11.705,5.744,17.533C990.585,514.847,1008.789,521.718,1014.988,522.429Z" transform="translate(-623.183 -313.561)" fill="#f4948e"/>
        <path id="Path_4810" data-name="Path 4810" d="M1102.766,584.056a4.494,4.494,0,0,1-1.025.978c-2.3,1.535-.773-2.166-.773-2.166s-.307-3.531-2.3-4.611c0,0-.617,2.639-2.166,3.318-1.145.505-1.777-2.166-2.022-3.567l2.166.292s1.083-2.018,2.842-.957A7.656,7.656,0,0,1,1102.766,584.056Z" transform="translate(-699.314 -368.692)" fill="#f4948e"/>
        <path id="Path_4811" data-name="Path 4811" d="M1053.294,922.53h7.68l12.276,6.763h-19.97Z" transform="translate(-672.989 -589.445)" fill="#0a375d"/>
        <path id="Path_4812" data-name="Path 4812" d="M1136.7,922.53h7.687l12.276,6.763h-19.97Z" transform="translate(-726.284 -589.445)" fill="#0a375d"/>
        <path id="Path_4813" data-name="Path 4813" d="M879.955,324.937c-.307-.614,2.2-2.249,4.889-2.047s4.224,1.332,3.715,2.564-1.527.051-4.268-.412C880.93,324.471,879.955,324.937,879.955,324.937Z" transform="translate(-562.227 -206.296)" fill="#999"/>
        <path id="Path_4814" data-name="Path 4814" d="M924.361,329.612c-.906.123-.1-2.56,2.358-2.661a4.555,4.555,0,0,1,3.639,1.329v1.332S928.777,329,924.361,329.612Z" transform="translate(-590.386 -208.898)" fill="#999"/>
        <path id="Path_4815" data-name="Path 4815" d="M886.83,376l10.037,1.025s-1.762,4.3-5.694,3.791S886.83,376,886.83,376Z" transform="translate(-566.637 -240.241)" fill="#fff"/>
        <path id="Path_4816" data-name="Path 4816" d="M883.446,287.746a8.113,8.113,0,0,1-3.34,5.4,4.693,4.693,0,0,1-1.986.646c-2.455.206-3.379-3.481-2.253-6.86l1.13-3.383s0-6.86-2.87-8.4-3.582-1.025-3.582-1.025-.823,2.762-5.741,3.481-7.066-1.314-7.066-1.314-1.632,3.361-6.86,5.925a1.555,1.555,0,0,0-.534.412c-.549.585-1.419,1.953-2.134,5.116-.263,1.188-.495,2.455-.693,3.686h0s-2.379-1.029-3.145-1.336a14.213,14.213,0,0,1-2.459-1.845c-.614.921.307,9.369,4.455,9.369a3.276,3.276,0,0,0,.036.4c.036.26.087.639.184,1.1,0,0-7.691.6-6.156-12.615,0,0-3.361-6.138,2.975-11.554,0,0-.585-5.055,2.957-5.777a6.257,6.257,0,0,1,3.076.256s-.3-3.2,1.69-4.047c3.784-1.618,5.481.921,5.481.921s1.982-4.206,5.481-4.206c4.571,0,4.661,3.271,4.661,3.271s4.055-4.91,9.77-1.693c4.242,2.39,2.639,7.391,2.639,7.391a5.742,5.742,0,0,1,1.036.881,8.485,8.485,0,0,1,2.235,4.333c.722,3.668-.509,5.163-.509,5.163A7.5,7.5,0,0,1,883.446,287.746Z" transform="translate(-536.423 -167.465)" fill="#999"/>
        <path id="Path_4817" data-name="Path 4817" d="M970.36,604.823l48.847-8.756,3.506-9.218-52.353,8.557Z" transform="translate(-620.008 -374.963)" fill="#dda312"/>
        <path id="Path_4818" data-name="Path 4818" d="M921.1,569.581l52.353-8.557L943.684,546.43l-50.414,8.149Z" transform="translate(-570.752 -349.137)" fill="#ffefca"/>
        <path id="Path_4819" data-name="Path 4819" d="M908.073,673.364a1.5,1.5,0,0,1-.639-.141,1.531,1.531,0,0,1-.755-2.036L925.685,629.8a1.538,1.538,0,0,1,2.791,1.285l-19.006,41.38A1.535,1.535,0,0,1,908.073,673.364Z" transform="translate(-579.229 -401.878)" fill="#ffefca"/>
        <path id="Path_4820" data-name="Path 4820" d="M833.113,640.6a1.556,1.556,0,0,1-.686-.162,1.534,1.534,0,0,1-.686-2.062l22.385-44.929a1.536,1.536,0,1,1,2.748,1.372l-22.385,44.93A1.549,1.549,0,0,1,833.113,640.6Z" transform="translate(-531.334 -378.635)" fill="#ffefca"/>
        <path id="Path_4821" data-name="Path 4821" d="M893.27,569v10.055L921.1,593.418V584Z" transform="translate(-570.752 -363.558)" fill="#ffc625"/>
        <path id="Path_4822" data-name="Path 4822" d="M820.883,535.214a1.69,1.69,0,0,1-1.163,1.015,4.631,4.631,0,0,1-1.6.184.37.37,0,0,0,.051.126c.448,1.4-1.538,2.036-5,1.137-3.564-.924-6.716-6.448-6.716-6.448s-.628.458-12.608-.682-20.58-5.618-23.963-10.853-1.383-17.5-1.383-17.5a58.182,58.182,0,0,1,5.918-2.527c9.25-3.347,14.821-2.383,14.821-2.383.614,4.611-.617,13.059-.617,13.059,7.528,3.878,19.2,10.471,19.2,10.471,6.759-1.805,11.521-2.029,12.059,0s-6.716,2.282-6.716,2.282a7.346,7.346,0,0,0,.953,3.531,7.244,7.244,0,0,0,1.376,1.989,9.334,9.334,0,0,0,3.538,1.939c2.022.74,1.545,1.989,1.13,2.614a2.323,2.323,0,0,1-.281.361,1.233,1.233,0,0,1,.3.1,1.177,1.177,0,0,1,.7,1.585Z" transform="translate(-490.656 -317.652)" fill="#f3b6ab"/>
        <path id="Path_4823" data-name="Path 4823" d="M899.082,338.113c-.195,1.408-.668,2.506-1.058,2.452s-.545-1.242-.361-2.647.668-2.506,1.058-2.452S899.277,336.709,899.082,338.113Z" transform="translate(-573.509 -214.342)" fill="#3d2a2b"/>
        <path id="Path_4824" data-name="Path 4824" d="M932.139,342.457c-.2,1.4-.672,2.5-1.062,2.448s-.542-1.238-.361-2.647.672-2.5,1.061-2.452S932.33,341.049,932.139,342.457Z" transform="translate(-594.629 -217.115)" fill="#3d2a2b"/>
        <path id="Path_4825" data-name="Path 4825" d="M906.161,349.979h-.047c-.155-.029-3.787-.722-4.694-1.932a.238.238,0,0,1,.043-.325.231.231,0,0,1,.325.047c.654.856,3.25,1.52,4.333,1.733,1.5-1.347,1.831-8.427,1.831-10.142a.231.231,0,1,1,.459,0c0,.09-.087,9.077-2.087,10.575A.224.224,0,0,1,906.161,349.979Z" transform="translate(-575.93 -216.665)" fill="#3d2a2b"/>
        <path id="Path_4826" data-name="Path 4826" d="M851.862,355.177c-1.1-.17-1.289,2.563-.408,2.888S853.173,355.379,851.862,355.177Z" transform="translate(-543.677 -226.932)" fill="#4aaea7"/>
        <path id="Path_4827" data-name="Path 4827" d="M943.517,363.84c-1.235-.3-2.231,2.39-1.083,2.932S944.748,364.136,943.517,363.84Z" transform="translate(-601.841 -232.457)" fill="#4aaea7"/>
        <path id="Path_4828" data-name="Path 4828" d="M947.829,572.5a.18.18,0,0,1-.1-.029L931.3,564.189a.231.231,0,0,1,.072-.433l35.484-5.369a.245.245,0,0,1,.133.022l16.608,7.784a.231.231,0,0,1-.061.437L947.865,572.5Zm-15.677-8.4,15.717,7.943,34.874-5.748-15.886-7.441Z" transform="translate(-594.971 -356.776)" fill="#3d2a2b"/>
        <path id="Path_4829" data-name="Path 4829" d="M886.578,397.463c-1.74,1.332-4.806,1.34-6.994.52a4.785,4.785,0,0,1-2.119-1.4c-1.318-1.719-2.91-6.568-2.61-7.622a19.618,19.618,0,0,0,5.6,2.585,20.427,20.427,0,0,0,7.661.794C888.29,393.668,888.333,396.123,886.578,397.463Z" transform="translate(-558.962 -248.522)" fill="#f3b6ab"/>
        <path id="Path_4830" data-name="Path 4830" d="M880.442,391.577c-.419,2.123-.682,4.528-.877,6.456a4.784,4.784,0,0,1-2.119-1.4c-1.318-1.719-2.91-6.568-2.61-7.622a19.618,19.618,0,0,0,5.607,2.567Z" transform="translate(-558.949 -248.554)" fill="#f4948e"/>
        <path id="Path_4831" data-name="Path 4831" d="M820.9,539.7c-.462,1.379-2.766,1.2-2.766,1.2.614,1.495-1.383,2.188-4.946,1.267s-6.719-6.452-6.719-6.452-.625.459-12.608-.682-20.58-5.618-23.96-10.832-1.383-17.5-1.383-17.5a57.331,57.331,0,0,1,5.914-2.527c-1.48,7.387-2.007,14.4,1.3,17.8,3.686,3.78,8.257,8.254,18.724,10.55s13.225,2.527,13.225,2.527,3.351,5.975,5.055,5.777c0,0,1.007-5.9,2.773-7.723a9.268,9.268,0,0,0,3.535,1.939c2.766,1.011.852,2.982.852,2.982A1.255,1.255,0,0,1,820.9,539.7Z" transform="translate(-490.664 -322.135)" fill="#f4948e"/>
        <path id="Path_4832" data-name="Path 4832" d="M895.751,588.207a4.99,4.99,0,0,1-1.148.126c-3.878,0-7.55-4-8.384-5.416a.22.22,0,0,1,.079-.31.228.228,0,0,1,.318.076c.845,1.419,5.109,5.993,9.12,5.055a2.319,2.319,0,0,1-.282.361A1.229,1.229,0,0,1,895.751,588.207Z" transform="translate(-566.225 -372.23)" fill="#3d2a2b"/>
        <path id="Path_4833" data-name="Path 4833" d="M894.243,598.878c-4.181,0-7.853-3.632-8.015-3.795a.231.231,0,1,1,.325-.325c.043.04,4.174,4.123,8.459,3.611a.224.224,0,0,1,.26.2.227.227,0,0,1-.2.253A6.37,6.37,0,0,1,894.243,598.878Z" transform="translate(-566.197 -379.961)" fill="#3d2a2b"/>
        <path id="Path_4834" data-name="Path 4834" d="M909.23,304.685l-.65,1.957c-1.838-.83-1.831-5.181-1.7-6.564.155-1.636-3.073-3.993-3.073-3.993s-1.538,2.715-5.91,3.787c-4.138,1.022-7.535-2.069-7.9-2.408.278.231,2.459,1.946,7.033,1.285,4.917-.722,5.737-3.484,5.737-3.484s.722-.513,3.585,1.025S909.23,304.685,909.23,304.685Z" transform="translate(-568.662 -188.604)" fill="#f4948e"/>
        <path id="Path_4835" data-name="Path 4835" d="M892.2,271.95c-3.495,4.1-10.926.246-10.926.246l-3.611,2.755c-4.755,2.95-9.026-1.083-9.026-1.083a6.821,6.821,0,0,1-3.1,3.82c-2.459,1.386-3.167-2.726-3.167-2.726-2.863-.1-4.333-2.563-3.972-5.777a6.256,6.256,0,0,1,3.076.256s-.3-3.2,1.69-4.047c3.784-1.618,5.481.921,5.481.921s1.964-4.214,5.463-4.214c4.571,0,4.661,3.271,4.661,3.271s4.055-4.91,9.77-1.693c4.242,2.39,2.639,7.391,2.639,7.391A5.748,5.748,0,0,1,892.2,271.95Z" transform="translate(-548.434 -167.465)" fill="#999"/>
        <path id="Path_4836" data-name="Path 4836" d="M739.53,470.288l1.383-.108A11.955,11.955,0,0,0,739.53,470.288Z" transform="translate(-472.52 -300.417)" fill="#fcd0e0"/>
        <path id="Path_4837" data-name="Path 4837" d="M854.592,346.556a.227.227,0,0,1-.228-.224,7.117,7.117,0,0,0-1.805-4.062.224.224,0,0,1,0-.321.227.227,0,0,1,.325,0,7.542,7.542,0,0,1,1.917,4.365.224.224,0,0,1-.224.235Z" transform="translate(-544.696 -218.441)" fill="#3d2a2b"/>
        <path id="Path_4838" data-name="Path 4838" d="M854.288,349.412h-1.527a.231.231,0,1,1,0-.462h1.527a.231.231,0,1,1,0,.462Z" transform="translate(-544.721 -222.958)" fill="#3d2a2b"/>
        <path id="Path_4839" data-name="Path 4839" d="M993.39,538.68l2.459,16.688a14.355,14.355,0,0,0,6.5,0l1.787-16.688S998.206,540.124,993.39,538.68Z" transform="translate(-634.723 -344.185)" fill="#319b91"/>
        <path id="Path_4840" data-name="Path 4840" d="M993.39,537.712s6.351,1.332,10.752,0C1004.142,537.712,998.2,536.48,993.39,537.712Z" transform="translate(-634.723 -343.217)" fill="#319b91"/>
        <path id="Path_4841" data-name="Path 4841" d="M968.2,571.282c-2.993-.119-7.286.773-6.831,3.535s5.6,2.823,9.084,1.744S973.318,571.484,968.2,571.282Z" transform="translate(-614.243 -365.009)" fill="#9f761c"/>
        <path id="Path_4842" data-name="Path 4842" d="M1023.17,566.052a3.762,3.762,0,1,1,3.759,3.762A3.762,3.762,0,0,1,1023.17,566.052Z" transform="translate(-653.75 -359.271)" fill="#87154e"/>
      </g>
    </g>
  </g>
</svg>
