<svg xmlns="http://www.w3.org/2000/svg" xmlns:xlink="http://www.w3.org/1999/xlink" width="60" height="68.918" viewBox="0 0 60 68.918">
  <defs>
    <clipPath id="clip-path">
      <ellipse id="Ellipse_17" data-name="Ellipse 17" cx="30" cy="30.743" rx="30" ry="30.743" fill="none"/>
    </clipPath>
  </defs>
  <g id="high" transform="translate(-43.618 -15.791)">
    <g id="highfever" transform="translate(43.618 15.791)">
      <ellipse id="Ellipse_12" data-name="Ellipse 12" cx="30" cy="30.743" rx="30" ry="30.743" transform="translate(0 7.431)" fill="#d1454b"/>
      <g id="Group_211" data-name="Group 211" transform="translate(0 7.431)">
        <g id="Group_210" data-name="Group 210" clip-path="url(#clip-path)">
          <g id="Group_209" data-name="Group 209" transform="translate(-3.852 -7.431)">
            <path id="Path_200" data-name="Path 200" d="M233.962,316.619a.146.146,0,0,1-.092-.032,4.329,4.329,0,0,1-1.081-1.493,6.346,6.346,0,0,1-.185-4.52,30.944,30.944,0,0,1,1.186-3.323,12.256,12.256,0,0,0,1.175-5.265.146.146,0,0,1,.153-.152.153.153,0,0,1,.148.157,12.662,12.662,0,0,1-1.2,5.379,30.624,30.624,0,0,0-1.175,3.292c-1.105,3.819,1.14,5.664,1.163,5.682a.157.157,0,0,1,.027.216A.149.149,0,0,1,233.962,316.619Z" transform="translate(-210.218 -289.183)" fill="#2f1e3a"/>
            <ellipse id="Ellipse_13" data-name="Ellipse 13" cx="2.969" cy="3.042" rx="2.969" ry="3.042" transform="translate(30.136)" fill="#2f1e3a"/>
            <path id="Path_201" data-name="Path 201" d="M236.5,301.786s.913,1.819,4.484,2.38,6.331-.826,9.1.128,6.7-.472,7.462-1.673.29-14.287-1.925-16.429-13.6-3.7-16-1.07S234.9,300.35,236.5,301.786Z" transform="translate(-213.041 -275.437)" fill="#2f1e3a"/>
            <ellipse id="Ellipse_14" data-name="Ellipse 14" cx="9.784" cy="10.026" rx="9.784" ry="10.026" transform="translate(24.18 5.359)" fill="#2f1e3a"/>
            <path id="Path_202" data-name="Path 202" d="M248.432,291.6s.684,12.157,8.723,12.486,7.633-16.812,4.691-18.371S246.788,284.755,248.432,291.6Z" transform="translate(-222.463 -276.395)" fill="#f08d71"/>
            <path id="Path_203" data-name="Path 203" d="M281.872,322.379s1.62,3.708,1.231,3.965a2.293,2.293,0,0,1-1.862-.026C280.923,326.051,281.235,321.976,281.872,322.379Z" transform="translate(-247.6 -304.772)" fill="#d1454b"/>
            <ellipse id="Ellipse_15" data-name="Ellipse 15" cx="0.754" cy="0.773" rx="0.754" ry="0.773" transform="translate(30.388 18.127)" fill="#2f1e3a"/>
            <ellipse id="Ellipse_16" data-name="Ellipse 16" cx="0.754" cy="0.773" rx="0.754" ry="0.773" transform="translate(36.854 17.605)" fill="#2f1e3a"/>
            <path id="Path_204" data-name="Path 204" d="M249.257,284.817s-2.845,1.5-3.33,4.187-.044,9.54-3.1,9.3C242.827,298.3,236.608,284.879,249.257,284.817Z" transform="translate(-217.118 -276.255)" fill="#2f1e3a"/>
            <path id="Path_205" data-name="Path 205" d="M281.676,282.747c-.257.2,2.972.111,4.871,2.36s2.47,7.969,2.758,8.068,1.261-7.136-.813-9.252S283.137,281.621,281.676,282.747Z" transform="translate(-248.018 -274.164)" fill="#2f1e3a"/>
            <path id="Path_206" data-name="Path 206" d="M310.217,323.352s.7-3.065,2.064-2.013.226,4.264-1.092,4.585S309.522,324.94,310.217,323.352Z" transform="translate(-269.611 -303.836)" fill="#f08d71"/>
            <path id="Path_207" data-name="Path 207" d="M248.6,322.478s-.616-3.083-2.009-2.07-.34,4.256.969,4.614S249.255,324.085,248.6,322.478Z" transform="translate(-220.667 -303.141)" fill="#f08d71"/>
            <path id="Path_208" data-name="Path 208" d="M295.882,313.586a1.874,1.874,0,0,1,2.294.335c.769.969-.987.184-1.633.309S295.042,314.3,295.882,313.586Z" transform="translate(-258.637 -297.915)" fill="#2f1e3a"/>
            <path id="Path_209" data-name="Path 209" d="M264.963,314.916a1.876,1.876,0,0,0-2.275.455c-.72,1.008.995.132,1.646.224S265.837,315.587,264.963,314.916Z" transform="translate(-233.36 -298.966)" fill="#2f1e3a"/>
            <path id="Path_210" data-name="Path 210" d="M282.306,344.14s-.926-1.434-1.928-1.344-1.77,1.412-1.905,1.468A5.1,5.1,0,0,0,282.306,344.14Z" transform="translate(-245.578 -320.302)" fill="#2f1e3a"/>
            <path id="Path_211" data-name="Path 211" d="M262.287,324.825h-.036a2.561,2.561,0,0,1-1.833-.808,2.691,2.691,0,0,1-.738-1.9,2.65,2.65,0,0,1,2.606-2.635h.036a2.673,2.673,0,0,1-.035,5.343Zm0-5.035a2.344,2.344,0,0,0-2.305,2.331,2.379,2.379,0,0,0,.653,1.681,2.266,2.266,0,0,0,1.621.715h.032a2.365,2.365,0,0,0,.031-4.727Z" transform="translate(-231.19 -302.591)" fill="#fffbf4"/>
            <path id="Path_212" data-name="Path 212" d="M290.067,322.6h-.036a2.673,2.673,0,0,1,.035-5.343h.036a2.561,2.561,0,0,1,1.833.808,2.689,2.689,0,0,1,.738,1.9A2.65,2.65,0,0,1,290.067,322.6Zm0-5.035a2.365,2.365,0,0,0-.031,4.727h.032a2.343,2.343,0,0,0,2.305-2.331,2.379,2.379,0,0,0-.653-1.681,2.266,2.266,0,0,0-1.621-.715Z" transform="translate(-252.457 -300.902)" fill="#fffbf4"/>
            <path id="Path_213" data-name="Path 213" d="M256.955,326.734a.151.151,0,0,1-.052-.009l-.965-.363a.155.155,0,0,1-.089-.2.15.15,0,0,1,.193-.092l.965.363a.156.156,0,0,1,.09.2A.151.151,0,0,1,256.955,326.734Z" transform="translate(-228.25 -307.592)" fill="#fffbf4"/>
            <path id="Path_214" data-name="Path 214" d="M308.1,323.63a.15.15,0,0,1-.143-.108.155.155,0,0,1,.1-.193l1.319-.422a.149.149,0,0,1,.188.1.155.155,0,0,1-.1.193l-1.319.422A.145.145,0,0,1,308.1,323.63Z" transform="translate(-268.147 -305.189)" fill="#fffbf4"/>
            <path id="Path_215" data-name="Path 215" d="M262.624,283.005s0,3.075,1.79,3.631,6.386.31,6.339-.441c-.421-6.785-3.533-6.443-6.132-7.312-4.558-1.522-8.286,6.1-7.728,7.908s4.406.119,5.229-.134S262.489,284.313,262.624,283.005Z" transform="translate(-229.014 -271.595)" fill="#2f1e3a"/>
            <path id="Path_216" data-name="Path 216" d="M261.765,333.28s4.055-2.4,5.835-2.063,4.9.388,5.045,1.042-3.96.359-5.222.485S261.318,334.358,261.765,333.28Z" transform="translate(-232.764 -311.483)" fill="#d1454b" opacity="0.21"/>
            <path id="Path_217" data-name="Path 217" d="M271.049,331.006a.15.15,0,0,1-.139-.1.155.155,0,0,1,.083-.2c.408-.17.483-.3.484-.306a.142.142,0,0,1,.188-.09.161.161,0,0,1,.091.2c-.019.056-.122.258-.651.479A.148.148,0,0,1,271.049,331.006Z" transform="translate(-239.779 -310.814)" fill="#d1454b"/>
            <path id="Path_218" data-name="Path 218" d="M295.576,330.315a1.519,1.519,0,0,1-.647-.2.156.156,0,0,1-.069-.206.149.149,0,0,1,.2-.071c.4.2.544.165.546.165a.144.144,0,0,1,.191.084.161.161,0,0,1-.086.2A.342.342,0,0,1,295.576,330.315Z" transform="translate(-258.111 -310.45)" fill="#d1454b"/>
            <path id="Path_219" data-name="Path 219" d="M280.777,329.289a.154.154,0,0,1-.015-.307l1.615-.169a.151.151,0,0,1,.165.137.153.153,0,0,1-.135.169l-1.615.169Z" transform="translate(-247.226 -309.68)" fill="#fffbf4"/>
            <path id="Path_220" data-name="Path 220" d="M266.314,256.744a.143.143,0,0,1-.066-.016,2.632,2.632,0,0,1-1.536-1.8c-.367-1.712,1.126-3.607,1.19-3.686a.148.148,0,0,1,.212-.022.156.156,0,0,1,.021.217c-.015.018-1.465,1.86-1.128,3.426a2.341,2.341,0,0,0,1.373,1.592.156.156,0,0,1,.07.206A.15.15,0,0,1,266.314,256.744Z" transform="translate(-234.999 -250.701)" fill="#2f1e3a"/>
            <path id="Path_221" data-name="Path 221" d="M285.9,258.721a.149.149,0,0,1-.113-.052.158.158,0,0,1,.014-.218c.017-.016,1.743-1.588,1.662-3.189a2.367,2.367,0,0,0-1.1-1.8.157.157,0,0,1-.036-.215.148.148,0,0,1,.21-.036,2.66,2.66,0,0,1,1.226,2.038c.087,1.75-1.689,3.368-1.765,3.436A.148.148,0,0,1,285.9,258.721Z" transform="translate(-251.145 -252.219)" fill="#2f1e3a"/>
            <path id="Path_222" data-name="Path 222" d="M320.662,314.549a.149.149,0,0,1-.117-.057.157.157,0,0,1,.022-.217,4.718,4.718,0,0,0,1.426-4.39,31.392,31.392,0,0,0-1.018-3.373,22.391,22.391,0,0,1-1.506-6.336.153.153,0,0,1,.146-.159.159.159,0,0,1,.155.15,22.171,22.171,0,0,0,1.49,6.244,31.567,31.567,0,0,1,1.028,3.408,5.036,5.036,0,0,1-1.53,4.7A.148.148,0,0,1,320.662,314.549Z" transform="translate(-276.962 -287.804)" fill="#2f1e3a"/>
            <path id="Path_223" data-name="Path 223" d="M301.738,283.553h-.015a.153.153,0,0,1-.135-.168,8.528,8.528,0,0,0-1.646-6.509,8.966,8.966,0,0,0-5.749-2.852.152.152,0,0,1-.141-.163.15.15,0,0,1,.159-.145,9.292,9.292,0,0,1,5.961,2.96,8.827,8.827,0,0,1,1.717,6.74A.152.152,0,0,1,301.738,283.553Z" transform="translate(-257.504 -267.82)" fill="#2f1e3a"/>
            <path id="Path_224" data-name="Path 224" d="M280.875,348a2.626,2.626,0,0,1,2.838-.154A4.783,4.783,0,0,1,280.875,348Z" transform="translate(-247.416 -323.857)" fill="#d1454b"/>
            <path id="Path_225" data-name="Path 225" d="M283.468,353.11c-.148,0-.275,0-.354,0a.152.152,0,0,1-.148-.157.145.145,0,0,1,.153-.152,8.852,8.852,0,0,0,1.352-.048.15.15,0,0,1,.194.088.155.155,0,0,1-.085.2A5.3,5.3,0,0,1,283.468,353.11Z" transform="translate(-249.017 -327.861)" fill="#d1454b"/>
            <path id="Path_226" data-name="Path 226" d="M251.071,327.344a.146.146,0,0,1-.041-.006.155.155,0,0,1-.1-.19,2.551,2.551,0,0,0-.692-2.5.157.157,0,0,1-.017-.217.148.148,0,0,1,.212-.018,2.829,2.829,0,0,1,.787,2.813A.151.151,0,0,1,251.071,327.344Z" transform="translate(-223.918 -306.315)" fill="#d1454b"/>
            <path id="Path_227" data-name="Path 227" d="M313.368,328.759h-.01a.153.153,0,0,1-.141-.164,4.8,4.8,0,0,1,.985-2.786.147.147,0,0,1,.212-.01.157.157,0,0,1,.01.218,4.588,4.588,0,0,0-.907,2.6A.152.152,0,0,1,313.368,328.759Z" transform="translate(-272.176 -307.361)" fill="#d1454b"/>
            <path id="Path_228" data-name="Path 228" d="M278.671,351.757s.478,5.485-.157,6.352-4.656.217-5.714,0-1.06-9.288-.847-8.676C273.721,354.494,278.55,350.015,278.671,351.757Z" transform="translate(-240.501 -325.325)" fill="#f08d71"/>
            <path id="Path_229" data-name="Path 229" d="M272.956,360.521a7.11,7.11,0,0,0,6.1-.3,8.245,8.245,0,0,1,0,2.514c-.252.471-5.389.808-6.4-1.515C272.651,361.225,272.663,360.42,272.956,360.521Z" transform="translate(-241.12 -333.547)" fill="#d1454b"/>
            <path id="Path_230" data-name="Path 230" d="M207.47,418.7h36.918s1.886-32.893-2.739-36.47-24.983-1.79-29.777,1.265S207.47,418.7,207.47,418.7Z" transform="translate(-191.214 -348.761)" fill="#f7a655"/>
            <path id="Path_231" data-name="Path 231" d="M247.344,372.587s-1.423,12.644-.8,14.4-.174,9.562-.427,10.576-7.923,1.445-9.9.634.5-22.68,1.612-26.727S247.222,369.812,247.344,372.587Z" transform="translate(-212.656 -340.454)" fill="#d1454b"/>
            <path id="Path_232" data-name="Path 232" d="M190.037,290.381s3.086,6.056,5.248,6.113,9.456-9.046,12.146-9.139,5,.174,5.009-.483S208.7,285.5,208.7,285.5s5.425.354,4.3-.254a19.485,19.485,0,0,0-3.81-1.155s3.9.161,3.927-.266-4.059-1.057-4.059-1.057,4.974-.163,4.064-.864-2.622-.4-7.254.328S190.759,289.291,190.037,290.381Z" transform="translate(-177.874 -273.739)" fill="#f08d71"/>
            <path id="Path_233" data-name="Path 233" d="M155.733,312.638s4.936,3.013,2.787,6.428c-2.289,3.636-2.161,2.556-2.557,4.027s6.127,4.336,6.424,5.6-2.778,16.745-5.658,16.109c-2.507-.553-16.44-8.656-18.442-16.752C136.736,321.769,149.387,306.415,155.733,312.638Z" transform="translate(-138.157 -296.286)" fill="#f7a655"/>
            <path id="Path_234" data-name="Path 234" d="M255.5,463.251s-5.469,12.347-3.458,14,3.631.576,5.41,1.649a4.37,4.37,0,0,0,4.913-.4c1.428-.934-2.29-13.218-3.828-14.388S255.779,462.609,255.5,463.251Z" transform="translate(-225.004 -411.577)" fill="#fff"/>
            <path id="Path_235" data-name="Path 235" d="M316.506,381.631s10.934-2.139,13.906,3.438c2.23,4.185,7.986,22.8,1.437,26.279s-12.693,1.662-15.07-.686,1.852-14.448,4.672-15.351S316.506,381.631,316.506,381.631Z" transform="translate(-274.369 -349.504)" fill="#f7a655"/>
            <path id="Path_236" data-name="Path 236" d="M262.72,373.373s.137-.878-4.1-2.757c-3.38-1.5-6.275,1.031-11.43,1.3s-4.69-1.822-8.337-.849c-5.627,1.5-1.147,5.282.667,5.706S247.409,387.668,262.72,373.373Z" transform="translate(-213.147 -341.084)" fill="#d1454b"/>
            <path id="Path_237" data-name="Path 237" d="M286.775,339.146s-.015.358.185.39.571-.082.475-.564A4.749,4.749,0,0,1,286.775,339.146Z" transform="translate(-251.933 -317.4)" fill="#fff"/>
            <path id="Path_238" data-name="Path 238" d="M349.2,416.574a.292.292,0,0,1-.043,0,.306.306,0,0,1-.257-.272,14.9,14.9,0,0,0-3.056-1.334c-2.224-.822-3.222-1.229-3.436-1.674a3.028,3.028,0,0,1,0-1.61,5.913,5.913,0,0,0-.308-3.753,13.616,13.616,0,0,1-1.049-5.746.3.3,0,1,1,.6.024,13.235,13.235,0,0,0,.98,5.433,6.519,6.519,0,0,1,.371,4.136,3.076,3.076,0,0,0-.058,1.243,13.807,13.807,0,0,0,3.1,1.367c2.619.968,3.529,1.358,3.449,1.924A.3.3,0,0,1,349.2,416.574Z" transform="translate(-293.481 -365.199)" fill="#f07c3d"/>
            <path id="Path_239" data-name="Path 239" d="M332.926,448.7a.293.293,0,0,1-.079-.011c-.995-.278-2.539-.567-2.554-.57a.308.308,0,0,1-.242-.358.3.3,0,0,1,.35-.248c.064.012,1.585.3,2.6.582a.309.309,0,0,1,.211.378A.3.3,0,0,1,332.926,448.7Z" transform="translate(-285.059 -399.858)" fill="#f07c3d"/>
            <path id="Path_240" data-name="Path 240" d="M326.849,494.038h-.014c-5.57-.259-11.119-2.69-11.419-5-.094-.727-.162-1.09-.2-1.27a.3.3,0,0,1-.161-.314.355.355,0,0,1,.339-.344h0c.3,0,.4.185.619,1.847.233,1.8,5.285,4.21,10.85,4.468a.309.309,0,0,1-.013.616Z" transform="translate(-273.578 -429.946)" fill="#f07c3d"/>
            <path id="Path_241" data-name="Path 241" d="M321.814,458.837a.29.29,0,0,1-.067-.008.308.308,0,0,1-.227-.369c.013-.06,1.329-6,2.559-10.282a.3.3,0,0,1,.373-.208.31.31,0,0,1,.2.383c-1.225,4.257-2.536,10.184-2.549,10.243A.3.3,0,0,1,321.814,458.837Z" transform="translate(-278.527 -400.202)" fill="#f07c3d"/>
            <path id="Path_242" data-name="Path 242" d="M210.445,398.989a.317.317,0,0,1-.045,0,.307.307,0,0,1-.253-.351,41.1,41.1,0,0,1,1.794-7.588,28.4,28.4,0,0,0,1.5-4.625.3.3,0,0,1,.359-.234.308.308,0,0,1,.228.368,28.46,28.46,0,0,1-1.541,4.742,41.476,41.476,0,0,0-1.748,7.429A.3.3,0,0,1,210.445,398.989Z" transform="translate(-193.267 -353.267)" fill="#f07c3d"/>
            <path id="Path_243" data-name="Path 243" d="M182.23,355.551a20.784,20.784,0,0,1-2.687-.179.308.308,0,0,1,.076-.612,17.7,17.7,0,0,0,6.249-.215,5.894,5.894,0,0,0-2.085-.312c-1.727.083-4.253-1.5-4.36-1.565a.313.313,0,0,1-.1-.424.3.3,0,0,1,.414-.1c.024.015,2.477,1.551,4.012,1.473a5.624,5.624,0,0,1,3.352.875.328.328,0,0,1-.012.332.339.339,0,0,1-.291.137c-.048.005-.189.04-.325.074A16.924,16.924,0,0,1,182.23,355.551Z" transform="translate(-169.64 -327.371)" fill="#f07c3d"/>
            <path id="Path_244" data-name="Path 244" d="M205.368,319.544a.3.3,0,0,1-.271-.174,5.242,5.242,0,0,0-2.038-2.2c-1.453-.7-3.1-3.158-3.164-3.262a.313.313,0,0,1,.079-.429.3.3,0,0,1,.418.081c.016.024,1.62,2.419,2.925,3.051a5.784,5.784,0,0,1,2.323,2.489.311.311,0,0,1-.14.411A.289.289,0,0,1,205.368,319.544Z" transform="translate(-185.381 -297.992)" fill="#f07c3d"/>
            <path id="Path_245" data-name="Path 245" d="M282.539,385.682a.147.147,0,0,1-.034,0,.154.154,0,0,1-.113-.185c.007-.033.725-3.247.935-4.881.327-2.546-.786-3.434-.8-3.443a.157.157,0,0,1-.031-.215.147.147,0,0,1,.209-.033c.052.039,1.269.989.916,3.731-.211,1.648-.932,4.877-.94,4.909A.151.151,0,0,1,282.539,385.682Z" transform="translate(-248.575 -346.209)" fill="#c21823"/>
            <path id="Path_246" data-name="Path 246" d="M244.2,378.362l-.3-.036s.234-2.082.356-3.1a7.3,7.3,0,0,1,.422-1.767.149.149,0,0,1,.2-.082.156.156,0,0,1,.08.2,7.141,7.141,0,0,0-.4,1.685C244.436,376.281,244.2,378.361,244.2,378.362Z" transform="translate(-219.113 -343.526)" fill="#c21823"/>
            <path id="Path_247" data-name="Path 247" d="M237.154,531.559c-1.716,0-2.66-.058-3.966-.138-1.68-.1-3.98-.244-9.356-.33a.309.309,0,0,1,.009-.617c5.389.086,7.7.228,9.383.331,1.3.08,2.232.137,3.93.137a45.923,45.923,0,0,0,5.878-.469,46.26,46.26,0,0,1,4.787-.431c3.5-.079,6.109,0,6.135,0a.305.305,0,0,1,.292.318.311.311,0,0,1-.31.3c-.026,0-2.624-.08-6.1,0a45.793,45.793,0,0,0-4.728.427A46.362,46.362,0,0,1,237.154,531.559Z" transform="translate(-203.52 -462.539)" fill="#f07c3d"/>
            <g id="Group_204" data-name="Group 204" transform="translate(45.933 27.476)">
              <path id="Path_248" data-name="Path 248" d="M337.882,365.894a.5.5,0,0,1-.441-.293c-.376-.649-.5-.707-1.287-.622a1.1,1.1,0,0,1-1.141-.8,1.054,1.054,0,0,0-.16-.271c-.133-.12-.485,0-.634.074l-.133-.277c.065-.033.647-.315.966-.03a1.182,1.182,0,0,1,.231.367c.164.338.333.685.84.633.9-.1,1.141.018,1.577.772.116.2.225.179.568,0,.261-.14.655-.35.922.074l-.253.167c-.1-.165-.207-.141-.53.032A1.191,1.191,0,0,1,337.882,365.894Z" transform="translate(-334.085 -363.546)" fill="#fff"/>
            </g>
            <g id="Group_205" data-name="Group 205" transform="translate(19.758 7.845)">
              <path id="Path_249" data-name="Path 249" d="M222.612,284.045a.621.621,0,0,1-.176-.028l.083-.3c.184.053.246-.032.379-.381.113-.295.283-.74.8-.565.7.237.827.2,1.37-.4a1.071,1.071,0,0,1,1.374-.162,1.015,1.015,0,0,0,.295.1h0c.177,0,.367-.325.431-.482l.278.119c-.028.069-.286.671-.709.671h0a1.124,1.124,0,0,1-.409-.121c-.34-.145-.691-.294-1.039.087-.621.682-.873.753-1.684.479-.216-.073-.285.016-.426.385C223.086,283.7,222.952,284.045,222.612,284.045Z" transform="translate(-222.436 -281.834)" fill="#fff"/>
            </g>
            <g id="Group_206" data-name="Group 206" transform="translate(9.634 46.023)">
              <path id="Path_250" data-name="Path 250" d="M182.67,443.73a.493.493,0,0,1-.5-.388c-.243-.713-.35-.794-1.142-.871-.716-.07-.865-.64-.964-1.018a1.082,1.082,0,0,0-.1-.3c-.107-.143-.475-.1-.636-.056l-.077-.3c.071-.019.695-.177.952.167a1.188,1.188,0,0,1,.156.406c.1.364.194.741.7.79.906.089,1.115.249,1.4,1.077.075.219.185.221.557.111.283-.084.71-.21.889.259l-.28.113c-.07-.182-.175-.18-.526-.076A1.549,1.549,0,0,1,182.67,443.73Z" transform="translate(-179.249 -440.747)" fill="#fff"/>
            </g>
            <g id="Group_207" data-name="Group 207" transform="translate(43.393 62.72)">
              <path id="Path_251" data-name="Path 251" d="M327.124,512.429a.5.5,0,0,1-.43-.271c-.407-.629-.529-.681-1.315-.557a1.089,1.089,0,0,1-1.178-.744,1.05,1.05,0,0,0-.172-.264c-.138-.112-.484.023-.63.105l-.146-.27c.064-.037.631-.346.963-.078a1.178,1.178,0,0,1,.249.355c.18.329.365.668.869.59.9-.142,1.14-.039,1.612.692.125.194.233.168.567-.032.254-.152.638-.382.924.028l-.245.179c-.112-.159-.213-.13-.528.059A1.131,1.131,0,0,1,327.124,512.429Z" transform="translate(-323.252 -510.243)" fill="#fff"/>
            </g>
            <g id="Group_208" data-name="Group 208" transform="translate(18.226 8.865)">
              <path id="Path_252" data-name="Path 252" d="M215.992,288.978a.758.758,0,0,1-.093-.006l.039-.306c.189.027.238-.07.319-.435.068-.308.172-.774.708-.682.727.127.848.07,1.3-.6a1.075,1.075,0,0,1,1.335-.372,1.059,1.059,0,0,0,.306.051c.175-.027.315-.378.356-.543l.292.075c-.018.072-.184.709-.6.773a1.084,1.084,0,0,1-.423-.057c-.357-.09-.727-.184-1.014.247-.513.77-.752.879-1.595.733-.225-.039-.279.06-.365.446C216.49,288.573,216.4,288.978,215.992,288.978Z" transform="translate(-215.899 -286.081)" fill="#fbe0d1"/>
            </g>
            <path id="Path_253" data-name="Path 253" d="M230.436,466.872" transform="translate(-208.802 -414.572)" fill="#2f1e3a"/>
            <path id="Path_254" data-name="Path 254" d="M273.975,453.554s-7.187-2.663-10.306-1.3-5.688,4.874-5.212,5.106,3.023-1.792,3.023-1.792-2.6,2.69-2.116,2.959,2.985-1.167,2.985-1.167-1.747,1.914-1,2.061,2.359-1.431,4.037-1.49,3.793,1.3,5.891,1.682S273.975,453.554,273.975,453.554Z" transform="translate(-230.211 -403.171)" fill="#f08d71"/>
            <path id="Path_255" data-name="Path 255" d="M354.887,448.225a.3.3,0,0,1-.056-.006c-.021,0-2.138-.414-4.668-.941a.308.308,0,0,1-.235-.363.3.3,0,0,1,.355-.24c2.526.526,4.639.935,4.66.939a.308.308,0,0,1,.24.36A.3.3,0,0,1,354.887,448.225Z" transform="translate(-300.276 -399.222)" fill="#f07c3d"/>
          </g>
        </g>
      </g>
      <g id="Group_215" data-name="Group 215" transform="translate(5.789)">
        <path id="Path_256" data-name="Path 256" d="M233.962,316.619a.146.146,0,0,1-.092-.032,4.329,4.329,0,0,1-1.081-1.493,6.346,6.346,0,0,1-.185-4.52,30.944,30.944,0,0,1,1.186-3.323,12.256,12.256,0,0,0,1.175-5.265.146.146,0,0,1,.153-.152.153.153,0,0,1,.148.157,12.662,12.662,0,0,1-1.2,5.379,30.624,30.624,0,0,0-1.175,3.292c-1.105,3.819,1.14,5.664,1.163,5.682a.157.157,0,0,1,.027.216A.149.149,0,0,1,233.962,316.619Z" transform="translate(-219.859 -289.183)" fill="#3e2d4a"/>
        <ellipse id="Ellipse_18" data-name="Ellipse 18" cx="2.969" cy="3.042" rx="2.969" ry="3.042" transform="translate(20.495)" fill="#3e2d4a"/>
        <path id="Path_257" data-name="Path 257" d="M236.5,301.786s.913,1.819,4.484,2.38,6.331-.826,9.1.128,6.7-.472,7.462-1.673.29-14.287-1.925-16.429-13.6-3.7-16-1.07S234.9,300.35,236.5,301.786Z" transform="translate(-222.682 -275.437)" fill="#3e2d4a"/>
        <ellipse id="Ellipse_19" data-name="Ellipse 19" cx="9.784" cy="10.026" rx="9.784" ry="10.026" transform="translate(14.539 5.359)" fill="#3e2d4a"/>
        <path id="Path_258" data-name="Path 258" d="M248.432,291.6s.684,12.157,8.723,12.486,7.633-16.812,4.691-18.371S246.788,284.755,248.432,291.6Z" transform="translate(-232.103 -276.395)" fill="#f08d71"/>
        <path id="Path_259" data-name="Path 259" d="M281.872,322.379s1.62,3.708,1.231,3.965a2.293,2.293,0,0,1-1.862-.026C280.923,326.051,281.235,321.976,281.872,322.379Z" transform="translate(-257.241 -304.772)" fill="#d1454b"/>
        <ellipse id="Ellipse_20" data-name="Ellipse 20" cx="0.754" cy="0.773" rx="0.754" ry="0.773" transform="translate(20.747 18.127)" fill="#2f1e3a"/>
        <ellipse id="Ellipse_21" data-name="Ellipse 21" cx="0.754" cy="0.773" rx="0.754" ry="0.773" transform="translate(27.213 17.605)" fill="#2f1e3a"/>
        <path id="Path_260" data-name="Path 260" d="M249.257,284.817s-2.845,1.5-3.33,4.187-.044,9.54-3.1,9.3C242.827,298.3,236.608,284.879,249.257,284.817Z" transform="translate(-226.759 -276.255)" fill="#3e2d4a"/>
        <path id="Path_261" data-name="Path 261" d="M281.676,282.747c-.257.2,2.972.111,4.871,2.36s2.47,7.969,2.758,8.068,1.261-7.136-.813-9.252S283.137,281.621,281.676,282.747Z" transform="translate(-257.659 -274.164)" fill="#3e2d4a"/>
        <path id="Path_262" data-name="Path 262" d="M310.217,323.352s.7-3.065,2.064-2.013.226,4.264-1.092,4.585S309.522,324.94,310.217,323.352Z" transform="translate(-279.252 -303.836)" fill="#f08d71"/>
        <path id="Path_263" data-name="Path 263" d="M248.6,322.478s-.616-3.083-2.009-2.07-.34,4.256.969,4.614S249.255,324.085,248.6,322.478Z" transform="translate(-230.308 -303.141)" fill="#f08d71"/>
        <path id="Path_264" data-name="Path 264" d="M295.882,313.586a1.874,1.874,0,0,1,2.294.335c.769.969-.987.184-1.633.309S295.042,314.3,295.882,313.586Z" transform="translate(-268.278 -297.915)" fill="#2f1e3a"/>
        <path id="Path_265" data-name="Path 265" d="M264.963,314.916a1.876,1.876,0,0,0-2.275.455c-.72,1.008.995.132,1.646.224S265.837,315.587,264.963,314.916Z" transform="translate(-243.001 -298.966)" fill="#2f1e3a"/>
        <path id="Path_266" data-name="Path 266" d="M282.306,344.14s-.926-1.434-1.928-1.344-1.77,1.412-1.905,1.468A5.1,5.1,0,0,0,282.306,344.14Z" transform="translate(-255.218 -320.302)" fill="#2f1e3a"/>
        <path id="Path_267" data-name="Path 267" d="M262.287,324.825h-.036a2.561,2.561,0,0,1-1.833-.808,2.691,2.691,0,0,1-.738-1.9,2.65,2.65,0,0,1,2.606-2.635h.036a2.673,2.673,0,0,1-.035,5.343Zm0-5.035a2.344,2.344,0,0,0-2.305,2.331,2.379,2.379,0,0,0,.653,1.681,2.266,2.266,0,0,0,1.621.715h.032a2.365,2.365,0,0,0,.031-4.727Z" transform="translate(-240.83 -302.591)" fill="#fffbf4"/>
        <path id="Path_268" data-name="Path 268" d="M290.067,322.6h-.036a2.673,2.673,0,0,1,.035-5.343h.036a2.561,2.561,0,0,1,1.833.808,2.689,2.689,0,0,1,.738,1.9A2.65,2.65,0,0,1,290.067,322.6Zm0-5.035a2.365,2.365,0,0,0-.031,4.727h.032a2.343,2.343,0,0,0,2.305-2.331,2.379,2.379,0,0,0-.653-1.681,2.266,2.266,0,0,0-1.621-.715Z" transform="translate(-262.098 -300.902)" fill="#fffbf4"/>
        <path id="Path_269" data-name="Path 269" d="M256.955,326.734a.151.151,0,0,1-.052-.009l-.965-.363a.155.155,0,0,1-.089-.2.15.15,0,0,1,.193-.092l.965.363a.156.156,0,0,1,.09.2A.151.151,0,0,1,256.955,326.734Z" transform="translate(-237.891 -307.592)" fill="#fffbf4"/>
        <path id="Path_270" data-name="Path 270" d="M308.1,323.63a.15.15,0,0,1-.143-.108.155.155,0,0,1,.1-.193l1.319-.422a.149.149,0,0,1,.188.1.155.155,0,0,1-.1.193l-1.319.422A.145.145,0,0,1,308.1,323.63Z" transform="translate(-277.788 -305.189)" fill="#fffbf4"/>
        <path id="Path_271" data-name="Path 271" d="M262.624,283.005s0,3.075,1.79,3.631,6.386.31,6.339-.441c-.421-6.785-3.533-6.443-6.132-7.312-4.558-1.522-8.286,6.1-7.728,7.908s4.406.119,5.229-.134S262.489,284.313,262.624,283.005Z" transform="translate(-238.655 -271.595)" fill="#3e2d4a"/>
        <path id="Path_272" data-name="Path 272" d="M261.765,333.28s4.055-2.4,5.835-2.063,4.9.388,5.045,1.042-3.96.359-5.222.485S261.318,334.358,261.765,333.28Z" transform="translate(-242.405 -311.483)" fill="#d1454b" opacity="0.21"/>
        <path id="Path_273" data-name="Path 273" d="M271.049,331.006a.15.15,0,0,1-.139-.1.155.155,0,0,1,.083-.2c.408-.17.483-.3.484-.306a.142.142,0,0,1,.188-.09.161.161,0,0,1,.091.2c-.019.056-.122.258-.651.479A.148.148,0,0,1,271.049,331.006Z" transform="translate(-249.42 -310.814)" fill="#d1454b"/>
        <path id="Path_274" data-name="Path 274" d="M295.576,330.315a1.519,1.519,0,0,1-.647-.2.156.156,0,0,1-.069-.206.149.149,0,0,1,.2-.071c.4.2.544.165.546.165a.144.144,0,0,1,.191.084.161.161,0,0,1-.086.2A.342.342,0,0,1,295.576,330.315Z" transform="translate(-267.752 -310.45)" fill="#d1454b"/>
        <path id="Path_275" data-name="Path 275" d="M280.777,329.289a.154.154,0,0,1-.015-.307l1.615-.169a.151.151,0,0,1,.165.137.153.153,0,0,1-.135.169l-1.615.169Z" transform="translate(-256.867 -309.68)" fill="#fffbf4"/>
        <path id="Path_276" data-name="Path 276" d="M266.314,256.744a.143.143,0,0,1-.066-.016,2.632,2.632,0,0,1-1.536-1.8c-.367-1.712,1.126-3.607,1.19-3.686a.148.148,0,0,1,.212-.022.156.156,0,0,1,.021.217c-.015.018-1.465,1.86-1.128,3.426a2.341,2.341,0,0,0,1.373,1.592.156.156,0,0,1,.07.206A.15.15,0,0,1,266.314,256.744Z" transform="translate(-244.64 -250.701)" fill="#3e2d4a"/>
        <path id="Path_277" data-name="Path 277" d="M285.9,258.721a.149.149,0,0,1-.113-.052.158.158,0,0,1,.014-.218c.017-.016,1.743-1.588,1.662-3.189a2.367,2.367,0,0,0-1.1-1.8.157.157,0,0,1-.036-.215.148.148,0,0,1,.21-.036,2.66,2.66,0,0,1,1.226,2.038c.087,1.75-1.689,3.368-1.765,3.436A.148.148,0,0,1,285.9,258.721Z" transform="translate(-260.786 -252.219)" fill="#3e2d4a"/>
        <path id="Path_278" data-name="Path 278" d="M320.662,314.549a.149.149,0,0,1-.117-.057.157.157,0,0,1,.022-.217,4.718,4.718,0,0,0,1.426-4.39,31.392,31.392,0,0,0-1.018-3.373,22.391,22.391,0,0,1-1.506-6.336.153.153,0,0,1,.146-.159.159.159,0,0,1,.155.15,22.171,22.171,0,0,0,1.49,6.244,31.567,31.567,0,0,1,1.028,3.408,5.036,5.036,0,0,1-1.53,4.7A.148.148,0,0,1,320.662,314.549Z" transform="translate(-286.603 -287.804)" fill="#3e2d4a"/>
        <path id="Path_279" data-name="Path 279" d="M301.738,283.553h-.015a.153.153,0,0,1-.135-.168,8.528,8.528,0,0,0-1.646-6.509,8.966,8.966,0,0,0-5.749-2.852.152.152,0,0,1-.141-.163.15.15,0,0,1,.159-.145,9.292,9.292,0,0,1,5.961,2.96,8.827,8.827,0,0,1,1.717,6.74A.152.152,0,0,1,301.738,283.553Z" transform="translate(-267.145 -267.82)" fill="#3e2d4a"/>
        <path id="Path_280" data-name="Path 280" d="M280.875,348a2.626,2.626,0,0,1,2.838-.154A4.783,4.783,0,0,1,280.875,348Z" transform="translate(-257.057 -323.857)" fill="#d1454b"/>
        <path id="Path_281" data-name="Path 281" d="M283.468,353.11c-.148,0-.275,0-.354,0a.152.152,0,0,1-.148-.157.145.145,0,0,1,.153-.152,8.852,8.852,0,0,0,1.352-.048.15.15,0,0,1,.194.088.155.155,0,0,1-.085.2A5.3,5.3,0,0,1,283.468,353.11Z" transform="translate(-258.658 -327.861)" fill="#d1454b"/>
        <path id="Path_282" data-name="Path 282" d="M251.071,327.344a.146.146,0,0,1-.041-.006.155.155,0,0,1-.1-.19,2.551,2.551,0,0,0-.692-2.5.157.157,0,0,1-.017-.217.148.148,0,0,1,.212-.018,2.829,2.829,0,0,1,.787,2.813A.151.151,0,0,1,251.071,327.344Z" transform="translate(-233.559 -306.315)" fill="#d1454b"/>
        <path id="Path_283" data-name="Path 283" d="M313.368,328.759h-.01a.153.153,0,0,1-.141-.164,4.8,4.8,0,0,1,.985-2.786.147.147,0,0,1,.212-.01.157.157,0,0,1,.01.218,4.588,4.588,0,0,0-.907,2.6A.152.152,0,0,1,313.368,328.759Z" transform="translate(-281.817 -307.361)" fill="#d1454b"/>
        <path id="Path_284" data-name="Path 284" d="M278.671,351.757s.478,5.485-.157,6.352-4.656.217-5.714,0-1.06-9.288-.847-8.676C273.721,354.494,278.55,350.015,278.671,351.757Z" transform="translate(-250.142 -325.325)" fill="#f08d71"/>
        <path id="Path_285" data-name="Path 285" d="M272.956,360.521a7.11,7.11,0,0,0,6.1-.3,8.245,8.245,0,0,1,0,2.514c-.252.471-5.389.808-6.4-1.515C272.651,361.225,272.663,360.42,272.956,360.521Z" transform="translate(-250.761 -333.547)" fill="#d1454b"/>
        <path id="Path_286" data-name="Path 286" d="M190.037,290.381s3.086,6.056,5.248,6.113,9.456-9.046,12.146-9.139,5,.174,5.009-.483S208.7,285.5,208.7,285.5s5.425.354,4.3-.254a19.485,19.485,0,0,0-3.81-1.155s3.9.161,3.927-.266-4.059-1.057-4.059-1.057,4.974-.163,4.064-.864-2.622-.4-7.254.328S190.759,289.291,190.037,290.381Z" transform="translate(-187.515 -273.739)" fill="#f08d71"/>
        <path id="Path_287" data-name="Path 287" d="M262.72,373.373s.137-.878-4.1-2.757c-3.38-1.5-6.275,1.031-11.43,1.3s-4.69-1.822-8.337-.849c-5.627,1.5-1.147,5.282.667,5.706S247.409,387.668,262.72,373.373Z" transform="translate(-222.788 -341.084)" fill="#d1454b"/>
        <path id="Path_288" data-name="Path 288" d="M286.775,339.146s-.015.358.185.39.571-.082.475-.564A4.749,4.749,0,0,1,286.775,339.146Z" transform="translate(-261.574 -317.4)" fill="#fff"/>
        <path id="Path_289" data-name="Path 289" d="M210.445,398.989a.317.317,0,0,1-.045,0,.307.307,0,0,1-.253-.351,41.1,41.1,0,0,1,1.794-7.588,28.4,28.4,0,0,0,1.5-4.625.3.3,0,0,1,.359-.234.308.308,0,0,1,.228.368,28.46,28.46,0,0,1-1.541,4.742,41.476,41.476,0,0,0-1.748,7.429A.3.3,0,0,1,210.445,398.989Z" transform="translate(-202.908 -353.267)" fill="#f07c3d"/>
        <path id="Path_290" data-name="Path 290" d="M182.23,355.551a20.784,20.784,0,0,1-2.687-.179.308.308,0,0,1,.076-.612,17.7,17.7,0,0,0,6.249-.215,5.894,5.894,0,0,0-2.085-.312c-1.727.083-4.253-1.5-4.36-1.565a.313.313,0,0,1-.1-.424.3.3,0,0,1,.414-.1c.024.015,2.477,1.551,4.012,1.473a5.624,5.624,0,0,1,3.352.875.328.328,0,0,1-.012.332.339.339,0,0,1-.291.137c-.048.005-.189.04-.325.074A16.924,16.924,0,0,1,182.23,355.551Z" transform="translate(-179.281 -327.371)" fill="#f07c3d"/>
        <path id="Path_291" data-name="Path 291" d="M205.368,319.544a.3.3,0,0,1-.271-.174,5.242,5.242,0,0,0-2.038-2.2c-1.453-.7-3.1-3.158-3.164-3.262a.313.313,0,0,1,.079-.429.3.3,0,0,1,.418.081c.016.024,1.62,2.419,2.925,3.051a5.784,5.784,0,0,1,2.323,2.489.311.311,0,0,1-.14.411A.289.289,0,0,1,205.368,319.544Z" transform="translate(-195.022 -297.992)" fill="#f07c3d"/>
        <path id="Path_292" data-name="Path 292" d="M282.539,385.682a.147.147,0,0,1-.034,0,.154.154,0,0,1-.113-.185c.007-.033.725-3.247.935-4.881.327-2.546-.786-3.434-.8-3.443a.157.157,0,0,1-.031-.215.147.147,0,0,1,.209-.033c.052.039,1.269.989.916,3.731-.211,1.648-.932,4.877-.94,4.909A.151.151,0,0,1,282.539,385.682Z" transform="translate(-258.216 -346.209)" fill="#c21823"/>
        <path id="Path_293" data-name="Path 293" d="M244.2,378.362l-.3-.036s.234-2.082.356-3.1a7.3,7.3,0,0,1,.422-1.767.149.149,0,0,1,.2-.082.156.156,0,0,1,.08.2,7.141,7.141,0,0,0-.4,1.685C244.436,376.281,244.2,378.361,244.2,378.362Z" transform="translate(-228.754 -343.526)" fill="#c21823"/>
        <g id="Group_212" data-name="Group 212" transform="translate(36.292 27.476)">
          <path id="Path_294" data-name="Path 294" d="M337.882,365.894a.5.5,0,0,1-.441-.293c-.376-.649-.5-.707-1.287-.622a1.1,1.1,0,0,1-1.141-.8,1.054,1.054,0,0,0-.16-.271c-.133-.12-.485,0-.634.074l-.133-.277c.065-.033.647-.315.966-.03a1.182,1.182,0,0,1,.231.367c.164.338.333.685.84.633.9-.1,1.141.018,1.577.772.116.2.225.179.568,0,.261-.14.655-.35.922.074l-.253.167c-.1-.165-.207-.141-.53.032A1.191,1.191,0,0,1,337.882,365.894Z" transform="translate(-334.085 -363.546)" fill="#fff"/>
        </g>
        <g id="Group_213" data-name="Group 213" transform="translate(10.117 7.845)">
          <path id="Path_295" data-name="Path 295" d="M222.612,284.045a.621.621,0,0,1-.176-.028l.083-.3c.184.053.246-.032.379-.381.113-.295.283-.74.8-.565.7.237.827.2,1.37-.4a1.071,1.071,0,0,1,1.374-.162,1.015,1.015,0,0,0,.295.1h0c.177,0,.367-.325.431-.482l.278.119c-.028.069-.286.671-.709.671h0a1.124,1.124,0,0,1-.409-.121c-.34-.145-.691-.294-1.039.087-.621.682-.873.753-1.684.479-.216-.073-.285.016-.426.385C223.086,283.7,222.952,284.045,222.612,284.045Z" transform="translate(-222.436 -281.834)" fill="#fff"/>
        </g>
        <g id="Group_214" data-name="Group 214" transform="translate(8.585 8.865)">
          <path id="Path_296" data-name="Path 296" d="M215.992,288.978a.758.758,0,0,1-.093-.006l.039-.306c.189.027.238-.07.319-.435.068-.308.172-.774.708-.682.727.127.848.07,1.3-.6a1.075,1.075,0,0,1,1.335-.372,1.059,1.059,0,0,0,.306.051c.175-.027.315-.378.356-.543l.292.075c-.018.072-.184.709-.6.773a1.084,1.084,0,0,1-.423-.057c-.357-.09-.727-.184-1.014.247-.513.77-.752.879-1.595.733-.225-.039-.279.06-.365.446C216.49,288.573,216.4,288.978,215.992,288.978Z" transform="translate(-215.899 -286.081)" fill="#fbe0d1"/>
        </g>
      </g>
    </g>
  </g>
</svg>
