<svg id="humancontact" xmlns="http://www.w3.org/2000/svg" width="60.686" height="56.219" viewBox="0 0 60.686 56.219">
  <ellipse id="Ellipse_54" data-name="Ellipse 54" cx="28.109" cy="28.109" rx="28.109" ry="28.109" transform="translate(1.433 0)" fill="#d1454b"/>
  <g id="Group_248" data-name="Group 248" transform="translate(0 10.683)">
    <path id="Path_549" data-name="Path 549" d="M459.311,74.112s10.825,14.437,13.533,15.631,6.1.926,6.4,2.31-5.685-.958-4.73,1.18,4.673,4.578,4.69,6.73-5.918-4.621-5.918-4.621,5.593,6.2,3.741,6.344-6.643-5.914-6.643-5.914,5.358,7.951,3.582,7.224-18.243-19.747-20.782-21.76S459.311,74.112,459.311,74.112Z" transform="translate(-442.508 -66.716)" fill="#c05c5d"/>
    <path id="Path_550" data-name="Path 550" d="M495.8,78.751S483.455,91.91,480.631,92.8s-6.168.249-6.616,1.593,5.756-.327,4.572,1.692-5.148,4.037-5.4,6.174,6.39-3.942,6.39-3.942-6.241,5.545-4.416,5.895,7.253-5.148,7.253-5.148-6.2,7.313-4.356,6.786,20.3-17.621,23.05-19.342S495.8,78.751,495.8,78.751Z" transform="translate(-447.509 -67.85)" fill="#df9f85"/>
    <path id="Path_551" data-name="Path 551" d="M487.693,83.489s4.41,8.237,8.464,9.113,13.376-8.113,15.287-11.985-8-14.442-10.883-14.788S485.649,76.146,487.693,83.489Z" transform="translate(-451.001 -64.689)" fill="#e6b56f"/>
    <path id="Path_552" data-name="Path 552" d="M457.495,65.863s8.606,9.282,7.91,13.023-6.311,8.225-10.838,9.693S439.2,81.313,439.2,77,452.947,59.946,457.495,65.863Z" transform="translate(-439.205 -64.324)" fill="#3e2d4a"/>
  </g>
</svg>
