<svg xmlns="http://www.w3.org/2000/svg" width="47.086" height="40" viewBox="0 0 47.086 40">
  <g id="interactive_training" transform="translate(-3597.233 -2155.453)">
    <path id="Path_5866" data-name="Path 5866" d="M3793.266,2221.357c-1.37,0-2.619.013-3.868-.015a.768.768,0,0,1-.47-.339q-3.158-4.43-6.287-8.877a.981.981,0,0,0-.97-.493,15.767,15.767,0,0,1-1.752,0,.792.792,0,0,0-.771.394c-2.079,2.95-4.179,5.886-6.256,8.838a1.047,1.047,0,0,1-1.009.511c-1.111-.039-2.223-.012-3.445-.012l6.915-9.725h-2.321q-2.706,0-5.411,0c-1.355,0-1.984-.615-1.981-1.909,0-1.5,0-3,0-4.541H3769v3.182h23.66V2192.22h-23.643v3.256a4.144,4.144,0,0,1-.422-.172c-.889-.5-1.782-1-2.654-1.527a.68.68,0,0,1-.288-.481c-.031-.847-.033-1.695-.015-2.542a1.684,1.684,0,0,1,1.938-1.814q8.843,0,17.685,0l8.817,0c1.348,0,1.979.62,1.979,1.912q0,9.38,0,18.76a3.2,3.2,0,0,1-.068.855,1.742,1.742,0,0,1-1.9,1.17c-1.553.01-3.106,0-4.659,0h-3.078Z" transform="translate(-151.742 -30.174)" fill="#fff"/>
    <path id="Path_5867" data-name="Path 5867" d="M3606.363,2165.455c.622,0,1.179.038,1.729-.007a7.867,7.867,0,0,1,4.88,1.4c.989.613,2.015,1.167,3.043,1.713a1.989,1.989,0,0,0,.888.212c2.091.015,4.182,0,6.273,0,.225,0,.451.019.7.03v3.245a.931.931,0,0,1-.192.041c-2.437,0-4.874,0-7.31,0a5.611,5.611,0,0,1-2.949-.964c-1.208-.726-2.425-1.436-3.667-2.1a2.652,2.652,0,0,0-1.188-.243c-2.074-.021-4.149-.01-6.223,0a1.619,1.619,0,0,0-1.786,1.806c0,2.9,0,5.791-.007,8.686a1.04,1.04,0,0,0,.342.82c.9.872,1.786,1.753,2.646,2.66a1.232,1.232,0,0,1,.317.762c.023,2.649.014,5.3.014,7.946v.608h3.336v-13.263h3.318v16.629h-1.019c-2.815,0-5.63-.008-8.446.009-.419,0-.521-.133-.519-.534.017-3.323.009-6.646.021-9.969a1.03,1.03,0,0,0-.332-.822q-1.384-1.339-2.717-2.728a1.012,1.012,0,0,1-.273-.633c-.014-3.553-.025-7.107.006-10.661a4.952,4.952,0,0,1,4.6-4.635c.937-.027,1.875,0,2.83-.042a5.36,5.36,0,0,1-3.339-2.306,4.893,4.893,0,0,1-.606-4.016,5.005,5.005,0,0,1,9.733.409C3610.939,2162.222,3609.66,2164.094,3606.363,2165.455Zm.861-5.03a1.671,1.671,0,1,0-1.671,1.688A1.666,1.666,0,0,0,3607.224,2160.425Z" transform="translate(0 0)" fill="#fff"/>
  </g>
</svg>
