<svg xmlns="http://www.w3.org/2000/svg" width="35.475" height="40" viewBox="0 0 35.475 40">
  <path id="nepali_doctors" d="M4183.229,2419.822q-.387-2.253-.783-4.5-.464-2.653-.92-5.307a3.149,3.149,0,0,0-2.371-2.663c-.394-.116-.793-.245-1.179-.37-.679-.22-1.382-.448-2.092-.615a1.511,1.511,0,0,1-1.384-1.306,4.985,4.985,0,0,0-2.992-3.463l.353-.784c.49-1.091.952-2.12,1.442-3.162a.636.636,0,0,1,.341-.295,2.585,2.585,0,0,0,1.826-1.622,2.412,2.412,0,0,0-.346-2.284,2.742,2.742,0,0,1-.489-1.85c0-.057,0-.117.009-.177a1.192,1.192,0,0,0-.074-.636c-.118-.229-.433-.661-.792-.661h-.005a1.022,1.022,0,0,0-.808.731,4.839,4.839,0,0,0-.03,1.478.918.918,0,0,1-.12.716.653.653,0,0,1-.422.171q0-.539,0-1.079c0-1.05,0-2.135-.006-3.2a2.4,2.4,0,0,0-1.7-2.4,5.33,5.33,0,0,0-4.331.518,1.691,1.691,0,0,1-1.445.112,5.25,5.25,0,0,0-3.5-.813,2.589,2.589,0,0,0-2.728,2.811c-.005,1,0,2.006,0,3.008v1.05a.664.664,0,0,1-.4-.167.968.968,0,0,1-.151-.7c.042-1.082.034-2.18.026-3.242,0-.53-.008-1.061-.006-1.591a3.107,3.107,0,0,1,3.375-3.4l.824-.007c2.373-.021,4.827-.042,7.234.035a4.428,4.428,0,0,1,2.138.678c.887.565,1.263,1.491,1.219,3a1.228,1.228,0,0,0,.372.754,2.793,2.793,0,0,1,.186.244l.205.32.229-.3a3,3,0,0,1,.215-.243,1.288,1.288,0,0,0,.449-.751,5.184,5.184,0,0,0-1.014-3.547,5.808,5.808,0,0,0-2.962-1.845l-.042-.015h-10.1l-.051.022c-.044.019-.087.04-.13.06a1.575,1.575,0,0,1-.226.1,4.426,4.426,0,0,0-3.5,3.972c-.105,1.142-.111,2.307-.117,3.433,0,.717-.007,1.458-.037,2.183a1.9,1.9,0,0,1-.371,1,2.7,2.7,0,0,0-.414,2.531,2.519,2.519,0,0,0,1.8,1.623.639.639,0,0,1,.336.3c.49,1.043.954,2.074,1.444,3.165l.348.775a5.489,5.489,0,0,0-3.224,4.231.9.9,0,0,1-.438.295c-.738.239-1.495.465-2.226.684-.61.183-1.241.372-1.859.566a3.082,3.082,0,0,0-2.26,2.562c-.068.394-.143.788-.216,1.181-.155.826-.315,1.681-.424,2.531a1.528,1.528,0,0,0,.233.852,3.283,3.283,0,0,1,.138.3l.147.4.292-.309a3.018,3.018,0,0,1,.239-.217,1.394,1.394,0,0,0,.532-.686c.222-.98.382-1.986.537-2.959q.053-.334.107-.668a1.486,1.486,0,0,1,.961-1.325c1.027-.343,2.087-.661,3.111-.968l.986-.3a1.09,1.09,0,0,1,0,.469c-.045.1-.241.2-.58.372a2.979,2.979,0,0,0-1.7,2.579c-.129,1.8-.259,3.427-.4,4.973a2.121,2.121,0,0,0,.474,1.761,2.021,2.021,0,0,0,1.686.457,1.318,1.318,0,0,0,.714-.418,2.919,2.919,0,0,1,.231-.2l.311-.226-.322-.209a2.618,2.618,0,0,1-.22-.169,1.166,1.166,0,0,0-.7-.351.639.639,0,0,1-.457-.108.719.719,0,0,1-.074-.515c.062-.712.113-1.436.162-2.136.065-.931.134-1.895.227-2.838a1.579,1.579,0,0,1,3.106.049c.087.883.154,1.784.22,2.655.047.627.094,1.255.148,1.881.03.344.067.773-.095.929a.855.855,0,0,1-.624.09.692.692,0,0,0-.5.2.8.8,0,0,0-.31.488.951.951,0,0,0,.6.85,2.361,2.361,0,0,0,2.035-.37,1.769,1.769,0,0,0,.573-1.5c-.041-.958-.121-1.929-.2-2.867-.037-.445-.074-.889-.106-1.334-.1-1.377-.241-3.263-2.381-3.9a.947.947,0,0,1-.129-.607.878.878,0,0,1,.146-.553,10.166,10.166,0,0,1,1.174-.344l.314-.08.092.207c.114.257.213.479.3.705q.64,1.644,1.279,3.287c1.105,2.842,2.248,5.781,3.388,8.665a2.038,2.038,0,0,0,.495.659c.08.081.156.158.222.236l.181.216H4150.5c-.158,0-.316,0-.474,0-.269-.006-.442-.056-.516-.149a.724.724,0,0,1-.027-.529,25.662,25.662,0,0,0,.453-2.875,1.206,1.206,0,0,0-.255-.721,2.5,2.5,0,0,1-.134-.235l-.159-.333-.264.257a2.883,2.883,0,0,1-.226.188,1.271,1.271,0,0,0-.522.624c-.17.667-.283,1.355-.393,2.02-.041.249-.082.5-.125.745a2.056,2.056,0,0,0,2.255,2.674c5.286,0,10.366,0,15.31,0,5.322,0,10.484,0,15.565,0a2.329,2.329,0,0,0,1.852-.712A2.275,2.275,0,0,0,4183.229,2419.822Zm-25.634-24.229a.539.539,0,0,1-.291-.086,1.88,1.88,0,0,1,.012-.866.691.691,0,0,1,.326.054A2.243,2.243,0,0,1,4157.594,2395.593Zm15.845-.87a.582.582,0,0,1,.319-.093,1.609,1.609,0,0,1,.028.845.517.517,0,0,1-.294.124A1.838,1.838,0,0,1,4173.439,2394.723Zm-9.8,17.757-.193-.513A.849.849,0,0,1,4163.637,2412.48Zm.236-3.219-1.265.554-.883-2.161Zm-2.931-4.971c-.048.465-.123.657-.674.657h-.02a5.7,5.7,0,0,0-1.724.365l-.325.1a3.445,3.445,0,0,1,2.756-2.449c0,.072,0,.143,0,.215A8.745,8.745,0,0,1,4160.941,2404.291Zm-.628-10.624c-.04-1.2-.028-2.423-.018-3.606l.007-.762c.007-.951.306-1.245,1.278-1.258a3.719,3.719,0,0,1,2.48.566,2.646,2.646,0,0,0,3.254-.156,3.161,3.161,0,0,1,2.623-.337l.275.042a1.684,1.684,0,0,1,.534,1.048c.1,1.451.061,2.941.027,4.383v.058c-.013.548-.036,1.537,1.015,1.72a7,7,0,0,1-5.747,7.365,4.741,4.741,0,0,1-3.591-.982,7.311,7.311,0,0,1-3.2-6.367A1.438,1.438,0,0,0,4160.313,2393.667Zm7.3,18.361-.174.446A.8.8,0,0,1,4167.616,2412.028Zm1.731-4.369-.86,2.153-1.277-.551Zm3.123-2.35c-.664-.1-1.35-.211-2.006-.372a.835.835,0,0,1-.293-.5,8.483,8.483,0,0,1-.029-1.242c0-.077,0-.155.005-.232a3.4,3.4,0,0,1,2.727,2.406Zm-9.838-1.432c.205.041.415.086.632.134a10.652,10.652,0,0,0,2.251.326h.012a11.118,11.118,0,0,0,2.27-.313c.229-.048.448-.094.665-.135l.419,2.045-3.339,2.493-3.352-2.5Zm3.788,6.869a1.272,1.272,0,0,1-.88.527h0a1.265,1.265,0,0,1-.876-.525A1.446,1.446,0,0,1,4166.42,2410.746Zm-1.179,2.283a.549.549,0,0,1,.243-.2.606.606,0,0,1,.364.237,5.287,5.287,0,0,1-.3,4.39A5.365,5.365,0,0,1,4165.241,2413.03Zm8.721,1.99h0a1.614,1.614,0,0,1-1.576-1.582h0a1.569,1.569,0,0,1,1.541-1.6h.041a1.576,1.576,0,0,1,1.576,1.6A1.634,1.634,0,0,1,4173.962,2415.019Zm-8.228,5.54c.066-.077.143-.152.224-.232a1.98,1.98,0,0,0,.5-.655c.487-1.235.966-2.5,1.429-3.716.379-1,.772-2.034,1.167-3.047.571-1.466,1.167-2.946,1.744-4.376q.346-.857.688-1.711c.814.1,1.272.176,1.452.361s.184.65.184,1.486c0,.08,0,.16,0,.24a4.326,4.326,0,0,0,.011.577.87.87,0,0,1-.65,1.1,3.109,3.109,0,0,0-1.574,3.892,3.265,3.265,0,0,0,3.534,2.157,3.273,3.273,0,0,0,.45-6.343v-2.506l.951.281c1.017.3,1.978.584,2.948.887a1.544,1.544,0,0,1,1.125,1.3c.573,3.317,1.088,6.313,1.59,9.386.067.408.15.916.057,1.025a2.556,2.556,0,0,1-1.1.111h-14.909Z" transform="translate(-4147.805 -2382.439)" fill="#fff"/>
</svg>
