<svg xmlns="http://www.w3.org/2000/svg" xmlns:xlink="http://www.w3.org/1999/xlink" width="341.778" height="381.27" viewBox="0 0 341.778 381.27">
  <defs>
    <clipPath id="clip-path">
      <path id="Path_5292" data-name="Path 5292" d="M106.437,331.624c-15.263.14-31.773-8.874-34.894-23.815-2.245-10.731,2.683-21.512,6.257-31.9s5.506-22.99-1.511-31.435c-7.429-8.973-21.058-8.8-32.648-7.537s-24.905,2.328-33.309-5.778c-10.591-10.17-6.406-28.248,1.775-40.449s19.812-22.792,23.18-37.081c3.739-15.684-3.426-31.847-11.557-45.815S6.123,79.882,4.621,63.809,13.453,29.139,29.592,28.5c12.713-.479,23,9.749,34.811,14.43,22.024,8.775,47.358-2.765,64.454-19.193,7.553-7.223,14.388-15.635,23.733-20.431S174.878-1.52,181.4,6.685c3.913,4.953,4.689,11.557,7.5,17.2C195.8,37.649,213.313,42.355,228.7,41.9s30.824-4.532,46-2.014,30.6,15,28.744,30.287c-1.024,8.618-7.157,15.734-9.724,24.022-4.309,13.918,2.055,29.057,11.07,40.5s20.637,20.637,29.478,32.194S348.95,194,343.939,207.635c-5.432,14.859-21.289,22.544-35.546,29.33S278.6,252.88,275.217,268.333c-4.2,19.135,12.688,38.8,6.909,57.52-4.953,16.13-25.087,23.031-41.729,20.175s-31.121-12.647-46.3-20.043c-13.489-6.6-30.114-11.73-45.121-7.487C134.289,322.609,122.443,331.475,106.437,331.624Z" transform="translate(-4.009 -0.04)" fill="none"/>
    </clipPath>
  </defs>
  <g id="Layer_2" data-name="Layer 2" transform="translate(-6.307 -1)">
    <path id="Path_5277" data-name="Path 5277" d="M106.437,331.624c-15.263.14-31.773-8.874-34.894-23.815-2.245-10.731,2.683-21.512,6.257-31.9s5.506-22.99-1.511-31.435c-7.429-8.973-21.058-8.8-32.648-7.537s-24.905,2.328-33.309-5.778c-10.591-10.17-6.406-28.248,1.775-40.449s19.812-22.792,23.18-37.081c3.739-15.684-3.426-31.847-11.557-45.815S6.123,79.882,4.621,63.809,13.453,29.139,29.592,28.5c12.713-.479,23,9.749,34.811,14.43,22.024,8.775,47.358-2.765,64.454-19.193,7.553-7.223,14.388-15.635,23.733-20.431S174.878-1.52,181.4,6.685c3.913,4.953,4.689,11.557,7.5,17.2C195.8,37.649,213.313,42.355,228.7,41.9s30.824-4.532,46-2.014,30.6,15,28.744,30.287c-1.024,8.618-7.157,15.734-9.724,24.022-4.309,13.918,2.055,29.057,11.07,40.5s20.637,20.637,29.478,32.194S348.95,194,343.939,207.635c-5.432,14.859-21.289,22.544-35.546,29.33S278.6,252.88,275.217,268.333c-4.2,19.135,12.688,38.8,6.909,57.52-4.953,16.13-25.087,23.031-41.729,20.175s-31.121-12.647-46.3-20.043c-13.489-6.6-30.114-11.73-45.121-7.487C134.289,322.609,122.443,331.475,106.437,331.624Z" transform="translate(2.298 0.96)" fill="#9bc7ed" opacity="0.7"/>
    <g id="Group_1095" data-name="Group 1095" transform="translate(6.307 1)" clip-path="url(#clip-path)">
      <path id="Path_5278" data-name="Path 5278" d="M316.38,56.207l.19,59.526,48.7-.149-.19-59.534Z" transform="translate(-58.52 -9.814)" fill="#004e90" opacity="0.35"/>
      <path id="Path_5279" data-name="Path 5279" d="M34.79,409.048c0,3.739,13.035,6.728,29.074,6.678S92.9,412.6,92.9,408.858,79.87,402.13,63.856,402.18,34.782,405.333,34.79,409.048Z" transform="translate(-9.38 -70.217)" fill="#cac4f4"/>
      <rect id="Rectangle_1093" data-name="Rectangle 1093" width="6.802" height="198.597" transform="matrix(-1, 0.003, -0.003, -1, 57.355, 338.422)" fill="#cac4f4"/>
      <rect id="Rectangle_1094" data-name="Rectangle 1094" width="6.802" height="198.597" transform="matrix(-1, 0.003, -0.003, -1, 57.355, 338.422)" fill="#004e90" opacity="0.22"/>
      <path id="Path_5280" data-name="Path 5280" d="M101.476,161.569c-.363-.718-21.463-63.249-21.463-63.249l-49.282,2.675L12.62,163.27Z" transform="translate(-5.511 -17.191)" fill="#004e90"/>
      <path id="Path_5281" data-name="Path 5281" d="M86.85,177.955a1.445,1.445,0,1,0,1.436-1.445,1.445,1.445,0,0,0-1.436,1.445Z" transform="translate(-18.465 -30.835)" fill="#cac4f4"/>
      <path id="Path_5282" data-name="Path 5282" d="M86.86,183.255A1.445,1.445,0,1,0,88.3,181.81,1.453,1.453,0,0,0,86.86,183.255Z" transform="translate(-18.467 -31.76)" fill="#cac4f4"/>
      <path id="Path_5283" data-name="Path 5283" d="M87,188.379A1.445,1.445,0,1,0,88.444,187,1.445,1.445,0,0,0,87,188.379Z" transform="translate(-18.491 -32.666)" fill="#cac4f4"/>
      <path id="Path_5284" data-name="Path 5284" d="M86.9,193.965a1.445,1.445,0,1,0,1.436-1.445,1.445,1.445,0,0,0-1.436,1.445Z" transform="translate(-18.474 -33.629)" fill="#cac4f4"/>
      <path id="Path_5285" data-name="Path 5285" d="M86.82,198.82a1.436,1.436,0,1,0,.438-1.017,1.445,1.445,0,0,0-.438,1.017Z" transform="translate(-18.46 -34.481)" fill="#cac4f4"/>
      <path id="Path_5286" data-name="Path 5286" d="M86.23,205.511c0,1.725.892,3.145,2.031,3.17s2.072-1.337,2.089-3.063-.892-3.153-2.031-3.178S86.247,203.785,86.23,205.511Z" transform="translate(-18.357 -35.36)" fill="#cac4f4"/>
      <path id="Path_5287" data-name="Path 5287" d="M277.477,252.7c2.146-1.114,4.6.941,6.447,3.129a55.836,55.836,0,0,1,9.2,15.684c-2.716-9.006-5.052-18.2-6.975-27.522-.677-3.3-1.09-7.429.875-9.237s4.837.528,6.728,2.988a66.484,66.484,0,0,1,9.782,18.574,215.8,215.8,0,0,1-6.5-40.317c-.157-2.4-.157-5.2,1.189-6.6,2.13-2.221,5.225,1.106,6.852,4.35,7.859,15.75,8.907,35.5,9.675,54.053-.322-21.463-.636-43.124,2.2-63.926.561-4.127,1.7-8.858,4.648-9.733,3.525-1.048,6.6,4.177,8.255,8.866,8.313,23.857,7.008,50.9,5.506,76.441a196.542,196.542,0,0,1,8.486-21.273c1.015-2.171,2.576-4.565,4.458-3.8,2.171.892,2.526,4.953,2.262,8.016-1.3,14.785-6.109,28.612-13.5,38.9L298.2,315.769c-6.076-.487-10.451-8.866-13.3-16.568a204.245,204.245,0,0,1-9.4-34.671C274.712,260.106,274.538,254.262,277.477,252.7Z" transform="translate(-51.299 -33.889)" fill="#004e90"/>
      <path id="Path_5288" data-name="Path 5288" d="M282.077,404.387l-8.337-71.265,76.622-2.732L341.9,404.272Z" transform="translate(-51.079 -57.689)" fill="#004e90"/>
      <path id="Path_5289" data-name="Path 5289" d="M268.677,337.3,267.62,319.22l87.535,1.147.363,15.552Z" transform="translate(-50.011 -55.74)" fill="#cac4f4"/>
      <path id="Path_5290" data-name="Path 5290" d="M268.677,337.3,267.62,319.22l87.535,1.147.363,15.552Z" transform="translate(-50.011 -55.74)" fill="#004e90" opacity="0.22"/>
      <path id="Path_5291" data-name="Path 5291" d="M308,45.958l.248,76.416,62.523-.2-.248-76.416Zm12.927,12.63,36.751-.116.165,51.065-36.751.124Z" transform="translate(-57.058 -8.018)" fill="#004e90"/>
    </g>
    <g id="OBJECTS" transform="translate(76.591 19.649)">
      <ellipse id="Ellipse_137" data-name="Ellipse 137" cx="83.16" cy="13.588" rx="83.16" ry="13.588" transform="translate(14.494 335.446)" fill="#004e90" opacity="0.7"/>
      <path id="Path_5358" data-name="Path 5358" d="M183.039,444.439a4.8,4.8,0,0,1-.454,1.956c-.966,1.271-24.2,3.9-25.739,1.8-.826-1.156,1.651-2.476,4.284-3.8,2.2-1.081,4.54-2.179,5.308-3.2,1.725-2.295.71-4.449,5.679-4.631s10.872-.264,10.872-.264a70.22,70.22,0,0,1,.05,8.139Z" transform="translate(-100.936 -94.819)" fill="#ff6a3c"/>
      <path id="Path_5359" data-name="Path 5359" d="M183.039,446.151a4.8,4.8,0,0,1-.454,1.956c-.966,1.271-24.2,3.9-25.739,1.8-.826-1.156,1.651-2.476,4.284-3.8a6.3,6.3,0,0,1,.991,2.947c4.557-.314,9.741-.132,14.215-1.007a26.786,26.786,0,0,0,6.7-1.9Z" transform="translate(-100.936 -96.531)" fill="#2d2433"/>
      <path id="Path_5360" data-name="Path 5360" d="M263.476,432.845c-.429,1.577-20.39,11.557-22.495,10.021-1.114-.825.462-2.831,2.311-5,1.651-1.915,3.5-3.946,3.847-5.283.751-2.848.784-5.5,5.168-7.429a17.814,17.814,0,0,0,6.744-5.291,115.6,115.6,0,0,1,4.235,11.458A3.98,3.98,0,0,1,263.476,432.845Z" transform="translate(-115.582 -91.951)" fill="#ff6a3c"/>
      <path id="Path_5361" data-name="Path 5361" d="M263.476,435.26c-.429,1.577-20.39,11.557-22.495,10.021-1.114-.825.462-2.831,2.311-5a6.463,6.463,0,0,1,1.882,2.427c4.194-1.791,9.146-3.3,13.084-5.63a31.6,31.6,0,0,0,5.027-3.376,3.98,3.98,0,0,1,.19,1.56Z" transform="translate(-115.582 -94.366)" fill="#2d2433"/>
      <path id="Path_5362" data-name="Path 5362" d="M220.682,250.556c-3.244,9.8-16.039,49.917-11.986,62.275s33.672,66.37,33.069,73.6-9.567,12.118-15.412,11.5c-4.053-.429-47.309-75.433-49.463-82.211-4.053-12.77,7.429-54.144,4.953-56.274-3.3-2.9-18.615,44.1-20.241,54.747-.768,5.044,24.17,82.549,18.664,87.337s-13.125,3.517-17.178,2.237-29.775-79.429-29.288-88.328c.825-14.908,11.854-51.313,22.8-73.89,3.393-7,5.547-20.249,6.431-21.067,2.8-2.625,36.99-5.58,53.657.083C221.763,222.233,223.942,240.757,220.682,250.556Z" transform="translate(-96.942 -56.607)" fill="#2d2433"/>
      <path id="Path_5363" data-name="Path 5363" d="M129.225,111.489c-2.047.314-1.816,3.36-1.56,4.854s10,5.044,10.9,4.788,3.566-3.55,3.021-4.524C140.543,114.766,130.34,111.315,129.225,111.489Z" transform="translate(-95.844 -38.136)" fill="#a89b4f"/>
      <path id="Path_5364" data-name="Path 5364" d="M170.231,133.456c2.435,5.613-.586,12.126-10.17,18.037-7.611,4.7-30.543,33.11-46.987,17.822s4.623-51.907,9.27-53.756,13.67,2.666,15.313,6.1-11.3,28.207-8.577,28.116c4.771-3.773,13.307-10.31,21.884-15.858C158.27,129.188,167.8,127.843,170.231,133.456Z" transform="translate(-92.248 -38.773)" fill="#a89b4f"/>
      <path id="Path_5365" data-name="Path 5365" d="M164.938,227.688s-2.774,6.315-.949,8.321,11.441,4.243,31.509,4.458c19.028.206,29.619-3.789,31.814-5.613s-.949-8.643-.949-8.643Z" transform="translate(-102.103 -58.157)" fill="#a89b4f"/>
      <path id="Path_5366" data-name="Path 5366" d="M230.073,202.824a16.344,16.344,0,0,1-.57,4c-.289.718-.471,1.552-.759,2.476a9.394,9.394,0,0,1-1.651,3.236c-2,2.476-6.183,4.953-15.957,6.6-17.987,3.013-42.166-.553-45.716-2.675a15.418,15.418,0,0,1-2.476-1.8,8.874,8.874,0,0,1-3-5.1,12.317,12.317,0,0,1,.239-5.027,52.293,52.293,0,0,1,3.467-9.138c.652-1.428,1.313-2.889,1.948-4.392a44.759,44.759,0,0,0,3.186-10.145,25.54,25.54,0,0,0,.338-3.475v-.892a99.69,99.69,0,0,0-.57-10.731c-.149-1.535-.322-3.071-.5-4.606-.355-3.112-.726-6.2-1-9.163-.149-1.544-.264-3.063-.33-4.524a40.729,40.729,0,0,1,.388-9.08,15.808,15.808,0,0,1,1.387-4.309,9.848,9.848,0,0,1,1.783-2.518c7.685-7.751,40.647-6.323,48.7.347a2.321,2.321,0,0,1,.256.239,13.48,13.48,0,0,1,2.848,4.532,57.322,57.322,0,0,1,2.98,9.642q.594,2.551,1.106,5.366c.52,2.782.982,5.721,1.4,8.734q.33,2.476.627,4.953c.338,2.922.636,5.869.892,8.775q.231,2.683.413,5.3c.2,2.716.347,5.357.462,7.859.091,2.047.157,4,.19,5.828C230.246,197.045,230.213,200.347,230.073,202.824Z" transform="translate(-101.479 -40.723)" fill="#c7b75d"/>
      <g id="Group_1096" data-name="Group 1096" transform="translate(58.339 91.406)" opacity="0.4">
        <path id="Path_5367" data-name="Path 5367" d="M230.078,219a16.344,16.344,0,0,1-.57,4c-.289.718-.471,1.552-.759,2.476-.826.215-1.717.413-2.559.6-1.18.281-2.328.537-3.451.784a132.738,132.738,0,0,1-27.365,3.219,130.676,130.676,0,0,1-28.067-2.732l-3.054-.644c-1.4-.289-2.831-.6-4.276-.958a12.316,12.316,0,0,1,.239-5.027c3.781.883,7.6,1.486,11.078,2.064a128.859,128.859,0,0,0,26.011,1.651,130.467,130.467,0,0,0,26.507-3.657Q226.941,219.941,230.078,219Z" transform="translate(-159.824 -148.305)" fill="#423d1e"/>
        <path id="Path_5368" data-name="Path 5368" d="M230.947,206c-2.518.826-5.035,1.486-7.479,2.122a119.77,119.77,0,0,1-24.179,3.7,114.239,114.239,0,0,1-34.819-3.525c.652-1.428,1.313-2.889,1.948-4.392a119.152,119.152,0,0,0,32.689,2.774,115.948,115.948,0,0,0,24.121-3.946c2.576-.71,5.077-1.577,7.553-2.518C230.873,202.216,230.947,204.164,230.947,206Z" transform="translate(-160.635 -145.026)" fill="#423d1e"/>
        <path id="Path_5369" data-name="Path 5369" d="M231.4,189.521c-2.476.578-4.953,1.073-7.38,1.544a140.4,140.4,0,0,1-20.679,2.476,133.73,133.73,0,0,1-32.656-2.609,25.542,25.542,0,0,0,.338-3.475v-.892a140.795,140.795,0,0,0,31.559,2.179,135.193,135.193,0,0,0,20.117-2.419c2.8-.561,5.539-1.3,8.255-2.1Q231.207,186.9,231.4,189.521Z" transform="translate(-161.72 -142.237)" fill="#423d1e"/>
        <path id="Path_5370" data-name="Path 5370" d="M229.951,172.541l-3.533.826a122.461,122.461,0,0,1-22.379,3.054,117.3,117.3,0,0,1-33.713-3.451c-.149-1.535-.322-3.071-.5-4.606a119.06,119.06,0,0,0,33.507,3.3,115.569,115.569,0,0,0,21.793-3c1.4-.338,2.807-.693,4.193-1.081Q229.653,170.048,229.951,172.541Z" transform="translate(-161.57 -139.332)" fill="#423d1e"/>
        <path id="Path_5371" data-name="Path 5371" d="M227.639,155.866a197.548,197.548,0,0,1-22.7,2.369A164.743,164.743,0,0,1,168.55,156.2c-.149-1.544-.264-3.063-.33-4.524a185.392,185.392,0,0,0,36.057,1.544,172.264,172.264,0,0,0,22.288-2.716Q227.127,153.067,227.639,155.866Z" transform="translate(-161.289 -136.351)" fill="#423d1e"/>
        <path id="Path_5372" data-name="Path 5372" d="M223.63,137.884a149.819,149.819,0,0,1-20.637,3.1,143.4,143.4,0,0,1-34.332-1.387,15.808,15.808,0,0,1,1.387-4.309,151.667,151.667,0,0,0,32.029.826,146.827,146.827,0,0,0,18.681-2.749,13.481,13.481,0,0,1,2.873,4.524Z" transform="translate(-161.366 -133.36)" fill="#423d1e"/>
      </g>
      <path id="Path_5373" data-name="Path 5373" d="M200.508,128.757a14.785,14.785,0,0,1-6.6,2.683c-5.027.908-4.722-1.527-4.722-1.527l-.825-5.869-1.2-8.552,11.854-1.651,1.007,7.2.925,6.6a1.238,1.238,0,0,1-.437,1.114Z" transform="translate(-106.255 -38.548)" fill="#b26f69"/>
      <path id="Path_5374" data-name="Path 5374" d="M200.061,121.037a24.161,24.161,0,0,1-3.888,1.651,36.189,36.189,0,0,1-5.184,1.172,13.571,13.571,0,0,1-2.592.223l-1.2-8.552,11.854-1.651Z" transform="translate(-106.262 -38.555)" fill="#a34b5f" opacity="0.4"/>
      <path id="Path_5375" data-name="Path 5375" d="M166.536,52.935c-5.844-8.04-14.207,1.7-10.2,7.595-6.645,5.192.784,13.092,3.806,13.3C160.684,70.617,166.883,59.828,166.536,52.935Z" transform="translate(-100.407 -27.387)" fill="#2d2433"/>
      <path id="Path_5376" data-name="Path 5376" d="M158.716,76.483c-3.863,19.317,5.168,33.688,26.655,31.847s26.176-18.351,29.338-35.092-7.545-32.722-25.541-32.789C168.35,40.376,160.45,52.89,158.716,76.483Z" transform="translate(-101.139 -25.74)" fill="#e6ad83"/>
      <g id="Group_1097" data-name="Group 1097" transform="translate(97.197 48.745)" opacity="0.5">
        <path id="Path_5377" data-name="Path 5377" d="M208.022,81.68s-2.534,3.649,0,3.731S208.022,81.68,208.022,81.68Z" transform="translate(-206.896 -81.68)" fill="#fff"/>
        <path id="Path_5378" data-name="Path 5378" d="M211.235,87.51s-3.459,4.953,0,5.093S211.235,87.51,211.235,87.51Z" transform="translate(-207.385 -82.697)" fill="#fff"/>
      </g>
      <path id="Path_5379" data-name="Path 5379" d="M211.908,37.225c-4.07-1.833-9.5-.256-14.372-.743a9.138,9.138,0,0,0-4.127-3.541,6.769,6.769,0,0,0-6.662.892,6.479,6.479,0,0,0-.826.825,18.639,18.639,0,0,0-2.534-6.455,11.557,11.557,0,0,0-8.3-5.5,8.329,8.329,0,0,0-8.337,4.127,9.4,9.4,0,0,0-1,4.416,4.417,4.417,0,0,0-1.09-.173c-2.741-.058-5.011,2.138-5.778,4.656a10.385,10.385,0,0,0,1.288,7.941,12,12,0,0,0,2.584,3.1,10.583,10.583,0,0,0,3.211,1.791.107.107,0,0,0,.157-.091c5.564,2.823,11.648-1.271,11.648-1.271s2.163,3.921,8.255,5.547a15.849,15.849,0,0,0,6.084.355.733.733,0,0,0,.058.347,8.915,8.915,0,0,0,4.061,5.168,4.433,4.433,0,0,0-.949,1.651c-.578,1.816.966,4.548,2.394,5.7A19.34,19.34,0,0,0,204.594,69s-.718,9.493,2.122,11.384c1.065.71,1.651-3.872,3.756-5.2,3.3-2.138,8.057-1.758,10.409-6.117C226.346,58.944,225.149,43.168,211.908,37.225Z" transform="translate(-101.269 -22.631)" fill="#2d2433"/>
      <path id="Path_5380" data-name="Path 5380" d="M219.757,95.345c.883,2.567,5.069,3.484,8.453,1.18s5.844-9.279,3.3-13.068-8.494-2.105-10.731,2.41A13.615,13.615,0,0,0,219.757,95.345Z" transform="translate(-111.866 -32.88)" fill="#e6ad83"/>
      <path id="Path_5381" data-name="Path 5381" d="M230.159,87.069a.256.256,0,0,0-.116-.421,3.409,3.409,0,0,0-2.361.71,8.205,8.205,0,0,0-1.973,1.651,7.314,7.314,0,0,0-1.849,4.8c0,.322.52.421.594.074a9.006,9.006,0,0,1,2-4.243,6,6,0,0,1,.462-.454c.066.074.14.149.2.223l.355.4a7.916,7.916,0,0,1,.611.875c.38.619.611,1.321,1.032,1.907.083.107.305.124.33,0a3.492,3.492,0,0,0-.652-2.278,6.928,6.928,0,0,0-.735-.966,3.894,3.894,0,0,0-.413-.413l-.206-.165a6.072,6.072,0,0,1,.759-.545A10.657,10.657,0,0,0,230.159,87.069Z" transform="translate(-112.659 -33.8)" fill="#a34b5f" opacity="0.45"/>
      <path id="Path_5382" data-name="Path 5382" d="M200.948,77.563a.908.908,0,0,0-.33-.5c-.157-.107-.355-.2-.4-.388s.157-.429.305-.627a1.271,1.271,0,0,0-.19-1.651c-.5-.487-1.3-.4-1.915-.627a13.463,13.463,0,0,1-2.4-1.106,9.254,9.254,0,0,1-1.907-1.486c-.272-.281-.57-.974-.991-1.057-.776-.157-.413.933-.561,1.313a2.789,2.789,0,0,0-.272.759,1.593,1.593,0,0,0,.248.825,10.732,10.732,0,0,0,3.649,4.037,15.974,15.974,0,0,0,2.782,1.4,2.245,2.245,0,0,0,1.081.215,1.048,1.048,0,0,0,.875-.611A.826.826,0,0,0,200.948,77.563Z" transform="translate(-107.148 -30.915)" fill="#2d2433"/>
      <path id="Path_5383" data-name="Path 5383" d="M163.1,74.071l.05.124a1.279,1.279,0,0,0,.826.619,5.118,5.118,0,0,0,3.508-.553,11.722,11.722,0,0,0,3.566-2.724,1.956,1.956,0,0,0,.66-1.238,5.474,5.474,0,0,1-.041-.9c0-.165.132-.33.157-.5.14-.916-.875-.173-1.106,0a8.008,8.008,0,0,1-1.461.883,8.791,8.791,0,0,1-2.32.718c-.826.132-1.791-.149-2.534.33a1.164,1.164,0,0,0-.553.9c0,.355.371.693.215,1.048s-.479.3-.71.479a.768.768,0,0,0-.256.817Z" transform="translate(-102.051 -30.626)" fill="#2d2433"/>
      <path id="Path_5384" data-name="Path 5384" d="M182.018,105.981c-2.113,1.692-3.607-.528-5.919-.446a5.308,5.308,0,0,0-1.139.074c-1.791.165-2.386.421-3.3-.537-1.073-1.139.825-4.425,5.027-4.383A6.8,6.8,0,0,1,181,102.283C182.463,103.538,183.008,105.2,182.018,105.981Z" transform="translate(-103.498 -36.253)" fill="#a34b5f"/>
      <path id="Path_5385" data-name="Path 5385" d="M182.778,106.311c-2.113,1.692-3.607-.528-5.919-.446a5.308,5.308,0,0,0-1.139.074,5.985,5.985,0,0,1,2.047-2.369,6.109,6.109,0,0,1,4-.958C183.224,103.867,183.769,105.526,182.778,106.311Z" transform="translate(-104.258 -36.582)" fill="#dd6b7d"/>
      <path id="Path_5386" data-name="Path 5386" d="M198.115,89.863a10.956,10.956,0,0,0-1.007-.949,8.775,8.775,0,0,0-2.41-1.527,4.408,4.408,0,0,0-2.757-.3,1.692,1.692,0,0,0-1.346,1.94c.066.314.512.223.528-.066.05-.908,1.09-1.114,1.816-1.057a5.027,5.027,0,0,1,2.1.685,10.732,10.732,0,0,1,1.775,1.329,5.159,5.159,0,0,0,1.767,1.4.248.248,0,0,0,.305-.305,2.716,2.716,0,0,0-.768-1.156Z" transform="translate(-106.85 -33.862)" fill="#2d2433"/>
      <path id="Path_5387" data-name="Path 5387" d="M170.106,87.2a6.133,6.133,0,0,0-.825-.925,6.389,6.389,0,0,0-2.122-1.42,2.625,2.625,0,0,0-2.476.1,1.56,1.56,0,0,0-.545,1.973.272.272,0,0,0,.5-.215,1.048,1.048,0,0,1,.825-1.263,2.757,2.757,0,0,1,1.956.454,6,6,0,0,1,1.478,1.18,8.8,8.8,0,0,1,.594.751,1.849,1.849,0,0,0,.685.718.264.264,0,0,0,.363-.215A1.585,1.585,0,0,0,170.106,87.2Z" transform="translate(-102.21 -33.443)" fill="#2d2433"/>
      <path id="Path_5388" data-name="Path 5388" d="M188.225,87.68s-2.1,4.738,2.336,7.512c5.143,3.219,9.468-1.436,9.468-1.436S189.455,92.773,188.225,87.68Z" transform="translate(-106.354 -33.982)" fill="#a34b5f" opacity="0.15"/>
      <path id="Path_5389" data-name="Path 5389" d="M170.783,89.956s-1,4.02-4.73,5.027S162.462,91,163.114,89.75C163.56,91.236,167.382,92.433,170.783,89.956Z" transform="translate(-101.996 -34.344)" fill="#a34b5f" opacity="0.15"/>
      <path id="Path_5390" data-name="Path 5390" d="M177.236,78.711a.149.149,0,0,0-.272,0,11.929,11.929,0,0,0-.289,2.864c-.041,1.015-.05,2.039-.074,3.054-.05,1.9-.1,3.789-.132,5.679-1.651-.347-3.459-.363-4.548,1.09a2.13,2.13,0,0,0,.826,3.3c.157.058.272-.206.116-.272a1.75,1.75,0,0,1-.182-2.972c1.139-.925,2.724-.7,4.037-.363a.363.363,0,0,0,.454-.347q.083-3.054.149-6.125c0-1.015.058-2.039.066-3.054a11.879,11.879,0,0,0-.149-2.856Z" transform="translate(-103.512 -32.402)" fill="#a34b5f" opacity="0.45"/>
      <path id="Path_5391" data-name="Path 5391" d="M172.965,95.061a1.75,1.75,0,0,1-.182-2.972c1.139-.925,2.724-.7,4.037-.363a.363.363,0,0,0,.454-.347q.083-3.054.149-6.125c0-1.015.058-2.039.066-3.054,0,0,1.263,7.479.825,10.418S174.484,95.391,172.965,95.061Z" transform="translate(-103.617 -33.026)" fill="#dd6b7d" opacity="0.74"/>
      <path id="Path_5392" data-name="Path 5392" d="M170.489,123.57c2.122,2.84-3.376,5.49-1.007,8.032,12.217,7.793,40.267,2.476,46.228-5.217,2.675-2.831,1.651-4.788-2.914-6.356-2.055-4.416-1.42-6.488-7.124-5.308C182.426,123.81,168.368,115.662,170.489,123.57Z" transform="translate(-103.064 -38.644)" fill="#ff6a3c"/>
      <path id="Path_5393" data-name="Path 5393" d="M195.589,116.093a5.828,5.828,0,0,0-3.3,1.469,4.127,4.127,0,0,0-.7,3.682,20.182,20.182,0,0,0,1.461,3.6c2.089,4.755,2.254,10.137,1.734,15.3s-1.7,10.253-2.163,15.42a57.009,57.009,0,0,0,1.519,19.135c.636,2.476,1.6,5.2,3.805,6.6a11.285,11.285,0,0,0,5.069,1.3l7.429.718a3.467,3.467,0,0,0,1.7-.116,2.476,2.476,0,0,0,1.263-2.567,8.692,8.692,0,0,0-1.081-2.864c-3.244-6.455-4-13.885-3.929-21.108s.941-14.438.726-21.661a44.2,44.2,0,0,0-3.1-15.94c-.7-1.651-1.461-3.69-3.409-4.127C200.517,114.475,197.677,115.656,195.589,116.093Z" transform="translate(-106.998 -38.721)" fill="#f47848"/>
      <path id="Path_5394" data-name="Path 5394" d="M169.953,155.051c-2.476-1.709-3.888-.826-6.175-.71s-2.105-1.552.735-2.642a11.738,11.738,0,0,1,6.249.066c-3.3-1.808-6.678.4-8.1-.462-.619-.371-.264-1.709,1.354-2.377a14.859,14.859,0,0,1,8.346-.925c-2.708-1.577-5.646.3-7.157,0-1.04-.223-.3-1.123.949-1.841a11.879,11.879,0,0,1,8.255-1.321c3.442.619,6.736,5.572,10.657,11.384,1.156,1.709,2.212,2.476,1.42,5.044s-3.574,5.093-5.316,5.217c-2.237.149-5.778-2.344-8.577-5.514a10.542,10.542,0,0,0-7.429-4c-2.237-.272-2.394-1.4-1.288-1.841S166.626,154.539,169.953,155.051Z" transform="translate(-101.9 -43.915)" fill="#e6ad83"/>
      <path id="Path_5395" data-name="Path 5395" d="M180.2,168.264c-.553,2,2.328,3.03,3.8,3.4s8.684-7.083,8.808-8.007-1.791-4.705-2.906-4.6C187.8,159.258,180.492,167.174,180.2,168.264Z" transform="translate(-105.027 -46.438)" fill="#a89b4f"/>
      <path id="Path_5396" data-name="Path 5396" d="M218.224,131.37c6.117.058,10.839,5.465,12.341,16.625,1.189,8.866,17.8,41.4-2.84,50.173s-45.534-25.334-45.336-30.337,8-11.4,11.8-11.507,21.166,21.793,22.2,19.317c-1.511-5.894-4.012-16.345-5.589-26.416C209.458,140.558,212.107,131.3,218.224,131.37Z" transform="translate(-105.422 -41.607)" fill="#a89b4f"/>
      <path id="Path_5397" data-name="Path 5397" d="M96.024,121.557a24.583,24.583,0,0,1,5.366-5.1,44.742,44.742,0,0,1,6.967-4.177c.677-.322,1.354-.619,2.047-.908.33-1.651.446-2.749.462-2.79s-11.144,2.964-15.28,4.5-4.557,3.913-4.557,3.913a5.168,5.168,0,0,0,2.947,6.133.941.941,0,0,0,1.222-.33,14.037,14.037,0,0,1,.825-1.238Z" transform="translate(-89.446 -37.63)" fill="#e6e6e6"/>
      <path id="Path_5398" data-name="Path 5398" d="M131.845,99.459a48.226,48.226,0,0,1,12.9.1c2.113.355,4.532,1.271,5.027,3.351s-1.271,3.971-2.881,5.39c-7.107,6.274-14.6,12.688-18.375,21.388-1.511,3.467-2.361,7.174-3.731,10.731s-3.368,6.967-6.53,9.039c-2.336,1.527-5.778,2.064-7.743.091-2.84-2.823-.528-7.991-2.476-11.458a6.951,6.951,0,0,0-5.456-3.137,21.875,21.875,0,0,0-6.488.677,10.517,10.517,0,0,1-3.888.272,3.682,3.682,0,0,1-2.931-2.311c-.545-1.808.825-3.566,2.146-4.953l6.942-7.33c1.453-1.535,3.013-3.434,2.584-5.506-.4-1.907-2.476-3.1-4.408-3.162-2.146-.066-3.847,1.1-5.778,2.864.256-1.734,3.508-4.334,4.829-5.027q4.127-2.155,8.42-3.929a101.006,101.006,0,0,1,17.732-5.465A98.312,98.312,0,0,1,131.845,99.459Z" transform="translate(-89.151 -35.971)" fill="#fff"/>
      <path id="Path_5399" data-name="Path 5399" d="M142.383,107.434c-.38-1.412-16.634,4.367-25.7,9.312s-19.11,13.588-17.954,14.743,9.906-10.154,22.074-14.413c1.651-.578,2.3.578-.083,2.551s.413,1.568,6.175-2.716S142.63,108.342,142.383,107.434Z" transform="translate(-90.807 -37.392)" fill="#e6e6e6"/>
      <path id="Path_5400" data-name="Path 5400" d="M134.871,107.276a21.413,21.413,0,0,1-.685-5.688c-.058,1.065-.173,1.857-.157,2.873s.338,3.071-.627,3.112-2-1.164-2.7-2.914a13.43,13.43,0,0,1-.883-4.6,2.559,2.559,0,0,1,2.113-2.642,29.594,29.594,0,0,1,9.229-.644c3.343.355,3.4,1.651,4.127,3.236.875,1.948-.883,5.778-2.476,5.878s.124-2.807-.958-5.06c.826,1.651-.619,6.208-2.476,6.7-.974.264-1.032-.743-.991-1.271.1-1.577.685-3.195,0-4.747.05,1.3-.231,4.87-1.172,5.96a1.412,1.412,0,0,1-2.344-.2Z" transform="translate(-96.248 -35.55)" fill="#e6ad83"/>
    </g>
  </g>
</svg>
