<svg xmlns="http://www.w3.org/2000/svg" width="60" height="57.49" viewBox="0 0 60 57.49">
  <g id="socialdistance" transform="translate(-942 -413.566)">
    <ellipse id="Ellipse_64" data-name="Ellipse 64" cx="28.745" cy="28.745" rx="28.745" ry="28.745" transform="translate(942 413.566)" fill="#ffc400"/>
    <g id="Group_652" data-name="Group 652" transform="translate(1430 472.529)">
      <path id="Path_668" data-name="Path 668" d="M-435.133-9.587c-.6-.012-1.2-.015-1.795-.006a.538.538,0,0,1-.611-.419,2.782,2.782,0,0,0-1.124-1.446.686.686,0,0,1-.355-.614q.013-4.521.013-9.042a1.935,1.935,0,0,1,.068-.3c.405-.006.831-.014,1.257-.018,1.008-.01,1.27-.263,1.271-1.265q0-5.971,0-11.942a4.376,4.376,0,0,0-2.735-4.32c-.082-.037-.16-.085-.277-.148.091-.2.166-.384.262-.56a5.005,5.005,0,0,0-2.958-7.187c-.13-.042-.256-.093-.384-.14h-2.21c-.211.086-.42.178-.634.258a5,5,0,0,0-2.986,6.245c.159.474.4.92.622,1.41l-.37.178a4.24,4.24,0,0,0-2.607,4.1q0,6.038,0,12.075c0,.161-.009.323.007.483a.794.794,0,0,0,.791.8c.389.031.782,0,1.172.016.2.006.394.037.591.057a2.543,2.543,0,0,1,.05.329c0,2.967,0,5.934.009,8.9a.693.693,0,0,1-.38.67,2.3,2.3,0,0,0-1.048,1.243c-.186.541-.5.65-1.028.648C-456.361-9.6-462.2-9.6-468.046-9.6c-.247,0-.493-.022-.736-.033a3.135,3.135,0,0,0-1.2-1.783.9.9,0,0,1-.4-.875c.007-2.829,0-5.658.007-8.487,0-.2.038-.4.065-.662.465,0,.874,0,1.283,0,.971-.007,1.254-.257,1.257-1.215.011-4.025.039-8.051-.01-12.075a4.31,4.31,0,0,0-2.835-4.253,1.882,1.882,0,0,1-.233-.138c.09-.154.157-.272.226-.389a4.936,4.936,0,0,0-1.277-6.481A13.906,13.906,0,0,0-473.848-47h-2.21c-.318.128-.638.251-.953.385A5.016,5.016,0,0,0-479.4-39.7c.1.179.174.367.274.577a2.321,2.321,0,0,1-.3.195,4.253,4.253,0,0,0-2.692,4.134c-.052,4.07-.02,8.141-.013,12.211,0,.863.3,1.133,1.181,1.145.433.006.866,0,1.355,0,.025.261.059.459.06.657,0,2.829,0,5.657.01,8.486a.969.969,0,0,1-.451.919,3.135,3.135,0,0,0-1.141,1.742c-.222.013-.445.035-.669.036-1.035,0-2.07.019-3.1-.006A1.33,1.33,0,0,0-486-9.162v1.1h51.233c.067-.062.139-.121.2-.188a.733.733,0,0,0,.183-.824A.791.791,0,0,0-435.133-9.587Z" fill="#3e2d4a"/>
      <path id="Path_669" data-name="Path 669" d="M-93.682,223.806c-.867-.054-1.74-.034-2.61-.014a.819.819,0,0,0-.862.719.943.943,0,0,0,.433.811h3.867v-1.1C-93.13,224.073-93.4,223.823-93.682,223.806Z" transform="translate(-335.145 -233.379)" fill="#3e2d4a"/>
      <path id="Path_670" data-name="Path 670" d="M-336.7,52.8c.553.616,1.094,1.243,1.665,1.843.389.409.743.436,1.094.152a.765.765,0,0,0,.068-1.159c-.175-.241-.4-.447-.591-.673-.28-.325-.555-.653-.9-1.056h7.574c-.355.409-.625.714-.888,1.024a10.234,10.234,0,0,0-.739.908.688.688,0,0,0,.151.93.706.706,0,0,0,.946.049,1.527,1.527,0,0,0,.253-.233c.876-.975,1.758-1.944,2.62-2.932.411-.472.39-.787-.025-1.283-.221-.264-.454-.52-.684-.776q-.992-1.1-1.987-2.2a.79.79,0,0,0-.775-.348.754.754,0,0,0-.455,1.229c.332.439.72.835,1.077,1.256.151.178.284.371.487.64h-7.6c.47-.529.823-.92,1.168-1.318a3.958,3.958,0,0,0,.465-.6.748.748,0,0,0-.142-.944.791.791,0,0,0-1.014,0,1.894,1.894,0,0,0-.246.241c-.844.942-1.693,1.879-2.526,2.831a.825.825,0,0,0-.007,1.284C-337.382,52.051-337.037,52.422-336.7,52.8Z" transform="translate(-127.553 -81.04)" fill="#3e2d4a"/>
    </g>
  </g>
</svg>
