<svg xmlns="http://www.w3.org/2000/svg" xmlns:xlink="http://www.w3.org/1999/xlink" width="455.547" height="393.764" viewBox="0 0 455.547 393.764">
  <defs>
    <clipPath id="clip-path">
      <path id="Path_1569" data-name="Path 1569" d="M100.738,186.363s-14.473-3.613-19.9-15.373c4.915-7.367,13.985-17.641,19.312-23.489a20.4,20.4,0,0,1,10.068-6.043c7.345-1.877,19.008-4.828,20.234-4.828,2.712,5.425,16.274,7.236,20.755,1.812,5.229-.532,12.433,1.378,17.446,3.07a20.462,20.462,0,0,1,9.764,7.02l16.35,21.558s-5.425,11.75-22.61,14.462c-.9,18.086-.9,44.309-.9,44.309l-71.432-.9Z" transform="translate(-80.84 -136.63)" fill="none"/>
    </clipPath>
  </defs>
  <g id="Staying_home" data-name="Staying home" transform="translate(0 0.02)">
    <g id="Layer_2" data-name="Layer 2" transform="translate(0 1.98)">
      <g id="OBJECTS">
        <line id="Line_119" data-name="Line 119" y2="189.874" transform="translate(334.908 116.25)" fill="none" stroke="#006837" stroke-linecap="round" stroke-miterlimit="10" stroke-width="3"/>
        <path id="Path_1466" data-name="Path 1466" d="M306.319,115.756c.282-.26.575-.51.879-.759l.445-.358h0l.109-.076.25-.184a22.786,22.786,0,0,1,1.931-1.269.814.814,0,1,0-.814-1.41,24.051,24.051,0,0,0-3.949,2.908.814.814,0,0,0,0,1.15A.825.825,0,0,0,306.319,115.756Z" transform="translate(25.898 7.329)" fill="#006837"/>
        <path id="Path_1467" data-name="Path 1467" d="M306.909,112.539l-2.007,1.085a.817.817,0,0,0,.825,1.41l2-1.085a.814.814,0,0,0-.814-1.41Z" transform="translate(25.861 7.401)" fill="#006837"/>
        <path id="Path_1468" data-name="Path 1468" d="M309.372,123.455a29.293,29.293,0,0,1,9.905,14c.325,1,1.888.575,1.562-.423A30.628,30.628,0,0,0,310.522,122.3C309.708,121.665,308.548,122.815,309.372,123.455Z" transform="translate(26.251 8.223)" fill="#006837"/>
        <path id="Path_1469" data-name="Path 1469" d="M314.671,130.805v-.033a4.763,4.763,0,0,1,.325-1.226l-.076.2a5.024,5.024,0,0,1,.564-1,.8.8,0,0,0-.293-1.085.846.846,0,0,0-.629-.087.966.966,0,0,0-.477.38A5.425,5.425,0,0,0,313,130.827a.814.814,0,0,0,.814.814.835.835,0,0,0,.814-.814Z" transform="translate(26.584 8.685)" fill="#006837"/>
        <path id="Path_1470" data-name="Path 1470" d="M310.469,113.66c-8.755,2.506-16.176,8.6-21.7,15.873s-9.265,15.688-12.6,24.183-6.293,17.142-10.4,25.279a35.141,35.141,0,0,1-6.51,9.526,46.327,46.327,0,0,0,18.7-9.96,85.026,85.026,0,0,0,14.1-15.981,59.762,59.762,0,0,0,4.34-6.835c6.857-13.019,5.891-29.608,14.549-41.564" transform="translate(22.019 7.505)" fill="#006837"/>
        <path id="Path_1471" data-name="Path 1471" d="M310.311,112.93c-24.823,7.312-32.233,35.065-40.88,56.221-2.669,6.51-5.544,13.768-10.632,18.856a.814.814,0,0,0,.792,1.356c12.574-3.146,22.469-12.075,30.2-22.1,3.982-5.164,7.595-10.535,9.873-16.686,2.072-5.663,3.2-11.587,4.611-17.435,1.573-6.51,3.537-13.019,7.475-18.444.608-.857-.8-1.671-1.4-.825-6.857,9.591-7.768,21.7-11.045,32.667a55.137,55.137,0,0,1-8.365,16.513,83.636,83.636,0,0,1-13.084,14.723,45.774,45.774,0,0,1-18.7,10.057l.792,1.367c4.34-4.275,6.9-9.949,9.3-15.417,2.539-5.794,4.7-11.728,6.965-17.63,4.4-11.435,9.471-23.12,18.379-31.821a39.2,39.2,0,0,1,16.155-9.764.816.816,0,1,0-.434-1.573Z" transform="translate(21.96 7.443)" fill="#006837"/>
        <path id="Path_1472" data-name="Path 1472" d="M317.234,130.782a71.725,71.725,0,0,0,6.206,36.443c3.873,8.43,9.341,16,14.343,23.868s9.634,16.068,11.533,25.149q.749-15.135.825-30.291a60.752,60.752,0,0,0-.347-8.191,43.094,43.094,0,0,0-1.812-7.595,67.266,67.266,0,0,0-12.054-22.035c-5.511-6.672-12.238-12.216-18.986-17.63" transform="translate(26.917 8.935)" fill="#006837"/>
        <path id="Path_1473" data-name="Path 1473" d="M316.486,130.853a72.832,72.832,0,0,0,5.62,35.282c4.871,11.305,12.694,20.939,18.8,31.539a65.028,65.028,0,0,1,7.681,18.8c.206.933,1.562.662,1.606-.217q.521-10.546.716-21.091c.119-6.455.629-13.171-.586-19.529-2.17-11.7-8.614-22.784-16.665-31.463a149.218,149.218,0,0,0-16.079-14.321c-.814-.651-1.975.5-1.15,1.15,9.515,7.595,18.769,15.623,24.953,26.288a62.8,62.8,0,0,1,6.792,16.328c1.649,6.51,1.193,13.269,1.085,19.887q-.184,11.359-.749,22.718l1.595-.217c-2.506-11.7-9.222-21.753-15.688-31.593a148.216,148.216,0,0,1-9.3-15.547,70.631,70.631,0,0,1-5.88-17.142A71.386,71.386,0,0,1,318.1,130.9c.087-1.085-1.541-1.031-1.627,0Z" transform="translate(26.851 8.864)" fill="#006837"/>
        <path id="Path_1474" data-name="Path 1474" d="M312.441,200.937a35.8,35.8,0,0,0,13.822,12.271c4.155,2.072,8.679,3.255,13.019,4.785s8.777,3.255,12.357,6.206q-4.427-6.141-9.157-12.075a30.22,30.22,0,0,0-2.691-3.081,22.273,22.273,0,0,0-3.1-2.419,33.633,33.633,0,0,0-11.6-4.817,62.775,62.775,0,0,0-12.922-.922" transform="translate(26.513 14.91)" fill="#006837"/>
        <path id="Path_1475" data-name="Path 1475" d="M311.8,201.412a37.267,37.267,0,0,0,16.523,13.67c7.595,3.255,16.22,4.448,22.784,9.764.662.521,1.877-.174,1.28-.987q-3.808-5.273-7.822-10.394a31.464,31.464,0,0,0-8.614-8.213,33.958,33.958,0,0,0-10.6-4.155,64.184,64.184,0,0,0-13.139-.955.814.814,0,0,0,0,1.627,62.864,62.864,0,0,1,12.444.846,32.9,32.9,0,0,1,10.47,4.036,29.9,29.9,0,0,1,8.126,7.757q3.971,5.056,7.736,10.274l1.28-.987c-6.173-4.98-13.952-6.51-21.221-9.254A36.475,36.475,0,0,1,313.158,200.6c-.586-.868-2-.054-1.41.825Z" transform="translate(26.448 14.848)" fill="#006837"/>
        <path id="Path_1476" data-name="Path 1476" d="M317.23,164.372a24.476,24.476,0,0,0-1.2,12.488,66.885,66.885,0,0,0,2.56,9.081,26.125,26.125,0,0,1,1.508,9.276c1.085-3.255,2.072-6.51,2.994-9.851a19.45,19.45,0,0,0,.618-2.7,13.737,13.737,0,0,0,.1-2.669,22.783,22.783,0,0,0-1.964-8.3,42.883,42.883,0,0,0-4.633-7.475" transform="translate(26.813 11.799)" fill="#006837"/>
        <path id="Path_1477" data-name="Path 1477" d="M316.512,164.215a25.81,25.81,0,0,0-.781,15.1c1.3,5.316,3.841,10.372,3.58,15.959a.821.821,0,0,0,1.606.217q1.4-4.275,2.636-8.614a20.9,20.9,0,0,0,.987-8.256c-.608-5.642-3.342-10.253-6.607-14.755-.608-.846-2.018,0-1.4.825,3.168,4.34,5.945,8.9,6.423,14.408a21.416,21.416,0,0,1-1.183,8.094c-.759,2.636-1.573,5.251-2.43,7.866l1.595.217c.239-5.229-1.855-10.025-3.255-14.95a24.845,24.845,0,0,1,.4-15.677C318.443,163.661,316.87,163.238,316.512,164.215Z" transform="translate(26.75 11.74)" fill="#006837"/>
        <path id="Path_1478" data-name="Path 1478" d="M300.167,211.62c-6.444,3.938-9.276,10.621-11.663,17.782s-3.255,14.744-4.5,22.187a182.872,182.872,0,0,1-9.211,33.7,54.7,54.7,0,0,0,26.982-50.373c-.445-7.692-2.506-15.4-1.291-23" transform="translate(23.338 15.825)" fill="#006837"/>
        <path id="Path_1479" data-name="Path 1479" d="M299.82,211.012c-7.779,4.86-11.186,14.223-13.323,22.718-1.378,5.5-2.1,11.142-3.038,16.73s-2.17,11.121-3.569,16.589a185.334,185.334,0,0,1-5.826,18.118c-.25.684.629,1.259,1.2.911a56.145,56.145,0,0,0,27.21-53.368c-.64-6.8-2.17-13.638-1.15-20.473.152-1.085-1.41-1.465-1.573-.434-.857,5.718,0,11.381.662,17.066a62.8,62.8,0,0,1,.174,16.816A54.051,54.051,0,0,1,287.376,274.1a54.736,54.736,0,0,1-12.932,10.589l1.193.922a184.273,184.273,0,0,0,8.81-31.463c1.909-10.3,2.908-20.744,7.15-30.454,1.985-4.546,4.774-8.679,9.048-11.3.879-.553.065-1.964-.825-1.41Z" transform="translate(23.273 15.76)" fill="#006837"/>
        <path id="Path_1480" data-name="Path 1480" d="M309.9,201.781c-6.846,11.522-7.161,25.876-4.763,39.058s7.237,25.821,10.122,38.917c3.352-13.2,6.727-26.57,6.792-40.142s-3.515-27.742-12.564-37.973" transform="translate(25.8 14.977)" fill="#006837"/>
        <path id="Path_1481" data-name="Path 1481" d="M309.255,201.431c-10.849,18.6-5.294,40.88.325,60.181,1.779,6.108,3.569,12.216,4.947,18.444a.825.825,0,0,0,1.573,0c5.349-21.037,10.849-43.951,2.474-64.987a47.649,47.649,0,0,0-8.452-13.9c-.683-.792-1.833.369-1.15,1.15,14.028,15.948,13.855,38.743,9.992,58.4-1.248,6.358-2.843,12.629-4.437,18.91H316.1c-4.5-20.321-14.1-40.544-10.849-61.841a43.711,43.711,0,0,1,5.425-15.547.817.817,0,1,0-1.41-.825Z" transform="translate(25.739 14.915)" fill="#006837"/>
        <path id="Path_1482" data-name="Path 1482" d="M315.9,130.44c-8.593,6.759-14.278,16.621-17.956,26.917s-5.533,21.124-7.79,31.821-4.958,21.438-10.166,31.04c4.253-1.682,7.378-5.316,10.253-8.864q7.378-9.081,14.1-18.6c4.1-5.75,8.094-11.728,10.209-18.444,1.736-5.5,2.17-11.316,2.376-17.077q.5-13.019-.217-26.038" transform="translate(23.78 8.93)" fill="#006837"/>
        <path id="Path_1483" data-name="Path 1483" d="M315.388,129.925c-20.722,16.458-22.1,44.96-28.143,68.654a93.543,93.543,0,0,1-7.9,21.286c-.293.564.217,1.486.922,1.2,5.728-2.387,9.471-7.595,13.214-12.325q6.325-8,12.238-16.274c3.732-5.284,7.312-10.784,9.428-16.947,2.17-6.358,2.539-13.16,2.756-19.822.282-8.159.174-16.274-.271-24.476-.054-1.085-1.682-1.085-1.627,0q.575,10.361.38,20.755c-.13,6.586-.25,13.323-1.823,19.746s-4.73,11.858-8.321,17.153-7.595,10.708-11.663,15.883c-2.235,2.875-4.459,5.761-6.846,8.5a21.97,21.97,0,0,1-7.9,6.271l.922,1.193c12.488-23.25,10.231-51.415,23.174-74.459a51.133,51.133,0,0,1,12.607-15.189C317.363,130.424,316.2,129.285,315.388,129.925Z" transform="translate(23.718 8.871)" fill="#006837"/>
        <path id="Path_1484" data-name="Path 1484" d="M309.009,110.312c1.237,4.785,5.511,8.18,9.971,10.329s9.32,3.385,13.605,5.837a27.524,27.524,0,0,1,12.086,14.484,32.353,32.353,0,0,0-1.975-19.8,25.81,25.81,0,0,0-14.408-13.551A21.514,21.514,0,0,0,308.9,110.03" transform="translate(26.235 6.882)" fill="#006837"/>
        <path id="Path_1485" data-name="Path 1485" d="M308.332,110.636c2.235,8.028,10.643,11.077,17.619,13.779a33.416,33.416,0,0,1,11.186,6.51,26.809,26.809,0,0,1,6.846,10.383c.25.684,1.4.857,1.573,0,1.66-8.408.5-17.5-4.47-24.639a24.953,24.953,0,0,0-19.529-11.077,21.785,21.785,0,0,0-13.019,3.786c-.857.586,0,2,.814,1.4a21.015,21.015,0,0,1,21.417-1.193,26.179,26.179,0,0,1,13.019,17.164,33.069,33.069,0,0,1,.163,14.1h1.573a28.978,28.978,0,0,0-15.84-16.665c-7.171-3.135-17.359-5.305-19.789-13.985a.814.814,0,0,0-1.562.434Z" transform="translate(26.174 6.819)" fill="#006837"/>
        <path id="Path_1486" data-name="Path 1486" d="M310.706,109.883c-.879-4.578-3.873-8.538-7.5-11.489a60.039,60.039,0,0,0-12.064-7.052A60.085,60.085,0,0,1,279.08,84.3c1.562,5.023,3.135,10.09,5.739,14.657s6.358,8.679,11.207,10.687c5.012,2.1,10.8,1.823,15.992.239" transform="translate(23.703 5.012)" fill="#006837"/>
        <path id="Path_1487" data-name="Path 1487" d="M311.6,109.725c-3.146-15.189-21.438-17.619-31.821-25.941-.586-.467-1.627,0-1.367.792,2.43,7.855,5.077,16.155,11.327,21.894s14.679,6.607,22.61,4.253a.816.816,0,0,0-.434-1.573c-7.7,2.289-15.753,1.389-21.644-4.416-5.609-5.533-8.018-13.258-10.285-20.614l-1.367.792c5.577,4.47,12.3,6.9,18.444,10.361,5.869,3.255,11.5,7.963,12.932,14.864.206,1.085,1.779.6,1.562-.434Z" transform="translate(23.643 4.952)" fill="#006837"/>
        <path id="Path_1488" data-name="Path 1488" d="M308.347,108.888c-1.975-6.108-1.638-12.759-.119-19s4.2-12.075,6.8-17.891c-.6,4.6.282,9.244,1.085,13.811s1.562,9.254.705,13.811-3.613,9.037-7.953,10.676" transform="translate(26.072 3.967)" fill="#006837"/>
        <path id="Path_1489" data-name="Path 1489" d="M309.229,108.769c-3.906-12.488,1.53-25.062,6.607-36.324l-1.519-.412c-.868,7.28,1.7,14.278,2.17,21.492.347,6.1-1.389,13.5-7.681,16.014-.955.391-.542,1.964.434,1.573,6.054-2.419,8.745-8.864,8.918-15.026.228-8.1-3.125-15.916-2.17-24.053a.814.814,0,0,0-1.508-.412c-5.262,11.674-10.849,24.65-6.77,37.582.3.987,1.877.564,1.562-.434Z" transform="translate(26.015 3.902)" fill="#006837"/>
        <path id="Path_1490" data-name="Path 1490" d="M299.226,212.729a57.977,57.977,0,0,1,10.285-10.014.825.825,0,0,0,.293-1.085.814.814,0,0,0-1.085-.282A59.1,59.1,0,0,0,298.1,211.611a.846.846,0,0,0,0,1.15.814.814,0,0,0,1.15,0Z" transform="translate(25.299 14.944)" fill="#006837"/>
        <path id="Path_1491" data-name="Path 1491" d="M313.389,200.485c-.445-.087-.89-.184-1.324-.315l-.3-.087-.2-.076h0a3.849,3.849,0,0,1-.6-.3l-.1-.065s-.163-.119-.065,0h-.054l-.108-.1-.206-.217a.971.971,0,0,0-.1-.109h0a1.919,1.919,0,0,1-.152-.25l-.065-.13c0-.1.054.184,0,0a2.17,2.17,0,0,1-.076-.25v-.043a.4.4,0,0,1,0-.119.814.814,0,1,0-1.627,0A3.494,3.494,0,0,0,310,201.06a7.182,7.182,0,0,0,2.94,1.085.814.814,0,0,0,.434-1.562Z" transform="translate(26.195 14.635)" fill="#006837"/>
        <g id="Group_1038" data-name="Group 1038" transform="translate(335.001 83.223)">
          <path id="Path_1492" data-name="Path 1492" d="M309.486,103.47c5.555-7.074-.184-16.816,4.416-24.183.282-.445-.423-.846-.694-.412-4.578,7.323,1.085,17.12-4.34,24.02-.315.412.26.987.586.575Z" transform="translate(-308.776 -78.688)" fill="#006837"/>
        </g>
        <g id="Group_1039" data-name="Group 1039" transform="translate(307.176 94.128)">
          <path id="Path_1493" data-name="Path 1493" d="M283.152,89.272c3.407,10.3,14.44,14.1,23.868,16.914a.405.405,0,0,0,.217-.781c-9.059-2.712-20-6.358-23.3-16.382-.163-.5-.944-.282-.781.217Z" transform="translate(-283.13 -88.739)" fill="#006837"/>
        </g>
        <g id="Group_1040" data-name="Group 1040" transform="translate(341.612 117.191)">
          <path id="Path_1494" data-name="Path 1494" d="M315.261,110.771a32.9,32.9,0,0,1,26.581,21.764c.163.488.955.282.781-.217A33.72,33.72,0,0,0,315.261,110c-.521-.065-.521.749,0,.814Z" transform="translate(-314.87 -109.997)" fill="#006837"/>
        </g>
        <g id="Group_1041" data-name="Group 1041" transform="translate(291.049 124.991)">
          <path id="Path_1495" data-name="Path 1495" d="M303.672,117.321c-6.618,5.718-10.535,13.692-13.594,21.7-3.472,9.113-6.238,18.444-11.576,26.722a65.781,65.781,0,0,1-10.112,12.151c-.38.358.2.933.575.575a67.764,67.764,0,0,0,15.482-22.154c3.776-8.679,6.1-18,10.546-26.418a41.227,41.227,0,0,1,9.254-12.032c.4-.336-.174-.911-.575-.575Z" transform="translate(-268.265 -117.186)" fill="#006837"/>
        </g>
        <g id="Group_1042" data-name="Group 1042" transform="translate(312.104 148.741)">
          <path id="Path_1496" data-name="Path 1496" d="M312.656,139.276c-9.048,15.829-10.99,34.306-17.674,51.057a70.422,70.422,0,0,1-7.236,13.779c-.3.434.4.846.694.412,10.285-14.961,12.65-33.34,18.444-50.167a85.039,85.039,0,0,1,6.51-14.668c.26-.456-.445-.868-.694-.412Z" transform="translate(-287.671 -139.077)" fill="#006837"/>
        </g>
        <g id="Group_1043" data-name="Group 1043" transform="translate(348.16 146.19)">
          <path id="Path_1497" data-name="Path 1497" d="M321.008,137.436a101.018,101.018,0,0,1,21.276,42.833,99.188,99.188,0,0,1,2.083,13.616c0,.51.857.521.814,0a101.2,101.2,0,0,0-23.6-57.024C321.236,136.459,320.672,137.045,321.008,137.436Z" transform="translate(-320.905 -136.726)" fill="#006837"/>
        </g>
        <g id="Group_1044" data-name="Group 1044" transform="translate(345.249 181.685)">
          <path id="Path_1498" data-name="Path 1498" d="M318.263,169.95q1.432,7.681,2.17,15.471c0,.51.868.521.814,0q-.781-7.9-2.235-15.688c-.1-.51-.879-.293-.781.217Z" transform="translate(-318.222 -169.442)" fill="#006837"/>
        </g>
        <g id="Group_1045" data-name="Group 1045" transform="translate(346.187 218.566)">
          <path id="Path_1499" data-name="Path 1499" d="M319.383,204.232a64.282,64.282,0,0,1,20.9,10.35c.423.3.825-.4.412-.705A64.988,64.988,0,0,0,319.6,203.451a.405.405,0,1,0-.217.781Z" transform="translate(-319.086 -203.436)" fill="#006837"/>
        </g>
        <g id="Group_1046" data-name="Group 1046" transform="translate(306.037 235.995)">
          <path id="Path_1500" data-name="Path 1500" d="M295.088,219.7c-2.311,3.2-3.19,7.02-3.635,10.849-.5,4.34-.662,8.679-1.226,13.019-1.085,8.9-3.352,17.76-8.083,25.474-.282.445.423.857.694.4,4.546-7.388,6.8-15.84,8.007-24.378.586-4.155.868-8.332,1.226-12.509.38-4.34,1.085-8.82,3.721-12.466.3-.423-.4-.825-.705-.412Z" transform="translate(-282.08 -219.501)" fill="#006837"/>
        </g>
        <g id="Group_1047" data-name="Group 1047" transform="translate(336.613 225.397)">
          <path id="Path_1501" data-name="Path 1501" d="M310.314,210.272a220.569,220.569,0,0,1,3.841,45.795.412.412,0,0,0,.814,0,221.859,221.859,0,0,0-3.906-46.044c-.1-.51-.89-.293-.792.217Z" transform="translate(-310.262 -209.732)" fill="#006837"/>
        </g>
        <path id="Path_1502" data-name="Path 1502" d="M310.105,362.808h0a28.935,28.935,0,0,1-28.935-28.913V284.14h57.87v49.755a28.935,28.935,0,0,1-28.935,28.913Z" transform="translate(23.88 21.984)" fill="#2074b9"/>
        <g id="Group_1048" data-name="Group 1048" transform="translate(308.63 306.124)" opacity="0.35">
          <path id="Path_1503" data-name="Path 1503" d="M338.76,333.895V284.14H331.3a127.545,127.545,0,0,1-46.826,63.675,28.913,28.913,0,0,0,25.355,14.994h0a28.935,28.935,0,0,0,28.935-28.913Z" transform="translate(-284.47 -284.14)" fill="#dbba8f"/>
        </g>
        <g id="Group_1049" data-name="Group 1049" transform="translate(303.085 301.092)">
          <path id="Path_1504" data-name="Path 1504" d="M281.3,283.046c-1.161,6.184.564,13.171,6.162,16.654,3.1,1.931,6.77,2.582,10.263,3.428a32.028,32.028,0,0,1,11.055,4.47,14.733,14.733,0,0,1,6.282,9.222c.814,4.079,0,8.321-.922,12.314-1.617,7.128-3.493,14.842.825,21.427,3.884,5.935,10.947,9.45,13.757,16.133.4.955,1.975.542,1.573-.423-2.441-5.794-7.714-9.287-11.793-13.811a16.534,16.534,0,0,1-4.524-9.352c-.423-3.938.423-7.877,1.3-11.7,1.638-7.1,3.32-15.081-1.53-21.351-4.589-5.924-11.934-7.595-18.867-9.276-4.058-1.009-8.039-2.506-10.307-6.26a15.894,15.894,0,0,1-1.714-11.045c.2-1.02-1.367-1.465-1.562-.434Z" transform="translate(-279.223 -279.25)" fill="#491b0b"/>
          <path id="Path_1505" data-name="Path 1505" d="M280.554,313.606c4.036-2.626,8.875-5.718,13.9-4.177,4.719,1.454,5.956,6.727,4.7,11.034-2.669,9.2-13.833,13.789-14.245,24.042a14.7,14.7,0,0,0,5.511,12c.814.64,1.975-.5,1.15-1.15a13.117,13.117,0,0,1-4.882-12.368c.966-5.36,5.164-9.276,8.571-13.214,3.027-3.493,5.869-7.486,6-12.281.109-4.22-2.018-8.213-6.173-9.558-5.533-1.812-10.849,1.356-15.352,4.275-.868.564-.054,1.975.825,1.4Z" transform="translate(-279.358 -277.132)" fill="#491b0b"/>
          <path id="Path_1506" data-name="Path 1506" d="M295.172,282.212a18.444,18.444,0,0,0,10.9,15.189c3.255,1.454,7.226,2.268,10.556.64,2.973-1.465,4.7-4.535,6.021-7.432,1.617-3.559,3.168-8.05,7.193-9.493.976-.347.553-1.92-.434-1.562-3.678,1.313-5.685,4.676-7.215,8.061-1.638,3.635-3.331,8.387-7.67,9.471s-9.211-1.324-12.325-4.155a16.046,16.046,0,0,1-5.425-10.7c-.076-1.085-1.7-1.085-1.627,0Z" transform="translate(-278.017 -279.501)" fill="#491b0b"/>
          <path id="Path_1507" data-name="Path 1507" d="M335.733,293.395a21.861,21.861,0,0,0-14.006,22.36c.922,9.135,7.247,16.274,10.415,24.628a24.639,24.639,0,0,1,1.725,8.137,49.591,49.591,0,0,1-1.085,10.188c-.184,1.02,1.378,1.465,1.562.434.922-5.077,1.758-10.22.608-15.33a46.543,46.543,0,0,0-4.936-11.663c-2.083-3.841-4.34-7.66-5.642-11.858a20.885,20.885,0,0,1,.38-14.158,20.191,20.191,0,0,1,11.381-11.175c.966-.369.553-1.942-.434-1.562Z" transform="translate(-275.767 -278.327)" fill="#491b0b"/>
          <path id="Path_1508" data-name="Path 1508" d="M300.735,362.7a46.219,46.219,0,0,1-3.906-20.017,27.059,27.059,0,0,1,.76-6.748,3.494,3.494,0,0,1,2.029-2.539,2.669,2.669,0,0,1,2.81,1.324,16.448,16.448,0,0,1,2.43,6.043c1.009,4.188,1.161,8.517,1.888,12.759a23.706,23.706,0,0,0,5.045,11.761c.694.781,1.844-.38,1.15-1.15-6.781-7.595-4.068-19.019-7.844-27.872-.727-1.682-1.725-3.537-3.493-4.34a3.863,3.863,0,0,0-4.589,1.454c-1.291,1.7-1.421,4.079-1.616,6.13a45.813,45.813,0,0,0-.1,7.714,49.016,49.016,0,0,0,4.025,16.274c.412.955,1.823.13,1.4-.825Z" transform="translate(-278.014 -275.071)" fill="#491b0b"/>
        </g>
        <circle id="Ellipse_84" data-name="Ellipse 84" cx="9.037" cy="9.037" r="9.037" transform="translate(279.137 60.383) rotate(-45)" fill="#e7cea7"/>
        <path id="Path_1509" data-name="Path 1509" d="M274.278,20.12h0a30.628,30.628,0,0,1,30.628,30.628V59.9H243.65V50.748A30.628,30.628,0,0,1,274.278,20.12Z" transform="translate(20.694 -0.439)" fill="#f7931e"/>
        <path id="Path_1510" data-name="Path 1510" d="M271.73,22.615a44.219,44.219,0,0,1,5.652-7.117C288.232,4.475,302.781,2.479,309.03,1.98h0c24.715,0,44.753,20.614,44.753,46.142V382.281" transform="translate(23.078 -1.98)" fill="none" stroke="#f7931e" stroke-linecap="round" stroke-miterlimit="10" stroke-width="4"/>
        <path id="Path_1511" data-name="Path 1511" d="M325.06,343.32h47.021a13.562,13.562,0,0,1,13.562,13.562H311.52a13.562,13.562,0,0,1,13.54-13.562Z" transform="translate(26.458 27.01)" fill="#f7931e"/>
        <path id="Path_1512" data-name="Path 1512" d="M383.19,356.882a13.551,13.551,0,0,0-13.562-13.562H359.387c-5.2,5.544-12.585,10.231-18.737,13.562Z" transform="translate(28.932 27.01)" fill="#fbb03b" opacity="0.35"/>
        <g id="Group_1050" data-name="Group 1050" transform="translate(267.978 28.848)" opacity="0.35">
          <path id="Path_1513" data-name="Path 1513" d="M247,59.187h57.621V50.03a30.53,30.53,0,0,0-8.8-21.46A102.331,102.331,0,0,1,247,59.187Z" transform="translate(-247 -28.57)" fill="#fbb03b"/>
        </g>
        <path id="Path_1514" data-name="Path 1514" d="M377.9,220.58a3.681,3.681,0,0,0,0,.488v-.25A.847.847,0,0,1,377.9,220.58Z" transform="translate(32.095 16.586)" fill="#009245"/>
        <path id="Path_1515" data-name="Path 1515" d="M396.552,225.966a6.51,6.51,0,0,1-9.2.6,5.425,5.425,0,0,1-.5-7.67,4.568,4.568,0,0,1,6.444-.412,3.873,3.873,0,0,1,.347,5.425,3.255,3.255,0,0,1-2.267,1.085,3.32,3.32,0,0,1-2.4-.814,2.853,2.853,0,0,1-.26-4.047,1.084,1.084,0,0,1,1.627,1.432.662.662,0,0,0-.174.5.684.684,0,0,0,.239.477,1.141,1.141,0,0,0,1.606-.1,1.7,1.7,0,0,0-.152-2.4,2.4,2.4,0,0,0-3.385.217,3.255,3.255,0,0,0,.3,4.611,4.437,4.437,0,0,0,3.146,1.085,4.34,4.34,0,0,0,2.994-1.476,5.707,5.707,0,0,0-.521-8.061,7.41,7.41,0,0,0-10.459.673,7.3,7.3,0,0,0-2.235,4.6V323.674a1.085,1.085,0,0,1-2.17,0V267.551a11.294,11.294,0,0,0-7.486-9.135,8.81,8.81,0,0,0-11.251,5.425,6.868,6.868,0,0,0,4.21,8.679,5.273,5.273,0,0,0,6.7-3.255,3.916,3.916,0,0,0-.174-3.049,3.981,3.981,0,0,0-2.278-2.04,2.984,2.984,0,0,0-3.8,1.834,1.086,1.086,0,1,1-2.051-.716,5.153,5.153,0,0,1,6.51-3.168,6.173,6.173,0,0,1,3.8,7.855,7.453,7.453,0,0,1-7.03,4.991,7.346,7.346,0,0,1-2.43-.423,9.016,9.016,0,0,1-5.555-11.479,10.99,10.99,0,0,1,14.017-6.77,13.475,13.475,0,0,1,6.77,5.219V221.713a3.681,3.681,0,0,1,0-.488,10.09,10.09,0,0,1,16.274-6.412,7.877,7.877,0,0,1,.781,11.153Z" transform="translate(30.423 15.909)" fill="#009245"/>
        <path id="Path_1516" data-name="Path 1516" d="M378.758,242.368h0a19.9,19.9,0,0,1-19.9-19.9h0a19.9,19.9,0,0,1,19.9,19.9Z" transform="translate(30.478 16.747)" fill="#009245" stroke="#009245" stroke-linecap="round" stroke-miterlimit="10" stroke-width="1"/>
        <path id="Path_1517" data-name="Path 1517" d="M383.838,314.317h0A45.2,45.2,0,0,1,421.952,263h0A45.209,45.209,0,0,1,383.838,314.317Z" transform="translate(32.558 20.189)" fill="#009245" stroke="#009245" stroke-linecap="round" stroke-miterlimit="10" stroke-width="1"/>
        <path id="Path_1518" data-name="Path 1518" d="M376.543,310.305h0A23.5,23.5,0,0,1,359.3,281.88h0A23.5,23.5,0,0,1,376.543,310.305Z" transform="translate(30.458 21.792)" fill="#009245" stroke="#009245" stroke-linecap="round" stroke-miterlimit="10" stroke-width="1"/>
        <path id="Path_1519" data-name="Path 1519" d="M388.843,267.64h0a10.849,10.849,0,0,1-6.032,14.1h0A10.849,10.849,0,0,1,388.843,267.64Z" transform="translate(32.446 20.583)" fill="#009245" stroke="#009245" stroke-linecap="round" stroke-miterlimit="10" stroke-width="1"/>
        <path id="Path_1520" data-name="Path 1520" d="M0,0H.206A13.019,13.019,0,0,1,13.225,13.019v.217h-.206A13.019,13.019,0,0,1,0,.217Z" transform="translate(431.889 336.004) rotate(-66.42)" fill="#009245" stroke="#009245" stroke-linecap="round" stroke-miterlimit="10" stroke-width="1"/>
        <path id="Path_1521" data-name="Path 1521" d="M371.353,311.544h0a7.486,7.486,0,0,1-9.612-4.448h0a7.486,7.486,0,0,1,9.612,4.448Z" transform="translate(30.723 23.895)" fill="#009245" stroke="#009245" stroke-linecap="round" stroke-miterlimit="10" stroke-width="1"/>
        <path id="Path_1522" data-name="Path 1522" d="M395.4,242.91h0a15.363,15.363,0,0,1-14.451,16.274h0A15.363,15.363,0,0,1,395.4,242.91Z" transform="translate(32.352 18.483)" fill="#009245" stroke="#009245" stroke-linecap="round" stroke-miterlimit="10" stroke-width="1"/>
        <g id="Group_1051" data-name="Group 1051" transform="translate(419.544 291.261)">
          <path id="Path_1523" data-name="Path 1523" d="M387.438,307.816a217.246,217.246,0,0,1,26.809-36.671c.347-.391-.228-.966-.575-.575A218.645,218.645,0,0,0,386.733,307.4a.412.412,0,0,0,.705.412Z" transform="translate(-386.701 -270.44)" fill="#009245"/>
        </g>
        <g id="Group_1052" data-name="Group 1052" transform="translate(391.972 306.604)">
          <path id="Path_1524" data-name="Path 1524" d="M361.366,285.166a86.794,86.794,0,0,1,11.055,20.158c.2.488.976.271.792-.217a87.4,87.4,0,0,0-11.153-20.353C361.757,284.341,361.052,284.753,361.366,285.166Z" transform="translate(-361.287 -284.583)" fill="#009245"/>
        </g>
        <g id="Group_1053" data-name="Group 1053" transform="translate(435.79 330.095)">
          <path id="Path_1525" data-name="Path 1525" d="M402.245,310.407a30.909,30.909,0,0,1,8.029-3.374.412.412,0,0,0-.217-.792,32.276,32.276,0,0,0-8.224,3.461.412.412,0,0,0,.412.705Z" transform="translate(-401.675 -306.234)" fill="#009245"/>
        </g>
        <g id="Group_1054" data-name="Group 1054" transform="translate(415.792 290.485)">
          <path id="Path_1526" data-name="Path 1526" d="M383.988,278a84.333,84.333,0,0,1,3.938-7.7.412.412,0,0,0-.705-.412c-1.432,2.506-2.756,5.067-3.938,7.7C383.066,278.063,383.771,278.475,383.988,278Z" transform="translate(-383.242 -269.725)" fill="#009245"/>
        </g>
        <g id="Group_1055" data-name="Group 1055" transform="translate(414.846 263.747)">
          <path id="Path_1527" data-name="Path 1527" d="M383.053,256.526l9.764-10.741c.358-.391-.217-.966-.575-.575l-9.764,10.741c-.347.391.228.966.586.575Z" transform="translate(-382.371 -245.08)" fill="#009245"/>
        </g>
        <g id="Group_1056" data-name="Group 1056" transform="translate(392.451 241.366)">
          <path id="Path_1528" data-name="Path 1528" d="M361.871,225.123a83.724,83.724,0,0,1,13.746,13.551c.325.4.9-.174.575-.575a83.722,83.722,0,0,0-13.746-13.551C362.034,224.222,361.459,224.8,361.871,225.123Z" transform="translate(-361.729 -224.451)" fill="#009245"/>
        </g>
        <path id="Path_1529" data-name="Path 1529" d="M359.69,315h46.988v24.953a19.323,19.323,0,0,1-19.323,19.323h-8.343a19.323,19.323,0,0,1-19.323-19.323Z" transform="translate(30.549 24.605)" fill="#2074b9"/>
        <g id="Group_1057" data-name="Group 1057" transform="translate(386.409 334.159)">
          <path id="Path_1530" data-name="Path 1530" d="M358.867,331.147a19.843,19.843,0,0,0,12.78-20.353c-.1-1.085-1.725-1.085-1.627,0a18.194,18.194,0,0,1-11.587,18.737c-.966.369-.543,1.942.434,1.573Z" transform="translate(-356.013 -309.98)" fill="#491b0b"/>
          <path id="Path_1531" data-name="Path 1531" d="M358.874,325.562a12.77,12.77,0,0,0,6.748-14.516c-.239-1.02-1.812-.586-1.562.434a11.153,11.153,0,0,1-5.967,12.65c-.944.456-.119,1.866.814,1.4Z" transform="translate(-356.031 -309.939)" fill="#491b0b"/>
          <path id="Path_1532" data-name="Path 1532" d="M360.165,337.237A22.024,22.024,0,0,1,381.3,360.39a.814.814,0,1,0,1.627,0,23.652,23.652,0,0,0-22.784-24.78.814.814,0,1,0,0,1.627Z" transform="translate(-355.891 -307.803)" fill="#491b0b"/>
          <path id="Path_1533" data-name="Path 1533" d="M359.635,341.586a18.042,18.042,0,0,1,14.191,17.847.814.814,0,0,0,1.627,0A19.648,19.648,0,0,0,360.08,340c-1.02-.228-1.465,1.345-.434,1.562Z" transform="translate(-355.914 -307.432)" fill="#491b0b"/>
          <path id="Path_1534" data-name="Path 1534" d="M373.86,314.727c-3.06,9.037,3.6,16.968,9.027,23.391,3.038,3.58,6.076,7.388,7.388,11.934a20.277,20.277,0,0,1-1.226,14.245c-.445.933.955,1.758,1.41.814a22.078,22.078,0,0,0,1.964-12.781,26.31,26.31,0,0,0-5.685-12.1c-5.425-7.074-14.7-15.113-11.316-25.116.336-1-1.237-1.421-1.562-.434Z" transform="translate(-354.722 -309.628)" fill="#491b0b"/>
          <path id="Path_1535" data-name="Path 1535" d="M393.44,314.064a18.444,18.444,0,0,0,13.019,16.686c1.009.3,1.432-1.269.434-1.573a16.773,16.773,0,0,1-11.826-15.113C395.013,312.979,393.375,312.979,393.44,314.064Z" transform="translate(-352.994 -309.702)" fill="#491b0b"/>
          <path id="Path_1536" data-name="Path 1536" d="M387.74,312.724a37.159,37.159,0,0,0,18.292,28.686.814.814,0,0,0,.814-1.4,35.488,35.488,0,0,1-17.478-27.286C389.27,311.639,387.643,311.639,387.74,312.724Z" transform="translate(-353.478 -309.816)" fill="#491b0b"/>
          <line id="Line_120" data-name="Line 120" x2="55.44" transform="translate(0 16.252)" fill="none" stroke="#42210b" stroke-linecap="round" stroke-miterlimit="10" stroke-width="2"/>
        </g>
        <g id="Group_1058" data-name="Group 1058" transform="translate(393.765 339.605)" opacity="0.35">
          <path id="Path_1537" data-name="Path 1537" d="M364.85,349.631l-1.389.325c-.2.358-.358.738-.521,1.085a19.279,19.279,0,0,0,15.8,8.224h8.376a19.323,19.323,0,0,0,19.29-19.312V315h-5.533A74.784,74.784,0,0,1,364.85,349.631Z" transform="translate(-362.94 -315)" fill="#dbba8f"/>
        </g>
        <path id="Path_1538" data-name="Path 1538" d="M71.92,185.8H190.937a54.42,54.42,0,0,1,54.42,54.464V263.6H17.5V240.264A54.42,54.42,0,0,1,71.92,185.8Z" transform="translate(1.486 13.632)" fill="#3e82b9"/>
        <path id="Path_1539" data-name="Path 1539" d="M221.367,219.14h6.51a16.176,16.176,0,0,1,16.165,16.176v95.029H205.18V235.316a16.176,16.176,0,0,1,16.187-16.176Z" transform="translate(17.426 16.464)" fill="#084679" opacity="0.5"/>
        <path id="Path_1540" data-name="Path 1540" d="M225.367,219.14h6.51a16.176,16.176,0,0,1,16.165,16.176v95.029H209.18V235.316a16.176,16.176,0,0,1,16.187-16.176Z" transform="translate(17.766 16.464)" fill="#3e82b9"/>
        <path id="Path_1541" data-name="Path 1541" d="M20.176,219.14h6.51a16.176,16.176,0,0,1,16.176,16.176v95.029H4V235.316A16.176,16.176,0,0,1,20.176,219.14Z" transform="translate(0.34 16.464)" fill="#084679" opacity="0.5"/>
        <path id="Path_1542" data-name="Path 1542" d="M16.176,219.14h6.51a16.176,16.176,0,0,1,16.176,16.176v95.029H0V235.316A16.176,16.176,0,0,1,16.176,219.14Z" transform="translate(0 16.464)" fill="#3e82b9"/>
        <rect id="Rectangle_922" data-name="Rectangle 922" width="188.073" height="25.322" transform="translate(38.884 321.498)" fill="#3e82b9"/>
        <path id="Path_1543" data-name="Path 1543" d="M35.84,263.48H224.792V299.2a8.593,8.593,0,0,1-8.593,8.593H44.422a8.582,8.582,0,0,1-8.582-8.582Z" transform="translate(3.044 20.23)" fill="#084679" opacity="0.5"/>
        <rect id="Rectangle_923" data-name="Rectangle 923" width="188.973" height="44.309" transform="translate(38.884 277.2)" fill="#3e82b9"/>
        <path id="Path_1544" data-name="Path 1544" d="M238.617,362.335h-5.652L224.6,321.65h11.3Z" transform="translate(19.076 25.17)" fill="#171744"/>
        <path id="Path_1545" data-name="Path 1545" d="M15.42,362.335h5.652l8.365-40.685h-11.3Z" transform="translate(1.31 25.17)" fill="#171744"/>
        <path id="Path_1546" data-name="Path 1546" d="M143.307,41.741c-9.764.347-17.489,8.311-17.153,17.782v.662a10.849,10.849,0,0,0-11.164-1.736c-5.544,2.539-7.595,9.829-4.687,16.274s9.851,9.656,15.384,7.128c3.927-1.758,6.1-5.869,6.1-10.4a18.053,18.053,0,0,0,12.77,4.611c9.764-.358,17.489-8.321,17.153-17.793S153.125,41.394,143.307,41.741Z" transform="translate(9.256 1.396)" fill="#1a1a1a"/>
        <path id="Path_1547" data-name="Path 1547" d="M161.647,58.8a24.465,24.465,0,0,0-15.905-3.569c-6.759.694-13.1,3.6-18.954,7.03a44.1,44.1,0,0,1-6.944,3.667,11.587,11.587,0,0,1-7.714.38A7.291,7.291,0,0,1,109.4,64.6a14.039,14.039,0,0,0,.987,9.016c2.962,6.51,9.851,9.656,15.384,7.128,3.841-1.779,6.011-5.891,6.011-10.426a18.053,18.053,0,0,0,12.77,4.611,17.554,17.554,0,0,0,17.1-16.122Z" transform="translate(9.262 2.528)"/>
        <ellipse id="Ellipse_85" data-name="Ellipse 85" cx="32.776" cy="33.904" rx="32.776" ry="33.904" transform="translate(119.47 67.267) rotate(-2.03)" fill="#1a1a1a"/>
        <path id="Path_1548" data-name="Path 1548" d="M127.472,116.31s-1.085,20.842-.9,25.366c1.9,2.647,9.32,7.812,9.32,7.812l11.522-6.748-.51-14.451Z" transform="translate(10.748 7.73)" fill="#e6ad83"/>
        <path id="Path_1549" data-name="Path 1549" d="M127.13,122.477c4.264,6.162,10.752,12.466,20.017,14.223l-.293-8.387L127.423,116.38S127.293,118.9,127.13,122.477Z" transform="translate(10.797 7.736)" fill="#f1b596"/>
        <path id="Path_1550" data-name="Path 1550" d="M117.622,108.045c1.454,4.34,10.025,26.668,30.487,27.568a2.973,2.973,0,0,0,1.15-.174c14.1-5.132,26.038-16.274,25.5-30.584-.51-14.462-10.155-31.311-21.069-32.732s-27.818,6.39-32.722,21.069a135.881,135.881,0,0,0-3.45,13.4,2.875,2.875,0,0,0,.108,1.454Z" transform="translate(9.977 3.963)" fill="#e6ad83"/>
        <path id="Path_1551" data-name="Path 1551" d="M77.336,242.47l63.154,12.119a5.219,5.219,0,0,1,3.895,3.255l9.124,23.868a6.77,6.77,0,0,1-2.376,7.9c-3.743,2.7-9.33,4.6-13.214-3.721a138.355,138.355,0,0,1-6.065-14.82,5.219,5.219,0,0,0-5.642-3.548c-11.131,1.475-40.023,4.8-51.588,1.183C60.161,264.18,77.336,242.47,77.336,242.47Z" transform="translate(5.846 18.445)" fill="#f1b596"/>
        <path id="Path_1552" data-name="Path 1552" d="M161.224,293.313l-15.189,41.4a7.128,7.128,0,0,0,.315,5.674l11.837,23.673a8.8,8.8,0,0,0,7.378,4.861c5.978.358,14.43-.2,10.166-6.889-4.036-6.347-8.441-12.683-11.1-16.448a7.139,7.139,0,0,1-.586-7.28l20.722-42.312-22.6-2.712" transform="translate(12.365 22.76)" fill="#f1b596"/>
        <g id="Group_1059" data-name="Group 1059" transform="translate(169.39 323.635)" opacity="0.35">
          <path id="Path_1553" data-name="Path 1553" d="M178.263,305.13a1.215,1.215,0,0,0-.564-.347,54.4,54.4,0,0,0-12.4-3.179,45.561,45.561,0,0,1-7.725-1.324l-1.443,3.906a25.311,25.311,0,0,0,17.012,12.064l.467.065,4.188-8.538c.163-.532.336-1.085.488-1.606a1.226,1.226,0,0,0-.022-1.042Z" transform="translate(-156.13 -300.28)" fill="#f1b596"/>
        </g>
        <path id="Path_1554" data-name="Path 1554" d="M103.443,283.121s-4.524-22.6,3.624-33.459c16.274,2.712,37.973,7.236,37.973,7.236s14.1,3.765,23.011,6.206a6.51,6.51,0,0,1,4.34,8.4c-4.676,13.366-11.077,35.152-11.077,35.152S181.2,323.828,202,312.078c7.236-20.8,22.61-59.671,15.373-68.72-5.425-7.236-46.11-18.986-46.11-18.986l-67.819-2.712s-62.384.9-65.1,31.647C36.536,268.681,60.947,283.121,103.443,283.121Z" transform="translate(3.249 16.678)" fill="#2c2a64"/>
        <g id="Group_1060" data-name="Group 1060" transform="translate(41.491 246.996)" opacity="0.35">
          <path id="Path_1555" data-name="Path 1555" d="M103.509,256.872c-2.322.163-4.687.488-6.911.684-10.849.976-22.339-2.615-29.825-10.556a29.792,29.792,0,0,1-7.822-17.359c-10.849,4.676-19.626,11.934-20.614,23.022-1.812,15.374,22.6,29.836,65.1,29.836C103.444,282.444,100.6,268.177,103.509,256.872Z" transform="translate(-38.243 -229.64)" fill="#06051e"/>
        </g>
        <path id="Path_1556" data-name="Path 1556" d="M102.624,180.907s-15.373,18.086-.9,31.647a161.939,161.939,0,0,1-.9,18.086S62.85,217.068,89.062,171.859C93.586,162.789,102.624,180.907,102.624,180.907Z" transform="translate(6.781 12.232)" fill="#e6ad83"/>
        <path id="Path_1557" data-name="Path 1557" d="M163.77,180.907s15.373,18.086.9,31.647a161.936,161.936,0,0,0,.9,18.086s37.973-13.573,11.761-58.782C172.807,162.789,163.77,180.907,163.77,180.907Z" transform="translate(13.909 12.232)" fill="#e6ad83"/>
        <g id="Group_1061" data-name="Group 1061" transform="translate(109.473 261.419)" opacity="0.35">
          <path id="Path_1558" data-name="Path 1558" d="M173.265,254.256a12.216,12.216,0,0,0-4.741-1.269c-20.484-2.571-40.967-7.323-61.451-9.905-1.692-.206-3.6-.358-4.915.727-.976.8-1.345,3.363-1.237,5.251.26-.412.532-.814.825-1.2,16.274,2.712,37.973,7.237,37.973,7.237s14.1,3.765,23.011,6.206a6.51,6.51,0,0,1,4.34,8.4c-4.676,13.366-11.077,35.152-11.077,35.152a45.622,45.622,0,0,0,14.451,7.746,8.135,8.135,0,0,0,1.085-.89c2.419-2.4,2.788-6.119,3.027-9.515L177,266.483a24.563,24.563,0,0,0-.163-6.737A8.224,8.224,0,0,0,173.265,254.256Z" transform="translate(-100.903 -242.935)" fill="#0e0c31"/>
        </g>
        <g id="Group_1062" data-name="Group 1062" transform="translate(96.201 264.745)" opacity="0.35">
          <path id="Path_1559" data-name="Path 1559" d="M100.832,269.6a58.12,58.12,0,0,1,3.721-21.883L95.657,246a17.9,17.9,0,0,0-1.562,2.17c-3.938,6.369-4.947,14.1-5.425,21.536v.315C92.543,270.02,96.72,269.868,100.832,269.6Z" transform="translate(-88.67 -246)" fill="#f1b596"/>
        </g>
        <path id="Path_1560" data-name="Path 1560" d="M100.738,186.363s-14.473-3.613-19.9-15.373c4.915-7.367,13.985-17.641,19.312-23.489a20.4,20.4,0,0,1,10.068-6.043c7.345-1.877,19.008-4.828,20.234-4.828,2.712,5.425,16.274,7.236,20.755,1.812,5.229-.532,12.433,1.378,17.446,3.07a20.462,20.462,0,0,1,9.764,7.02l16.35,21.558s-5.425,11.75-22.61,14.462c-.9,18.086-.9,44.309-.9,44.309l-71.432-.9Z" transform="translate(6.866 9.456)" fill="#5e90cc"/>
        <g id="Group_1063" data-name="Group 1063" transform="translate(87.76 147.052)" opacity="0.2">
          <path id="Path_1561" data-name="Path 1561" d="M171.254,228.784s0-9.092.184-20.256a94.924,94.924,0,0,0-13.4-12.683c-7.432-6.021-15.189-11.815-20.928-19.475-8.191-11.023-11.3-25.008-11.294-38.851-4.34,1.02-10.849,2.658-15.547,3.862a20.4,20.4,0,0,0-10.068,6.043c-5.327,5.848-14.4,16.122-19.312,23.489,5.425,11.761,19.9,15.373,19.9,15.373l-.911,41.6Z" transform="translate(-80.89 -137.52)" fill="#4780ba"/>
        </g>
        <path id="Path_1562" data-name="Path 1562" d="M119.371,101.6c.9,0,16-7.8,19.908-25.127,1.193,8.094,9.623,15.938,21.492,19.138s13.941,10.361,14.006,12.173c.521-10.849,0-24.433-4.611-27.883s-11.327-13.171-31.1-9.764c-11.685,2.17-21.916,19.778-20.614,31.463" transform="translate(10.051 3.748)" fill="#1a1a1a"/>
        <path id="Path_1563" data-name="Path 1563" d="M170.538,96.5a49.406,49.406,0,0,1,2.365,8.408,31.941,31.941,0,0,1,.564,8.842,14.31,14.31,0,0,1-1.085,4.47c-.575,1.389-1.3,2.636-1.953,3.884-1.291,2.419-2.409,5.056-1.834,7.833l-.315.1a8.386,8.386,0,0,1-.521-4.34,18.834,18.834,0,0,1,1.085-4.275c.488-1.356.987-2.68,1.367-3.96a13.257,13.257,0,0,0,.553-3.841,41.4,41.4,0,0,0-1.02-8.05c-.575-2.7-1.3-5.425-2.116-8.007Z" transform="translate(14.237 6.048)" fill="#1a1a1a"/>
        <path id="Path_1564" data-name="Path 1564" d="M123.119,102.834c1.161,4.09-.239,8.061-3.125,8.875s-6.152-1.834-7.312-5.913.25-8.061,3.125-8.875S121.969,98.755,123.119,102.834Z" transform="translate(9.536 6.071)" fill="#e6ad83"/>
        <g id="Group_1064" data-name="Group 1064" transform="translate(87.706 146.086)" clip-path="url(#clip-path)">
          <path id="Path_1565" data-name="Path 1565" d="M86.424,156.66l77.779-.727,21.948-.206a.814.814,0,1,0,0-1.627l-77.779.727-21.948.25a.814.814,0,1,0,0,1.627Z" transform="translate(-80.435 -135.146)" fill="#fff"/>
          <path id="Path_1566" data-name="Path 1566" d="M86.424,146.32,164.2,145.6l21.948-.206a.814.814,0,1,0,0-1.627l-77.779.716-21.948.206a.814.814,0,1,0,0,1.627Z" transform="translate(-80.435 -136.024)" fill="#fff"/>
          <path id="Path_1567" data-name="Path 1567" d="M81.064,167.145q44.981.922,89.984.271,12.726-.184,25.474-.5a.814.814,0,1,0,0-1.627q-44.981,1.085-89.984.618-12.737-.13-25.474-.391a.814.814,0,1,0,0,1.627Z" transform="translate(-80.89 -134.196)" fill="#fff"/>
          <path id="Path_1568" data-name="Path 1568" d="M81.064,177.484q44.981.922,89.984.282,12.726-.2,25.474-.5a.814.814,0,1,0,0-1.627q-44.981,1.085-89.984.618-12.737-.152-25.474-.4a.814.814,0,0,0,0,1.627Z" transform="translate(-80.89 -133.317)" fill="#fff"/>
        </g>
        <path id="Path_1570" data-name="Path 1570" d="M159,161.53a25.5,25.5,0,0,1,6.347,21.124c-.608,3.754-2.072,7.595-1.237,11.272" transform="translate(13.504 11.571)" fill="none" stroke="#fbb03b" stroke-linecap="round" stroke-miterlimit="10" stroke-width="0.75"/>
        <line id="Line_121" data-name="Line 121" y2="11.446" transform="translate(109.404 189.223)" fill="none" stroke="#fbb03b" stroke-linecap="round" stroke-miterlimit="10" stroke-width="0.75"/>
        <path id="Path_1571" data-name="Path 1571" d="M136.333,101.652c.065,1.747-.694,3.19-1.692,3.255s-1.866-1.345-1.92-3.092.694-3.255,1.692-3.255S136.279,99.905,136.333,101.652Z" transform="translate(11.272 6.223)" fill="#1a1a1a"/>
        <path id="Path_1572" data-name="Path 1572" d="M158.413,101.243c.065,1.747-.694,3.19-1.692,3.255s-1.855-1.356-1.92-3.1.694-3.19,1.692-3.255S158.359,99.54,158.413,101.243Z" transform="translate(13.147 6.187)" fill="#1a1a1a"/>
        <circle id="Ellipse_86" data-name="Ellipse 86" cx="9.949" cy="9.949" r="9.949" transform="translate(134.298 101.732) rotate(-16.94)" fill="none" stroke="#ba3147" stroke-miterlimit="10" stroke-width="2"/>
        <path id="Path_1573" data-name="Path 1573" d="M149.391,102.156a9.949,9.949,0,1,1,10.3,9.591A9.949,9.949,0,0,1,149.391,102.156Z" transform="translate(12.687 5.653)" fill="none" stroke="#ba3147" stroke-miterlimit="10" stroke-width="2"/>
        <path id="Path_1574" data-name="Path 1574" d="M153.6,90.953s5.262-4.709,10.849-.391" transform="translate(13.045 5.389)" fill="none" stroke="#1a1a1a" stroke-linecap="round" stroke-miterlimit="10" stroke-width="1"/>
        <path id="Path_1575" data-name="Path 1575" d="M128.61,91.833s5.262-4.709,10.849-.38" transform="translate(10.923 5.464)" fill="none" stroke="#1a1a1a" stroke-linecap="round" stroke-miterlimit="10" stroke-width="1"/>
        <path id="Path_1576" data-name="Path 1576" d="M141.15,114.65s4.1,8.061,12.314,3.06" transform="translate(11.988 7.589)" fill="none" stroke="#1a1a1a" stroke-linecap="round" stroke-miterlimit="10" stroke-width="1"/>
        <path id="Path_1577" data-name="Path 1577" d="M139,114.315a3.255,3.255,0,0,0,3.58-1.085" transform="translate(11.805 7.469)" fill="none" stroke="#1a1a1a" stroke-linecap="round" stroke-miterlimit="10" stroke-width="1"/>
        <line id="Line_122" data-name="Line 122" x2="5.457" transform="translate(156.664 106.15)" fill="none" stroke="#ba3147" stroke-miterlimit="10" stroke-width="2"/>
        <path id="Path_1578" data-name="Path 1578" d="M169.977,237.277H97.689a4.068,4.068,0,0,1-4.068-4.068h0a4.068,4.068,0,0,1,4.068-4.068h72.289a4.069,4.069,0,0,1,4.068,4.069h0a4.068,4.068,0,0,1-4.068,4.068Z" transform="translate(7.951 17.313)" fill="#bdccd4"/>
        <path id="Path_1579" data-name="Path 1579" d="M170.381,233.21H97.192l-8.267-47.542a3.786,3.786,0,0,1,3.743-4.448h83.138a3.8,3.8,0,0,1,3.732,4.513Z" transform="translate(7.548 13.243)" fill="#f2f2f2"/>
        <path id="Path_1580" data-name="Path 1580" d="M125.71,206.225a5.425,5.425,0,1,1,5.425,5.425A5.425,5.425,0,0,1,125.71,206.225Z" transform="translate(10.677 14.906)" fill="#bdccd4"/>
        <g id="Group_1065" data-name="Group 1065" transform="translate(96.414 194.463)" opacity="0.2">
          <path id="Path_1581" data-name="Path 1581" d="M170.132,233.21a142.842,142.842,0,0,1-71.963-51.99h-5.5a3.786,3.786,0,0,0-3.743,4.448l8.267,47.542Z" transform="translate(-88.866 -181.22)" fill="#bdccd4"/>
        </g>
        <g id="Group_1066" data-name="Group 1066" transform="translate(101.571 246.475)" opacity="0.25">
          <path id="Path_1582" data-name="Path 1582" d="M173.6,235.095a5.425,5.425,0,0,0-1.812-1.085,14.57,14.57,0,0,0-5.978-.26,74.025,74.025,0,0,1-32.049-4.589H97.688a4.069,4.069,0,0,0,0,8.137h72.289A4.047,4.047,0,0,0,173.6,235.095Z" transform="translate(-93.62 -229.16)" fill="#bdccd4"/>
        </g>
        <path id="Path_1583" data-name="Path 1583" d="M154.307,68.866a10.752,10.752,0,0,0,5.75-5.425,25.116,25.116,0,0,0,2.072-9.3c.087-1.085-1.541-1.085-1.627,0-.4,4.839-1.389,11.2-6.629,13.16-.966.369-.553,1.942.434,1.573Z" transform="translate(13.022 2.381)" fill="#1a1a1a"/>
        <path id="Path_1584" data-name="Path 1584" d="M126.463,59.485A13.844,13.844,0,0,1,128.784,43.7c.716-.759-.434-1.909-1.161-1.15a15.547,15.547,0,0,0-2.56,17.76c.467.933,1.877.108,1.4-.825Z" transform="translate(10.477 1.444)" fill="#1a1a1a"/>
        <path id="Path_1585" data-name="Path 1585" d="M124.09,95.18a10.48,10.48,0,0,0-2.343,8.072,61.17,61.17,0,0,0,1.66,8.918,33.3,33.3,0,0,1,.9,4.85,17.229,17.229,0,0,1-.25,5.012,37.04,37.04,0,0,1-3.493,9l-.3-.119a40.814,40.814,0,0,0,2.17-9.113,19.529,19.529,0,0,0-1.541-8.886c-.532-1.476-1.085-2.973-1.649-4.546a14.787,14.787,0,0,1-.77-5.067,10.849,10.849,0,0,1,1.454-5.132,6.976,6.976,0,0,1,3.971-3.255Z" transform="translate(10.062 5.914)" fill="#1a1a1a"/>
        <path id="Path_1586" data-name="Path 1586" d="M147.46,46.74a11.522,11.522,0,0,1,3.993,15.471,16.1,16.1,0,0,0-3.993-15.417Z" transform="translate(12.524 1.822)" fill="#fff"/>
        <path id="Path_1587" data-name="Path 1587" d="M143.6,74.76A34.447,34.447,0,0,0,154.688,87.9,18.075,18.075,0,0,1,143.6,74.76Z" transform="translate(12.196 4.201)" fill="#fff"/>
        <path id="Path_1588" data-name="Path 1588" d="M148.755,59.619c-.065-1.226,0-2.289-.13-3.385s-.217-2.17-.315-3.374a5.425,5.425,0,0,1,.445,6.759Z" transform="translate(12.596 2.341)" fill="#fff"/>
      </g>
    </g>
  </g>
</svg>
