<svg xmlns="http://www.w3.org/2000/svg" width="12" height="11.999" viewBox="0 0 12 11.999">
  <g id="tag" transform="translate(0 0.001)">
    <path id="Path_648" data-name="Path 648" d="M10.708,0H6.154a.352.352,0,0,0-.249.1L.378,5.63a1.293,1.293,0,0,0,0,1.827l4.165,4.165A1.283,1.283,0,0,0,5.456,12h0a1.283,1.283,0,0,0,.913-.377L11.9,6.093a.352.352,0,0,0,.1-.249V1.291A1.293,1.293,0,0,0,10.708,0ZM11.3,5.7,5.872,11.124a.591.591,0,0,1-.832,0L.875,6.959a.589.589,0,0,1,0-.832L6.3.7h4.409a.589.589,0,0,1,.589.589Zm0,0" transform="translate(0 0)" fill="#cbe7ff"/>
    <path id="Path_649" data-name="Path 649" d="M333.507,85.078a.854.854,0,1,0,.6.25A.849.849,0,0,0,333.507,85.078Zm.22,1.074a.31.31,0,1,1,.091-.22A.308.308,0,0,1,333.726,86.152Zm0,0" transform="translate(-324.457 -82.983)" fill="#cbe7ff"/>
  </g>
</svg>
