<svg xmlns="http://www.w3.org/2000/svg" xmlns:xlink="http://www.w3.org/1999/xlink" width="327" height="215.053" viewBox="0 0 327 215.053">
  <defs>
    <linearGradient id="linear-gradient" x1="-0.083" y1="-0.053" x2="1.323" y2="1.28" gradientUnits="objectBoundingBox">
      <stop offset="0" stop-color="#005abb"/>
      <stop offset="1" stop-color="#003a80"/>
    </linearGradient>
  </defs>
  <g id="Group_953" data-name="Group 953" transform="translate(-162 -453)">
    <rect id="Rectangle_860" data-name="Rectangle 860" width="327" height="215" transform="translate(162 453)" fill="url(#linear-gradient)"/>
    <text id="Thank_you_supporter_for_your_genuine_support" data-name="Thank you supporter for your
genuine support" transform="translate(326 495)" fill="#fff" font-size="18" font-family="OpenSans-Bold, Open Sans" font-weight="700"><tspan x="-132.605" y="0">Thank you supporter for your</tspan><tspan x="-73.894" y="24">genuine support</tspan></text>
    <g id="Group_939" data-name="Group 939" transform="translate(241 537.921)">
      <path id="Path_705" data-name="Path 705" d="M3593.177,746.571a92.73,92.73,0,0,0-14.8,1.014c-1.858.307-3.677.984-5.54,1.257-3.72.545-7.373,1.562-11.107,2.03-3.006.378-6.025.6-9.023,1.08a21.5,21.5,0,0,1-8.71-.4,41.568,41.568,0,0,1-6.169-1.741,17.8,17.8,0,0,0-7.1-1.668c-3.374.036-6.66.041-9.888,1.784a9.74,9.74,0,0,0-3.382,2.9c-1.97,2.94-2.237,10.275-.27,13.324,3.313,5.131,10.385,7.145,15.03,7.24,5.089.1,10.033-.458,15.13-.788,4.736-.307,9.46-.744,14.2-.729a283.35,283.35,0,0,0,29.05-.963c9.087-.905,18.2-.594,27.3-.594,9.338,0,18.613.109,27.884,1.956,4.04.8,8.155,1.086,12.214,1.65,3.636.5,7.13-.01,10.751-.477a19.517,19.517,0,0,0,8.824-3.519c2.187-1.555,6.085-6.386,6.756-10.1,1.88-10.406-26.5-10.156-30.852-10.132-4.874.026-9.786.265-14.656-.012a24.22,24.22,0,0,1-6.066-1.365c-1.991-.651-4-.485-6.017-.758-8.422-1.14-16.862-.973-25.311-.973C3598.679,746.594,3595.928,746.558,3593.177,746.571Z" transform="translate(-3515.835 -644.002)" fill="#2c8cff" opacity="0.178"/>
      <g id="Group_938" data-name="Group 938" transform="translate(24.084)">
        <g id="Group_928" data-name="Group 928" transform="translate(7.225 4.97)">
          <g id="Group_907" data-name="Group 907" transform="translate(6.75 99.945)">
            <path id="Path_706" data-name="Path 706" d="M3669.344,753.3v9.034h3.247l1.553-10.164Z" transform="translate(-3669.344 -752.175)" fill="#efbfa5"/>
          </g>
          <g id="Group_908" data-name="Group 908" transform="translate(25.22 99.071)">
            <path id="Path_707" data-name="Path 707" d="M3713.439,750.307l1.76,11.369,3.808-.163-.49-11.424Z" transform="translate(-3713.439 -750.089)" fill="#efbfa5"/>
          </g>
          <g id="Group_909" data-name="Group 909" transform="translate(5.197 63.157)">
            <path id="Path_708" data-name="Path 708" d="M3665.637,669.234v33.738l6.776-.282,3.811-19.9,4.526-18.437Z" transform="translate(-3665.637 -664.348)" fill="#8cabef"/>
          </g>
          <g id="Group_910" data-name="Group 910" transform="translate(15.432 61.804)">
            <path id="Path_709" data-name="Path 709" d="M3705.479,661.119l.845,38.163-7.623-.021-1.657-13.274-6.97-22.494Z" transform="translate(-3690.073 -661.119)" fill="#8cabef"/>
          </g>
          <g id="Group_912" data-name="Group 912" transform="translate(0.082 17.598)">
            <g id="Group_911" data-name="Group 911">
              <path id="Path_710" data-name="Path 710" d="M3664.642,556.42l-.173.066c-2.742,1.067-4.9,5.854-6.13,8.668a60.638,60.638,0,0,0-4.831,22.855c-.136,4.321-.085,8.65.052,12.974.038,1.195,1.073,11.89.544,12.146a92.047,92.047,0,0,1,16.74-6.591,37.155,37.155,0,0,1,17.709-.625,286.294,286.294,0,0,0-8.065-40.509,35.5,35.5,0,0,0-1.4-4.729c-.758-1.712-1.9-2.218-3.334-3.23a9.31,9.31,0,0,0-1.531-.938A13.485,13.485,0,0,0,3664.642,556.42Z" transform="translate(-3653.427 -555.584)" fill="#3b3387"/>
            </g>
          </g>
          <g id="Group_914" data-name="Group 914" transform="translate(5.171 17.152)">
            <g id="Group_913" data-name="Group 913">
              <path id="Path_711" data-name="Path 711" d="M3692.142,599.011c-7.232,1.1-19.268,1.948-26.5,3.052a157.9,157.9,0,0,1,4.053-40.834c.572-2.3,1.418-4.773,3.423-5.942,2.149-1.253,6.706-1.083,8.018,1.35,1.918,3.56,2.3,9.227,3.153,13.189C3686.225,578.79,3690.943,589.916,3692.142,599.011Z" transform="translate(-3665.574 -554.519)" fill="#eff5f1"/>
            </g>
          </g>
          <g id="Group_923" data-name="Group 923" transform="translate(3.491)">
            <g id="Group_916" data-name="Group 916" transform="translate(6.757 5.005)">
              <g id="Group_915" data-name="Group 915">
                <path id="Path_712" data-name="Path 712" d="M3687.676,529.144c-1.074-5.322-7.728-4.321-9.588.022-1.225,2.86.553,7.055,3.433,8.271q-.264,1.091-.435,2.2l2.446.137a.787.787,0,0,0,.7-.194.777.777,0,0,0,.108-.439q.032-.773.066-1.547c.062-.018.124-.038.186-.059a5.164,5.164,0,0,0,3.1-3.546A10.339,10.339,0,0,0,3687.676,529.144Z" transform="translate(-3677.695 -525.521)" fill="#efbfa5"/>
              </g>
            </g>
            <g id="Group_922" data-name="Group 922">
              <g id="Group_921" data-name="Group 921">
                <g id="Group_918" data-name="Group 918" transform="translate(11.506 3.165)">
                  <g id="Group_917" data-name="Group 917">
                    <path id="Path_713" data-name="Path 713" d="M3693.6,528.047c.842,1.6.321,3.545-.143,5.207-.412,1.474-.485,2.412,1.19,2.518.944.059,2.623.183,3.307-.644.518-.627-.089-2.2-.489-2.8-.305-.458-.941-.612-1.234-1.077a1.765,1.765,0,0,1-.211-.642,9.231,9.231,0,0,1-.07-2.768,9.318,9.318,0,0,0,.175-1.875,6.981,6.981,0,0,0-1.343-2.62c-.871-1.432-3.366-3.135-4.976-1.636a2.677,2.677,0,0,0-.656,1.329,2.23,2.23,0,0,0-.1.885c.178,1.18,1.286,1.2,2.12,1.641A5.972,5.972,0,0,1,3693.6,528.047Z" transform="translate(-3689.032 -521.127)" fill="#353a85"/>
                  </g>
                </g>
                <g id="Group_920" data-name="Group 920">
                  <g id="Group_919" data-name="Group 919">
                    <path id="Path_714" data-name="Path 714" d="M3669.133,525.331c.069.844.658,1.7.314,2.474a3.681,3.681,0,0,1-.715.87,3,3,0,0,0-.588,2.892l-5.038.627a1.523,1.523,0,0,1-.757-.034c-.506-.2-.636-.846-.694-1.389a5.29,5.29,0,0,1,.31-3.153c.242-.435.605-.793.846-1.229,1.16-2.1-.806-5.119.722-6.964.681-.823,1.826-1.063,2.735-1.626,1.584-.982,2.412-2.925,4.057-3.8,3.105-1.656,6.948,1.833,5.479,5.082C3674.6,521.728,3668.854,521.931,3669.133,525.331Z" transform="translate(-3661.564 -513.571)" fill="#353a85"/>
                  </g>
                </g>
              </g>
            </g>
          </g>
          <g id="Group_925" data-name="Group 925" transform="translate(0 18.825)">
            <g id="Group_924" data-name="Group 924">
              <path id="Path_715" data-name="Path 715" d="M3664.731,558.512s-2.3,32.471,2.741,38.874,7.2,8.815,7.2,8.815l-20.619,8.586S3648.828,570.039,3664.731,558.512Z" transform="translate(-3653.23 -558.512)" fill="#3b3387"/>
            </g>
          </g>
          <g id="Group_926" data-name="Group 926" transform="translate(3.362 109.017)">
            <path id="Path_716" data-name="Path 716" d="M3664.644,774.079l-3.388,3.388,1.694,1.694,5.082-3.106v-2.22Z" transform="translate(-3661.256 -773.834)" fill="#353a85"/>
          </g>
          <g id="Group_927" data-name="Group 927" transform="translate(26.676 108.696)">
            <path id="Path_717" data-name="Path 717" d="M3716.914,773.068l4.057.529,3.671,3.234-2.361.949-5.3-1.61Z" transform="translate(-3716.914 -773.068)" fill="#353a85"/>
          </g>
        </g>
        <g id="Group_934" data-name="Group 934" transform="translate(67.171)">
          <path id="Path_718" data-name="Path 718" d="M3872.89,768.9l.27,2.1-3.931,2.641-2.371-1.831,1.831-2.371,3.932-2.641Z" transform="translate(-3837.321 -655.758)" fill="#292949"/>
          <g id="Group_929" data-name="Group 929" transform="translate(18.616 48.65)">
            <path id="Path_719" data-name="Path 719" d="M3857.872,681.636l-3.032-26.792,3.648-29.994-.82-6.38-16.294-.619-.588,10.385,2.735,26.65,10.291,28.12Z" transform="translate(-3840.786 -617.85)" fill="#292949"/>
          </g>
          <path id="Path_720" data-name="Path 720" d="M3814.017,547.078l-8.2,2.232-9.479,16.8,4.49,4.157,6.319-7.483Z" transform="translate(-3796.342 -528.073)" fill="#babcbe"/>
          <g id="Group_930" data-name="Group 930" transform="translate(7.205 49.053)">
            <path id="Path_721" data-name="Path 721" d="M3813.587,621.412l-.043,27.037,5.442,34.806,3.917-.039,2.153-32.187,5.039-32.216Z" transform="translate(-3813.544 -618.813)" fill="#292949"/>
            <path id="Path_722" data-name="Path 722" d="M3827.059,773.571l-4.215,2.16-2.139-2.1,2.1-2.139,4.236-.042Z" transform="translate(-3817.705 -707.516)" fill="#292949"/>
          </g>
          <g id="Group_931" data-name="Group 931" transform="translate(0.516 18.826)">
            <path id="Path_723" data-name="Path 723" d="M3835.063,588.672c-.037-1.172-.1-2.15-.112-2.5-.083-3.143-.364-6.279-.757-9.4-.353-2.8-.8-9.739-1.277-12.518a59.417,59.417,0,0,0-2.767-10.151c-2.474-5.293-1.71-5.782-12.578-7.354-4.763-.689-5.889,2.279-9.782,5.693-.384.337-.364,2.341-.452,2.872-.157.935-.325,1.868-.519,2.8-.151.73-.318,1.458-.506,2.181h0s-3.27,14.877-5.431,18.037-6.628,7.576.843,10.274a26.709,26.709,0,0,0,4.034,1.053s6.11-.679,9.252-.656a53.32,53.32,0,0,1,8.645.805,18.608,18.608,0,0,1,5.546,1.669c1.624.848,2.8,2.1,4.443,2.974a.86.86,0,0,0,.5.145C3835.1,594.463,3835.141,591.138,3835.063,588.672Z" transform="translate(-3797.574 -546.651)" fill="#babcbe"/>
          </g>
          <path id="Path_724" data-name="Path 724" d="M3829.491,599.806l3.886.971.488-1.643-2.514-1.254.591-.67-3.427-.426-.737,1.639Z" transform="translate(-3814.611 -556.958)" fill="#d6c7ac"/>
          <g id="Group_932" data-name="Group 932" transform="translate(0 35.431)">
            <path id="Path_725" data-name="Path 725" d="M3810.3,593.929l1.011-4.081-9.638-3.556-5.332,2.6,1.643,5Z" transform="translate(-3796.342 -586.292)" fill="#454446"/>
          </g>
          <g id="Group_933" data-name="Group 933" transform="translate(5.443)">
            <path id="Path_726" data-name="Path 726" d="M3838.551,532.372a4.468,4.468,0,0,0,3.193-.161.705.705,0,0,0,.452-.661,18.264,18.264,0,0,0-.2-2.451c1.013-.356,2.183-.89,2.359-1.949a3.015,3.015,0,0,0-.059-1.007q-.357-2.067-.714-4.132a3.7,3.7,0,0,0-.429-1.375,3.1,3.1,0,0,0-2.173-1.175,7.546,7.546,0,0,0-6.11,1.489,3.308,3.308,0,0,0-1.032,1.361,4.481,4.481,0,0,0,.15,2.618l.624,2.379c.24.912.585,1.949,1.465,2.291a7.791,7.791,0,0,1,1.44.4C3838.264,530.471,3838.163,531.579,3838.551,532.372Z" transform="translate(-3823.492 -511.953)" fill="#f4c7b3"/>
            <path id="Path_727" data-name="Path 727" d="M3812.086,508.389a8.881,8.881,0,0,0-.687-.987,17.5,17.5,0,0,1-1.661-2,2.258,2.258,0,0,1-.067-2.452,2.69,2.69,0,0,1,1.431-.825,10.4,10.4,0,0,1,5.472-.1c1.7.434,3.229,1.152,4.945.511a5.778,5.778,0,0,1,4.46.245c1.823.65,4.27.8,5.92,1.722a4.867,4.867,0,0,1,1.667,1.644,7.334,7.334,0,0,1,.02,7.757,10.461,10.461,0,0,1-1.141,1.438,7.859,7.859,0,0,1-3.072,2.43c-.028-1.058.936-4.4.123-5.263-1.29-1.376-4.206-.9-5.806-.558-1.746.37-3.3,1.606-5.031,1.87a6.522,6.522,0,0,1-3.894-1.064C3813.458,511.961,3812.85,509.644,3812.086,508.389Z" transform="translate(-3809.336 -501.705)" fill="#292949"/>
          </g>
          <path id="Path_728" data-name="Path 728" d="M3866.858,551.746l6.781,5.942,7.637,16.166-11.267.069Z" transform="translate(-3837.321 -530.785)" fill="#babcbe"/>
        </g>
        <g id="Group_935" data-name="Group 935" transform="translate(12.422 22.46)">
          <path id="Path_729" data-name="Path 729" d="M3735.582,555.335c-8.65-.272-19.262,4.866-21.482,12.352-2.953-7.227-16.4-11.1-24.978-9.964-22.644,2.985-29.076,28.724-18.586,45.294,5.645,8.918,13.5,16.57,21.995,23.369,7.113,5.694,25.32,17.614,25.371,17.567.056.041,16.988-13.631,23.5-20,7.775-7.61,14.831-16.005,19.562-25.441C3769.751,580.977,3758.411,556.053,3735.582,555.335Z" transform="translate(-3665.637 -555.324)" fill="#d67086"/>
        </g>
        <g id="Group_936" data-name="Group 936" transform="translate(0 23.795)">
          <path id="Path_730" data-name="Path 730" d="M3653.683,558.512l-6.268,3.48-11.434,19.622,1.411,3.811,17.363,7.905,2.345-3.53-12.643-9.189,8.886-12.408Z" transform="translate(-3635.981 -558.512)" fill="#3b3387"/>
        </g>
        <g id="Group_937" data-name="Group 937" transform="translate(19.503 55.646)">
          <path id="Path_731" data-name="Path 731" d="M3683.785,634.552l3.534,1.556.564,4.094-2.117.565-3.224-4.344Z" transform="translate(-3682.542 -634.552)" fill="#efbfa5"/>
        </g>
        <path id="Path_732" data-name="Path 732" d="M3888.626,603.1l2.826-1.835,2.976,1.555-.337,2.675h-3.612Z" transform="translate(-3782.8 -559.564)" fill="#f4c7b3"/>
        <path id="Path_733" data-name="Path 733" d="M3806.618,554.89l2.827-1.835,2.976,1.555-.338,2.675h-3.612Z" transform="translate(-3735.143 -531.546)" fill="#f4c7b3"/>
        <path id="Path_734" data-name="Path 734" d="M3712.518,559.939l2.826-1.835,2.976,1.555-.338,2.675h-3.612Z" transform="translate(-3680.459 -534.48)" fill="#efbfa5"/>
      </g>
    </g>
  </g>
</svg>
