<svg xmlns="http://www.w3.org/2000/svg" width="63" height="66.831" viewBox="0 0 63 66.831">
  <g id="usenose-rag-red" transform="translate(-1080.374 -284.244)">
    <ellipse id="Ellipse_33" data-name="Ellipse 33" cx="30.002" cy="30.002" rx="30.002" ry="30.002" transform="translate(1080.374 287.966)" fill="#d1454b"/>
    <g id="Group_246" data-name="Group 246" transform="translate(1081.928 284.244)">
      <path id="Path_513" data-name="Path 513" d="M550.182,454.372h41.5s1.453-23.861-3.834-27.352-28.866-2.3-34.016,1.226C540.774,437.174,550.182,454.372,550.182,454.372Z" transform="translate(-541.432 -391.551)" fill="#e6b56f"/>
      <path id="Path_514" data-name="Path 514" d="M560.287,414.415a.267.267,0,0,1-.17-.061c-.115-.093-2.775-2.333-1.32-6.847a33.943,33.943,0,0,1,1.447-3.683,13.312,13.312,0,0,0,1.473-5.805.275.275,0,0,1,.281-.26.271.271,0,0,1,.26.281,13.918,13.918,0,0,1-1.52,6,33.737,33.737,0,0,0-1.427,3.628c-1.337,4.149,1.047,6.178,1.149,6.262a.271.271,0,0,1-.172.48Z" transform="translate(-544.628 -383.973)" fill="#3e2d4a"/>
      <ellipse id="Ellipse_52" data-name="Ellipse 52" cx="3.394" cy="3.394" rx="3.394" ry="3.394" transform="translate(23.604)" fill="#3e2d4a"/>
      <path id="Path_515" data-name="Path 515" d="M560.4,411.333s1,2.053,5.061,2.775,7.258-.748,10.4.389,7.674-.345,8.573-1.663.71-15.925-1.764-18.374-15.442-4.494-18.253-1.627S558.619,409.688,560.4,411.333Z" transform="translate(-545.047 -382.209)" fill="#3e2d4a"/>
      <ellipse id="Ellipse_53" data-name="Ellipse 53" cx="11.184" cy="11.184" rx="11.184" ry="11.184" transform="translate(16.469 5.998)" fill="#3e2d4a"/>
      <path id="Path_516" data-name="Path 516" d="M580.995,415.684s.726,8.71,0,9.677-5.323.242-6.532,0-1.694-9.677-.968-9.677S580.856,413.742,580.995,415.684Z" transform="translate(-548.754 -388.732)" fill="#df9f85"/>
      <path id="Path_517" data-name="Path 517" d="M564.947,399.135s.46,13.576,9.638,14.161,9.169-18.541,5.848-20.36S563.25,391.458,564.947,399.135Z" transform="translate(-546.425 -382.373)" fill="#df9f85"/>
      <path id="Path_518" data-name="Path 518" d="M577.7,405.9s1.753,4.179,1.3,4.456a2.68,2.68,0,0,1-2.127-.08C576.524,409.972,576.988,405.437,577.7,405.9Z" transform="translate(-549.76 -386.236)" fill="#c05c5d"/>
      <path id="Path_519" data-name="Path 519" d="M571.434,391.846s-3.291,1.591-3.917,4.579-.3,10.638-3.789,10.287C563.728,406.711,556.977,391.572,571.434,391.846Z" transform="translate(-545.686 -382.323)" fill="#3e2d4a"/>
      <path id="Path_520" data-name="Path 520" d="M577.423,391.667c-.3.213,3.393.2,5.5,2.764s2.612,8.953,2.938,9.072,1.63-7.924-.684-10.34S579.122,390.45,577.423,391.667Z" transform="translate(-549.941 -382.079)" fill="#3e2d4a"/>
      <path id="Path_521" data-name="Path 521" d="M573.741,419.807a8.188,8.188,0,0,0,7.278.133,8.969,8.969,0,0,1,0,2.8c-.288.526-6.161.9-7.317-1.689C573.7,421.056,573.408,419.695,573.741,419.807Z" transform="translate(-548.874 -390.121)" fill="#c05c5d"/>
      <path id="Path_522" data-name="Path 522" d="M587.871,408.16s.878-3.4,2.411-2.189.146,4.761-1.369,5.084S587.034,409.912,587.871,408.16Z" transform="translate(-552.737 -386.191)" fill="#df9f85"/>
      <path id="Path_523" data-name="Path 523" d="M566.79,407.358s-.622-3.455-2.241-2.364-.5,4.737.985,5.172S567.494,409.167,566.79,407.358Z" transform="translate(-546.132 -385.932)" fill="#df9f85"/>
      <path id="Path_524" data-name="Path 524" d="M582.66,403.1a2.184,2.184,0,0,1,2.648.1c.989.983-1.1.323-1.82.54S581.79,404,582.66,403.1Z" transform="translate(-551.31 -385.344)" fill="#3e2d4a"/>
      <path id="Path_525" data-name="Path 525" d="M572.85,403.4a2.185,2.185,0,0,0-2.649-.061c-1.045.922,1.079.387,1.785.647S573.666,404.349,572.85,403.4Z" transform="translate(-547.852 -385.405)" fill="#3e2d4a"/>
      <path id="Path_526" data-name="Path 526" d="M571.814,410.652l-.115,0a2.988,2.988,0,0,1,.11-5.975l.115,0a2.988,2.988,0,0,1-.11,5.975Zm-.005-5.616a2.628,2.628,0,0,0-.1,5.254l.1,0a2.628,2.628,0,0,0,.1-5.254Z" transform="translate(-547.546 -385.902)" fill="#fffcf6"/>
      <path id="Path_527" data-name="Path 527" d="M582.156,410.071l-.115,0a2.988,2.988,0,0,1,.11-5.975l.115,0a2.988,2.988,0,0,1-.11,5.975Zm-.005-5.616a2.628,2.628,0,0,0-.1,5.254l.1,0a2.628,2.628,0,0,0,.1-5.254Z" transform="translate(-550.431 -385.74)" fill="#fffcf6"/>
      <path id="Path_528" data-name="Path 528" d="M568.705,407.787a.2.2,0,0,1-.066-.012l-1.093-.432a.18.18,0,0,1,.133-.335l1.093.432a.18.18,0,0,1-.066.348Z" transform="translate(-547.159 -386.549)" fill="#fffcf6"/>
      <path id="Path_529" data-name="Path 529" d="M586.988,407.125a.18.18,0,0,1-.049-.353l1.519-.435a.18.18,0,1,1,.1.347l-1.519.434A.17.17,0,0,1,586.988,407.125Z" transform="translate(-552.563 -386.364)" fill="#fffcf6"/>
      <path id="Path_530" data-name="Path 530" d="M574.166,390.521s.415,7.358,2.442,8.027,7.016.485,7.256-.32-3.867-7.282-6.815-8.32c-5.169-1.821-9.631,6.583-9.041,8.609s5.032.252,5.98-.008S573.977,391.977,574.166,390.521Z" transform="translate(-547.304 -381.712)" fill="#3e2d4a"/>
      <path id="Path_531" data-name="Path 531" d="M576.792,408.8a.18.18,0,0,1-.014-.36l1.85-.144a.168.168,0,0,1,.193.166.18.18,0,0,1-.165.193l-1.85.144Z" transform="translate(-549.719 -386.912)" fill="#fffcf6"/>
      <path id="Path_532" data-name="Path 532" d="M573.068,385.578a.271.271,0,0,1-.124-.03,3.049,3.049,0,0,1-1.759-2.121c-.383-1.966,1.4-4.073,1.479-4.161a.27.27,0,0,1,.41.352c-.017.02-1.692,2-1.358,3.707a2.539,2.539,0,0,0,1.475,1.744.27.27,0,0,1-.124.511Z" transform="translate(-548.19 -378.788)" fill="#3e2d4a"/>
      <path id="Path_533" data-name="Path 533" d="M579.141,386.435a.27.27,0,0,1-.173-.477c.019-.017,2-1.7,1.948-3.434a2.54,2.54,0,0,0-1.169-1.961.27.27,0,1,1,.324-.433,3.051,3.051,0,0,1,1.386,2.381c.055,2-2.053,3.787-2.143,3.863A.266.266,0,0,1,579.141,386.435Z" transform="translate(-550.349 -379.04)" fill="#3e2d4a"/>
      <path id="Path_534" data-name="Path 534" d="M592.266,414.185a.27.27,0,0,1-.167-.484,5.009,5.009,0,0,0,1.71-4.761,34.268,34.268,0,0,0-1.071-3.778,24.573,24.573,0,0,1-1.558-7.136.27.27,0,0,1,.269-.272h0a.271.271,0,0,1,.27.269A24.189,24.189,0,0,0,593.251,405a34.416,34.416,0,0,1,1.088,3.841,5.555,5.555,0,0,1-1.909,5.292A.269.269,0,0,1,592.266,414.185Z" transform="translate(-553.782 -383.972)" fill="#3e2d4a"/>
      <path id="Path_535" data-name="Path 535" d="M590.6,399.037l-.033,0a.27.27,0,0,1-.235-.3,9.253,9.253,0,0,0-1.684-7.225,10.276,10.276,0,0,0-6.431-3.3.271.271,0,0,1,.045-.539,10.647,10.647,0,0,1,6.8,3.5,9.765,9.765,0,0,1,1.8,7.636A.27.27,0,0,1,590.6,399.037Z" transform="translate(-551.213 -381.157)" fill="#3e2d4a"/>
      <path id="Path_536" data-name="Path 536" d="M578.239,417.792a2.584,2.584,0,0,1-.924-.172.27.27,0,0,1-.145-.353.275.275,0,0,1,.353-.146,1.867,1.867,0,0,0,1.387-.019.27.27,0,1,1,.241.484A2.033,2.033,0,0,1,578.239,417.792Z" transform="translate(-549.869 -389.361)" fill="#c05c5d"/>
      <path id="Path_537" data-name="Path 537" d="M566.265,409.716a.248.248,0,0,1-.079-.012.271.271,0,0,1-.18-.337,2.7,2.7,0,0,0-.7-2.7.271.271,0,0,1,.361-.4,3.218,3.218,0,0,1,.854,3.261A.269.269,0,0,1,566.265,409.716Z" transform="translate(-546.541 -386.326)" fill="#c05c5d"/>
      <path id="Path_538" data-name="Path 538" d="M588.8,410.817h-.024a.271.271,0,0,1-.246-.293,5.389,5.389,0,0,1,1.226-3.14.271.271,0,0,1,.391.374,4.955,4.955,0,0,0-1.078,2.814A.272.272,0,0,1,588.8,410.817Z" transform="translate(-553.044 -386.635)" fill="#c05c5d"/>
      <path id="Path_539" data-name="Path 539" d="M566.869,427.776s6.14,7.341,10.875,5.376,9.17-7.288,6.79-7.995S563.147,424.824,566.869,427.776Z" transform="translate(-546.867 -391.53)" fill="#df9f85"/>
      <path id="Path_540" data-name="Path 540" d="M586.176,414.846s1.852,13.424.12,14.942-3.921.189-6.86,1.194-3.04-3.076-2.838-5.169S577.757,410.419,586.176,414.846Z" transform="translate(-549.697 -388.489)" fill="#fff"/>
      <path id="Path_541" data-name="Path 541" d="M542.949,444.008l-3.633,10.728L565.8,463.7s4.05-10.281,3.54-10.453S542.949,444.008,542.949,444.008Z" transform="translate(-539.316 -396.874)" fill="#3e2d4a"/>
      <path id="Path_542" data-name="Path 542" d="M551.417,461.053s4.527-3.128,4.369-2.333-1.909,2.333-1.909,2.333,3.181-2.462,3.388-1.231a3.282,3.282,0,0,1-.909,2.4s2.237-1.783,2.6-.861-2.527,5-5.078,4.883S550.169,461.886,551.417,461.053Z" transform="translate(-542.55 -400.941)" fill="#df9f85"/>
      <path id="Path_543" data-name="Path 543" d="M553.935,451.487l9.913,4.038s1.726-5.247,1.4-5.853-3.9-.833-4.878-1.8-.626-2.139-2.263-1.936S553.935,451.487,553.935,451.487Z" transform="translate(-543.394 -397.406)" fill="#fff"/>
      <path id="Path_544" data-name="Path 544" d="M578.5,415.932a.276.276,0,0,1-.092-.016c-.782-.283-1.17-.632-1.185-1.066-.023-.693.969-1.165,1.167-1.253a.27.27,0,1,1,.219.495c-.36.159-.853.505-.846.74,0,.066.069.3.829.576a.27.27,0,0,1-.092.524Z" transform="translate(-549.889 -388.385)" fill="#c05c5d"/>
      <path id="Path_545" data-name="Path 545" d="M573.509,409.155a.268.268,0,0,1-.179-.068c-1.132-1-1.926-.732-1.958-.721a.273.273,0,0,1-.346-.159.269.269,0,0,1,.154-.346,2.558,2.558,0,0,1,2.509.821.27.27,0,0,1-.179.473Z" transform="translate(-548.156 -386.77)" fill="#3e2d4a"/>
      <path id="Path_546" data-name="Path 546" d="M582.078,409.24a.27.27,0,0,1-.179-.473,2.561,2.561,0,0,1,2.509-.821.27.27,0,0,1-.193.5c-.04-.014-.832-.273-1.958.722A.268.268,0,0,1,582.078,409.24Z" transform="translate(-551.168 -386.794)" fill="#3e2d4a"/>
      <path id="Path_547" data-name="Path 547" d="M604.887,451.976s2.884,1.667,7.932-2.736,6.847-7.86,4.187-12.482-9.234-9.725-10.917-9.716S598.4,445.414,604.887,451.976Z" transform="translate(-556.784 -392.141)" fill="#e6b56f"/>
      <path id="Path_548" data-name="Path 548" d="M593.2,416.364s-7.023-3.006-9.619-2.31,2.443,1.358,3.47,1.855-3.763-.325-4.362.055,4.354,1.783,4.354,1.783-4.391-.128-4.69.537S586.4,419.7,586.4,419.7s-3.308.55-3.217,1.256,6.194.486,8.188,3.013,4.822,16.3,13.2,15.042,8.294-6.425,2.255-13.05A36.334,36.334,0,0,0,593.2,416.364Z" transform="translate(-551.317 -388.489)" fill="#df9f85"/>
    </g>
  </g>
</svg>
