<svg xmlns="http://www.w3.org/2000/svg" width="56.668" height="62.88" viewBox="0 0 56.668 62.88">
  <g id="washhand" transform="translate(-1003.495 -284.244)">
    <ellipse id="Ellipse_32" data-name="Ellipse 32" cx="27.891" cy="27.891" rx="27.891" ry="27.891" transform="translate(1003.495 287.704)" fill="#ffc400"/>
    <g id="Group_245" data-name="Group 245" transform="translate(1003.949 284.244)">
      <path id="Path_478" data-name="Path 478" d="M449.026,452.191H487.6s1.351-22.182-3.563-25.427-27.9-2.568-32.991.2S449.026,452.191,449.026,452.191Z" transform="translate(-440.05 -393.791)" fill="#e6b56f"/>
      <path id="Path_479" data-name="Path 479" d="M458.179,413.243a.249.249,0,0,1-.159-.057c-.106-.086-2.58-2.169-1.226-6.365a31.353,31.353,0,0,1,1.345-3.425,12.391,12.391,0,0,0,1.369-5.4.249.249,0,0,1,.261-.241.253.253,0,0,1,.242.261,12.957,12.957,0,0,1-1.413,5.58,31.271,31.271,0,0,0-1.327,3.374c-1.249,3.872,1.042,5.8,1.066,5.822a.252.252,0,0,1-.159.446Z" transform="translate(-442.78 -384.944)" fill="#3e2d4a"/>
      <circle id="Ellipse_46" data-name="Ellipse 46" cx="3.155" cy="3.155" r="3.155" transform="translate(22.785)" fill="#3e2d4a"/>
      <path id="Path_480" data-name="Path 480" d="M458.392,409.933s.925,1.908,4.705,2.58,6.746-.7,9.664.362,7.134-.32,7.969-1.546.661-14.8-1.64-17.081-14.356-4.177-16.968-1.513S456.734,408.4,458.392,409.933Z" transform="translate(-443.275 -382.858)" fill="#3e2d4a"/>
      <ellipse id="Ellipse_47" data-name="Ellipse 47" cx="10.397" cy="10.397" rx="10.397" ry="10.397" transform="translate(16.152 5.576)" fill="#3e2d4a"/>
      <path id="Path_481" data-name="Path 481" d="M478.47,415.623s.675,8.1,0,9-4.948.225-6.073,0-1.575-9-.9-9S478.341,413.818,478.47,415.623Z" transform="translate(-447.656 -390.568)" fill="#df9f85"/>
      <path id="Path_482" data-name="Path 482" d="M462.964,398.634s.427,12.62,8.96,13.165,8.523-17.236,5.436-18.927S461.386,391.5,462.964,398.634Z" transform="translate(-444.904 -383.052)" fill="#df9f85"/>
      <path id="Path_483" data-name="Path 483" d="M475.666,405.9s1.63,3.885,1.21,4.142a2.49,2.49,0,0,1-1.977-.074C474.568,409.684,475,405.467,475.666,405.9Z" transform="translate(-448.845 -387.617)" fill="#c05c5d"/>
      <ellipse id="Ellipse_48" data-name="Ellipse 48" cx="0.802" cy="0.802" rx="0.802" ry="0.802" transform="translate(22.663 20.037)" fill="#3e2d4a"/>
      <ellipse id="Ellipse_49" data-name="Ellipse 49" cx="0.802" cy="0.802" rx="0.802" ry="0.802" transform="translate(29.546 19.66)" fill="#3e2d4a"/>
      <path id="Path_484" data-name="Path 484" d="M468.809,391.845s-3.059,1.479-3.642,4.257-.281,9.889-3.522,9.563C461.645,405.665,455.368,391.591,468.809,391.845Z" transform="translate(-444.03 -382.993)" fill="#3e2d4a"/>
      <path id="Path_485" data-name="Path 485" d="M475.449,391.618c-.278.2,3.155.19,5.117,2.569s2.428,8.323,2.732,8.433,1.515-7.366-.636-9.612S477.029,390.487,475.449,391.618Z" transform="translate(-449.058 -382.705)" fill="#3e2d4a"/>
      <path id="Path_486" data-name="Path 486" d="M471.758,419.807a7.611,7.611,0,0,0,6.766.123,8.336,8.336,0,0,1,0,2.608c-.268.489-5.727.838-6.8-1.571C471.723,420.967,471.448,419.7,471.758,419.807Z" transform="translate(-447.798 -392.21)" fill="#c05c5d"/>
      <path id="Path_487" data-name="Path 487" d="M485.867,407.987s.817-3.159,2.242-2.035.136,4.426-1.272,4.726S485.09,409.616,485.867,407.987Z" transform="translate(-452.364 -387.565)" fill="#df9f85"/>
      <path id="Path_488" data-name="Path 488" d="M464.6,407.177s-.578-3.211-2.083-2.2-.467,4.4.916,4.808S465.258,408.859,464.6,407.177Z" transform="translate(-444.558 -387.258)" fill="#df9f85"/>
      <path id="Path_489" data-name="Path 489" d="M480.693,402.914a2.029,2.029,0,0,1,2.429.406c.794,1.024-1.053.166-1.743.28S479.784,403.635,480.693,402.914Z" transform="translate(-450.666 -386.563)" fill="#3e2d4a"/>
      <path id="Path_490" data-name="Path 490" d="M470.641,403.136a2.03,2.03,0,0,0-2.428.414c-.79,1.028,1.053.162,1.743.273S471.552,403.853,470.641,403.136Z" transform="translate(-446.614 -386.637)" fill="#3e2d4a"/>
      <path id="Path_491" data-name="Path 491" d="M469.631,410.231l-.107,0a2.778,2.778,0,0,1,.1-5.554l.107,0a2.778,2.778,0,0,1-.1,5.554Zm0-5.221a2.443,2.443,0,0,0-.089,4.884l.094,0a2.443,2.443,0,0,0,.089-4.884Z" transform="translate(-446.229 -387.223)" fill="#fffcf6"/>
      <path id="Path_492" data-name="Path 492" d="M479.973,409.65l-.107,0a2.778,2.778,0,0,1,.1-5.554l.107,0a2.778,2.778,0,0,1-.1,5.554Zm0-5.221a2.443,2.443,0,0,0-.089,4.884l.093,0a2.443,2.443,0,0,0,.089-4.884Z" transform="translate(-449.638 -387.032)" fill="#fffcf6"/>
      <path id="Path_493" data-name="Path 493" d="M466.643,407.731a.185.185,0,0,1-.062-.011l-1.016-.4a.167.167,0,0,1,.123-.312l1.016.4a.167.167,0,0,1-.062.323Z" transform="translate(-445.77 -387.988)" fill="#fffcf6"/>
      <path id="Path_494" data-name="Path 494" d="M485,407.069a.167.167,0,0,1-.046-.328l1.412-.4a.168.168,0,0,1,.091.322l-1.412.4A.157.157,0,0,1,485,407.069Z" transform="translate(-452.158 -387.769)" fill="#fffcf6"/>
      <path id="Path_495" data-name="Path 495" d="M471.756,390.46s.385,6.841,2.27,7.462,6.522.45,6.745-.3-3.595-6.77-6.335-7.735c-4.806-1.693-8.954,6.12-8.405,8s4.678.235,5.558-.007S471.58,391.813,471.756,390.46Z" transform="translate(-445.943 -382.27)" fill="#3e2d4a"/>
      <path id="Path_496" data-name="Path 496" d="M474.807,408.764a.167.167,0,0,1-.013-.334l1.719-.134a.158.158,0,0,1,.18.154.168.168,0,0,1-.154.18l-1.719.134Z" transform="translate(-448.797 -388.416)" fill="#fffcf6"/>
      <path id="Path_497" data-name="Path 497" d="M470.959,385.127a.255.255,0,0,1-.115-.028,2.836,2.836,0,0,1-1.635-1.972c-.355-1.827,1.3-3.786,1.376-3.868a.251.251,0,0,1,.381.327c-.015.019-1.573,1.859-1.262,3.446a2.362,2.362,0,0,0,1.372,1.621.251.251,0,0,1-.115.475Z" transform="translate(-446.99 -378.815)" fill="#3e2d4a"/>
      <path id="Path_498" data-name="Path 498" d="M477.149,385.987a.251.251,0,0,1-.161-.444c.018-.016,1.857-1.576,1.811-3.193a2.357,2.357,0,0,0-1.087-1.823.251.251,0,0,1,.3-.4,2.835,2.835,0,0,1,1.288,2.213c.051,1.862-1.908,3.521-1.992,3.591A.247.247,0,0,1,477.149,385.987Z" transform="translate(-449.541 -379.113)" fill="#3e2d4a"/>
      <path id="Path_499" data-name="Path 499" d="M490.217,413.029a.251.251,0,0,1-.156-.45,4.657,4.657,0,0,0,1.589-4.426,31.816,31.816,0,0,0-1-3.512,22.8,22.8,0,0,1-1.449-6.634.251.251,0,0,1,.25-.253h0a.252.252,0,0,1,.251.25,22.463,22.463,0,0,0,1.424,6.482,32.152,32.152,0,0,1,1.011,3.571,5.163,5.163,0,0,1-1.774,4.919A.247.247,0,0,1,490.217,413.029Z" transform="translate(-453.599 -384.942)" fill="#3e2d4a"/>
      <path id="Path_500" data-name="Path 500" d="M488.018,398.237l-.031,0a.252.252,0,0,1-.219-.28,8.6,8.6,0,0,0-1.565-6.717,9.553,9.553,0,0,0-5.977-3.072.251.251,0,0,1-.23-.272.254.254,0,0,1,.271-.23,9.9,9.9,0,0,1,6.324,3.253,9.081,9.081,0,0,1,1.677,7.1A.252.252,0,0,1,488.018,398.237Z" transform="translate(-450.562 -381.615)" fill="#3e2d4a"/>
      <path id="Path_501" data-name="Path 501" d="M476.226,417.622c-.283,0-.583-.009-.808-.017a.253.253,0,0,1-.242-.261.243.243,0,0,1,.261-.241,9.836,9.836,0,0,0,1.407-.011.256.256,0,0,1,.314.163.244.244,0,0,1-.146.311A3.287,3.287,0,0,1,476.226,417.622Z" transform="translate(-448.973 -391.313)" fill="#c05c5d"/>
      <path id="Path_502" data-name="Path 502" d="M464.219,409.468a.229.229,0,0,1-.073-.011.251.251,0,0,1-.167-.314,2.515,2.515,0,0,0-.648-2.509.252.252,0,1,1,.335-.376,2.991,2.991,0,0,1,.793,3.032A.25.25,0,0,1,464.219,409.468Z" transform="translate(-445.041 -387.724)" fill="#c05c5d"/>
      <path id="Path_503" data-name="Path 503" d="M486.809,410.569h-.022a.252.252,0,0,1-.229-.273,5.015,5.015,0,0,1,1.14-2.919.252.252,0,0,1,.363.348,4.611,4.611,0,0,0-1,2.616A.251.251,0,0,1,486.809,410.569Z" transform="translate(-452.726 -388.089)" fill="#c05c5d"/>
      <path id="Path_504" data-name="Path 504" d="M464.862,427.571s5.708,6.824,10.11,5,8.526-6.775,6.312-7.432S461.4,424.826,464.862,427.571Z" transform="translate(-445.426 -393.875)" fill="#df9f85"/>
      <path id="Path_505" data-name="Path 505" d="M475.385,441.468s-3.326-2.987-6.8-1.3-2.419,5.194-5.595,4.545-8.929.331-7.56,3.766-7.387,6.121-4.061,10.535,12.3,1.022,15.062,1.931,9.26,1.3,10.015-1.3,5.594-2.987,4.838-6.363S479.771,445.234,475.385,441.468Z" transform="translate(-440.874 -398.754)" fill="#fff"/>
      <path id="Path_506" data-name="Path 506" d="M460.783,452.167s3.4,4.078,3.387,8c-.005,2.5-1.845-1.713-2.476-2.565s1.36,2.818.7,3.994c-.322.575-2.378-3.671-2.378-3.671s.873,3.988.316,4.377-1.99-3.449-1.99-3.449.067,3.116-.594,3.155-.423-3.164-3.074-4.551-14.73,8.212-15.017.345,3.257-10.592,11.467-9.163C457.6,449.77,458.625,450.484,460.783,452.167Z" transform="translate(-437.259 -401.598)" fill="#df9f85"/>
      <path id="Path_507" data-name="Path 507" d="M480.782,452.2s-3.4,4.078-3.388,8c.006,2.5,1.845-1.713,2.476-2.565s-1.359,2.818-.7,3.994c.322.575,2.378-3.671,2.378-3.671s-.873,3.988-.317,4.377,1.991-3.449,1.991-3.449-.067,3.116.593,3.155.424-3.164,3.075-4.551,16.263,9.155,16.549,1.288-4.789-11.536-13-10.107C483.963,449.8,482.94,450.514,480.782,452.2Z" transform="translate(-449.705 -401.628)" fill="#df9f85"/>
      <path id="Path_508" data-name="Path 508" d="M488.086,460.938s.072-6.9,3.844-6.857,5.565,3.416,2.015,5.4S487.986,462.284,488.086,460.938Z" transform="translate(-453.229 -403.511)" fill="#fff"/>
      <path id="Path_509" data-name="Path 509" d="M490.773,457.875a2.689,2.689,0,0,0,2.026,1.544c1.422.141,4.657,0,4.938,2.039s-1.409,4.851-3.482,4.57-4.2-.7-5.947.467S488.309,457.034,490.773,457.875Z" transform="translate(-453.069 -404.746)" fill="#fff"/>
      <ellipse id="Ellipse_50" data-name="Ellipse 50" cx="1.687" cy="1.687" rx="1.687" ry="1.687" transform="translate(37.917 40.506)" fill="#fff"/>
      <ellipse id="Ellipse_51" data-name="Ellipse 51" cx="1.687" cy="1.687" rx="1.687" ry="1.687" transform="translate(18.353 40.506)" fill="#fff"/>
      <path id="Path_510" data-name="Path 510" d="M475.246,414.587a4.5,4.5,0,0,1-2.474-.933.251.251,0,1,1,.313-.393,3.765,3.765,0,0,0,2.527.792,2.218,2.218,0,0,0,1.5-1.125.251.251,0,1,1,.428.263,2.7,2.7,0,0,1-1.841,1.359A2.638,2.638,0,0,1,475.246,414.587Z" transform="translate(-448.15 -389.904)" fill="#c05c5d"/>
      <path id="Path_511" data-name="Path 511" d="M453.066,426.256s-4.712,6.472-4.849,10.275-4.354,5.407-3.159,10.887c.471,2.158,2.663,5.319.379,6.423-2.7,1.306-7.166.7-7.716-.162-3.984-6.261.052-20.692,4.249-23.986C445.152,427.2,453.066,426.256,453.066,426.256Z" transform="translate(-436.087 -394.338)" fill="#e6b56f"/>
      <path id="Path_512" data-name="Path 512" d="M494.616,426.256s4.712,6.472,4.85,10.275,4.354,5.407,3.159,10.887c-.471,2.158-2.664,5.319-.379,6.423,2.7,1.306,7.165.7,7.716-.162,3.984-6.261-.052-20.692-4.25-23.986C502.531,427.2,494.616,426.256,494.616,426.256Z" transform="translate(-455.382 -394.338)" fill="#e6b56f"/>
    </g>
  </g>
</svg>
