<svg xmlns="http://www.w3.org/2000/svg" width="455" height="282.831" viewBox="0 0 455 282.831">
  <g id="wear_mask" transform="translate(0.002 -0.014)">
    <g id="OBJECTS" transform="translate(-0.002 0.014)">
      <path id="Path_743" data-name="Path 743" d="M260.5,10.9s-1.389-5.726,3.268-8.755,29.666-4.324,26.153,21.835-11.571,48.541,3.268,54.813c0,0,1.257.566.723,1.672s-2.954.409-2.954.409,3.3,4.808-2.42,8.108-31.275,6.656-29.987-19.245S260.5,10.9,260.5,10.9Z" transform="translate(-96.028 -0.22)" fill="#1a1a1a" fill-rule="evenodd"/>
      <path id="Path_744" data-name="Path 744" d="M265.595,27.97a9.145,9.145,0,1,0-9.145-9.145,9.145,9.145,0,0,0,9.145,9.145Z" transform="translate(-95.265 -3.605)" fill="#270d42" fill-rule="evenodd"/>
      <path id="Path_745" data-name="Path 745" d="M243.667,73.26h0c-7.637,0-13.89,10.685-13.89,23.758v12.7c0,.729-.955,1.125-.955,1.125L225.05,112.4l.195,5.826,6.247,10.553.277-.3c2.432,6.914,6.876,11.59,11.942,11.59h0c5.066,0,9.516-4.7,11.942-11.665l.352.371,6.247-10.553.195-5.826-3.771-1.552s-.955-.4-.955-1.125l-.1.044V97.018C257.557,83.951,251.3,73.26,243.667,73.26Z" transform="translate(-83.6 -27.224)" fill="#e6ad83" fill-rule="evenodd"/>
      <path id="Path_746" data-name="Path 746" d="M229.924,105.4c-.1,1.163-.157,2.351-.157,3.557v12.7c0,.729-.955,1.125-.955,1.125l-3.771,1.552.195,5.826,6.247,10.553.277-.3c2.175,6.191,5.952,10.572,10.327,11.433,1.257,0,2.432,0,3.532-.075a10.685,10.685,0,0,0,4.89-2.854l-9.189-5.657c-6.423-3.979-10.056-15.028-7-20.232a5.393,5.393,0,0,1,3.771-2.646C237.585,117.618,232.966,109.693,229.924,105.4Z" transform="translate(-83.597 -39.163)" fill="#d7766d" fill-rule="evenodd"/>
      <path id="Path_747" data-name="Path 747" d="M232.56,112.324V124.2c14.073,6.675,23.758,0,27.787-3.878v-5.317c-4.148-2.307-13.783-2.231-22.966-2.615C235.765,112.324,234.138,112.3,232.56,112.324Z" transform="translate(-86.39 -41.732)" fill="#d7766d" fill-rule="evenodd"/>
      <path id="Path_748" data-name="Path 748" d="M322.479,154.68l5.342,2.979a12.2,12.2,0,0,1,3.545,5.072c1.32,3.4,19.993,62.971,19.993,62.971s3.055,12.074-3.193,22.35-28.428,38.3-28.428,38.3l-13.369-25.1L326.784,236.1s-2.087-2.288-.145-3.953l-9.987-31.539L315.006,172Z" transform="translate(-113.809 -57.469)" fill="#5e90cc" fill-rule="evenodd"/>
      <path id="Path_749" data-name="Path 749" d="M333.086,286.333c-4.99,6.53-9.428,12.162-10.9,14.054l-1.8-1.716-7.838-14.689-1-7.655,6.505-11.521,15.041,21.552Zm-4.4-35.511a3.578,3.578,0,0,1-.924-2.7l6.75,1.106Zm-2.652-11.892-7.479-23.6-.936-16.26,4.4-4.789Z" transform="translate(-115.73 -72.18)" fill="#3861a6" fill-rule="evenodd"/>
      <path id="Path_750" data-name="Path 750" d="M159.839,154.68l-5.342,2.979a12.2,12.2,0,0,0-3.545,5.072c-1.314,3.4-19.993,62.971-19.993,62.971s-3.055,12.074,3.193,22.35,28.428,38.3,28.428,38.3l13.381-25.1L155.553,236.1s2.08-2.288.138-3.953l9.993-31.539L167.331,172Z" transform="translate(-48.37 -57.469)" fill="#5e90cc" fill-rule="evenodd"/>
      <path id="Path_751" data-name="Path 751" d="M162.663,286.333c4.99,6.53,9.428,12.162,10.9,14.054l1.81-1.716,7.831-14.689,1-7.655L177.7,264.806l-15.04,21.552Zm4.4-35.511a3.6,3.6,0,0,0,.924-2.7l-6.757,1.106Zm2.652-11.892,7.479-23.6.936-16.26L173.7,194.28Z" transform="translate(-59.893 -72.18)" fill="#3861a6" fill-rule="evenodd"/>
      <path id="Path_752" data-name="Path 752" d="M262.11,343.856l2.552,5.833s2.458,4.167,2.766,5.625c.2.98,1.886,11.7,2.992,18.6.528,3.337,6.876,36.649,6.876,36.649H169.9s5.2-32.715,5.657-35.436c1.068-6.788,2.967-18.786,3.18-19.824.308-1.458,2.759-5.625,2.759-5.625l2.558-5.833,39.019,1.351Z" transform="translate(-63.113 -127.742)" fill="#3861a6" fill-rule="evenodd"/>
      <path id="Path_753" data-name="Path 753" d="M264.748,343.86l2.552,5.833s2.457,4.167,2.766,5.625c.163.792,1.307,7.945,2.313,14.305L177,382.527c.629-3.8,1.062-6.656,1.175-7.385,1.068-6.788,2.967-18.786,3.187-19.824.3-1.458,2.753-5.625,2.753-5.625l2.558-5.833,39.037,1.345Z" transform="translate(-65.751 -127.746)" fill="#325497" fill-rule="evenodd"/>
      <path id="Path_754" data-name="Path 754" d="M198.4,337.93v3.727s19.208,3.476,35.367,3.476,35.361-3.476,35.361-3.476V337.93l-35.361.4Z" transform="translate(-73.701 -125.543)" fill="#bf5c35" fill-rule="evenodd"/>
      <path id="Path_755" data-name="Path 755" d="M246.556,135.587,273.243,146.4l-1.062,26.247c-2.15,27.46-6.417,67.88-6.417,69.552s1.584,6.945,3.463,13.262h0a4.575,4.575,0,0,1-1.376,4.092,25.208,25.208,0,0,1-4.72,3.193c-30.4,3.583-40.326,3.583-70.727,0a25.211,25.211,0,0,1-4.72-3.193,4.576,4.576,0,0,1-1.376-4.092h0c1.886-6.285,3.463-11.565,3.463-13.262s-3.708-40.98-5.864-68.44L182.29,146.4l26.844-10.867-.038.057s3.143,17.749,18.73,17.749S246.556,135.593,246.556,135.587Z" transform="translate(-67.716 -50.356)" fill="#fff" fill-rule="evenodd"/>
      <path id="Path_756" data-name="Path 756" d="M266.693,233.7c-.478,4.9-.779,8.051-.779,8.5,0,1.7,1.584,6.945,3.463,13.262h0A4.557,4.557,0,0,1,268,259.55a25.207,25.207,0,0,1-4.72,3.193c-30.4,3.583-40.326,3.583-70.727,0a25.21,25.21,0,0,1-4.72-3.193,4.557,4.557,0,0,1-1.376-4.092h0c1.886-6.285,3.463-11.565,3.463-13.262s-3.708-40.98-5.864-68.44l-1.4-23.645c6.128-4.18,11.753-7.693,16.342-10.408l10.27-4.173-.038.057a28.372,28.372,0,0,0,2.784,7.58c4.525,30.3,5.173,54.279,16.756,66.127C241.6,222.4,258.2,218.614,258.2,218.614S261.646,224.5,266.693,233.7Z" transform="translate(-67.853 -50.356)" fill="#cfd0d2" fill-rule="evenodd"/>
      <path id="Path_757" data-name="Path 757" d="M206.029,134.416s-1.76-.9-2.382-.685-27.46,12.426-28.642,13.155c0,0,4.557,43.751,3.771,52.877l4.312,32.865a2.69,2.69,0,0,0-.207,3.677l-11.8,46.862a2.156,2.156,0,0,0,1.527,2.514c1.942.691,36.517,6.524,36.517,6.524s3.608,0,4.167-2.357,4.67-60.658,4.67-60.658L202.88,135.71Z" transform="translate(-63.536 -49.675)" fill="#5e90cc" fill-rule="evenodd"/>
      <path id="Path_758" data-name="Path 758" d="M275.573,134.416s1.76-.9,2.382-.685,27.46,12.426,28.654,13.155c0,0-4.557,43.751-3.771,52.877l-4.312,32.865a2.69,2.69,0,0,1,.207,3.677l11.8,46.862a2.162,2.162,0,0,1-1.527,2.514c-1.948.691-36.523,6.524-36.523,6.524s-3.608,0-4.161-2.357-4.676-60.658-4.676-60.658l15.085-93.48Z" transform="translate(-97.94 -49.675)" fill="#5e90cc" fill-rule="evenodd"/>
      <path id="Path_759" data-name="Path 759" d="M275.681,134.416s1.76-.9,2.382-.685c.207.063,3.143,1.4,7.121,3.193l4.626,35.2-25.87,56.045h0l14.9-92.462Z" transform="translate(-98.047 -49.675)" fill="#83aede" fill-rule="evenodd"/>
      <path id="Path_760" data-name="Path 760" d="M218.359,134.416s-1.76-.9-2.382-.685c-.2.063-3.143,1.4-7.121,3.193l-4.626,35.2,25.87,56.045h0L215.2,135.7Z" transform="translate(-75.866 -49.675)" fill="#83aede" fill-rule="evenodd"/>
      <path id="Path_761" data-name="Path 761" d="M289.553,70a2.573,2.573,0,0,1,.534.094h0a7.285,7.285,0,1,1-6.09,1.42c-.2,2.15.119,4.814,2.866,5.1l-.05-4.2A2.528,2.528,0,0,1,289.553,70Z" transform="translate(-104.478 -26.012)" fill="#d7766d" fill-rule="evenodd"/>
      <path id="Path_762" data-name="Path 762" d="M211.424,69.469a5.252,5.252,0,0,0-.534.088h0a7.291,7.291,0,1,0,6.071,1.5c.17,2.15-.189,4.808-2.935,5.028l.107-4.2A2.506,2.506,0,0,0,211.424,69.469Z" transform="translate(-76.172 -25.815)" fill="#d7766d" fill-rule="evenodd"/>
      <path id="Path_763" data-name="Path 763" d="M240.006,85.169c-13.6,0-24.946-16.775-24.946-30.031V37.54A25.015,25.015,0,0,1,240.006,12.6h0a25.015,25.015,0,0,1,24.94,24.94V54.767C264.946,69.286,255.053,85.169,240.006,85.169Z" transform="translate(-79.889 -4.69)" fill="#e6ad83" fill-rule="evenodd"/>
      <path id="Path_764" data-name="Path 764" d="M216.559,32.936h0c.063,0,30.546-10.829,31.193-10.088s4.626,7.31,4.626,7.31-6.851-2.131-13.607,4.909S224.7,47.442,218.507,47.354C212.436,47.26,216.383,33.527,216.559,32.936Z" transform="translate(-79.918 -8.483)" fill="#d7766d" fill-rule="evenodd"/>
      <path id="Path_765" data-name="Path 765" d="M281.052,87.8a4.117,4.117,0,1,0,4.192,4.041,4.117,4.117,0,0,0-4.192-4.041Z" transform="translate(-102.903 -32.624)" fill="#d7766d" fill-rule="evenodd"/>
      <path id="Path_766" data-name="Path 766" d="M223.422,88.84a4.117,4.117,0,1,0,4.192,4.041A4.117,4.117,0,0,0,223.422,88.84Z" transform="translate(-81.495 -33.011)" fill="#d7766d" fill-rule="evenodd"/>
      <path id="Path_767" data-name="Path 767" d="M237.888,63.371a1.043,1.043,0,1,1-.861,1.886,6.826,6.826,0,0,0-6.166.4,1.05,1.05,0,1,1-1.144-1.76A9.11,9.11,0,0,1,237.888,63.371Z" transform="translate(-85.157 -23.274)" fill="#19194f" fill-rule="evenodd"/>
      <path id="Path_768" data-name="Path 768" d="M277.04,63.918a1.05,1.05,0,0,1-1.018,1.829,6.832,6.832,0,0,0-6.178-.107,1.056,1.056,0,0,1-1.414-.446,1.043,1.043,0,0,1,.446-1.414A9.043,9.043,0,0,1,277.04,63.918Z" transform="translate(-99.67 -23.356)" fill="#19194f" fill-rule="evenodd"/>
      <path id="Path_769" data-name="Path 769" d="M244.917,98.8a7.385,7.385,0,1,0,14.764.132h0a1.257,1.257,0,0,0-1.257-1.257l-12.2-.138a1.257,1.257,0,0,0-1.288,1.257Z" transform="translate(-90.979 -36.243)" fill="#fff" fill-rule="evenodd"/>
      <path id="Path_770" data-name="Path 770" d="M249.21,107.46a7.379,7.379,0,0,0,8.529.629,4.576,4.576,0,0,0-4.192-2.759A4.67,4.67,0,0,0,249.21,107.46Z" transform="translate(-92.575 -39.13)" fill="#fff" fill-rule="evenodd"/>
      <path id="Path_771" data-name="Path 771" d="M258.935,97.647l-11.458-.107a2.576,2.576,0,0,0,1.257,2.841c1.031.346,9.327.207,9.918-.44A4.75,4.75,0,0,0,258.935,97.647Z" transform="translate(-91.918 -36.243)" fill="#fff" fill-rule="evenodd"/>
      <path id="Path_772" data-name="Path 772" d="M255.714,80.266a27.416,27.416,0,0,1,1.389,4.7c-.113.6-3.287.754-4.123-.163-.553-.629.132-2.891.735-4.4C254.538,78.33,254.991,78.217,255.714,80.266Z" transform="translate(-93.9 -29.277)" fill="#f1d3c8" fill-rule="evenodd"/>
      <path id="Path_773" data-name="Path 773" d="M231.261,73.131a3.143,3.143,0,0,0-1.961.666.968.968,0,0,1-.629-.478.371.371,0,1,0-.629.339,1.622,1.622,0,0,0,.7.7h-.031a1.678,1.678,0,0,1-.9-.585.377.377,0,0,0-.585.471,2.382,2.382,0,0,0,1.094.761h0a2.307,2.307,0,0,1-1.119-.358.373.373,0,0,0-.4.629,3.055,3.055,0,0,0,1.156.446h.145a2.952,2.952,0,0,0-.05.578,3.218,3.218,0,1,0,3.212-3.168Zm26.134,0a3.218,3.218,0,1,0,3.218,3.218,3.546,3.546,0,0,0-.05-.585h.094a2.985,2.985,0,0,0,1.15-.446.373.373,0,1,0-.4-.629,2.4,2.4,0,0,1-1.068.358h0a2.439,2.439,0,0,0,1.018-.779.373.373,0,0,0-.578-.471,1.7,1.7,0,0,1-.861.572v-.038a1.64,1.64,0,0,0,.629-.679.383.383,0,0,0-.163-.5.377.377,0,0,0-.5.163.943.943,0,0,1-.566.465,3.2,3.2,0,0,0-1.942-.647Z" transform="translate(-84.186 -27.138)" fill="#19194f" fill-rule="evenodd"/>
      <path id="Path_774" data-name="Path 774" d="M284.19,81.383a.409.409,0,1,1-.779-.226s5.9-9.943,9.026-9.428l-.88.685C288.445,75.192,284.2,81.364,284.19,81.383Z" transform="translate(-105.268 -26.648)" fill="#accbdb" fill-rule="evenodd"/>
      <path id="Path_775" data-name="Path 775" d="M220.159,81.711a.415.415,0,0,0,.509.277.4.4,0,0,0,.27-.5s-5.965-9.013-9.088-8.5l.478.2.383.264A83.157,83.157,0,0,1,220.159,81.711Z" transform="translate(-78.697 -27.114)" fill="#accbdb" fill-rule="evenodd"/>
      <path id="Path_776" data-name="Path 776" d="M220.822,103.624a.4.4,0,0,0,.088-.8h-.145c-4.557-.572-8.529-7.329-8.843-11.357a9.261,9.261,0,0,1-.842-.522c.214,4.532,4.475,12.049,9.585,12.684Z" transform="translate(-78.411 -33.791)" fill="#accbdb" fill-rule="evenodd"/>
      <path id="Path_777" data-name="Path 777" d="M282.535,103.624a.4.4,0,0,1-.088-.8h.138c4.557-.572,9.365-7.329,9.679-11.357a9.252,9.252,0,0,0,.842-.522c-.214,4.532-5.311,12.049-10.421,12.684Z" transform="translate(-104.788 -33.791)" fill="#accbdb" fill-rule="evenodd"/>
      <path id="Path_778" data-name="Path 778" d="M243.389,84l18.5.993s.742.214.717.892-.666,13.827-.666,13.827a4.4,4.4,0,0,1-.767,2.2c-.735,1.024-6.555,10.616-17.781,10.616s-17.052-9.591-17.787-10.616a4.444,4.444,0,0,1-.767-2.2s-.629-13.1-.666-13.783.717-.892.717-.892Z" transform="translate(-83.273 -31.213)" fill="#fff" fill-rule="evenodd"/>
      <path id="Path_779" data-name="Path 779" d="M244.241,86.3l-17.781.949c.157,4.4.453,8.8.629,13.2a2.9,2.9,0,0,0,.5,1.433c.5.691.937,1.364,1.471,2.036a24.513,24.513,0,0,0,3.256,3.407,17.749,17.749,0,0,0,23.8,0,24.579,24.579,0,0,0,3.262-3.407c.528-.673.974-1.345,1.471-2.036a2.9,2.9,0,0,0,.5-1.433c.195-4.4.5-8.8.629-13.2Z" transform="translate(-84.124 -32.068)" fill="#d3e4ec" fill-rule="evenodd"/>
      <path id="Path_780" data-name="Path 780" d="M226.88,96.223c.088,1.722.189,3.444.277,5.16l16.4-6.323Zm.358,6.914.031.578a2.9,2.9,0,0,0,.5,1.433c.5.691.937,1.364,1.471,2.036a24.514,24.514,0,0,0,3.256,3.407,17.749,17.749,0,0,0,23.8,0,24.584,24.584,0,0,0,3.262-3.407c.528-.673.974-1.345,1.471-2.036a2.943,2.943,0,0,0,.2-.346s-2.879,3.143-12.891,3.143-21.1-4.783-21.1-4.783Zm34.342-.629q.094-1.886.195-3.771l-12.193-.874Z" transform="translate(-84.28 -35.322)" fill="#accbdb" fill-rule="evenodd"/>
      <path id="Path_781" data-name="Path 781" d="M211.95,64.6s2.891-2.074,2.891-7.121c0,0,4.626-4.305,4.261-8.843s-5.487-10.559-5.487-10.559-4.607,2.879-6.285,6.028.465,16.1.465,16.1S210.951,57.9,211.95,64.6Z" transform="translate(-76.78 -14.155)" fill="#1a1a1a" fill-rule="evenodd"/>
      <path id="Path_782" data-name="Path 782" d="M290.194,64.622s-2.885-2.062-2.885-7.09c0,0-4.632-4.305-4.261-8.843s5.487-10.559,5.487-10.559,4.6,2.879,6.285,6.028-.5,16.071-.5,16.071S291.181,57.916,290.194,64.622Z" transform="translate(-105.138 -14.174)" fill="#1a1a1a" fill-rule="evenodd"/>
      <path id="Path_783" data-name="Path 783" d="M242.438,21.758l-.107-.05a.559.559,0,0,1-.509,0c-4.557-2.665-8.755,1.163-13.683,5.657s-10.647,9.723-18.321,9.987a14.1,14.1,0,0,1-2.112.415c-13.149,1.534-19.164-16.342-6.983-28.208,13.067-12.7,41.614-14.582,44.858,5.833C245.58,15.391,246.177,19.791,242.438,21.758Zm-8.284-.7c-7.09,2.024-12.878,10.226-19.943,14.374,5.166-1.628,9.384-5.468,13.2-8.919a43.208,43.208,0,0,1,6.769-5.456Z" transform="translate(-72.108 -0.014)" fill="#1a1a1a" fill-rule="evenodd"/>
      <path id="Path_784" data-name="Path 784" d="M262.2,25.48h.069a.346.346,0,0,0,.258.163c3.143.3,3.84,3.633,4.657,7.542s1.772,8.466,5.4,11.313a8.32,8.32,0,0,0,.88.943c5.852,5.355,15.04-1.219,13.287-11.251-1.886-10.754-15.085-21.678-23.84-12.91a3.9,3.9,0,0,0-.71,4.192Zm4.274,2.571c2.734,3.469,2.665,9.484,4.638,13.972-1.936-2.6-2.64-5.946-3.268-8.95a25.978,25.978,0,0,0-1.37-5.022Z" transform="translate(-97.266 -6.728)" fill="#1a1a1a" fill-rule="evenodd"/>
      <path id="Path_785" data-name="Path 785" d="M446.7,79.575l-4.186,1.772s.578,18.309-3.677,30.917-.874,23.255,6,20.741c0,0,.4,7.674,6.1,9.428s12.772,3.143,12.772,3.143l19.164,1.2s18.189,5.7,19.547-18.46c0,0,6.191-.3,6.285-8.7s-8.416-22.061-8.416-39.471S446.7,79.575,446.7,79.575Z" transform="translate(-162.32 -26.852)" fill="#141414" fill-rule="evenodd"/>
      <path id="Path_786" data-name="Path 786" d="M481.714,78.45h0c-7.542,0-13.7,10.547-13.7,23.431v12.526h0c0,.717-.949,1.112-.949,1.112l-3.733,1.527.189,5.745,6.166,10.408.27-.289c2.4,6.832,6.782,11.433,11.76,11.433h0c4.99,0,9.384-4.638,11.779-11.514l.346.371L500,122.792l.189-5.745-3.759-1.527s-.949-.4-.949-1.112l-.094.038v-12.57C495.416,89,489.25,78.45,481.714,78.45Z" transform="translate(-172.117 -29.152)" fill="#e6ad83" fill-rule="evenodd"/>
      <path id="Path_787" data-name="Path 787" d="M468.012,132.21v2.168h0c0,.717-.949,1.112-.949,1.112l-3.733,1.527.189,5.745,6.166,10.408.27-.289a21.835,21.835,0,0,0,4.94,8.3c8.359.5,14.934-1.578,10.151-3.143-9.2-3.017-15.374-10.056-15.084-16.09s2.59-6.612,11.213-6.178a45.078,45.078,0,0,0-13.161-3.564Z" transform="translate(-172.117 -49.122)" fill="#d7766d" fill-rule="evenodd"/>
      <path id="Path_788" data-name="Path 788" d="M470.78,116.991v11.716c13.871,6.581,23.425,0,27.4-3.828v-5.248c-4.092-2.269-13.6-2.194-22.627-2.577C473.941,116.991,472.326,116.953,470.78,116.991Z" transform="translate(-174.884 -43.463)" fill="#d7766d" fill-rule="evenodd"/>
      <path id="Path_789" data-name="Path 789" d="M559.435,158.74l5.267,2.941a12.067,12.067,0,0,1,3.495,5.028c1.3,3.35,19.717,62.1,19.717,62.1s3.017,11.942-3.143,22.048-28.032,37.774-28.032,37.774l-13.2-24.764,20.113-24.783s-2.055-2.263-.138-3.9l-9.855-31.112-1.622-28.214Z" transform="translate(-201.913 -58.978)" fill="#2c2a64" fill-rule="evenodd"/>
      <path id="Path_790" data-name="Path 790" d="M569.914,288.6c-4.915,6.442-9.283,12-10.754,13.865l-1.779-1.691-7.724-14.513-.987-7.542,6.417-11.357,14.827,21.25Zm-4.331-35.015a3.556,3.556,0,0,1-.911-2.671l6.662,1.094Zm-2.615-11.734-7.379-23.255-.924-16.034,4.368-4.72Z" transform="translate(-203.819 -73.503)" fill="#19194f" fill-rule="evenodd"/>
      <path id="Path_791" data-name="Path 791" d="M399.059,158.74l-5.273,2.941a12.131,12.131,0,0,0-3.495,5.028c-1.3,3.35-19.717,62.1-19.717,62.1s-3.011,11.942,3.143,22.048,28.038,37.774,28.038,37.774l13.2-24.764-20.113-24.783s2.055-2.263.138-3.9l9.855-31.112,1.628-28.214Z" transform="translate(-137.386 -58.978)" fill="#2c2a64" fill-rule="evenodd"/>
      <path id="Path_792" data-name="Path 792" d="M401.844,288.583c4.921,6.442,9.29,12,10.754,13.865l1.779-1.691,7.731-14.513.98-7.542-6.411-11.357L401.844,288.6Zm4.33-35.015a3.551,3.551,0,0,0,.918-2.671l-6.662,1.081,5.745,1.578Zm2.621-11.734,7.373-23.255.924-16.034L412.73,197.8Z" transform="translate(-148.751 -73.488)" fill="#19194f" fill-rule="evenodd"/>
      <path id="Path_793" data-name="Path 793" d="M499.374,345.32l2.288,5.757a35.881,35.881,0,0,1,2.464,5.544c.182.968,1.7,11.533,2.671,18.346.478,3.319,5.776,36.152,5.776,36.152H417s4.651-32.262,5.028-34.946c.949-6.694,2.646-18.529,2.841-19.553a35.768,35.768,0,0,1,2.47-5.544l2.282-5.757,34.877,1.339Z" transform="translate(-154.906 -128.288)" fill="#7a6e91" fill-rule="evenodd"/>
      <path id="Path_794" data-name="Path 794" d="M501.75,345.32l2.282,5.757a35.882,35.882,0,0,1,2.464,5.544c.151.773,1.15,7.718,2.043,13.959l-85.158,12.7,1.018-7.109c.949-6.694,2.646-18.529,2.841-19.553a35.768,35.768,0,0,1,2.47-5.544l2.281-5.757,34.877,1.339Z" transform="translate(-157.276 -128.288)" fill="#625882" fill-rule="evenodd"/>
      <path id="Path_795" data-name="Path 795" d="M484.533,139.94l26.335,10.685-1.05,25.882c-2.124,27.089-6.329,66.931-6.329,68.6s1.565,6.845,3.419,13.073h0a4.525,4.525,0,0,1-1.364,4.035,24.564,24.564,0,0,1-4.657,3.143c-29.98,3.526-39.766,3.526-69.766,0a24.775,24.775,0,0,1-4.657-3.143,4.487,4.487,0,0,1-1.358-4.035h0c1.886-6.229,3.413-11.408,3.413-13.073s-3.658-40.42-5.782-67.5l-1.6-26.982,26.473-10.685-.038.05s3.143,17.5,18.472,17.5S484.533,139.978,484.533,139.94Z" transform="translate(-156.444 -51.994)" fill="#fff" fill-rule="evenodd"/>
      <path id="Path_796" data-name="Path 796" d="M504.482,236.249c-.49,5.072-.8,8.353-.8,8.8,0,1.666,1.565,6.845,3.419,13.073h0a4.519,4.519,0,0,1-1.364,4.029,24.559,24.559,0,0,1-4.657,3.143c-29.98,3.526-39.766,3.526-69.766,0a24.777,24.777,0,0,1-4.657-3.143,4.481,4.481,0,0,1-1.358-4.029h0c1.886-6.229,3.413-11.408,3.413-13.073s-3.658-40.42-5.782-67.5L421.58,154.4c6.4-4.4,12.269-8.02,16.926-10.785l9.315-3.771-.038.05a28.038,28.038,0,0,0,3.143,8.171c4.4,29.54,5.085,52.953,16.423,64.549,12.646,12.929,29.025,9.2,29.025,9.2S499.636,227.418,504.482,236.249Z" transform="translate(-156.607 -51.957)" fill="#cfd0d2" fill-rule="evenodd"/>
      <path id="Path_797" data-name="Path 797" d="M444.6,138.76s-1.735-.886-2.357-.679-27.077,12.256-28.239,12.973c0,0,4.494,43.154,3.683,52.167l4.287,32.394a2.659,2.659,0,0,0-.2,3.633l-11.64,46.215a2.124,2.124,0,0,0,1.5,2.464c1.923.691,36.02,6.442,36.02,6.442s3.557,0,4.1-2.332,4.613-59.823,4.613-59.823l-14.883-92.191Z" transform="translate(-152.34 -51.292)" fill="#2c2a64" fill-rule="evenodd"/>
      <path id="Path_798" data-name="Path 798" d="M513.19,138.76s1.741-.886,2.357-.679,27.083,12.256,28.246,12.973c0,0-4.494,43.154-3.689,52.167l-4.255,32.413a2.665,2.665,0,0,1,.207,3.633l11.615,46.2a2.131,2.131,0,0,1-1.508,2.464c-1.886.691-36.014,6.442-36.014,6.442s-3.564,0-4.111-2.332-4.607-59.823-4.607-59.823l14.858-92.191Z" transform="translate(-186.27 -51.292)" fill="#2c2a64" fill-rule="evenodd"/>
      <path id="Path_799" data-name="Path 799" d="M513.3,138.76s1.741-.886,2.357-.679c.2.063,3.143,1.383,7.014,3.143l4.569,34.707L501.72,231.2h0l14.7-91.186Z" transform="translate(-186.378 -51.292)" fill="#19194f" fill-rule="evenodd"/>
      <path id="Path_800" data-name="Path 800" d="M456.761,138.76s-1.735-.886-2.357-.679c-.195.063-3.143,1.383-7.014,3.143l-4.569,34.707L468.338,231.2h0l-14.689-91.179Z" transform="translate(-164.498 -51.292)" fill="#19194f" fill-rule="evenodd"/>
      <path id="Path_801" data-name="Path 801" d="M526.99,75.248a2.457,2.457,0,0,1,.522.094h0a7.178,7.178,0,1,1-6.009,1.4c-.195,2.118.126,4.745,2.828,5.028l-.044-4.167A2.466,2.466,0,0,1,526.99,75.248Z" transform="translate(-192.723 -27.961)" fill="#d7766d" fill-rule="evenodd"/>
      <path id="Path_802" data-name="Path 802" d="M449.932,74.709a2.891,2.891,0,0,0-.528.082h0a7.19,7.19,0,1,0,5.99,1.49c.163,2.124-.189,4.745-2.9,4.99l.107-4.142A2.459,2.459,0,0,0,449.932,74.709Z" transform="translate(-164.803 -27.761)" fill="#d7766d" fill-rule="evenodd"/>
      <path id="Path_803" data-name="Path 803" d="M478.12,90.2c-13.413,0-24.6-16.555-24.6-29.622V43.22a24.669,24.669,0,0,1,24.6-24.6h0a24.676,24.676,0,0,1,24.6,24.6V60.19C502.721,74.527,492.96,90.2,478.12,90.2Z" transform="translate(-168.472 -6.926)" fill="#e6ad83" fill-rule="evenodd"/>
      <path id="Path_804" data-name="Path 804" d="M500.234,53.043,458.06,54.828l.27-6.3,19.855-4.1L491.61,38.53Z" transform="translate(-170.159 -14.322)" fill="#dc8b78" fill-rule="evenodd"/>
      <path id="Path_805" data-name="Path 805" d="M518.642,92.79a4.06,4.06,0,1,0,4.129,3.979A4.06,4.06,0,0,0,518.642,92.79Z" transform="translate(-191.181 -34.478)" fill="#d7766d" fill-rule="evenodd"/>
      <path id="Path_806" data-name="Path 806" d="M461.765,93.81a4.06,4.06,0,1,0,4.136,3.985A4.06,4.06,0,0,0,461.765,93.81Z" transform="translate(-170.055 -34.857)" fill="#d7766d" fill-rule="evenodd"/>
      <path id="Path_807" data-name="Path 807" d="M475.893,68.7a1.035,1.035,0,0,1-.855,1.886,6.782,6.782,0,0,0-6.084.39,1.031,1.031,0,1,1-1.081-1.728A8.75,8.75,0,0,1,475.893,68.7Z" transform="translate(-173.574 -25.256)" fill="#19194f" fill-rule="evenodd"/>
      <path id="Path_808" data-name="Path 808" d="M514.6,69.237a1.031,1.031,0,1,1-1.006,1.8,6.75,6.75,0,0,0-6.09-.1,1.037,1.037,0,1,1-.955-1.835A8.919,8.919,0,0,1,514.6,69.237Z" transform="translate(-187.941 -25.337)" fill="#19194f" fill-rule="evenodd"/>
      <path id="Path_809" data-name="Path 809" d="M483,103.634a7.285,7.285,0,1,0,14.569.132h0a1.257,1.257,0,0,0-1.257-1.257l-12.055-.119A1.257,1.257,0,0,0,483,103.647Z" transform="translate(-179.423 -38.045)" fill="#fff" fill-rule="evenodd"/>
      <path id="Path_810" data-name="Path 810" d="M487.2,112.147a7.3,7.3,0,0,0,8.416.591,4.525,4.525,0,0,0-4.142-2.747A4.594,4.594,0,0,0,487.2,112.147Z" transform="translate(-180.984 -40.863)" fill="#fff" fill-rule="evenodd"/>
      <path id="Path_811" data-name="Path 811" d="M496.781,102.5l-11.313-.107a2.561,2.561,0,0,0,1.213,2.8c1.018.339,9.2.2,9.786-.434A4.209,4.209,0,0,0,496.781,102.5Z" transform="translate(-180.326 -38.045)" fill="#fff" fill-rule="evenodd"/>
      <path id="Path_812" data-name="Path 812" d="M493.608,85.356a26.886,26.886,0,0,1,1.37,4.632c-.113.629-3.243.748-4.067-.157-.547-.629.132-2.853.729-4.349C492.451,83.446,492.9,83.333,493.608,85.356Z" transform="translate(-182.288 -31.174)" fill="#f1d3c8" fill-rule="evenodd"/>
      <path id="Path_813" data-name="Path 813" d="M469.466,78.344a3.143,3.143,0,0,0-1.93.629.93.93,0,0,1-.6-.471.365.365,0,0,0-.49-.157.371.371,0,0,0-.163.5,1.6,1.6,0,0,0,.691.685h0a1.71,1.71,0,0,1-.892-.572.367.367,0,0,0-.572.459,2.4,2.4,0,0,0,1.081.754h0a2.313,2.313,0,0,1-1.1-.358.371.371,0,0,0-.4.629,2.985,2.985,0,0,0,1.138.44h.138a3.38,3.38,0,0,0-.05.566,3.143,3.143,0,1,0,3.143-3.143Zm25.769,0a3.143,3.143,0,1,0,3.174,3.143,3.449,3.449,0,0,0-.05-.572h.094a3.06,3.06,0,0,0,1.138-.44.371.371,0,1,0-.4-.629,2.288,2.288,0,0,1-1.056.352h0a2.357,2.357,0,0,0,1.037-.735A.367.367,0,0,0,498.6,79a1.66,1.66,0,0,1-.849.559l-.038-.038a1.59,1.59,0,0,0,.629-.666.371.371,0,0,0-.629-.339.911.911,0,0,1-.553.459,3.193,3.193,0,0,0-1.923-.635Z" transform="translate(-172.709 -29.096)" fill="#19194f" fill-rule="evenodd"/>
      <path id="Path_814" data-name="Path 814" d="M521.706,86.447a.4.4,0,0,1-.5.27.4.4,0,0,1-.264-.5s5.82-9.8,8.9-9.321l-.867.685C525.9,80.338,521.713,86.422,521.706,86.447Z" transform="translate(-193.511 -28.569)" fill="#accbdb" fill-rule="evenodd"/>
      <path id="Path_815" data-name="Path 815" d="M458.546,86.772a.4.4,0,0,0,.767-.226s-5.883-8.887-8.963-8.4l.471.2.377.258A83.981,83.981,0,0,1,458.546,86.772Z" transform="translate(-167.295 -29.032)" fill="#accbdb" fill-rule="evenodd"/>
      <path id="Path_816" data-name="Path 816" d="M459.194,108.384a.4.4,0,0,0,.088-.792h-.138c-4.494-.566-8.41-7.234-8.724-11.2-.283-.163-.553-.333-.83-.522.207,4.475,4.4,11.885,9.459,12.514Z" transform="translate(-167.012 -35.623)" fill="#accbdb" fill-rule="evenodd"/>
      <path id="Path_817" data-name="Path 817" d="M520.058,108.384a.4.4,0,1,1-.088-.792h.145c4.488-.566,9.233-7.234,9.541-11.2.283-.163.553-.333.83-.522-.207,4.475-5.236,11.885-10.276,12.514Z" transform="translate(-193.026 -35.623)" fill="#accbdb" fill-rule="evenodd"/>
      <path id="Path_818" data-name="Path 818" d="M481.463,89.07l18.227.974a.968.968,0,0,1,.7.88c0,.673-.628,13.6-.628,13.6a4.324,4.324,0,0,1-.754,2.168c-.723,1.006-6.468,10.471-17.536,10.471s-16.819-9.466-17.542-10.471a4.324,4.324,0,0,1-.754-2.168s-.629-12.929-.66-13.6.7-.88.7-.88Z" transform="translate(-171.815 -33.097)" fill="#fff" fill-rule="evenodd"/>
      <path id="Path_819" data-name="Path 819" d="M482.3,91.31l-17.536.936c.151,4.337.446,8.7.629,13.048a2.942,2.942,0,0,0,.49,1.414c.49.679.924,1.345,1.452,2.005a23.885,23.885,0,0,0,3.212,3.356,17.5,17.5,0,0,0,23.475,0,23.512,23.512,0,0,0,3.212-3.356c.528-.629.962-1.326,1.452-2a2.872,2.872,0,0,0,.49-1.414c.195-4.343.49-8.711.629-13.048Z" transform="translate(-172.648 -33.929)" fill="#d3e4ec" fill-rule="evenodd"/>
      <path id="Path_820" data-name="Path 820" d="M465.17,101.09c.088,1.7.182,3.394.27,5.091l16.178-6.241Zm.358,6.832v.578a2.941,2.941,0,0,0,.49,1.414c.49.679.924,1.345,1.452,2a23.882,23.882,0,0,0,3.212,3.356,17.5,17.5,0,0,0,23.475,0,23.517,23.517,0,0,0,3.212-3.356c.528-.629.962-1.326,1.452-2a2.075,2.075,0,0,0,.2-.346s-2.841,3.073-12.715,3.073-20.8-4.72-20.8-4.72Zm33.865-.629q.094-1.886.195-3.733l-12.061-.842Z" transform="translate(-172.8 -37.135)" fill="#accbdb" fill-rule="evenodd"/>
      <path id="Path_821" data-name="Path 821" d="M450.661,78.788s.245-9.051.245-14.161c0,0,4.827-4.368,4.444-8.963s-5.726-10.685-5.726-10.685-4.808,2.916-6.549,6.109C440.033,56.652,446.507,72.132,450.661,78.788Z" transform="translate(-164.3 -16.718)" fill="#141414" fill-rule="evenodd"/>
      <path id="Path_822" data-name="Path 822" d="M527.38,78.128s-.346-8.391-.779-13.5c0,0-4.827-4.368-4.444-8.963s5.732-10.685,5.732-10.685,4.8,2.916,6.543,6.109C539.02,59.449,529.894,71.83,527.38,78.128Z" transform="translate(-193.962 -16.718)" fill="#141414" fill-rule="evenodd"/>
      <path id="Path_823" data-name="Path 823" d="M442.386,39.1c-1.339-25.21,21.143-43.11,39.452-36.454,3.507,1.257,7.121,7.737,7.121,7.737s2.376-4.067,7.875-1.534c5.192,2.388,10.685,18.95,9.384,31.759L490.141,39.1H484.2c-.578,0-1.131-.673-1.257-1.332s-.509-5.028-.629-6.065-.446-1.559-.629-1.257-.314,3.884-.629,6.2-1.741,2.47-1.785,2.476H442.386Z" transform="translate(-164.315 -0.471)" fill="#101010" fill-rule="evenodd"/>
      <path id="Path_824" data-name="Path 824" d="M659.258,350.2l3.495-.427,13.475-37.5L670.5,277.962l20.974-6.832,6.4,41.338s1.006,7.938-2.407,13.067-26.209,34.317-26.209,34.317-3.143,6.411-7.831,6.411S659.258,350.2,659.258,350.2Z" transform="translate(-244.647 -100.728)" fill="#d7766d" fill-rule="evenodd"/>
      <path id="Path_825" data-name="Path 825" d="M679.557,290.074,677.54,278l20.691-6.75.453,1.012.66,4.255Z" transform="translate(-251.691 -100.773)" fill="#d7766d" fill-rule="evenodd"/>
      <path id="Path_826" data-name="Path 826" d="M671.2,195.5s8.208,3.627,10.056,6.474c1.012,1.559,6.015,13.991,10.345,24.921,9.767,17.7,12.985,61.752,8.076,69.137l-24.211,36.454-9.585-13.733s11.357-31.684,11.357-34.669c0-12.482-2.212-20.414-5.908-30.873C670.906,252,656.877,214.965,671.2,195.5Z" transform="translate(-246.949 -72.633)" fill="#5e90cc" fill-rule="evenodd"/>
      <path id="Path_827" data-name="Path 827" d="M671.682,266.121c-2.106-3.708-9.428-22.18-9.572-24.412l7.9-20.71Z" transform="translate(-245.959 -82.106)" fill="#3861a6" fill-rule="evenodd"/>
      <path id="Path_828" data-name="Path 828" d="M521,348.7l-6.48-1.025-12.57-35.4,5.726-34.311L486.7,271.13l-6.4,41.338s-1.006,7.938,2.413,13.067,26.2,34.317,26.2,34.317,3.143,6.411,7.838,6.411S521,348.7,521,348.7Z" transform="translate(-178.369 -100.728)" fill="#d7766d" fill-rule="evenodd"/>
      <path id="Path_829" data-name="Path 829" d="M508.262,195.5s-8.171,3.627-10.056,6.474c-13.306,20.471-19.019,47.893-20.7,73.034-1.6,24.035,10.892,36.065,28.353,58.251l8.8-14.494s-13.155-30.8-13.155-33.77C501.524,256.825,525.131,218.472,508.262,195.5Z" transform="translate(-177.332 -72.633)" fill="#5e90cc" fill-rule="evenodd"/>
      <path id="Path_830" data-name="Path 830" d="M525,267.071c1.842-.4,7.121-32.526,7.215-34.122l-5.808-11.439Z" transform="translate(-195.026 -82.295)" fill="#3861a6" fill-rule="evenodd"/>
      <path id="Path_831" data-name="Path 831" d="M537.948,389.178l-2.357,6.009a37.57,37.57,0,0,0-2.564,5.77c-.289,1.5-3.626,25.028-3.626,25.028h89.677s-3.35-23.563-3.633-25.059a36.954,36.954,0,0,0-2.564-5.77l-2.37-5.983V385.35l-36.272.4-36.291-.4Z" transform="translate(-196.66 -143.159)" fill="#2c2a64" fill-rule="evenodd"/>
      <path id="Path_832" data-name="Path 832" d="M539.79,389.181l-2.357,6.009a37.577,37.577,0,0,0-2.564,5.77c-.057.308-.245,1.565-.509,3.356l78.565-13.607-.6-1.5v-3.821l-36.272.4-36.266-.427Z" transform="translate(-198.503 -143.162)" fill="#1e1952" fill-rule="evenodd"/>
      <path id="Path_833" data-name="Path 833" d="M591.949,113.9h0c7.838,0,14.249,10.961,14.249,24.368V158.06c0,13.4-6.411,24.368-14.249,24.368h0c-7.838,0-14.249-10.968-14.249-24.368V138.268C577.7,124.861,584.111,113.9,591.949,113.9Z" transform="translate(-214.603 -42.321)" fill="#d7766d" fill-rule="evenodd"/>
      <path id="Path_834" data-name="Path 834" d="M576.519,187.125l-1.936.132-1.948,7.09-1.571-6.87-1.559-.352L555.9,176.44l-29.54,11.942c-1.967,37.925,7.674,67.522,7.674,98.257,0,1.735-1.622,7.121-3.551,13.6h0a4.676,4.676,0,0,0,1.414,4.2,25.77,25.77,0,0,0,4.84,3.275c31.181,3.671,41.357,3.671,72.544,0a25.772,25.772,0,0,0,4.84-3.275,4.7,4.7,0,0,0,1.414-4.2h0c-1.93-6.48-3.551-11.866-3.551-13.6,0-30.735,9.642-60.338,7.668-98.257l-29.54-11.942Z" transform="translate(-195.434 -65.553)" fill="#5e90cc" fill-rule="evenodd"/>
      <path id="Path_835" data-name="Path 835" d="M597.49,205.26l.635,3.394,6.442,83.977L594.3,314.453,584.04,292.631l6.442-83.977.635-3.394,3.187,2.068Z" transform="translate(-216.958 -76.259)" fill="#cf4a60" fill-rule="evenodd"/>
      <path id="Path_836" data-name="Path 836" d="M602.45,205.27l.628,3.388,6.449,83.977-10.264,21.828s6.028-18.793,6.285-21.709-3.627-83-4.764-83.744a7.4,7.4,0,0,0-3.394-.673l1.446-1.257.446.289Z" transform="translate(-221.917 -76.263)" fill="#ba3147" fill-rule="evenodd"/>
      <path id="Path_837" data-name="Path 837" d="M592.511,205.676l-3.011-6.6c2.6-2.445,11.062-2.445,13.664,0l-3.01,6.6a17.6,17.6,0,0,0-7.643,0Z" transform="translate(-218.986 -73.281)" fill="#cf4a60" fill-rule="evenodd"/>
      <path id="Path_838" data-name="Path 838" d="M599.915,197.24c2.74,0,5.468.629,6.763,1.835l-3.011,6.6a42.163,42.163,0,0,0-4.708-.251c.566-.453,2.652-1.483,2.684-1.678s.478-5.657.233-5.72Z" transform="translate(-222.5 -73.28)" fill="#ba3147" fill-rule="evenodd"/>
      <path id="Path_839" data-name="Path 839" d="M615.426,170.107a4.7,4.7,0,0,1,1.653,0c.427.182,1.886,4.745,2.753,6a2.992,2.992,0,0,1,.214,2.765c-.591,1.735-8.347,15.964-8.347,15.964a.93.93,0,0,1-1.439,0c-.892-.742-7.649-9.83-7.649-9.83l12.815-13.733Z" transform="translate(-223.856 -63.173)" fill="#3861a6" fill-rule="evenodd"/>
      <path id="Path_840" data-name="Path 840" d="M574.826,168.378a4.851,4.851,0,0,0-1.653,0c-.427.189-1.886,5.833-2.759,7.083a3,3,0,0,0-.207,2.765c.591,1.735,8.347,15.964,8.347,15.964a.93.93,0,0,0,1.439,0c.893-.742,7.655-9.83,7.655-9.83L574.826,169.5Z" transform="translate(-211.729 -62.532)" fill="#3861a6" fill-rule="evenodd"/>
      <path id="Path_841" data-name="Path 841" d="M636.3,107.448a5.715,5.715,0,0,1,.572.1h0a7.769,7.769,0,1,1-6.486,1.5c-.214,2.294.132,5.135,3.055,5.437l-.057-4.475A2.67,2.67,0,0,1,636.3,107.448Z" transform="translate(-233.08 -39.923)" fill="#d77f68" fill-rule="evenodd"/>
      <path id="Path_842" data-name="Path 842" d="M556.1,107.439a2.865,2.865,0,0,0-.566.088h0a7.762,7.762,0,1,0,6.467,1.6c.182,2.294-.2,5.129-3.143,5.393l.119-4.475A2.662,2.662,0,0,0,556.1,107.439Z" transform="translate(-204.061 -39.92)" fill="#d77f68" fill-rule="evenodd"/>
      <path id="Path_843" data-name="Path 843" d="M585.026,123.6c-14.494,0-26.586-17.888-26.586-32.011V72.826A26.662,26.662,0,0,1,585.02,46.24h0a26.668,26.668,0,0,1,26.568,26.586V91.192C611.588,106.672,601.066,123.6,585.026,123.6Z" transform="translate(-207.448 -17.186)" fill="#e6ad83" fill-rule="evenodd"/>
      <path id="Path_844" data-name="Path 844" d="M558.45,78.1a26.4,26.4,0,0,1,3.9-13.312,14.712,14.712,0,0,1,2.7-1.119c.7,0,40.018,3.143,37.6,10.534,0,0-18.8,14.242-39.308,6.285a28.745,28.745,0,0,1-4.89-2.388Z" transform="translate(-207.452 -23.661)" fill="#d7766d" fill-rule="evenodd"/>
      <path id="Path_845" data-name="Path 845" d="M627.18,117.29a4.481,4.481,0,1,0,4.563,4.4A4.481,4.481,0,0,0,627.18,117.29Z" transform="translate(-231.35 -43.579)" fill="#d7766d" fill-rule="evenodd"/>
      <path id="Path_846" data-name="Path 846" d="M568.834,118.42a4.481,4.481,0,1,0,4.569,4.4A4.481,4.481,0,0,0,568.834,118.42Z" transform="translate(-209.677 -43.999)" fill="#d7766d" fill-rule="evenodd"/>
      <path id="Path_847" data-name="Path 847" d="M581.287,97.2a1.112,1.112,0,1,1-.918,2.024,7.316,7.316,0,0,0-6.574.427,1.119,1.119,0,0,1-1.194-1.886A9.62,9.62,0,0,1,581.287,97.2Z" transform="translate(-212.54 -35.824)" fill="#19194f" fill-rule="evenodd"/>
      <path id="Path_848" data-name="Path 848" d="M622.981,97.784a1.112,1.112,0,1,1-1.081,1.942,7.31,7.31,0,0,0-6.587-.113,1.119,1.119,0,1,1-1.031-1.98A9.6,9.6,0,0,1,622.981,97.784Z" transform="translate(-227.943 -35.909)" fill="#19194f" fill-rule="evenodd"/>
      <path id="Path_849" data-name="Path 849" d="M600.252,118.605a20.61,20.61,0,0,1,1.257,4.192c-.107.566-3.048,1.094-3.821.346-.515-.5.119-2.7.679-4.173C599.158,116.952,599.586,116.8,600.252,118.605Z" transform="translate(-221.957 -43.601)" fill="#ebbf9e" fill-rule="evenodd"/>
      <path id="Path_850" data-name="Path 850" d="M603.025,135.651a5.588,5.588,0,0,1-11.175,0,1.031,1.031,0,0,1,1.031-1.031H602A1.037,1.037,0,0,1,603.025,135.651Z" transform="translate(-219.859 -50.018)" fill="#12151d" fill-rule="evenodd"/>
      <path id="Path_851" data-name="Path 851" d="M594.38,134.62h7.995v.943a.905.905,0,0,1-.9.9h-6.2a.9.9,0,0,1-.9-.9Z" transform="translate(-220.799 -50.018)" fill="#fff" fill-rule="evenodd"/>
      <path id="Path_852" data-name="Path 852" d="M602.4,141.354a5.575,5.575,0,0,1-8.1,0,5.588,5.588,0,0,1,8.1,0Z" transform="translate(-220.769 -51.874)" fill="#d26070" fill-rule="evenodd"/>
      <path id="Path_853" data-name="Path 853" d="M578.155,112.5a3.205,3.205,0,1,0-3.205-3.205,3.206,3.206,0,0,0,3.205,3.205Z" transform="translate(-213.581 -39.419)" fill="#19194f" fill-rule="evenodd"/>
      <path id="Path_854" data-name="Path 854" d="M619.535,112.5a3.205,3.205,0,1,0-3.205-3.205,3.205,3.205,0,0,0,3.205,3.205Z" transform="translate(-228.953 -39.419)" fill="#19194f" fill-rule="evenodd"/>
      <path id="Path_855" data-name="Path 855" d="M633.123,119.7a.4.4,0,0,1-.773-.233s2.043-6.914,5.544-9.8l.214.855C635.008,113.315,633.129,119.682,633.123,119.7Z" transform="translate(-234.898 -40.749)" fill="#accbdb" fill-rule="evenodd"/>
      <path id="Path_856" data-name="Path 856" d="M631.735,143.518a.4.4,0,0,1-.088-.8h.145c2.407-.3,4.4-2.514,5.707-5.217a18.284,18.284,0,0,0,1.81-6.4,9.03,9.03,0,0,0,.83-.358,18.856,18.856,0,0,1-1.886,7.115c-1.433,2.91-3.614,5.317-6.336,5.657Z" transform="translate(-234.509 -48.576)" fill="#accbdb" fill-rule="evenodd"/>
      <path id="Path_857" data-name="Path 857" d="M564.959,119.7a.4.4,0,1,0,.773-.233s-2.043-6.914-5.544-9.8l-.188.836C563.073,113.315,564.953,119.682,564.959,119.7Z" transform="translate(-208.028 -40.749)" fill="#accbdb" fill-rule="evenodd"/>
      <path id="Path_858" data-name="Path 858" d="M564.493,143.518a.4.4,0,1,0,.088-.8h-.145c-2.407-.3-4.4-2.514-5.707-5.217a18.285,18.285,0,0,1-1.81-6.4,9.007,9.007,0,0,1-.83-.358,18.988,18.988,0,0,0,1.886,7.115c1.433,2.91,3.608,5.317,6.336,5.657Z" transform="translate(-206.575 -48.576)" fill="#accbdb" fill-rule="evenodd"/>
      <path id="Path_859" data-name="Path 859" d="M588.042,120.71l20.741,1.106a1.093,1.093,0,0,1,.8,1c0,.761-.748,15.436-.748,15.436a4.922,4.922,0,0,1-.855,2.458c-.823,1.144-7.341,11.885-19.905,11.885s-19.088-10.741-19.905-11.885a4.852,4.852,0,0,1-.855-2.458s-.729-14.676-.754-15.436.8-1,.8-1Z" transform="translate(-210.464 -44.85)" fill="#fff" fill-rule="evenodd"/>
      <path id="Path_860" data-name="Path 860" d="M588.979,123.25l-19.9,1.062c.176,4.928.509,9.88.729,14.808a3.268,3.268,0,0,0,.553,1.609c.559.767,1.05,1.521,1.647,2.275a27.5,27.5,0,0,0,3.645,3.809,19.855,19.855,0,0,0,26.649,0A27.139,27.139,0,0,0,605.949,143c.629-.754,1.087-1.508,1.647-2.275a3.344,3.344,0,0,0,.559-1.609c.214-4.928.553-9.88.723-14.808Z" transform="translate(-211.401 -45.794)" fill="#d3e4ec" fill-rule="evenodd"/>
      <path id="Path_861" data-name="Path 861" d="M569.54,134.357c.107,1.923.214,3.853.308,5.776l18.365-7.083Zm.409,7.756v.629a3.269,3.269,0,0,0,.553,1.609c.559.767,1.05,1.521,1.647,2.275a27.5,27.5,0,0,0,3.645,3.809,19.855,19.855,0,0,0,26.649,0,27.141,27.141,0,0,0,3.645-3.809c.628-.754,1.087-1.508,1.647-2.275a2.958,2.958,0,0,0,.226-.4s-3.224,3.495-14.456,3.495-23.614-5.355-23.614-5.355Zm38.44-.729q.107-2.112.22-4.236l-13.689-.955Z" transform="translate(-211.571 -49.434)" fill="#accbdb" fill-rule="evenodd"/>
      <path id="Path_862" data-name="Path 862" d="M564.795,74.946c-.264,4.682-1.49,8.171-4.67,8.171V87.6c0,2.514-.245,5.028-2.608,5.028,0-5.386-1.647-7.5-1.647-7.5V71.59c0-6.285,1.772-14.764,10.056-20.571a32.054,32.054,0,0,1,36.31,0c8.271,5.808,10.056,14.274,10.056,20.571V85.1s-1.659,2.118-1.659,7.5c-2.363,0-2.608-2.514-2.608-5.028V83.092c-3.231,0-4.45-3.564-4.682-8.359V55.28H564.795Z" transform="translate(-206.493 -16.867)" fill="#414141" fill-rule="evenodd"/>
      <path id="Path_863" data-name="Path 863" d="M605.734,58.9c-2.973,17.039-12.734,11.313-7.511,4.28-42.6,24.682-62.437-27.969-38.434-16.027C571.939,32.07,600.015,27.67,602.837,45.5,607.783,33.622,617.745,53.377,605.734,58.9Z" transform="translate(-204.109 -12.595)" fill="#414141" fill-rule="evenodd"/>
      <path id="Path_864" data-name="Path 864" d="M204.071,188.59l5.657,3.143a13.01,13.01,0,0,1,3.771,5.38c1.4,3.614,21.225,66.843,21.225,66.843s3.243,12.822-3.388,23.727-30.169,40.653-30.169,40.653L187,301.7c2.74-3.375,20.854-30.307,21.521-30.879l-10.609-33.475-1.747-30.37Z" transform="translate(-69.466 -70.066)" fill="#2c2a64" fill-rule="evenodd"/>
      <path id="Path_865" data-name="Path 865" d="M215.336,328.322c-5.292,6.914-9.993,12.916-11.571,14.921l-1.917-1.816-8.315-15.619-1.062-8.133,6.914-12.225,15.958,22.872Zm-7.448-50.332-7.938-25.053-.993-17.259,4.7-5.078Z" transform="translate(-71.498 -85.672)" fill="#19194f" fill-rule="evenodd"/>
      <path id="Path_866" data-name="Path 866" d="M31.425,188.59l-5.657,3.143A13.01,13.01,0,0,0,22,197.113C20.615,200.746.791,263.975.791,263.975S-2.452,276.8,4.179,287.7s30.169,40.653,30.169,40.653L48.54,301.7C45.8,298.33,27.686,271.4,27.019,270.826l10.609-33.475,1.747-30.37Z" transform="translate(0.002 -70.066)" fill="#2c2a64" fill-rule="evenodd"/>
      <path id="Path_867" data-name="Path 867" d="M35.35,328.333c5.292,6.914,9.993,12.916,11.571,14.921l1.917-1.816,8.29-15.619,1.062-8.133-6.914-12.225ZM42.829,278l7.938-25.053.993-17.259-4.689-5.06Z" transform="translate(-13.131 -85.683)" fill="#19194f" fill-rule="evenodd"/>
      <path id="Path_868" data-name="Path 868" d="M142.209,389.4l2.458,6.191s2.357,4.4,2.652,5.971,3.771,25.933,3.771,25.933H58.27s3.463-24.387,3.771-25.933a39.886,39.886,0,0,1,2.652-5.971l2.458-6.191,37.535,1.433Z" transform="translate(-21.645 -144.663)" fill="#7a6e91" fill-rule="evenodd"/>
      <path id="Path_869" data-name="Path 869" d="M142.8,389.4l2.458,6.191s2.357,4.4,2.652,5.971c.151.8,1.15,7.674,2.074,14.148L124.34,416.8l-5.028-18.856-25.2,6.631L90.28,417.432l-30.42,3.08c1.043-7.335,2.564-17.925,2.759-18.925.3-1.552,2.652-5.971,2.652-5.971l1.383-3.482c1.49-.811,3.143-1.71,4.821-2.564l33.789,1.288Z" transform="translate(-22.236 -144.663)" fill="#564d7b" fill-rule="evenodd"/>
      <path id="Path_870" data-name="Path 870" d="M72.38,383.1v3.96s20.389,3.683,37.535,3.683,37.535-3.683,37.535-3.683V383.1l-37.535.421Z" transform="translate(-26.887 -142.323)" fill="#36306a" fill-rule="evenodd"/>
      <path id="Path_871" data-name="Path 871" d="M123.765,102.17h0c-8.114,0-14.745,11.313-14.745,25.216V147.87c-.013,13.9,6.631,25.216,14.745,25.216h0c8.114,0,14.745-11.345,14.745-25.216V127.386C138.51,113.515,131.879,102.17,123.765,102.17Z" transform="translate(-40.498 -37.963)" fill="#d7766d" fill-rule="evenodd"/>
      <path id="Path_872" data-name="Path 872" d="M99.929,177.963l2.388.289,1.257.842,1.257-.842,2.388-.289L121.3,166.92,151.864,179.3l-1.125,27.862c-2.288,29.151-6.813,72.035-6.813,73.832s1.684,7.366,3.677,14.073h0a4.833,4.833,0,0,1-1.464,4.343,26.631,26.631,0,0,1-5.028,3.388c-32.268,3.771-42.8,3.771-75.07,0a26.579,26.579,0,0,1-5.028-3.388,4.84,4.84,0,0,1-1.458-4.343h0c1.992-6.706,3.677-12.281,3.677-14.073s-3.947-43.5-6.248-72.651L55.26,179.3,85.831,166.92Z" transform="translate(-20.527 -62.016)" fill="#7a6e91" fill-rule="evenodd"/>
      <path id="Path_873" data-name="Path 873" d="M122.909,196.72l-.66,3.513-6.669,86.905L126.2,309.722l10.622-22.583-6.669-86.905-.66-3.513-3.293,2.137Z" transform="translate(-42.935 -73.087)" fill="#cf4a60" fill-rule="evenodd"/>
      <path id="Path_874" data-name="Path 874" d="M122.909,196.72l-.629,3.513-6.7,86.905L126.2,309.722s-6.235-19.446-6.486-22.463,3.771-85.9,4.928-86.667a7.645,7.645,0,0,1,3.513-.7l-1.5-1.332-.459.3Z" transform="translate(-42.935 -73.087)" fill="#ba3147" fill-rule="evenodd"/>
      <path id="Path_875" data-name="Path 875" d="M136.029,185.157l-1.433-.207a1.144,1.144,0,0,0-.321.71c-.044.446-.075,1.766-.075,1.766l1.094.339a18.826,18.826,0,0,0,2.15,0C137.418,187.659,136.029,185.157,136.029,185.157Z" transform="translate(-49.851 -68.714)" fill="#433d72" fill-rule="evenodd"/>
      <path id="Path_876" data-name="Path 876" d="M127.014,185.157l1.433-.207a1.144,1.144,0,0,1,.321.71c.044.446.075,1.766.075,1.766l-1.094.339a18.826,18.826,0,0,1-2.15,0C125.625,187.659,127.014,185.157,127.014,185.157Z" transform="translate(-46.657 -68.714)" fill="#433d72" fill-rule="evenodd"/>
      <path id="Path_877" data-name="Path 877" d="M132.269,197.158l3.143-6.832c-2.7-2.514-11.445-2.514-14.142,0l3.143,6.832A18.227,18.227,0,0,1,132.269,197.158Z" transform="translate(-45.048 -70.011)" fill="#cf4a60" fill-rule="evenodd"/>
      <path id="Path_878" data-name="Path 878" d="M134.127,193.04l1.257-2.721a8.82,8.82,0,0,0-4.7-1.747l3.451,4.469Zm-5.9-4.62c-2.841,0-5.657.629-7,1.886l3.143,6.832a14.552,14.552,0,0,1,2.979-.415,7.6,7.6,0,0,1-1.389-1.257c-.038-.251,0-6.128.258-6.222Z" transform="translate(-45.033 -70.003)" fill="#ba3147" fill-rule="evenodd"/>
      <path id="Path_879" data-name="Path 879" d="M106.026,163.657a5.029,5.029,0,0,0-1.71,0c-.44.195-1.936,2.822-2.853,4.123a3.1,3.1,0,0,0-.22,2.86c.629,1.791,8.642,16.518,8.642,16.518s.572.786,1.49,0,7.932-10.113,7.932-10.113l-13.281-12.206Z" transform="translate(-37.516 -60.777)" fill="#5f5683" fill-rule="evenodd"/>
      <path id="Path_880" data-name="Path 880" d="M148.1,163.656a5.027,5.027,0,0,1,1.716,0c.434.195,1.923,2.822,2.847,4.123a3.1,3.1,0,0,1,.22,2.86c-.629,1.791-8.642,16.518-8.642,16.518s-.566.786-1.49,0-7.919-10.113-7.919-10.113L148.1,164.869Z" transform="translate(-50.086 -60.777)" fill="#5f5683" fill-rule="evenodd"/>
      <path id="Path_881" data-name="Path 881" d="M85.791,95.488c-.2.031-.4.063-.591.107h0a8.039,8.039,0,1,0,6.725,1.571c.22,2.37-.138,5.311-3.143,5.657l.05-4.632A2.8,2.8,0,0,0,85.791,95.488Z" transform="translate(-29.298 -35.48)" fill="#d77f68" fill-rule="evenodd"/>
      <path id="Path_882" data-name="Path 882" d="M168.792,95.479a3.128,3.128,0,0,1,.591.094h0a8.032,8.032,0,1,1-6.7,1.659c-.182,2.376.214,5.311,3.243,5.581l-.119-4.632A2.771,2.771,0,0,1,168.792,95.479Z" transform="translate(-59.34 -35.477)" fill="#d77f68" fill-rule="evenodd"/>
      <path id="Path_883" data-name="Path 883" d="M115.837,112.211c15,0,27.517-18.516,27.517-33.129V59.667A27.6,27.6,0,0,0,115.837,32.15h0A27.6,27.6,0,0,0,88.32,59.667V78.673C88.32,94.688,99.237,112.211,115.837,112.211Z" transform="translate(-32.808 -11.952)" fill="#e6ad83" fill-rule="evenodd"/>
      <path id="Path_884" data-name="Path 884" d="M99.256,105.679a4.638,4.638,0,1,1-4.726,4.55A4.638,4.638,0,0,1,99.256,105.679Z" transform="translate(-35.114 -39.266)" fill="#d7766d" fill-rule="evenodd"/>
      <path id="Path_885" data-name="Path 885" d="M159.636,106.85a4.638,4.638,0,1,1-4.726,4.557,4.638,4.638,0,0,1,4.726-4.557Z" transform="translate(-57.544 -39.701)" fill="#d7766d" fill-rule="evenodd"/>
      <path id="Path_886" data-name="Path 886" d="M146.239,84.887a1.152,1.152,0,0,0,.949,2.1,7.571,7.571,0,0,1,6.807.44,1.165,1.165,0,1,0,1.257-1.961A10.038,10.038,0,0,0,146.239,84.887Z" transform="translate(-54.072 -31.239)" fill="#675243" fill-rule="evenodd"/>
      <path id="Path_887" data-name="Path 887" d="M103,85.492a1.151,1.151,0,1,0,1.119,2.011,7.557,7.557,0,0,1,6.813-.113A1.158,1.158,0,0,0,112,85.335,9.965,9.965,0,0,0,103,85.492Z" transform="translate(-38.042 -31.329)" fill="#675243" fill-rule="evenodd"/>
      <path id="Path_888" data-name="Path 888" d="M130.13,107.04a24.231,24.231,0,0,0-1.332,4.337c.107.591,3.143,1.138,3.953.358.534-.515-.126-2.791-.7-4.318C131.261,105.33,130.809,105.167,130.13,107.04Z" transform="translate(-47.843 -39.288)" fill="#ebbf9e" fill-rule="evenodd"/>
      <path id="Path_889" data-name="Path 889" d="M122.9,124.678a5.782,5.782,0,0,0,11.565,0,1.068,1.068,0,0,0-1.062-1.068h-9.428a1.068,1.068,0,0,0-1.075,1.068Z" transform="translate(-45.654 -45.928)" fill="#12151d" fill-rule="evenodd"/>
      <path id="Path_890" data-name="Path 890" d="M133.791,123.61H125.52v.98a.93.93,0,0,0,.924.93h6.417a.93.93,0,0,0,.93-.93Z" transform="translate(-46.627 -45.928)" fill="#fff" fill-rule="evenodd"/>
      <path id="Path_891" data-name="Path 891" d="M125.43,130.588a5.789,5.789,0,0,0,8.384,0,5.789,5.789,0,0,0-8.384,0Z" transform="translate(-46.594 -47.852)" fill="#d26070" fill-rule="evenodd"/>
      <path id="Path_892" data-name="Path 892" d="M151.552,100.725a3.312,3.312,0,1,0-3.312-3.312,3.312,3.312,0,0,0,3.312,3.312Z" transform="translate(-55.067 -34.965)" fill="#19194f" fill-rule="evenodd"/>
      <path id="Path_893" data-name="Path 893" d="M108.732,100.725a3.312,3.312,0,1,0-3.312-3.312,3.312,3.312,0,0,0,3.312,3.312Z" transform="translate(-39.16 -34.965)" fill="#19194f" fill-rule="evenodd"/>
      <path id="Path_894" data-name="Path 894" d="M95.054,108.177a.417.417,0,0,0,.8-.239S93.734,100.767,90.12,97.8l-.22.886C93.105,101.565,95.048,108.152,95.054,108.177Z" transform="translate(-33.395 -36.34)" fill="#accbdb" fill-rule="evenodd"/>
      <path id="Path_895" data-name="Path 895" d="M94.575,132.82a.421.421,0,1,0,.094-.836h-.151c-2.514-.314-4.532-2.615-5.908-5.4a19.176,19.176,0,0,1-1.886-6.618,6.914,6.914,0,0,1-.855-.377,19.723,19.723,0,0,0,1.967,7.354c1.483,3.011,3.74,5.506,6.555,5.858Z" transform="translate(-31.898 -44.434)" fill="#accbdb" fill-rule="evenodd"/>
      <path id="Path_896" data-name="Path 896" d="M165.609,108.177a.415.415,0,0,1-.515.283.427.427,0,0,1-.283-.522s2.118-7.171,5.738-10.138l.214.886C167.564,101.565,165.615,108.152,165.609,108.177Z" transform="translate(-61.217 -36.34)" fill="#accbdb" fill-rule="evenodd"/>
      <path id="Path_897" data-name="Path 897" d="M164.211,132.82a.421.421,0,0,1-.088-.836h.145c2.514-.314,4.538-2.615,5.908-5.4a19.038,19.038,0,0,0,1.886-6.618,6.914,6.914,0,0,0,.855-.377,19.484,19.484,0,0,1-1.98,7.366c-1.483,3.011-3.771,5.506-6.555,5.858Z" transform="translate(-60.837 -44.434)" fill="#accbdb" fill-rule="evenodd"/>
      <path id="Path_898" data-name="Path 898" d="M118.942,109.22l-21.433,1.119s-.855.251-.83,1.037.773,15.971.773,15.971a5.085,5.085,0,0,0,.886,2.546c.849,1.182,7.593,12.3,20.6,12.3s19.748-11.119,20.6-12.3a5.085,5.085,0,0,0,.886-2.546s.748-15.185.773-15.971-.83-1.037-.83-1.037Z" transform="translate(-35.913 -40.582)" fill="#fff" fill-rule="evenodd"/>
      <path id="Path_899" data-name="Path 899" d="M119.93,111.85l20.6,1.1c-.182,5.1-.528,10.226-.754,15.323a3.375,3.375,0,0,1-.578,1.659c-.578.8-1.087,1.584-1.7,2.363a28.352,28.352,0,0,1-3.771,3.941,20.553,20.553,0,0,1-27.573,0,27.95,27.95,0,0,1-3.771-3.941c-.629-.779-1.131-1.565-1.7-2.363a3.375,3.375,0,0,1-.578-1.659c-.226-5.1-.572-10.226-.754-15.323Z" transform="translate(-36.902 -41.559)" fill="#d3e4ec" fill-rule="evenodd"/>
      <path id="Path_900" data-name="Path 900" d="M140.486,123.345c-.107,1.992-.22,3.985-.321,5.977l-19-7.322,19.321,1.351Zm-.421,8.026v.673a3.375,3.375,0,0,1-.578,1.659c-.578.8-1.087,1.584-1.7,2.363a28.354,28.354,0,0,1-3.771,3.941,20.553,20.553,0,0,1-27.573,0,27.951,27.951,0,0,1-3.771-3.941c-.629-.779-1.131-1.565-1.7-2.363a2.514,2.514,0,0,1-.239-.4s3.337,3.614,14.934,3.614,24.437-5.544,24.437-5.544Zm-39.779-.748q-.107-2.2-.226-4.4l14.167-.993Z" transform="translate(-37.169 -45.33)" fill="#accbdb" fill-rule="evenodd"/>
      <path id="Path_901" data-name="Path 901" d="M80.444,167.08s-1.886-.949-2.514-.729-29.182,13.193-30.439,13.966c0,0,4.84,46.441,3.972,56.127l4.576,34.883c-.088.088-11.483,48.622-12.746,53.65a2.294,2.294,0,0,0,1.64,2.671c2.062.735,38.761,6.914,38.761,6.914s3.834,0,4.4-2.514,4.959-64.386,4.959-64.386L77.088,168.437Z" transform="translate(-16.064 -61.793)" fill="#2c2a64" fill-rule="evenodd"/>
      <path id="Path_902" data-name="Path 902" d="M154.307,167.08s1.886-.949,2.514-.729,29.144,13.2,30.4,13.966c0,0-4.833,46.441-3.966,56.127l-4.582,34.883c.094.088,11.489,48.622,12.753,53.65a2.294,2.294,0,0,1-1.622,2.652c-2.062.735-38.761,6.914-38.761,6.914s-3.834,0-4.4-2.514-4.959-64.386-4.959-64.386l15.99-99.224Z" transform="translate(-52.63 -61.793)" fill="#2c2a64" fill-rule="evenodd"/>
      <path id="Path_903" data-name="Path 903" d="M154.385,167.08s1.886-.949,2.514-.729c.214.069,3.363,1.483,7.542,3.388l4.915,37.353L141.89,266.581h0l15.82-98.143Z" transform="translate(-52.708 -61.793)" fill="#19194f" fill-rule="evenodd"/>
      <path id="Path_904" data-name="Path 904" d="M93.581,167.08s-1.886-.949-2.514-.729c-.214.069-3.363,1.483-7.542,3.388L78.61,207.091l27.466,59.489h0L90.225,168.437Z" transform="translate(-29.201 -61.793)" fill="#19194f" fill-rule="evenodd"/>
      <path id="Path_905" data-name="Path 905" d="M97.4,54.35a6.455,6.455,0,0,0-2.439,5.317c0,5.914-1.119,10.6-4.89,10.6V74.9c0,2.59-.251,5.21-2.7,5.21,0-5.575-1.7-7.762-1.7-7.762V58.385c0-6.524,1.835-15.286,10.389-21.294a33.18,33.18,0,0,1,37.586,0c8.554,6.009,10.389,14.77,10.389,21.294V72.364s-1.7,2.187-1.7,7.762c-2.451,0-2.7-2.621-2.7-5.21V70.277c-3.771,0-4.89-4.682-4.89-10.6a6.43,6.43,0,0,0-2.514-5.374c1.842,3.463.936,6.141-3.771,1.848,3.1,6.09-7.662,6.072-10.836.333,0,0-.911,3.187-2.514,2.64s-1.722-4.343-1.722-4.343c-2.69,5.537-10.415,6.1-10.961.189C100.333,58.561,95.538,58.341,97.4,54.35Z" transform="translate(-31.824 -11.62)" fill="#e8e8e8" fill-rule="evenodd"/>
      <path id="Path_906" data-name="Path 906" d="M325.148,110.429l-7.775,3.664s-.987,12.2.974,20.352a10.383,10.383,0,0,0,9.516,8.309s-.151,5.292,1.062,6.951,18.277,10.421,48.189-.629c0,0,.754-.3.83-1.59a22.588,22.588,0,0,0-.3-3.62s12.156-8.686,12.464-13.978-1.816-15.858-4.538-30.207-7.4-22.664-19.182-22.356S325.148,110.429,325.148,110.429Z" transform="translate(-117.804 -28.731)" fill="#2b2b2b" fill-rule="evenodd"/>
      <path id="Path_907" data-name="Path 907" d="M382.31,316.3c-1.257-9.013-.987-18.6.823-31.344a228.821,228.821,0,0,0,2.514-27.026c.088-4.035,2-9.742,1.7-13.249a67.26,67.26,0,0,0-1.257-9.2c-2.7-12.872,5.267-24.211,5.267-24.211s-25.38-5.588-27.624-6.713-2.451-5.839-2.451-5.839L350.438,196.4h-2.005l-10.848,2.326s-.207,4.72-2.451,5.839-27.624,6.713-27.624,6.713,7.963,11.313,5.273,24.211a66.247,66.247,0,0,0-1.257,9.2c-.3,3.507,1.622,9.214,1.7,13.249a231.139,231.139,0,0,0,2.514,27.026c1.8,12.74,2.074,22.331.817,31.344Z" transform="translate(-114.233 -72.968)" fill="#e6ad83" fill-rule="evenodd"/>
      <path id="Path_908" data-name="Path 908" d="M367.18,152.62h0a11.892,11.892,0,0,1,11.86,11.86v22.708a11.892,11.892,0,0,1-11.86,11.86h0a11.892,11.892,0,0,1-11.86-11.86V164.48A11.892,11.892,0,0,1,367.18,152.62Z" transform="translate(-131.993 -56.704)" fill="#e6ad83" fill-rule="evenodd"/>
      <path id="Path_909" data-name="Path 909" d="M410.283,136l.553.1h0a7.542,7.542,0,1,1-6.285,1.477c-.207,2.225.126,4.984,2.973,5.286l-.057-4.356A2.557,2.557,0,0,1,410.283,136Z" transform="translate(-149.226 -50.528)" fill="#d7766d" fill-rule="evenodd"/>
      <path id="Path_910" data-name="Path 910" d="M329.294,135.419a2.753,2.753,0,0,0-.553.094h0a7.542,7.542,0,1,0,6.285,1.559c.176,2.231-.195,4.99-3.042,5.248l.113-4.356A2.6,2.6,0,0,0,329.294,135.419Z" transform="translate(-119.876 -50.314)" fill="#d7766d" fill-rule="evenodd"/>
      <path id="Path_911" data-name="Path 911" d="M428.52,240l16.442,1.886s-.71-4.312,3,1.012,22.124,34.016,27.221,46.058c1.05,2.476,1.886,4.645,2.552,6.637,5.374,16.411-21.011,41.765-35.115,51.3-5.116,3.469-8.227,3.03-8.171,1.886l.333-5.657c3.884-4.337,25.681-40.37,24.619-42.488-1.156-2.313-29.364-41.338-29.364-41.338Z" transform="translate(-159.185 -89.164)" fill="#e6ad83" fill-rule="evenodd"/>
      <path id="Path_912" data-name="Path 912" d="M483.577,308.6c.264.585.522,1.144.761,1.684l-14.67,14.67c-1.772-2.671-6.505-9.359-11.628-16.53Z" transform="translate(-170.152 -114.581)" fill="#d7766d" fill-rule="evenodd"/>
      <path id="Path_913" data-name="Path 913" d="M358.911,151.7c-14.091,0-25.851-17.391-25.851-31.124V102.351A25.926,25.926,0,0,1,358.9,76.5h0a25.92,25.92,0,0,1,25.845,25.851v17.831C384.756,135.267,374.5,151.7,358.911,151.7Z" transform="translate(-123.724 -28.427)" fill="#e6ad83" fill-rule="evenodd"/>
      <path id="Path_914" data-name="Path 914" d="M333.06,131.146V114.516a25.834,25.834,0,0,1,.352-4.268c11.47-.434,26.4-.968,26.4-.968S357.861,133.792,333.06,131.146Z" transform="translate(-123.724 -40.604)" fill="#d7766d" fill-rule="evenodd"/>
      <path id="Path_915" data-name="Path 915" d="M291.1,240l-16.442,1.886s.71-4.312-3,1.012-22.124,34.016-27.221,46.058c-1.05,2.476-1.886,4.645-2.552,6.637-5.374,16.411,21.011,41.765,35.115,51.3,5.116,3.469,8.227,3.03,8.171,1.886l-.333-5.657c-3.884-4.337-25.675-40.37-24.619-42.488,1.156-2.313,29.364-41.338,29.364-41.338Z" transform="translate(-89.592 -89.164)" fill="#e6ad83" fill-rule="evenodd"/>
      <path id="Path_916" data-name="Path 916" d="M250.011,308.6c-.264.585-.522,1.144-.761,1.684l14.663,14.67c1.779-2.671,6.511-9.359,11.634-16.53Z" transform="translate(-92.59 -114.581)" fill="#d7766d" fill-rule="evenodd"/>
      <path id="Path_917" data-name="Path 917" d="M482.627,307c.4.874.779,1.71,1.138,2.514l-14.538,14.519c-2.382-3.457-7.09-10.056-12.017-16.863Z" transform="translate(-169.843 -114.053)" fill="#d7766d" fill-rule="evenodd"/>
      <path id="Path_918" data-name="Path 918" d="M382.233,375.31c1.8,10.949,7.222,32.136,8.63,46.95H302.43c1.408-14.814,6.826-36,10.723-46.95Z" transform="translate(-112.346 -139.429)" fill="#2c2a64" fill-rule="evenodd"/>
      <path id="Path_919" data-name="Path 919" d="M384,375.31c1.119,6.788,3.62,17.5,5.7,28.2-4.048-3.174-5.839-11.558-5.839-11.558L307.18,403.9a243.261,243.261,0,0,1,7.624-28.177l3.143-.39Z" transform="translate(-114.11 -139.429)" fill="#1e1952" fill-rule="evenodd"/>
      <path id="Path_920" data-name="Path 920" d="M377.885,193.476v-3.35a21.6,21.6,0,0,1-11.7,3.557h-.157a20.218,20.218,0,0,1-11.86-4.173V198.5a5.474,5.474,0,0,1-1.955,3.444C352.26,202.564,373.775,195.1,377.885,193.476Z" transform="translate(-130.838 -70.408)" fill="#d7766d" fill-rule="evenodd"/>
      <path id="Path_921" data-name="Path 921" d="M399.882,155a4.117,4.117,0,1,0,4.192,4.041A4.117,4.117,0,0,0,399.882,155Z" transform="translate(-147.046 -57.588)" fill="#d7766d" fill-rule="evenodd"/>
      <path id="Path_922" data-name="Path 922" d="M342.268,156a4.117,4.117,0,1,0,4.186,4.035A4.117,4.117,0,0,0,342.268,156Z" transform="translate(-125.641 -57.959)" fill="#d7766d" fill-rule="evenodd"/>
      <path id="Path_923" data-name="Path 923" d="M355.867,126.99a1.043,1.043,0,0,1-.861,1.886,6.851,6.851,0,0,0-6.166.4,1.05,1.05,0,1,1-1.119-1.772A9.078,9.078,0,0,1,355.867,126.99Z" transform="translate(-128.97 -46.907)" fill="#19194f" fill-rule="evenodd"/>
      <path id="Path_924" data-name="Path 924" d="M395.092,127.546a1.044,1.044,0,0,1-1.018,1.823,6.832,6.832,0,0,0-6.178-.107,1.049,1.049,0,0,1-.968-1.86A9.034,9.034,0,0,1,395.092,127.546Z" transform="translate(-143.526 -46.992)" fill="#19194f" fill-rule="evenodd"/>
      <path id="Path_925" data-name="Path 925" d="M374.554,147.412a28.185,28.185,0,0,1,1.389,4.7c-.113.629-3.293.761-4.123-.157-.553-.629.132-2.891.735-4.4C373.372,145.476,373.831,145.344,374.554,147.412Z" transform="translate(-138.047 -54.218)" fill="#f1d3c8" fill-rule="evenodd"/>
      <path id="Path_926" data-name="Path 926" d="M350.707,138.725a3.205,3.205,0,0,0-1.955.666.924.924,0,0,1-.629-.471.374.374,0,0,0-.666.339,1.634,1.634,0,0,0,.7.691v.038a1.754,1.754,0,0,1-.905-.585.371.371,0,0,0-.578.465,2.445,2.445,0,0,0,1.094.767h0a2.3,2.3,0,0,1-1.112-.365.371.371,0,0,0-.515.113.383.383,0,0,0,.113.515,3.01,3.01,0,0,0,1.15.44h.145a3.534,3.534,0,0,0-.05.578,3.218,3.218,0,1,0,3.218-3.218Zm26.128,0a3.218,3.218,0,1,0,3.218,3.218,3.543,3.543,0,0,0-.05-.585h.094a2.973,2.973,0,0,0,1.15-.44.371.371,0,0,0,.113-.515.365.365,0,0,0-.509-.113,2.293,2.293,0,0,1-1.075.358h0a2.388,2.388,0,0,0,1.05-.748.365.365,0,0,0-.057-.522.371.371,0,0,0-.522.057,1.76,1.76,0,0,1-.861.572l-.031-.044a1.622,1.622,0,0,0,.66-.673.371.371,0,0,0-.163-.5.365.365,0,0,0-.5.163.943.943,0,0,1-.566.459,3.23,3.23,0,0,0-1.961-.685Z" transform="translate(-128.561 -51.533)" fill="#19194f" fill-rule="evenodd"/>
      <path id="Path_927" data-name="Path 927" d="M403.035,148.539a.409.409,0,0,1-.779-.233s5.9-9.937,9.026-9.428l-.88.685C407.29,142.348,403.041,148.514,403.035,148.539Z" transform="translate(-149.426 -51.593)" fill="#accbdb" fill-rule="evenodd"/>
      <path id="Path_928" data-name="Path 928" d="M339.009,148.821a.409.409,0,0,0,.779-.233s-5.971-9.007-9.088-8.51l.478.2.383.258A93.353,93.353,0,0,1,339.009,148.821Z" transform="translate(-122.847 -52.038)" fill="#accbdb" fill-rule="evenodd"/>
      <path id="Path_929" data-name="Path 929" d="M339.666,170.77a.409.409,0,0,0,.088-.811h-.138c-4.557-.572-8.529-7.329-8.843-11.351a9.891,9.891,0,0,1-.842-.528c.214,4.532,4.469,12.042,9.585,12.684Z" transform="translate(-122.561 -58.733)" fill="#accbdb" fill-rule="evenodd"/>
      <path id="Path_930" data-name="Path 930" d="M401.377,170.77a.409.409,0,0,1-.088-.811h.138c4.557-.572,9.365-7.329,9.673-11.351.289-.163.566-.333.849-.528-.214,4.532-5.311,12.042-10.421,12.684Z" transform="translate(-148.944 -58.733)" fill="#accbdb" fill-rule="evenodd"/>
      <path id="Path_931" data-name="Path 931" d="M362.22,151.19l18.491.987s.742.214.717.892-.673,13.783-.673,13.783a4.324,4.324,0,0,1-.761,2.2c-.735,1.018-6.555,10.609-17.781,10.609s-17.045-9.591-17.781-10.609a4.4,4.4,0,0,1-.76-2.2s-.629-13.1-.673-13.783a.98.98,0,0,1,.717-.892Z" transform="translate(-127.416 -56.173)" fill="#fff" fill-rule="evenodd"/>
      <path id="Path_932" data-name="Path 932" d="M363.075,153.45l-17.775.974c.157,4.4.459,8.8.629,13.2a2.9,2.9,0,0,0,.5,1.433c.5.691.936,1.364,1.471,2.036a24.149,24.149,0,0,0,3.256,3.4,17.749,17.749,0,0,0,23.8,0,24.513,24.513,0,0,0,3.256-3.4c.534-.673.974-1.345,1.471-2.036a2.9,2.9,0,0,0,.5-1.433c.195-4.4.5-8.8.629-13.2Z" transform="translate(-128.271 -57.013)" fill="#d3e4ec" fill-rule="evenodd"/>
      <path id="Path_933" data-name="Path 933" d="M345.72,163.373q.138,2.583.277,5.16l16.4-6.323-16.675,1.163Zm.365,6.914v.585a2.9,2.9,0,0,0,.5,1.433c.5.691.936,1.364,1.471,2.036a24.147,24.147,0,0,0,3.256,3.4,17.749,17.749,0,0,0,23.8,0,24.51,24.51,0,0,0,3.256-3.4c.534-.673.974-1.345,1.471-2.036a3.053,3.053,0,0,0,.2-.352s-2.879,3.143-12.891,3.143-21.087-4.789-21.087-4.789Zm34.33-.629q.094-1.886.2-3.771l-12.231-.855Z" transform="translate(-128.427 -60.267)" fill="#accbdb" fill-rule="evenodd"/>
      <path id="Path_934" data-name="Path 934" d="M349.68,217.921l1.257-1.389,3.815.509,11.1-8.171,25.656,6.442c-2.64,17.152-8.391,81.192-4.884,95.768a4.45,4.45,0,0,1-.251,2.973c-.71,1.659-2.168,4.331-2.168,4.331l-70.558-.6c-.3-.566-3.771-88.232-5.437-101.575l6.587-2.451,18.692-4.89,11.1,8.171,3.815-.509Z" transform="translate(-114.493 -77.6)" fill="#fff" fill-rule="evenodd"/>
      <path id="Path_935" data-name="Path 935" d="M371.629,231.16l.566,2.4,5.72,59.508-9.107,15.462L359.7,293.069l5.713-59.508.566-2.4,2.828,1.464Z" transform="translate(-133.62 -85.88)" fill="#cf4a60" fill-rule="evenodd"/>
      <path id="Path_936" data-name="Path 936" d="M376.02,231.16l.566,2.4,5.72,59.508L373.2,308.531s5.349-13.318,5.562-15.38-3.218-58.817-4.23-59.345a8.009,8.009,0,0,0-3.011-.478l1.257-.911.4.207Z" transform="translate(-138.011 -85.88)" fill="#ba3147" fill-rule="evenodd"/>
      <path id="Path_937" data-name="Path 937" d="M367.211,231.577l-2.671-5.858c2.313-2.168,9.817-2.168,12.124,0l-2.671,5.858A15.626,15.626,0,0,0,367.211,231.577Z" transform="translate(-135.418 -83.255)" fill="#cf4a60" fill-rule="evenodd"/>
      <path id="Path_938" data-name="Path 938" d="M365.6,228l-1.062-2.332a7.732,7.732,0,0,1,4.029-1.5Zm5.028-3.96c2.439,0,4.859.553,6,1.628l-2.64,5.889a12.438,12.438,0,0,0-2.552-.352,6.807,6.807,0,0,0,1.188-1.094,36.252,36.252,0,0,0-.22-5.342Z" transform="translate(-135.418 -83.235)" fill="#ba3147" fill-rule="evenodd"/>
      <path id="Path_939" data-name="Path 939" d="M387.057,201.612a4.243,4.243,0,0,1,1.464,0c.377.163,1.653,2.42,2.445,3.532a3.918,3.918,0,0,1,.71,3.2c-.547,1.534-7.435,14.173-7.435,14.173s-.484.666-1.257,0-6.794-8.718-6.794-8.718l10.861-11.188Z" transform="translate(-139.746 -74.88)" fill="#2c2a64" fill-rule="evenodd"/>
      <path id="Path_940" data-name="Path 940" d="M352.318,201.432a4.242,4.242,0,0,0-1.464,0c-.377.163-1.659,2.42-2.445,3.532,0,0-1.464,1.779-.936,3.312s7.41,14.173,7.41,14.173.49.666,1.257,0,6.788-8.718,6.788-8.718l-10.635-11.313Z" transform="translate(-129.035 -74.813)" fill="#2c2a64" fill-rule="evenodd"/>
      <path id="Path_941" data-name="Path 941" d="M439.038,219.14s7.75,1.534,12.181,7.379,26.4,45.719,26.4,45.719.629,1.307.1,2.112-15.216,12.992-19.666,14.1a3.3,3.3,0,0,1-2.219-.71c-.905-.8-18.057-25.876-18.057-25.876S433.362,236.581,439.038,219.14Z" transform="translate(-162.016 -81.415)" fill="#fff" fill-rule="evenodd"/>
      <path id="Path_942" data-name="Path 942" d="M447.564,288.115c-4.921-7.1-13.086-18.611-13.086-18.611a146.454,146.454,0,0,1,1.087-20.364Z" transform="translate(-161.392 -92.559)" fill="#f2d8d9" fill-rule="evenodd"/>
      <path id="Path_943" data-name="Path 943" d="M294.571,215.34c-2.69,0-17.687,5.122-22.118,10.961s-26.4,44.524-26.4,44.524-.629,1.307-.1,2.112,15.21,12.992,19.635,14.1a3.3,3.3,0,0,0,2.219-.71c.905-.8,18.057-25.876,18.057-25.876S300.247,232.781,294.571,215.34Z" transform="translate(-91.288 -80.003)" fill="#fff" fill-rule="evenodd"/>
      <path id="Path_944" data-name="Path 944" d="M293.06,288.115c4.928-7.1,12.118-17.567,12.118-17.567s.245-8.755-.119-21.407Z" transform="translate(-108.865 -92.559)" fill="#f2d8d9" fill-rule="evenodd"/>
      <path id="Path_945" data-name="Path 945" d="M332.469,117.01v3.645c1.257,0,2.728-1.791,2.728-3.4v-3.337s2.9-4.594,2.9-9.428,1.119-7.693,5.248-7.693,8.265,2.156,15.034,2.156S369.275,96.8,373.4,96.8s5.254,2.872,5.254,7.693,2.9,9.428,2.9,9.428v3.337c0,1.609,1.49,3.4,2.721,3.4V117.01c0-2.514.905-3.444.905-3.444V102.73c0-36.907-53.613-36.907-53.613,0v10.836S332.469,114.49,332.469,117.01Z" transform="translate(-123.17 -27.889)" fill="#2b2b2b" fill-rule="evenodd"/>
      <path id="Path_946" data-name="Path 946" d="M353.245,87.833c-2.018,13.2-7.687,26.85-29.672,22.092l-6.053-1.659s2.137-13.029,8.064-23.752,22.407-21.37,28.227-22.671,12.338,6.511,13.035,8.045a9.961,9.961,0,0,1,.339,5.581C357.8,81.919,355.439,73.453,353.245,87.833Z" transform="translate(-117.951 -22.929)" fill="#2b2b2b" fill-rule="evenodd"/>
      <path id="Path_947" data-name="Path 947" d="M298.06,398.571c4.783,3.891,8.667,4.708,10.76-2.018s2.69-7.1,2.69-7.1a19.75,19.75,0,0,0,4.708,2.244c1.647.3,1.886-1.125,1.5-1.722s1.565.377,1.942-.6-.823-2.313-.823-2.313,1.42-1.2.9-2.168-10.239-7.4-11.879-5.826-5.606,12.25-5.606,12.25Z" transform="translate(-110.722 -140.736)" fill="#e6ad83" fill-rule="evenodd"/>
      <path id="Path_948" data-name="Path 948" d="M324.846,393.125a.283.283,0,0,1,.088.39.277.277,0,0,1-.39.082c-1.628-1.037-2.835-1.835-3.771-2.445-2.646-1.747-2.772-1.835-3.18-1.219a.289.289,0,0,1-.39.082.283.283,0,0,1-.082-.4c.723-1.081.867-.98,3.96,1.068C322.055,391.3,323.262,392.119,324.846,393.125Z" transform="translate(-117.785 -144.491)" fill="#d7766d" fill-rule="evenodd"/>
      <path id="Path_949" data-name="Path 949" d="M325.79,388.43a.283.283,0,1,1-.3.478l-1.433-.918c-5.267-3.363-6.983-4.456-7.542-3.652a.289.289,0,0,1-.4.082.283.283,0,0,1-.075-.39c.842-1.257,2.671-.1,8.29,3.488Z" transform="translate(-117.385 -142.486)" fill="#d7766d" fill-rule="evenodd"/>
      <path id="Path_950" data-name="Path 950" d="M305.318,392.669a.279.279,0,1,1,.528.182l-2.514,6.285a.283.283,0,1,1-.534-.182Z" transform="translate(-112.474 -145.808)" fill="#d7766d" fill-rule="evenodd"/>
      <path id="Path_951" data-name="Path 951" d="M438.193,398.571c-4.783,3.891-8.667,4.708-10.76-2.018s-2.69-7.1-2.69-7.1a19.88,19.88,0,0,1-4.708,2.244c-1.64.3-1.886-1.125-1.5-1.722s-1.565.377-1.942-.6.823-2.313.823-2.313-1.42-1.2-.9-2.168,10.239-7.4,11.885-5.826,5.6,12.25,5.6,12.25Z" transform="translate(-154.686 -140.736)" fill="#e6ad83" fill-rule="evenodd"/>
      <path id="Path_952" data-name="Path 952" d="M419.612,393.117a.283.283,0,0,0-.088.39.277.277,0,0,0,.39.082c1.628-1.037,2.835-1.835,3.771-2.445,2.646-1.747,2.772-1.835,3.18-1.219a.289.289,0,0,0,.39.082.283.283,0,0,0,.094-.409c-.723-1.081-.867-.98-3.96,1.069C422.422,391.294,421.2,392.112,419.612,393.117Z" transform="translate(-155.827 -144.484)" fill="#d7766d" fill-rule="evenodd"/>
      <path id="Path_953" data-name="Path 953" d="M417.465,388.43a.283.283,0,1,0,.3.478l1.433-.918c5.267-3.363,6.983-4.456,7.542-3.652a.289.289,0,0,0,.4.082.283.283,0,0,0,.075-.39c-.842-1.257-2.671-.1-8.29,3.488Z" transform="translate(-155.025 -142.486)" fill="#d7766d" fill-rule="evenodd"/>
      <path id="Path_954" data-name="Path 954" d="M441.455,392.136a.276.276,0,0,0-.358-.176.283.283,0,0,0-.176.358l2.872,6.631a.283.283,0,1,0,.534-.182Z" transform="translate(-163.787 -145.608)" fill="#d7766d" fill-rule="evenodd"/>
    </g>
  </g>
</svg>
